M48
; DRILL file {KiCad 8.0.8} date 2025-02-08T14:05:02+1030
; FORMAT={-:-/ absolute / metric / decimal}
; #@! TF.CreationDate,2025-02-08T14:05:02+10:30
; #@! TF.GenerationSoftware,Kicad,Pcbnew,8.0.8
; #@! TF.FileFunction,Plated,1,2,PTH
FMAT,2
METRIC
; #@! TA.AperFunction,Plated,PTH,ViaDrill
T1C0.400
; #@! TA.AperFunction,Plated,PTH,ComponentDrill
T2C1.000
; #@! TA.AperFunction,Plated,PTH,ComponentDrill
T3C3.200
%
G90
G05
T1
X86.995Y-72.009
X88.265Y-82.169
X90.805Y-84.709
X93.599Y-81.661
X93.853Y-51.689
X93.853Y-56.769
X94.615Y-92.964
X95.885Y-52.264
X96.52Y-61.595
X96.52Y-64.135
X96.901Y-67.945
X97.663Y-53.975
X99.06Y-92.824
X100.825Y-77.369
X100.965Y-79.784
X101.727Y-56.261
X102.87Y-92.824
X102.984Y-54.229
X104.775Y-67.691
X108.585Y-70.739
X112.396Y-48.611
X113.411Y-52.197
X113.411Y-61.849
X114.186Y-63.119
X127.127Y-45.339
X132.334Y-45.593
T2
X75.565Y-44.069
X75.565Y-49.149
X75.565Y-51.689
X75.565Y-54.229
X75.565Y-56.769
X75.565Y-59.309
X75.565Y-61.849
X75.565Y-64.389
X75.565Y-66.929
X75.565Y-69.469
X75.565Y-72.009
X75.565Y-74.549
X75.565Y-77.089
X75.565Y-79.629
X75.565Y-82.169
X75.565Y-84.709
X75.565Y-87.249
X75.565Y-89.789
X75.565Y-92.329
X75.565Y-94.869
X75.565Y-97.409
X78.105Y-44.069
X78.105Y-49.149
X78.105Y-51.689
X78.105Y-54.229
X78.105Y-56.769
X78.105Y-59.309
X78.105Y-61.849
X78.105Y-64.389
X78.105Y-66.929
X78.105Y-69.469
X78.105Y-72.009
X78.105Y-74.549
X78.105Y-77.089
X78.105Y-79.629
X78.105Y-82.169
X78.105Y-84.709
X78.105Y-87.249
X78.105Y-89.789
X78.105Y-92.329
X78.105Y-94.869
X78.105Y-97.409
X80.645Y-44.069
X83.185Y-44.069
X83.185Y-49.149
X83.185Y-51.689
X83.185Y-54.229
X83.185Y-56.769
X83.185Y-59.309
X83.185Y-61.849
X83.185Y-64.389
X83.185Y-66.929
X83.185Y-69.469
X83.185Y-72.009
X83.185Y-74.549
X83.185Y-77.089
X83.185Y-79.629
X83.185Y-82.169
X83.185Y-84.709
X83.185Y-87.249
X83.185Y-89.789
X83.185Y-92.329
X83.185Y-94.869
X83.185Y-97.409
X85.725Y-49.149
X85.725Y-51.689
X85.725Y-54.229
X85.725Y-56.769
X85.725Y-59.309
X85.725Y-61.849
X85.725Y-64.389
X85.725Y-66.929
X85.725Y-69.469
X85.725Y-72.009
X85.725Y-74.549
X85.725Y-77.089
X85.725Y-79.629
X85.725Y-82.169
X85.725Y-84.709
X85.725Y-87.249
X85.725Y-89.789
X85.725Y-92.329
X85.725Y-94.869
X85.725Y-97.409
X89.535Y-43.053
X89.535Y-45.593
X89.54Y-94.869
X89.54Y-97.409
X92.075Y-43.053
X92.075Y-45.593
X92.08Y-94.869
X92.08Y-97.409
X94.615Y-43.053
X94.615Y-45.593
X94.62Y-94.869
X94.62Y-97.409
X95.25Y-84.836
X97.155Y-43.053
X97.155Y-45.593
X97.16Y-94.869
X97.16Y-97.409
X99.06Y-84.836
X99.187Y-60.833
X99.695Y-43.053
X99.695Y-45.593
X99.7Y-94.869
X99.7Y-97.409
X101.727Y-60.833
X102.235Y-43.053
X102.235Y-45.593
X102.24Y-94.869
X102.24Y-97.409
X102.87Y-84.836
X104.775Y-43.053
X104.775Y-45.593
X104.78Y-94.869
X104.78Y-97.409
X106.807Y-61.849
X107.315Y-43.053
X107.315Y-45.593
X107.315Y-77.724
X109.347Y-61.849
X109.855Y-43.053
X109.855Y-45.593
X109.855Y-77.724
X114.427Y-44.069
X115.565Y-49.149
X115.565Y-51.689
X115.565Y-54.229
X115.565Y-56.769
X115.565Y-59.309
X115.565Y-61.849
X115.565Y-64.389
X115.565Y-66.929
X115.565Y-69.469
X115.565Y-72.009
X115.565Y-74.549
X115.565Y-77.089
X115.565Y-79.629
X115.565Y-82.169
X115.565Y-84.709
X115.565Y-87.249
X115.565Y-89.789
X115.565Y-92.329
X115.565Y-94.869
X115.565Y-97.409
X116.967Y-44.069
X118.105Y-49.149
X118.105Y-51.689
X118.105Y-54.229
X118.105Y-56.769
X118.105Y-59.309
X118.105Y-61.849
X118.105Y-64.389
X118.105Y-66.929
X118.105Y-69.469
X118.105Y-72.009
X118.105Y-74.549
X118.105Y-77.089
X118.105Y-79.629
X118.105Y-82.169
X118.105Y-84.709
X118.105Y-87.249
X118.105Y-89.789
X118.105Y-92.329
X118.105Y-94.869
X118.105Y-97.409
X119.507Y-44.069
X122.047Y-44.069
X123.185Y-49.149
X123.185Y-51.689
X123.185Y-54.229
X123.185Y-56.769
X123.185Y-59.309
X123.185Y-61.849
X123.185Y-64.389
X123.185Y-66.929
X123.185Y-69.469
X123.185Y-72.009
X123.185Y-74.549
X123.185Y-77.089
X123.185Y-79.629
X123.185Y-82.169
X123.185Y-84.709
X123.185Y-87.249
X123.185Y-89.789
X123.185Y-92.329
X123.185Y-94.869
X123.185Y-97.409
X125.725Y-49.149
X125.725Y-51.689
X125.725Y-54.229
X125.725Y-56.769
X125.725Y-59.309
X125.725Y-61.849
X125.725Y-64.389
X125.725Y-66.929
X125.725Y-69.469
X125.725Y-72.009
X125.725Y-74.549
X125.725Y-77.089
X125.725Y-79.629
X125.725Y-82.169
X125.725Y-84.709
X125.725Y-87.249
X125.725Y-89.789
X125.725Y-92.329
X125.725Y-94.869
X125.725Y-97.409
X133.223Y-50.659
X133.223Y-52.949
X133.223Y-55.239
X133.223Y-57.529
X133.223Y-59.819
X135.763Y-49.514
X135.763Y-51.804
X135.763Y-54.094
X135.763Y-56.384
X135.763Y-58.674
X138.303Y-50.659
X138.303Y-52.949
X138.303Y-55.239
X138.303Y-57.529
X138.303Y-59.819
T3
X135.833Y-42.474
X135.833Y-67.474
M30
