%TF.GenerationSoftware,KiCad,Pcbnew,8.0.8*%
%TF.CreationDate,2025-02-08T14:05:12+10:30*%
%TF.ProjectId,tt06-vga-interposer,74743036-2d76-4676-912d-696e74657270,rev?*%
%TF.SameCoordinates,Original*%
%TF.FileFunction,Drillmap*%
%TF.FilePolarity,Positive*%
%FSLAX45Y45*%
G04 Gerber Fmt 4.5, Leading zero omitted, Abs format (unit mm)*
G04 Created by KiCad (PCBNEW 8.0.8) date 2025-02-08 14:05:12*
%MOMM*%
%LPD*%
G01*
G04 APERTURE LIST*
%ADD10C,0.200000*%
G04 APERTURE END LIST*
D10*
X12763500Y-7302500D02*
G75*
G02*
X12890500Y-7175500I127000J0D01*
G01*
X11303000Y-4064000D02*
X7493000Y-4064000D01*
X12763500Y-9842500D02*
X12763500Y-7302500D01*
X7366000Y-4191000D02*
X7366000Y-9842500D01*
X12890500Y-7175500D02*
X14605000Y-7175500D01*
X12763500Y-9842500D02*
G75*
G02*
X12636500Y-9969500I-127000J0D01*
G01*
X7493000Y-9969500D02*
X12636500Y-9969500D01*
X14605000Y-3810000D02*
X11430000Y-3810000D01*
X7493000Y-9969500D02*
G75*
G02*
X7366000Y-9842500I0J127000D01*
G01*
X7366000Y-4191000D02*
G75*
G02*
X7493000Y-4064000I127000J0D01*
G01*
X11430000Y-3937000D02*
G75*
G02*
X11303000Y-4064000I-127000J0D01*
G01*
X11430000Y-3810000D02*
X11430000Y-3937000D01*
X14605000Y-7175500D02*
X14605000Y-3810000D01*
X7616777Y-10290984D02*
X7616777Y-10090984D01*
X7616777Y-10090984D02*
X7664396Y-10090984D01*
X7664396Y-10090984D02*
X7692967Y-10100508D01*
X7692967Y-10100508D02*
X7712015Y-10119555D01*
X7712015Y-10119555D02*
X7721539Y-10138603D01*
X7721539Y-10138603D02*
X7731062Y-10176698D01*
X7731062Y-10176698D02*
X7731062Y-10205270D01*
X7731062Y-10205270D02*
X7721539Y-10243365D01*
X7721539Y-10243365D02*
X7712015Y-10262412D01*
X7712015Y-10262412D02*
X7692967Y-10281460D01*
X7692967Y-10281460D02*
X7664396Y-10290984D01*
X7664396Y-10290984D02*
X7616777Y-10290984D01*
X7816777Y-10290984D02*
X7816777Y-10157650D01*
X7816777Y-10195746D02*
X7826301Y-10176698D01*
X7826301Y-10176698D02*
X7835824Y-10167174D01*
X7835824Y-10167174D02*
X7854872Y-10157650D01*
X7854872Y-10157650D02*
X7873920Y-10157650D01*
X7940586Y-10290984D02*
X7940586Y-10157650D01*
X7940586Y-10090984D02*
X7931062Y-10100508D01*
X7931062Y-10100508D02*
X7940586Y-10110031D01*
X7940586Y-10110031D02*
X7950110Y-10100508D01*
X7950110Y-10100508D02*
X7940586Y-10090984D01*
X7940586Y-10090984D02*
X7940586Y-10110031D01*
X8064396Y-10290984D02*
X8045348Y-10281460D01*
X8045348Y-10281460D02*
X8035824Y-10262412D01*
X8035824Y-10262412D02*
X8035824Y-10090984D01*
X8169158Y-10290984D02*
X8150110Y-10281460D01*
X8150110Y-10281460D02*
X8140586Y-10262412D01*
X8140586Y-10262412D02*
X8140586Y-10090984D01*
X8397729Y-10290984D02*
X8397729Y-10090984D01*
X8397729Y-10090984D02*
X8464396Y-10233841D01*
X8464396Y-10233841D02*
X8531063Y-10090984D01*
X8531063Y-10090984D02*
X8531063Y-10290984D01*
X8712015Y-10290984D02*
X8712015Y-10186222D01*
X8712015Y-10186222D02*
X8702491Y-10167174D01*
X8702491Y-10167174D02*
X8683444Y-10157650D01*
X8683444Y-10157650D02*
X8645348Y-10157650D01*
X8645348Y-10157650D02*
X8626301Y-10167174D01*
X8712015Y-10281460D02*
X8692967Y-10290984D01*
X8692967Y-10290984D02*
X8645348Y-10290984D01*
X8645348Y-10290984D02*
X8626301Y-10281460D01*
X8626301Y-10281460D02*
X8616777Y-10262412D01*
X8616777Y-10262412D02*
X8616777Y-10243365D01*
X8616777Y-10243365D02*
X8626301Y-10224317D01*
X8626301Y-10224317D02*
X8645348Y-10214793D01*
X8645348Y-10214793D02*
X8692967Y-10214793D01*
X8692967Y-10214793D02*
X8712015Y-10205270D01*
X8807253Y-10157650D02*
X8807253Y-10357650D01*
X8807253Y-10167174D02*
X8826301Y-10157650D01*
X8826301Y-10157650D02*
X8864396Y-10157650D01*
X8864396Y-10157650D02*
X8883444Y-10167174D01*
X8883444Y-10167174D02*
X8892967Y-10176698D01*
X8892967Y-10176698D02*
X8902491Y-10195746D01*
X8902491Y-10195746D02*
X8902491Y-10252889D01*
X8902491Y-10252889D02*
X8892967Y-10271936D01*
X8892967Y-10271936D02*
X8883444Y-10281460D01*
X8883444Y-10281460D02*
X8864396Y-10290984D01*
X8864396Y-10290984D02*
X8826301Y-10290984D01*
X8826301Y-10290984D02*
X8807253Y-10281460D01*
X8988205Y-10271936D02*
X8997729Y-10281460D01*
X8997729Y-10281460D02*
X8988205Y-10290984D01*
X8988205Y-10290984D02*
X8978682Y-10281460D01*
X8978682Y-10281460D02*
X8988205Y-10271936D01*
X8988205Y-10271936D02*
X8988205Y-10290984D01*
X8988205Y-10167174D02*
X8997729Y-10176698D01*
X8997729Y-10176698D02*
X8988205Y-10186222D01*
X8988205Y-10186222D02*
X8978682Y-10176698D01*
X8978682Y-10176698D02*
X8988205Y-10167174D01*
X8988205Y-10167174D02*
X8988205Y-10186222D01*
M02*
