G04 #@! TF.GenerationSoftware,KiCad,Pcbnew,8.0.8*
G04 #@! TF.CreationDate,2025-02-08T14:03:33+10:30*
G04 #@! TF.ProjectId,tt06-vga-interposer,74743036-2d76-4676-912d-696e74657270,rev?*
G04 #@! TF.SameCoordinates,Original*
G04 #@! TF.FileFunction,Soldermask,Bot*
G04 #@! TF.FilePolarity,Negative*
%FSLAX46Y46*%
G04 Gerber Fmt 4.6, Leading zero omitted, Abs format (unit mm)*
G04 Created by KiCad (PCBNEW 8.0.8) date 2025-02-08 14:03:33*
%MOMM*%
%LPD*%
G01*
G04 APERTURE LIST*
G04 Aperture macros list*
%AMRoundRect*
0 Rectangle with rounded corners*
0 $1 Rounding radius*
0 $2 $3 $4 $5 $6 $7 $8 $9 X,Y pos of 4 corners*
0 Add a 4 corners polygon primitive as box body*
4,1,4,$2,$3,$4,$5,$6,$7,$8,$9,$2,$3,0*
0 Add four circle primitives for the rounded corners*
1,1,$1+$1,$2,$3*
1,1,$1+$1,$4,$5*
1,1,$1+$1,$6,$7*
1,1,$1+$1,$8,$9*
0 Add four rect primitives between the rounded corners*
20,1,$1+$1,$2,$3,$4,$5,0*
20,1,$1+$1,$4,$5,$6,$7,0*
20,1,$1+$1,$6,$7,$8,$9,0*
20,1,$1+$1,$8,$9,$2,$3,0*%
%AMFreePoly0*
4,1,17,-0.500000,0.000000,-0.488573,0.106283,-0.438839,0.239624,-0.353553,0.353553,-0.239624,0.438839,-0.106283,0.488573,0.000000,0.500000,0.500000,0.500000,0.500000,-0.500000,0.000000,-0.500000,-0.106283,-0.488573,-0.239624,-0.438839,-0.353553,-0.353553,-0.438839,-0.239624,-0.488573,-0.106283,-0.500000,0.000000,-0.500000,0.000000,-0.500000,0.000000,$1*%
%AMFreePoly1*
4,1,16,-0.500000,0.500000,0.000000,0.500000,0.106283,0.488573,0.239624,0.438839,0.353553,0.353553,0.438839,0.239624,0.488573,0.106283,0.500000,0.000000,0.488573,-0.106283,0.438839,-0.239624,0.353553,-0.353553,0.239624,-0.438839,0.106283,-0.488573,0.000000,-0.500000,-0.500000,-0.500000,-0.500000,0.500000,-0.500000,0.500000,$1*%
G04 Aperture macros list end*
%ADD10R,1.700000X1.700000*%
%ADD11O,1.700000X1.700000*%
%ADD12RoundRect,1.000000X2.250000X-1.500000X2.250000X1.500000X-2.250000X1.500000X-2.250000X-1.500000X0*%
%ADD13R,1.600000X1.600000*%
%ADD14C,1.600000*%
%ADD15FreePoly0,0.000000*%
%ADD16FreePoly1,0.000000*%
%ADD17RoundRect,0.396226X0.953774X-0.653774X0.953774X0.653774X-0.953774X0.653774X-0.953774X-0.653774X0*%
G04 APERTURE END LIST*
G36*
X80495000Y-82669000D02*
G01*
X80795000Y-82669000D01*
X80795000Y-81669000D01*
X80495000Y-81669000D01*
X80495000Y-82669000D01*
G37*
G36*
X80495000Y-72509000D02*
G01*
X80795000Y-72509000D01*
X80795000Y-71509000D01*
X80495000Y-71509000D01*
X80495000Y-72509000D01*
G37*
G36*
X120500000Y-62349000D02*
G01*
X120800000Y-62349000D01*
X120800000Y-61349000D01*
X120500000Y-61349000D01*
X120500000Y-62349000D01*
G37*
G36*
X120500000Y-57269000D02*
G01*
X120800000Y-57269000D01*
X120800000Y-56269000D01*
X120500000Y-56269000D01*
X120500000Y-57269000D01*
G37*
G36*
X80495000Y-77589000D02*
G01*
X80795000Y-77589000D01*
X80795000Y-76589000D01*
X80495000Y-76589000D01*
X80495000Y-77589000D01*
G37*
G36*
X120500000Y-67429000D02*
G01*
X120800000Y-67429000D01*
X120800000Y-66429000D01*
X120500000Y-66429000D01*
X120500000Y-67429000D01*
G37*
G36*
X120500000Y-59809000D02*
G01*
X120800000Y-59809000D01*
X120800000Y-58809000D01*
X120500000Y-58809000D01*
X120500000Y-59809000D01*
G37*
G36*
X120500000Y-54729000D02*
G01*
X120800000Y-54729000D01*
X120800000Y-53729000D01*
X120500000Y-53729000D01*
X120500000Y-54729000D01*
G37*
G36*
X80495000Y-85209000D02*
G01*
X80795000Y-85209000D01*
X80795000Y-84209000D01*
X80495000Y-84209000D01*
X80495000Y-85209000D01*
G37*
G36*
X120500000Y-64889000D02*
G01*
X120800000Y-64889000D01*
X120800000Y-63889000D01*
X120500000Y-63889000D01*
X120500000Y-64889000D01*
G37*
G36*
X80495000Y-80129000D02*
G01*
X80795000Y-80129000D01*
X80795000Y-79129000D01*
X80495000Y-79129000D01*
X80495000Y-80129000D01*
G37*
G36*
X80480000Y-75049000D02*
G01*
X80780000Y-75049000D01*
X80780000Y-74049000D01*
X80480000Y-74049000D01*
X80480000Y-75049000D01*
G37*
D10*
X99060000Y-84836000D03*
X109347000Y-61849000D03*
D11*
X106807000Y-61849000D03*
D10*
X75565000Y-44069000D03*
D11*
X78105000Y-44069000D03*
X80645000Y-44069000D03*
X83185000Y-44069000D03*
D10*
X104780000Y-94869000D03*
D11*
X104780000Y-97409000D03*
X102240000Y-94869000D03*
X102240000Y-97409000D03*
X99700000Y-94869000D03*
X99700000Y-97409000D03*
X97160000Y-94869000D03*
X97160000Y-97409000D03*
X94620000Y-94869000D03*
X94620000Y-97409000D03*
X92080000Y-94869000D03*
X92080000Y-97409000D03*
X89540000Y-94869000D03*
X89540000Y-97409000D03*
D10*
X101727000Y-60833000D03*
D11*
X99187000Y-60833000D03*
D10*
X89535000Y-45593000D03*
D11*
X89535000Y-43053000D03*
X92075000Y-45593000D03*
X92075000Y-43053000D03*
X94615000Y-45593000D03*
X94615000Y-43053000D03*
X97155000Y-45593000D03*
X97155000Y-43053000D03*
X99695000Y-45593000D03*
X99695000Y-43053000D03*
X102235000Y-45593000D03*
X102235000Y-43053000D03*
X104775000Y-45593000D03*
X104775000Y-43053000D03*
X107315000Y-45593000D03*
X107315000Y-43053000D03*
X109855000Y-45593000D03*
X109855000Y-43053000D03*
D10*
X102870000Y-84836000D03*
X114427000Y-44069000D03*
D11*
X116967000Y-44069000D03*
X119507000Y-44069000D03*
X122047000Y-44069000D03*
D10*
X123185000Y-49149000D03*
D11*
X125725000Y-49149000D03*
X123185000Y-51689000D03*
X125725000Y-51689000D03*
X123185000Y-54229000D03*
X125725000Y-54229000D03*
X123185000Y-56769000D03*
X125725000Y-56769000D03*
X123185000Y-59309000D03*
X125725000Y-59309000D03*
X123185000Y-61849000D03*
X125725000Y-61849000D03*
X123185000Y-64389000D03*
X125725000Y-64389000D03*
X123185000Y-66929000D03*
X125725000Y-66929000D03*
X123185000Y-69469000D03*
X125725000Y-69469000D03*
X123185000Y-72009000D03*
X125725000Y-72009000D03*
X123185000Y-74549000D03*
X125725000Y-74549000D03*
X123185000Y-77089000D03*
X125725000Y-77089000D03*
X123185000Y-79629000D03*
X125725000Y-79629000D03*
X123185000Y-82169000D03*
X125725000Y-82169000D03*
X123185000Y-84709000D03*
X125725000Y-84709000D03*
X123185000Y-87249000D03*
X125725000Y-87249000D03*
X123185000Y-89789000D03*
X125725000Y-89789000D03*
X123185000Y-92329000D03*
X125725000Y-92329000D03*
X123185000Y-94869000D03*
X125725000Y-94869000D03*
X123185000Y-97409000D03*
X125725000Y-97409000D03*
D10*
X83185000Y-49149000D03*
D11*
X85725000Y-49149000D03*
X83185000Y-51689000D03*
X85725000Y-51689000D03*
X83185000Y-54229000D03*
X85725000Y-54229000D03*
X83185000Y-56769000D03*
X85725000Y-56769000D03*
X83185000Y-59309000D03*
X85725000Y-59309000D03*
X83185000Y-61849000D03*
X85725000Y-61849000D03*
X83185000Y-64389000D03*
X85725000Y-64389000D03*
X83185000Y-66929000D03*
X85725000Y-66929000D03*
X83185000Y-69469000D03*
X85725000Y-69469000D03*
X83185000Y-72009000D03*
X85725000Y-72009000D03*
X83185000Y-74549000D03*
X85725000Y-74549000D03*
X83185000Y-77089000D03*
X85725000Y-77089000D03*
X83185000Y-79629000D03*
X85725000Y-79629000D03*
X83185000Y-82169000D03*
X85725000Y-82169000D03*
X83185000Y-84709000D03*
X85725000Y-84709000D03*
X83185000Y-87249000D03*
X85725000Y-87249000D03*
X83185000Y-89789000D03*
X85725000Y-89789000D03*
X83185000Y-92329000D03*
X85725000Y-92329000D03*
X83185000Y-94869000D03*
X85725000Y-94869000D03*
X83185000Y-97409000D03*
X85725000Y-97409000D03*
D10*
X109855000Y-77724000D03*
D11*
X107315000Y-77724000D03*
D10*
X95250000Y-84836000D03*
D12*
X135833000Y-67474000D03*
X135833000Y-42474000D03*
D13*
X133223000Y-50659000D03*
D14*
X133223000Y-52949000D03*
X133223000Y-55239000D03*
X133223000Y-57529000D03*
X133223000Y-59819000D03*
X135763000Y-49514000D03*
X135763000Y-51804000D03*
X135763000Y-54094000D03*
X135763000Y-56384000D03*
X135763000Y-58674000D03*
X138303000Y-50659000D03*
X138303000Y-52949000D03*
X138303000Y-55239000D03*
X138303000Y-57529000D03*
X138303000Y-59819000D03*
D15*
X79995000Y-82169000D03*
D16*
X81295000Y-82169000D03*
D15*
X79995000Y-72009000D03*
D16*
X81295000Y-72009000D03*
D15*
X120000000Y-61849000D03*
D16*
X121300000Y-61849000D03*
D15*
X120000000Y-56769000D03*
D16*
X121300000Y-56769000D03*
D17*
X95917000Y-56675000D03*
X95917000Y-53975000D03*
D15*
X79995000Y-77089000D03*
D16*
X81295000Y-77089000D03*
D15*
X120000000Y-66929000D03*
D16*
X121300000Y-66929000D03*
D10*
X115565000Y-49149000D03*
D11*
X118105000Y-49149000D03*
X115565000Y-51689000D03*
X118105000Y-51689000D03*
X115565000Y-54229000D03*
X118105000Y-54229000D03*
X115565000Y-56769000D03*
X118105000Y-56769000D03*
X115565000Y-59309000D03*
X118105000Y-59309000D03*
X115565000Y-61849000D03*
X118105000Y-61849000D03*
X115565000Y-64389000D03*
X118105000Y-64389000D03*
X115565000Y-66929000D03*
X118105000Y-66929000D03*
X115565000Y-69469000D03*
X118105000Y-69469000D03*
X115565000Y-72009000D03*
X118105000Y-72009000D03*
X115565000Y-74549000D03*
X118105000Y-74549000D03*
X115565000Y-77089000D03*
X118105000Y-77089000D03*
X115565000Y-79629000D03*
X118105000Y-79629000D03*
X115565000Y-82169000D03*
X118105000Y-82169000D03*
X115565000Y-84709000D03*
X118105000Y-84709000D03*
X115565000Y-87249000D03*
X118105000Y-87249000D03*
X115565000Y-89789000D03*
X118105000Y-89789000D03*
X115565000Y-92329000D03*
X118105000Y-92329000D03*
X115565000Y-94869000D03*
X118105000Y-94869000D03*
X115565000Y-97409000D03*
X118105000Y-97409000D03*
D15*
X120000000Y-59309000D03*
D16*
X121300000Y-59309000D03*
D15*
X120000000Y-54229000D03*
D16*
X121300000Y-54229000D03*
D15*
X79995000Y-84709000D03*
D16*
X81295000Y-84709000D03*
D15*
X120000000Y-64389000D03*
D16*
X121300000Y-64389000D03*
D15*
X79995000Y-79629000D03*
D16*
X81295000Y-79629000D03*
D17*
X102870000Y-79864000D03*
X102870000Y-77164000D03*
X99060000Y-79864000D03*
X99060000Y-77164000D03*
D10*
X75565000Y-49149000D03*
D11*
X78105000Y-49149000D03*
X75565000Y-51689000D03*
X78105000Y-51689000D03*
X75565000Y-54229000D03*
X78105000Y-54229000D03*
X75565000Y-56769000D03*
X78105000Y-56769000D03*
X75565000Y-59309000D03*
X78105000Y-59309000D03*
X75565000Y-61849000D03*
X78105000Y-61849000D03*
X75565000Y-64389000D03*
X78105000Y-64389000D03*
X75565000Y-66929000D03*
X78105000Y-66929000D03*
X75565000Y-69469000D03*
X78105000Y-69469000D03*
X75565000Y-72009000D03*
X78105000Y-72009000D03*
X75565000Y-74549000D03*
X78105000Y-74549000D03*
X75565000Y-77089000D03*
X78105000Y-77089000D03*
X75565000Y-79629000D03*
X78105000Y-79629000D03*
X75565000Y-82169000D03*
X78105000Y-82169000D03*
X75565000Y-84709000D03*
X78105000Y-84709000D03*
X75565000Y-87249000D03*
X78105000Y-87249000D03*
X75565000Y-89789000D03*
X78105000Y-89789000D03*
X75565000Y-92329000D03*
X78105000Y-92329000D03*
X75565000Y-94869000D03*
X78105000Y-94869000D03*
X75565000Y-97409000D03*
X78105000Y-97409000D03*
D17*
X99695000Y-56675000D03*
X99695000Y-53975000D03*
D15*
X79980000Y-74549000D03*
D16*
X81280000Y-74549000D03*
M02*
