%TF.GenerationSoftware,KiCad,Pcbnew,8.0.8*%
%TF.CreationDate,2025-02-08T14:05:12+10:30*%
%TF.ProjectId,tt06-vga-interposer,74743036-2d76-4676-912d-696e74657270,rev?*%
%TF.SameCoordinates,Original*%
%TF.FileFunction,Drillmap*%
%TF.FilePolarity,Positive*%
%FSLAX45Y45*%
G04 Gerber Fmt 4.5, Leading zero omitted, Abs format (unit mm)*
G04 Created by KiCad (PCBNEW 8.0.8) date 2025-02-08 14:05:12*
%MOMM*%
%LPD*%
G01*
G04 APERTURE LIST*
%ADD10C,0.200000*%
%ADD11C,0.100000*%
%ADD12C,0.320000*%
G04 APERTURE END LIST*
D10*
X12763500Y-7302500D02*
G75*
G02*
X12890500Y-7175500I127000J0D01*
G01*
X11303000Y-4064000D02*
X7493000Y-4064000D01*
X12763500Y-9842500D02*
X12763500Y-7302500D01*
X7366000Y-4191000D02*
X7366000Y-9842500D01*
X12890500Y-7175500D02*
X14605000Y-7175500D01*
X12763500Y-9842500D02*
G75*
G02*
X12636500Y-9969500I-127000J0D01*
G01*
X7493000Y-9969500D02*
X12636500Y-9969500D01*
X14605000Y-3810000D02*
X11430000Y-3810000D01*
X7493000Y-9969500D02*
G75*
G02*
X7366000Y-9842500I0J127000D01*
G01*
X7366000Y-4191000D02*
G75*
G02*
X7493000Y-4064000I127000J0D01*
G01*
X11430000Y-3937000D02*
G75*
G02*
X11303000Y-4064000I-127000J0D01*
G01*
X11430000Y-3810000D02*
X11430000Y-3937000D01*
X14605000Y-7175500D02*
X14605000Y-3810000D01*
D11*
X8679500Y-7180900D02*
X8719500Y-7220900D01*
X8719500Y-7180900D02*
X8679500Y-7220900D01*
X8806500Y-8196900D02*
X8846500Y-8236900D01*
X8846500Y-8196900D02*
X8806500Y-8236900D01*
X9060500Y-8450900D02*
X9100500Y-8490900D01*
X9100500Y-8450900D02*
X9060500Y-8490900D01*
X9339900Y-8146100D02*
X9379900Y-8186100D01*
X9379900Y-8146100D02*
X9339900Y-8186100D01*
X9365300Y-5148900D02*
X9405300Y-5188900D01*
X9405300Y-5148900D02*
X9365300Y-5188900D01*
X9365300Y-5656900D02*
X9405300Y-5696900D01*
X9405300Y-5656900D02*
X9365300Y-5696900D01*
X9441500Y-9276400D02*
X9481500Y-9316400D01*
X9481500Y-9276400D02*
X9441500Y-9316400D01*
X9568500Y-5206400D02*
X9608500Y-5246400D01*
X9608500Y-5206400D02*
X9568500Y-5246400D01*
X9632000Y-6139500D02*
X9672000Y-6179500D01*
X9672000Y-6139500D02*
X9632000Y-6179500D01*
X9632000Y-6393500D02*
X9672000Y-6433500D01*
X9672000Y-6393500D02*
X9632000Y-6433500D01*
X9670100Y-6774500D02*
X9710100Y-6814500D01*
X9710100Y-6774500D02*
X9670100Y-6814500D01*
X9746300Y-5377500D02*
X9786300Y-5417500D01*
X9786300Y-5377500D02*
X9746300Y-5417500D01*
X9886000Y-9262400D02*
X9926000Y-9302400D01*
X9926000Y-9262400D02*
X9886000Y-9302400D01*
X10062500Y-7716927D02*
X10102500Y-7756927D01*
X10102500Y-7716927D02*
X10062500Y-7756927D01*
X10076500Y-7958400D02*
X10116500Y-7998400D01*
X10116500Y-7958400D02*
X10076500Y-7998400D01*
X10152700Y-5606100D02*
X10192700Y-5646100D01*
X10192700Y-5606100D02*
X10152700Y-5646100D01*
X10267000Y-9262400D02*
X10307000Y-9302400D01*
X10307000Y-9262400D02*
X10267000Y-9302400D01*
X10278400Y-5402900D02*
X10318400Y-5442900D01*
X10318400Y-5402900D02*
X10278400Y-5442900D01*
X10457500Y-6749100D02*
X10497500Y-6789100D01*
X10497500Y-6749100D02*
X10457500Y-6789100D01*
X10838500Y-7053900D02*
X10878500Y-7093900D01*
X10878500Y-7053900D02*
X10838500Y-7093900D01*
X11219626Y-4841118D02*
X11259626Y-4881118D01*
X11259626Y-4841118D02*
X11219626Y-4881118D01*
X11321100Y-5199700D02*
X11361100Y-5239700D01*
X11361100Y-5199700D02*
X11321100Y-5239700D01*
X11321100Y-6164900D02*
X11361100Y-6204900D01*
X11361100Y-6164900D02*
X11321100Y-6204900D01*
X11398600Y-6291900D02*
X11438600Y-6331900D01*
X11438600Y-6291900D02*
X11398600Y-6331900D01*
X12692700Y-4513900D02*
X12732700Y-4553900D01*
X12732700Y-4513900D02*
X12692700Y-4553900D01*
X13213400Y-4539300D02*
X13253400Y-4579300D01*
X13253400Y-4539300D02*
X13213400Y-4579300D01*
X7606500Y-4406900D02*
G75*
G02*
X7506500Y-4406900I-50000J0D01*
G01*
X7506500Y-4406900D02*
G75*
G02*
X7606500Y-4406900I50000J0D01*
G01*
X7606500Y-4914900D02*
G75*
G02*
X7506500Y-4914900I-50000J0D01*
G01*
X7506500Y-4914900D02*
G75*
G02*
X7606500Y-4914900I50000J0D01*
G01*
X7606500Y-5168900D02*
G75*
G02*
X7506500Y-5168900I-50000J0D01*
G01*
X7506500Y-5168900D02*
G75*
G02*
X7606500Y-5168900I50000J0D01*
G01*
X7606500Y-5422900D02*
G75*
G02*
X7506500Y-5422900I-50000J0D01*
G01*
X7506500Y-5422900D02*
G75*
G02*
X7606500Y-5422900I50000J0D01*
G01*
X7606500Y-5676900D02*
G75*
G02*
X7506500Y-5676900I-50000J0D01*
G01*
X7506500Y-5676900D02*
G75*
G02*
X7606500Y-5676900I50000J0D01*
G01*
X7606500Y-5930900D02*
G75*
G02*
X7506500Y-5930900I-50000J0D01*
G01*
X7506500Y-5930900D02*
G75*
G02*
X7606500Y-5930900I50000J0D01*
G01*
X7606500Y-6184900D02*
G75*
G02*
X7506500Y-6184900I-50000J0D01*
G01*
X7506500Y-6184900D02*
G75*
G02*
X7606500Y-6184900I50000J0D01*
G01*
X7606500Y-6438900D02*
G75*
G02*
X7506500Y-6438900I-50000J0D01*
G01*
X7506500Y-6438900D02*
G75*
G02*
X7606500Y-6438900I50000J0D01*
G01*
X7606500Y-6692900D02*
G75*
G02*
X7506500Y-6692900I-50000J0D01*
G01*
X7506500Y-6692900D02*
G75*
G02*
X7606500Y-6692900I50000J0D01*
G01*
X7606500Y-6946900D02*
G75*
G02*
X7506500Y-6946900I-50000J0D01*
G01*
X7506500Y-6946900D02*
G75*
G02*
X7606500Y-6946900I50000J0D01*
G01*
X7606500Y-7200900D02*
G75*
G02*
X7506500Y-7200900I-50000J0D01*
G01*
X7506500Y-7200900D02*
G75*
G02*
X7606500Y-7200900I50000J0D01*
G01*
X7606500Y-7454900D02*
G75*
G02*
X7506500Y-7454900I-50000J0D01*
G01*
X7506500Y-7454900D02*
G75*
G02*
X7606500Y-7454900I50000J0D01*
G01*
X7606500Y-7708900D02*
G75*
G02*
X7506500Y-7708900I-50000J0D01*
G01*
X7506500Y-7708900D02*
G75*
G02*
X7606500Y-7708900I50000J0D01*
G01*
X7606500Y-7962900D02*
G75*
G02*
X7506500Y-7962900I-50000J0D01*
G01*
X7506500Y-7962900D02*
G75*
G02*
X7606500Y-7962900I50000J0D01*
G01*
X7606500Y-8216900D02*
G75*
G02*
X7506500Y-8216900I-50000J0D01*
G01*
X7506500Y-8216900D02*
G75*
G02*
X7606500Y-8216900I50000J0D01*
G01*
X7606500Y-8470900D02*
G75*
G02*
X7506500Y-8470900I-50000J0D01*
G01*
X7506500Y-8470900D02*
G75*
G02*
X7606500Y-8470900I50000J0D01*
G01*
X7606500Y-8724900D02*
G75*
G02*
X7506500Y-8724900I-50000J0D01*
G01*
X7506500Y-8724900D02*
G75*
G02*
X7606500Y-8724900I50000J0D01*
G01*
X7606500Y-8978900D02*
G75*
G02*
X7506500Y-8978900I-50000J0D01*
G01*
X7506500Y-8978900D02*
G75*
G02*
X7606500Y-8978900I50000J0D01*
G01*
X7606500Y-9232900D02*
G75*
G02*
X7506500Y-9232900I-50000J0D01*
G01*
X7506500Y-9232900D02*
G75*
G02*
X7606500Y-9232900I50000J0D01*
G01*
X7606500Y-9486900D02*
G75*
G02*
X7506500Y-9486900I-50000J0D01*
G01*
X7506500Y-9486900D02*
G75*
G02*
X7606500Y-9486900I50000J0D01*
G01*
X7606500Y-9740900D02*
G75*
G02*
X7506500Y-9740900I-50000J0D01*
G01*
X7506500Y-9740900D02*
G75*
G02*
X7606500Y-9740900I50000J0D01*
G01*
X7860500Y-4406900D02*
G75*
G02*
X7760500Y-4406900I-50000J0D01*
G01*
X7760500Y-4406900D02*
G75*
G02*
X7860500Y-4406900I50000J0D01*
G01*
X7860500Y-4914900D02*
G75*
G02*
X7760500Y-4914900I-50000J0D01*
G01*
X7760500Y-4914900D02*
G75*
G02*
X7860500Y-4914900I50000J0D01*
G01*
X7860500Y-5168900D02*
G75*
G02*
X7760500Y-5168900I-50000J0D01*
G01*
X7760500Y-5168900D02*
G75*
G02*
X7860500Y-5168900I50000J0D01*
G01*
X7860500Y-5422900D02*
G75*
G02*
X7760500Y-5422900I-50000J0D01*
G01*
X7760500Y-5422900D02*
G75*
G02*
X7860500Y-5422900I50000J0D01*
G01*
X7860500Y-5676900D02*
G75*
G02*
X7760500Y-5676900I-50000J0D01*
G01*
X7760500Y-5676900D02*
G75*
G02*
X7860500Y-5676900I50000J0D01*
G01*
X7860500Y-5930900D02*
G75*
G02*
X7760500Y-5930900I-50000J0D01*
G01*
X7760500Y-5930900D02*
G75*
G02*
X7860500Y-5930900I50000J0D01*
G01*
X7860500Y-6184900D02*
G75*
G02*
X7760500Y-6184900I-50000J0D01*
G01*
X7760500Y-6184900D02*
G75*
G02*
X7860500Y-6184900I50000J0D01*
G01*
X7860500Y-6438900D02*
G75*
G02*
X7760500Y-6438900I-50000J0D01*
G01*
X7760500Y-6438900D02*
G75*
G02*
X7860500Y-6438900I50000J0D01*
G01*
X7860500Y-6692900D02*
G75*
G02*
X7760500Y-6692900I-50000J0D01*
G01*
X7760500Y-6692900D02*
G75*
G02*
X7860500Y-6692900I50000J0D01*
G01*
X7860500Y-6946900D02*
G75*
G02*
X7760500Y-6946900I-50000J0D01*
G01*
X7760500Y-6946900D02*
G75*
G02*
X7860500Y-6946900I50000J0D01*
G01*
X7860500Y-7200900D02*
G75*
G02*
X7760500Y-7200900I-50000J0D01*
G01*
X7760500Y-7200900D02*
G75*
G02*
X7860500Y-7200900I50000J0D01*
G01*
X7860500Y-7454900D02*
G75*
G02*
X7760500Y-7454900I-50000J0D01*
G01*
X7760500Y-7454900D02*
G75*
G02*
X7860500Y-7454900I50000J0D01*
G01*
X7860500Y-7708900D02*
G75*
G02*
X7760500Y-7708900I-50000J0D01*
G01*
X7760500Y-7708900D02*
G75*
G02*
X7860500Y-7708900I50000J0D01*
G01*
X7860500Y-7962900D02*
G75*
G02*
X7760500Y-7962900I-50000J0D01*
G01*
X7760500Y-7962900D02*
G75*
G02*
X7860500Y-7962900I50000J0D01*
G01*
X7860500Y-8216900D02*
G75*
G02*
X7760500Y-8216900I-50000J0D01*
G01*
X7760500Y-8216900D02*
G75*
G02*
X7860500Y-8216900I50000J0D01*
G01*
X7860500Y-8470900D02*
G75*
G02*
X7760500Y-8470900I-50000J0D01*
G01*
X7760500Y-8470900D02*
G75*
G02*
X7860500Y-8470900I50000J0D01*
G01*
X7860500Y-8724900D02*
G75*
G02*
X7760500Y-8724900I-50000J0D01*
G01*
X7760500Y-8724900D02*
G75*
G02*
X7860500Y-8724900I50000J0D01*
G01*
X7860500Y-8978900D02*
G75*
G02*
X7760500Y-8978900I-50000J0D01*
G01*
X7760500Y-8978900D02*
G75*
G02*
X7860500Y-8978900I50000J0D01*
G01*
X7860500Y-9232900D02*
G75*
G02*
X7760500Y-9232900I-50000J0D01*
G01*
X7760500Y-9232900D02*
G75*
G02*
X7860500Y-9232900I50000J0D01*
G01*
X7860500Y-9486900D02*
G75*
G02*
X7760500Y-9486900I-50000J0D01*
G01*
X7760500Y-9486900D02*
G75*
G02*
X7860500Y-9486900I50000J0D01*
G01*
X7860500Y-9740900D02*
G75*
G02*
X7760500Y-9740900I-50000J0D01*
G01*
X7760500Y-9740900D02*
G75*
G02*
X7860500Y-9740900I50000J0D01*
G01*
X8114500Y-4406900D02*
G75*
G02*
X8014500Y-4406900I-50000J0D01*
G01*
X8014500Y-4406900D02*
G75*
G02*
X8114500Y-4406900I50000J0D01*
G01*
X8368500Y-4406900D02*
G75*
G02*
X8268500Y-4406900I-50000J0D01*
G01*
X8268500Y-4406900D02*
G75*
G02*
X8368500Y-4406900I50000J0D01*
G01*
X8368500Y-4914900D02*
G75*
G02*
X8268500Y-4914900I-50000J0D01*
G01*
X8268500Y-4914900D02*
G75*
G02*
X8368500Y-4914900I50000J0D01*
G01*
X8368500Y-5168900D02*
G75*
G02*
X8268500Y-5168900I-50000J0D01*
G01*
X8268500Y-5168900D02*
G75*
G02*
X8368500Y-5168900I50000J0D01*
G01*
X8368500Y-5422900D02*
G75*
G02*
X8268500Y-5422900I-50000J0D01*
G01*
X8268500Y-5422900D02*
G75*
G02*
X8368500Y-5422900I50000J0D01*
G01*
X8368500Y-5676900D02*
G75*
G02*
X8268500Y-5676900I-50000J0D01*
G01*
X8268500Y-5676900D02*
G75*
G02*
X8368500Y-5676900I50000J0D01*
G01*
X8368500Y-5930900D02*
G75*
G02*
X8268500Y-5930900I-50000J0D01*
G01*
X8268500Y-5930900D02*
G75*
G02*
X8368500Y-5930900I50000J0D01*
G01*
X8368500Y-6184900D02*
G75*
G02*
X8268500Y-6184900I-50000J0D01*
G01*
X8268500Y-6184900D02*
G75*
G02*
X8368500Y-6184900I50000J0D01*
G01*
X8368500Y-6438900D02*
G75*
G02*
X8268500Y-6438900I-50000J0D01*
G01*
X8268500Y-6438900D02*
G75*
G02*
X8368500Y-6438900I50000J0D01*
G01*
X8368500Y-6692900D02*
G75*
G02*
X8268500Y-6692900I-50000J0D01*
G01*
X8268500Y-6692900D02*
G75*
G02*
X8368500Y-6692900I50000J0D01*
G01*
X8368500Y-6946900D02*
G75*
G02*
X8268500Y-6946900I-50000J0D01*
G01*
X8268500Y-6946900D02*
G75*
G02*
X8368500Y-6946900I50000J0D01*
G01*
X8368500Y-7200900D02*
G75*
G02*
X8268500Y-7200900I-50000J0D01*
G01*
X8268500Y-7200900D02*
G75*
G02*
X8368500Y-7200900I50000J0D01*
G01*
X8368500Y-7454900D02*
G75*
G02*
X8268500Y-7454900I-50000J0D01*
G01*
X8268500Y-7454900D02*
G75*
G02*
X8368500Y-7454900I50000J0D01*
G01*
X8368500Y-7708900D02*
G75*
G02*
X8268500Y-7708900I-50000J0D01*
G01*
X8268500Y-7708900D02*
G75*
G02*
X8368500Y-7708900I50000J0D01*
G01*
X8368500Y-7962900D02*
G75*
G02*
X8268500Y-7962900I-50000J0D01*
G01*
X8268500Y-7962900D02*
G75*
G02*
X8368500Y-7962900I50000J0D01*
G01*
X8368500Y-8216900D02*
G75*
G02*
X8268500Y-8216900I-50000J0D01*
G01*
X8268500Y-8216900D02*
G75*
G02*
X8368500Y-8216900I50000J0D01*
G01*
X8368500Y-8470900D02*
G75*
G02*
X8268500Y-8470900I-50000J0D01*
G01*
X8268500Y-8470900D02*
G75*
G02*
X8368500Y-8470900I50000J0D01*
G01*
X8368500Y-8724900D02*
G75*
G02*
X8268500Y-8724900I-50000J0D01*
G01*
X8268500Y-8724900D02*
G75*
G02*
X8368500Y-8724900I50000J0D01*
G01*
X8368500Y-8978900D02*
G75*
G02*
X8268500Y-8978900I-50000J0D01*
G01*
X8268500Y-8978900D02*
G75*
G02*
X8368500Y-8978900I50000J0D01*
G01*
X8368500Y-9232900D02*
G75*
G02*
X8268500Y-9232900I-50000J0D01*
G01*
X8268500Y-9232900D02*
G75*
G02*
X8368500Y-9232900I50000J0D01*
G01*
X8368500Y-9486900D02*
G75*
G02*
X8268500Y-9486900I-50000J0D01*
G01*
X8268500Y-9486900D02*
G75*
G02*
X8368500Y-9486900I50000J0D01*
G01*
X8368500Y-9740900D02*
G75*
G02*
X8268500Y-9740900I-50000J0D01*
G01*
X8268500Y-9740900D02*
G75*
G02*
X8368500Y-9740900I50000J0D01*
G01*
X8622500Y-4914900D02*
G75*
G02*
X8522500Y-4914900I-50000J0D01*
G01*
X8522500Y-4914900D02*
G75*
G02*
X8622500Y-4914900I50000J0D01*
G01*
X8622500Y-5168900D02*
G75*
G02*
X8522500Y-5168900I-50000J0D01*
G01*
X8522500Y-5168900D02*
G75*
G02*
X8622500Y-5168900I50000J0D01*
G01*
X8622500Y-5422900D02*
G75*
G02*
X8522500Y-5422900I-50000J0D01*
G01*
X8522500Y-5422900D02*
G75*
G02*
X8622500Y-5422900I50000J0D01*
G01*
X8622500Y-5676900D02*
G75*
G02*
X8522500Y-5676900I-50000J0D01*
G01*
X8522500Y-5676900D02*
G75*
G02*
X8622500Y-5676900I50000J0D01*
G01*
X8622500Y-5930900D02*
G75*
G02*
X8522500Y-5930900I-50000J0D01*
G01*
X8522500Y-5930900D02*
G75*
G02*
X8622500Y-5930900I50000J0D01*
G01*
X8622500Y-6184900D02*
G75*
G02*
X8522500Y-6184900I-50000J0D01*
G01*
X8522500Y-6184900D02*
G75*
G02*
X8622500Y-6184900I50000J0D01*
G01*
X8622500Y-6438900D02*
G75*
G02*
X8522500Y-6438900I-50000J0D01*
G01*
X8522500Y-6438900D02*
G75*
G02*
X8622500Y-6438900I50000J0D01*
G01*
X8622500Y-6692900D02*
G75*
G02*
X8522500Y-6692900I-50000J0D01*
G01*
X8522500Y-6692900D02*
G75*
G02*
X8622500Y-6692900I50000J0D01*
G01*
X8622500Y-6946900D02*
G75*
G02*
X8522500Y-6946900I-50000J0D01*
G01*
X8522500Y-6946900D02*
G75*
G02*
X8622500Y-6946900I50000J0D01*
G01*
X8622500Y-7200900D02*
G75*
G02*
X8522500Y-7200900I-50000J0D01*
G01*
X8522500Y-7200900D02*
G75*
G02*
X8622500Y-7200900I50000J0D01*
G01*
X8622500Y-7454900D02*
G75*
G02*
X8522500Y-7454900I-50000J0D01*
G01*
X8522500Y-7454900D02*
G75*
G02*
X8622500Y-7454900I50000J0D01*
G01*
X8622500Y-7708900D02*
G75*
G02*
X8522500Y-7708900I-50000J0D01*
G01*
X8522500Y-7708900D02*
G75*
G02*
X8622500Y-7708900I50000J0D01*
G01*
X8622500Y-7962900D02*
G75*
G02*
X8522500Y-7962900I-50000J0D01*
G01*
X8522500Y-7962900D02*
G75*
G02*
X8622500Y-7962900I50000J0D01*
G01*
X8622500Y-8216900D02*
G75*
G02*
X8522500Y-8216900I-50000J0D01*
G01*
X8522500Y-8216900D02*
G75*
G02*
X8622500Y-8216900I50000J0D01*
G01*
X8622500Y-8470900D02*
G75*
G02*
X8522500Y-8470900I-50000J0D01*
G01*
X8522500Y-8470900D02*
G75*
G02*
X8622500Y-8470900I50000J0D01*
G01*
X8622500Y-8724900D02*
G75*
G02*
X8522500Y-8724900I-50000J0D01*
G01*
X8522500Y-8724900D02*
G75*
G02*
X8622500Y-8724900I50000J0D01*
G01*
X8622500Y-8978900D02*
G75*
G02*
X8522500Y-8978900I-50000J0D01*
G01*
X8522500Y-8978900D02*
G75*
G02*
X8622500Y-8978900I50000J0D01*
G01*
X8622500Y-9232900D02*
G75*
G02*
X8522500Y-9232900I-50000J0D01*
G01*
X8522500Y-9232900D02*
G75*
G02*
X8622500Y-9232900I50000J0D01*
G01*
X8622500Y-9486900D02*
G75*
G02*
X8522500Y-9486900I-50000J0D01*
G01*
X8522500Y-9486900D02*
G75*
G02*
X8622500Y-9486900I50000J0D01*
G01*
X8622500Y-9740900D02*
G75*
G02*
X8522500Y-9740900I-50000J0D01*
G01*
X8522500Y-9740900D02*
G75*
G02*
X8622500Y-9740900I50000J0D01*
G01*
X9003500Y-4305300D02*
G75*
G02*
X8903500Y-4305300I-50000J0D01*
G01*
X8903500Y-4305300D02*
G75*
G02*
X9003500Y-4305300I50000J0D01*
G01*
X9003500Y-4559300D02*
G75*
G02*
X8903500Y-4559300I-50000J0D01*
G01*
X8903500Y-4559300D02*
G75*
G02*
X9003500Y-4559300I50000J0D01*
G01*
X9004000Y-9486900D02*
G75*
G02*
X8904000Y-9486900I-50000J0D01*
G01*
X8904000Y-9486900D02*
G75*
G02*
X9004000Y-9486900I50000J0D01*
G01*
X9004000Y-9740900D02*
G75*
G02*
X8904000Y-9740900I-50000J0D01*
G01*
X8904000Y-9740900D02*
G75*
G02*
X9004000Y-9740900I50000J0D01*
G01*
X9257500Y-4305300D02*
G75*
G02*
X9157500Y-4305300I-50000J0D01*
G01*
X9157500Y-4305300D02*
G75*
G02*
X9257500Y-4305300I50000J0D01*
G01*
X9257500Y-4559300D02*
G75*
G02*
X9157500Y-4559300I-50000J0D01*
G01*
X9157500Y-4559300D02*
G75*
G02*
X9257500Y-4559300I50000J0D01*
G01*
X9258000Y-9486900D02*
G75*
G02*
X9158000Y-9486900I-50000J0D01*
G01*
X9158000Y-9486900D02*
G75*
G02*
X9258000Y-9486900I50000J0D01*
G01*
X9258000Y-9740900D02*
G75*
G02*
X9158000Y-9740900I-50000J0D01*
G01*
X9158000Y-9740900D02*
G75*
G02*
X9258000Y-9740900I50000J0D01*
G01*
X9511500Y-4305300D02*
G75*
G02*
X9411500Y-4305300I-50000J0D01*
G01*
X9411500Y-4305300D02*
G75*
G02*
X9511500Y-4305300I50000J0D01*
G01*
X9511500Y-4559300D02*
G75*
G02*
X9411500Y-4559300I-50000J0D01*
G01*
X9411500Y-4559300D02*
G75*
G02*
X9511500Y-4559300I50000J0D01*
G01*
X9512000Y-9486900D02*
G75*
G02*
X9412000Y-9486900I-50000J0D01*
G01*
X9412000Y-9486900D02*
G75*
G02*
X9512000Y-9486900I50000J0D01*
G01*
X9512000Y-9740900D02*
G75*
G02*
X9412000Y-9740900I-50000J0D01*
G01*
X9412000Y-9740900D02*
G75*
G02*
X9512000Y-9740900I50000J0D01*
G01*
X9575000Y-8483600D02*
G75*
G02*
X9475000Y-8483600I-50000J0D01*
G01*
X9475000Y-8483600D02*
G75*
G02*
X9575000Y-8483600I50000J0D01*
G01*
X9765500Y-4305300D02*
G75*
G02*
X9665500Y-4305300I-50000J0D01*
G01*
X9665500Y-4305300D02*
G75*
G02*
X9765500Y-4305300I50000J0D01*
G01*
X9765500Y-4559300D02*
G75*
G02*
X9665500Y-4559300I-50000J0D01*
G01*
X9665500Y-4559300D02*
G75*
G02*
X9765500Y-4559300I50000J0D01*
G01*
X9766000Y-9486900D02*
G75*
G02*
X9666000Y-9486900I-50000J0D01*
G01*
X9666000Y-9486900D02*
G75*
G02*
X9766000Y-9486900I50000J0D01*
G01*
X9766000Y-9740900D02*
G75*
G02*
X9666000Y-9740900I-50000J0D01*
G01*
X9666000Y-9740900D02*
G75*
G02*
X9766000Y-9740900I50000J0D01*
G01*
X9956000Y-8483600D02*
G75*
G02*
X9856000Y-8483600I-50000J0D01*
G01*
X9856000Y-8483600D02*
G75*
G02*
X9956000Y-8483600I50000J0D01*
G01*
X9968700Y-6083300D02*
G75*
G02*
X9868700Y-6083300I-50000J0D01*
G01*
X9868700Y-6083300D02*
G75*
G02*
X9968700Y-6083300I50000J0D01*
G01*
X10019500Y-4305300D02*
G75*
G02*
X9919500Y-4305300I-50000J0D01*
G01*
X9919500Y-4305300D02*
G75*
G02*
X10019500Y-4305300I50000J0D01*
G01*
X10019500Y-4559300D02*
G75*
G02*
X9919500Y-4559300I-50000J0D01*
G01*
X9919500Y-4559300D02*
G75*
G02*
X10019500Y-4559300I50000J0D01*
G01*
X10020000Y-9486900D02*
G75*
G02*
X9920000Y-9486900I-50000J0D01*
G01*
X9920000Y-9486900D02*
G75*
G02*
X10020000Y-9486900I50000J0D01*
G01*
X10020000Y-9740900D02*
G75*
G02*
X9920000Y-9740900I-50000J0D01*
G01*
X9920000Y-9740900D02*
G75*
G02*
X10020000Y-9740900I50000J0D01*
G01*
X10222700Y-6083300D02*
G75*
G02*
X10122700Y-6083300I-50000J0D01*
G01*
X10122700Y-6083300D02*
G75*
G02*
X10222700Y-6083300I50000J0D01*
G01*
X10273500Y-4305300D02*
G75*
G02*
X10173500Y-4305300I-50000J0D01*
G01*
X10173500Y-4305300D02*
G75*
G02*
X10273500Y-4305300I50000J0D01*
G01*
X10273500Y-4559300D02*
G75*
G02*
X10173500Y-4559300I-50000J0D01*
G01*
X10173500Y-4559300D02*
G75*
G02*
X10273500Y-4559300I50000J0D01*
G01*
X10274000Y-9486900D02*
G75*
G02*
X10174000Y-9486900I-50000J0D01*
G01*
X10174000Y-9486900D02*
G75*
G02*
X10274000Y-9486900I50000J0D01*
G01*
X10274000Y-9740900D02*
G75*
G02*
X10174000Y-9740900I-50000J0D01*
G01*
X10174000Y-9740900D02*
G75*
G02*
X10274000Y-9740900I50000J0D01*
G01*
X10337000Y-8483600D02*
G75*
G02*
X10237000Y-8483600I-50000J0D01*
G01*
X10237000Y-8483600D02*
G75*
G02*
X10337000Y-8483600I50000J0D01*
G01*
X10527500Y-4305300D02*
G75*
G02*
X10427500Y-4305300I-50000J0D01*
G01*
X10427500Y-4305300D02*
G75*
G02*
X10527500Y-4305300I50000J0D01*
G01*
X10527500Y-4559300D02*
G75*
G02*
X10427500Y-4559300I-50000J0D01*
G01*
X10427500Y-4559300D02*
G75*
G02*
X10527500Y-4559300I50000J0D01*
G01*
X10528000Y-9486900D02*
G75*
G02*
X10428000Y-9486900I-50000J0D01*
G01*
X10428000Y-9486900D02*
G75*
G02*
X10528000Y-9486900I50000J0D01*
G01*
X10528000Y-9740900D02*
G75*
G02*
X10428000Y-9740900I-50000J0D01*
G01*
X10428000Y-9740900D02*
G75*
G02*
X10528000Y-9740900I50000J0D01*
G01*
X10730700Y-6184900D02*
G75*
G02*
X10630700Y-6184900I-50000J0D01*
G01*
X10630700Y-6184900D02*
G75*
G02*
X10730700Y-6184900I50000J0D01*
G01*
X10781500Y-4305300D02*
G75*
G02*
X10681500Y-4305300I-50000J0D01*
G01*
X10681500Y-4305300D02*
G75*
G02*
X10781500Y-4305300I50000J0D01*
G01*
X10781500Y-4559300D02*
G75*
G02*
X10681500Y-4559300I-50000J0D01*
G01*
X10681500Y-4559300D02*
G75*
G02*
X10781500Y-4559300I50000J0D01*
G01*
X10781500Y-7772400D02*
G75*
G02*
X10681500Y-7772400I-50000J0D01*
G01*
X10681500Y-7772400D02*
G75*
G02*
X10781500Y-7772400I50000J0D01*
G01*
X10984700Y-6184900D02*
G75*
G02*
X10884700Y-6184900I-50000J0D01*
G01*
X10884700Y-6184900D02*
G75*
G02*
X10984700Y-6184900I50000J0D01*
G01*
X11035500Y-4305300D02*
G75*
G02*
X10935500Y-4305300I-50000J0D01*
G01*
X10935500Y-4305300D02*
G75*
G02*
X11035500Y-4305300I50000J0D01*
G01*
X11035500Y-4559300D02*
G75*
G02*
X10935500Y-4559300I-50000J0D01*
G01*
X10935500Y-4559300D02*
G75*
G02*
X11035500Y-4559300I50000J0D01*
G01*
X11035500Y-7772400D02*
G75*
G02*
X10935500Y-7772400I-50000J0D01*
G01*
X10935500Y-7772400D02*
G75*
G02*
X11035500Y-7772400I50000J0D01*
G01*
X11492700Y-4406900D02*
G75*
G02*
X11392700Y-4406900I-50000J0D01*
G01*
X11392700Y-4406900D02*
G75*
G02*
X11492700Y-4406900I50000J0D01*
G01*
X11606500Y-4914900D02*
G75*
G02*
X11506500Y-4914900I-50000J0D01*
G01*
X11506500Y-4914900D02*
G75*
G02*
X11606500Y-4914900I50000J0D01*
G01*
X11606500Y-5168900D02*
G75*
G02*
X11506500Y-5168900I-50000J0D01*
G01*
X11506500Y-5168900D02*
G75*
G02*
X11606500Y-5168900I50000J0D01*
G01*
X11606500Y-5422900D02*
G75*
G02*
X11506500Y-5422900I-50000J0D01*
G01*
X11506500Y-5422900D02*
G75*
G02*
X11606500Y-5422900I50000J0D01*
G01*
X11606500Y-5676900D02*
G75*
G02*
X11506500Y-5676900I-50000J0D01*
G01*
X11506500Y-5676900D02*
G75*
G02*
X11606500Y-5676900I50000J0D01*
G01*
X11606500Y-5930900D02*
G75*
G02*
X11506500Y-5930900I-50000J0D01*
G01*
X11506500Y-5930900D02*
G75*
G02*
X11606500Y-5930900I50000J0D01*
G01*
X11606500Y-6184900D02*
G75*
G02*
X11506500Y-6184900I-50000J0D01*
G01*
X11506500Y-6184900D02*
G75*
G02*
X11606500Y-6184900I50000J0D01*
G01*
X11606500Y-6438900D02*
G75*
G02*
X11506500Y-6438900I-50000J0D01*
G01*
X11506500Y-6438900D02*
G75*
G02*
X11606500Y-6438900I50000J0D01*
G01*
X11606500Y-6692900D02*
G75*
G02*
X11506500Y-6692900I-50000J0D01*
G01*
X11506500Y-6692900D02*
G75*
G02*
X11606500Y-6692900I50000J0D01*
G01*
X11606500Y-6946900D02*
G75*
G02*
X11506500Y-6946900I-50000J0D01*
G01*
X11506500Y-6946900D02*
G75*
G02*
X11606500Y-6946900I50000J0D01*
G01*
X11606500Y-7200900D02*
G75*
G02*
X11506500Y-7200900I-50000J0D01*
G01*
X11506500Y-7200900D02*
G75*
G02*
X11606500Y-7200900I50000J0D01*
G01*
X11606500Y-7454900D02*
G75*
G02*
X11506500Y-7454900I-50000J0D01*
G01*
X11506500Y-7454900D02*
G75*
G02*
X11606500Y-7454900I50000J0D01*
G01*
X11606500Y-7708900D02*
G75*
G02*
X11506500Y-7708900I-50000J0D01*
G01*
X11506500Y-7708900D02*
G75*
G02*
X11606500Y-7708900I50000J0D01*
G01*
X11606500Y-7962900D02*
G75*
G02*
X11506500Y-7962900I-50000J0D01*
G01*
X11506500Y-7962900D02*
G75*
G02*
X11606500Y-7962900I50000J0D01*
G01*
X11606500Y-8216900D02*
G75*
G02*
X11506500Y-8216900I-50000J0D01*
G01*
X11506500Y-8216900D02*
G75*
G02*
X11606500Y-8216900I50000J0D01*
G01*
X11606500Y-8470900D02*
G75*
G02*
X11506500Y-8470900I-50000J0D01*
G01*
X11506500Y-8470900D02*
G75*
G02*
X11606500Y-8470900I50000J0D01*
G01*
X11606500Y-8724900D02*
G75*
G02*
X11506500Y-8724900I-50000J0D01*
G01*
X11506500Y-8724900D02*
G75*
G02*
X11606500Y-8724900I50000J0D01*
G01*
X11606500Y-8978900D02*
G75*
G02*
X11506500Y-8978900I-50000J0D01*
G01*
X11506500Y-8978900D02*
G75*
G02*
X11606500Y-8978900I50000J0D01*
G01*
X11606500Y-9232900D02*
G75*
G02*
X11506500Y-9232900I-50000J0D01*
G01*
X11506500Y-9232900D02*
G75*
G02*
X11606500Y-9232900I50000J0D01*
G01*
X11606500Y-9486900D02*
G75*
G02*
X11506500Y-9486900I-50000J0D01*
G01*
X11506500Y-9486900D02*
G75*
G02*
X11606500Y-9486900I50000J0D01*
G01*
X11606500Y-9740900D02*
G75*
G02*
X11506500Y-9740900I-50000J0D01*
G01*
X11506500Y-9740900D02*
G75*
G02*
X11606500Y-9740900I50000J0D01*
G01*
X11746700Y-4406900D02*
G75*
G02*
X11646700Y-4406900I-50000J0D01*
G01*
X11646700Y-4406900D02*
G75*
G02*
X11746700Y-4406900I50000J0D01*
G01*
X11860500Y-4914900D02*
G75*
G02*
X11760500Y-4914900I-50000J0D01*
G01*
X11760500Y-4914900D02*
G75*
G02*
X11860500Y-4914900I50000J0D01*
G01*
X11860500Y-5168900D02*
G75*
G02*
X11760500Y-5168900I-50000J0D01*
G01*
X11760500Y-5168900D02*
G75*
G02*
X11860500Y-5168900I50000J0D01*
G01*
X11860500Y-5422900D02*
G75*
G02*
X11760500Y-5422900I-50000J0D01*
G01*
X11760500Y-5422900D02*
G75*
G02*
X11860500Y-5422900I50000J0D01*
G01*
X11860500Y-5676900D02*
G75*
G02*
X11760500Y-5676900I-50000J0D01*
G01*
X11760500Y-5676900D02*
G75*
G02*
X11860500Y-5676900I50000J0D01*
G01*
X11860500Y-5930900D02*
G75*
G02*
X11760500Y-5930900I-50000J0D01*
G01*
X11760500Y-5930900D02*
G75*
G02*
X11860500Y-5930900I50000J0D01*
G01*
X11860500Y-6184900D02*
G75*
G02*
X11760500Y-6184900I-50000J0D01*
G01*
X11760500Y-6184900D02*
G75*
G02*
X11860500Y-6184900I50000J0D01*
G01*
X11860500Y-6438900D02*
G75*
G02*
X11760500Y-6438900I-50000J0D01*
G01*
X11760500Y-6438900D02*
G75*
G02*
X11860500Y-6438900I50000J0D01*
G01*
X11860500Y-6692900D02*
G75*
G02*
X11760500Y-6692900I-50000J0D01*
G01*
X11760500Y-6692900D02*
G75*
G02*
X11860500Y-6692900I50000J0D01*
G01*
X11860500Y-6946900D02*
G75*
G02*
X11760500Y-6946900I-50000J0D01*
G01*
X11760500Y-6946900D02*
G75*
G02*
X11860500Y-6946900I50000J0D01*
G01*
X11860500Y-7200900D02*
G75*
G02*
X11760500Y-7200900I-50000J0D01*
G01*
X11760500Y-7200900D02*
G75*
G02*
X11860500Y-7200900I50000J0D01*
G01*
X11860500Y-7454900D02*
G75*
G02*
X11760500Y-7454900I-50000J0D01*
G01*
X11760500Y-7454900D02*
G75*
G02*
X11860500Y-7454900I50000J0D01*
G01*
X11860500Y-7708900D02*
G75*
G02*
X11760500Y-7708900I-50000J0D01*
G01*
X11760500Y-7708900D02*
G75*
G02*
X11860500Y-7708900I50000J0D01*
G01*
X11860500Y-7962900D02*
G75*
G02*
X11760500Y-7962900I-50000J0D01*
G01*
X11760500Y-7962900D02*
G75*
G02*
X11860500Y-7962900I50000J0D01*
G01*
X11860500Y-8216900D02*
G75*
G02*
X11760500Y-8216900I-50000J0D01*
G01*
X11760500Y-8216900D02*
G75*
G02*
X11860500Y-8216900I50000J0D01*
G01*
X11860500Y-8470900D02*
G75*
G02*
X11760500Y-8470900I-50000J0D01*
G01*
X11760500Y-8470900D02*
G75*
G02*
X11860500Y-8470900I50000J0D01*
G01*
X11860500Y-8724900D02*
G75*
G02*
X11760500Y-8724900I-50000J0D01*
G01*
X11760500Y-8724900D02*
G75*
G02*
X11860500Y-8724900I50000J0D01*
G01*
X11860500Y-8978900D02*
G75*
G02*
X11760500Y-8978900I-50000J0D01*
G01*
X11760500Y-8978900D02*
G75*
G02*
X11860500Y-8978900I50000J0D01*
G01*
X11860500Y-9232900D02*
G75*
G02*
X11760500Y-9232900I-50000J0D01*
G01*
X11760500Y-9232900D02*
G75*
G02*
X11860500Y-9232900I50000J0D01*
G01*
X11860500Y-9486900D02*
G75*
G02*
X11760500Y-9486900I-50000J0D01*
G01*
X11760500Y-9486900D02*
G75*
G02*
X11860500Y-9486900I50000J0D01*
G01*
X11860500Y-9740900D02*
G75*
G02*
X11760500Y-9740900I-50000J0D01*
G01*
X11760500Y-9740900D02*
G75*
G02*
X11860500Y-9740900I50000J0D01*
G01*
X12000700Y-4406900D02*
G75*
G02*
X11900700Y-4406900I-50000J0D01*
G01*
X11900700Y-4406900D02*
G75*
G02*
X12000700Y-4406900I50000J0D01*
G01*
X12254700Y-4406900D02*
G75*
G02*
X12154700Y-4406900I-50000J0D01*
G01*
X12154700Y-4406900D02*
G75*
G02*
X12254700Y-4406900I50000J0D01*
G01*
X12368500Y-4914900D02*
G75*
G02*
X12268500Y-4914900I-50000J0D01*
G01*
X12268500Y-4914900D02*
G75*
G02*
X12368500Y-4914900I50000J0D01*
G01*
X12368500Y-5168900D02*
G75*
G02*
X12268500Y-5168900I-50000J0D01*
G01*
X12268500Y-5168900D02*
G75*
G02*
X12368500Y-5168900I50000J0D01*
G01*
X12368500Y-5422900D02*
G75*
G02*
X12268500Y-5422900I-50000J0D01*
G01*
X12268500Y-5422900D02*
G75*
G02*
X12368500Y-5422900I50000J0D01*
G01*
X12368500Y-5676900D02*
G75*
G02*
X12268500Y-5676900I-50000J0D01*
G01*
X12268500Y-5676900D02*
G75*
G02*
X12368500Y-5676900I50000J0D01*
G01*
X12368500Y-5930900D02*
G75*
G02*
X12268500Y-5930900I-50000J0D01*
G01*
X12268500Y-5930900D02*
G75*
G02*
X12368500Y-5930900I50000J0D01*
G01*
X12368500Y-6184900D02*
G75*
G02*
X12268500Y-6184900I-50000J0D01*
G01*
X12268500Y-6184900D02*
G75*
G02*
X12368500Y-6184900I50000J0D01*
G01*
X12368500Y-6438900D02*
G75*
G02*
X12268500Y-6438900I-50000J0D01*
G01*
X12268500Y-6438900D02*
G75*
G02*
X12368500Y-6438900I50000J0D01*
G01*
X12368500Y-6692900D02*
G75*
G02*
X12268500Y-6692900I-50000J0D01*
G01*
X12268500Y-6692900D02*
G75*
G02*
X12368500Y-6692900I50000J0D01*
G01*
X12368500Y-6946900D02*
G75*
G02*
X12268500Y-6946900I-50000J0D01*
G01*
X12268500Y-6946900D02*
G75*
G02*
X12368500Y-6946900I50000J0D01*
G01*
X12368500Y-7200900D02*
G75*
G02*
X12268500Y-7200900I-50000J0D01*
G01*
X12268500Y-7200900D02*
G75*
G02*
X12368500Y-7200900I50000J0D01*
G01*
X12368500Y-7454900D02*
G75*
G02*
X12268500Y-7454900I-50000J0D01*
G01*
X12268500Y-7454900D02*
G75*
G02*
X12368500Y-7454900I50000J0D01*
G01*
X12368500Y-7708900D02*
G75*
G02*
X12268500Y-7708900I-50000J0D01*
G01*
X12268500Y-7708900D02*
G75*
G02*
X12368500Y-7708900I50000J0D01*
G01*
X12368500Y-7962900D02*
G75*
G02*
X12268500Y-7962900I-50000J0D01*
G01*
X12268500Y-7962900D02*
G75*
G02*
X12368500Y-7962900I50000J0D01*
G01*
X12368500Y-8216900D02*
G75*
G02*
X12268500Y-8216900I-50000J0D01*
G01*
X12268500Y-8216900D02*
G75*
G02*
X12368500Y-8216900I50000J0D01*
G01*
X12368500Y-8470900D02*
G75*
G02*
X12268500Y-8470900I-50000J0D01*
G01*
X12268500Y-8470900D02*
G75*
G02*
X12368500Y-8470900I50000J0D01*
G01*
X12368500Y-8724900D02*
G75*
G02*
X12268500Y-8724900I-50000J0D01*
G01*
X12268500Y-8724900D02*
G75*
G02*
X12368500Y-8724900I50000J0D01*
G01*
X12368500Y-8978900D02*
G75*
G02*
X12268500Y-8978900I-50000J0D01*
G01*
X12268500Y-8978900D02*
G75*
G02*
X12368500Y-8978900I50000J0D01*
G01*
X12368500Y-9232900D02*
G75*
G02*
X12268500Y-9232900I-50000J0D01*
G01*
X12268500Y-9232900D02*
G75*
G02*
X12368500Y-9232900I50000J0D01*
G01*
X12368500Y-9486900D02*
G75*
G02*
X12268500Y-9486900I-50000J0D01*
G01*
X12268500Y-9486900D02*
G75*
G02*
X12368500Y-9486900I50000J0D01*
G01*
X12368500Y-9740900D02*
G75*
G02*
X12268500Y-9740900I-50000J0D01*
G01*
X12268500Y-9740900D02*
G75*
G02*
X12368500Y-9740900I50000J0D01*
G01*
X12622500Y-4914900D02*
G75*
G02*
X12522500Y-4914900I-50000J0D01*
G01*
X12522500Y-4914900D02*
G75*
G02*
X12622500Y-4914900I50000J0D01*
G01*
X12622500Y-5168900D02*
G75*
G02*
X12522500Y-5168900I-50000J0D01*
G01*
X12522500Y-5168900D02*
G75*
G02*
X12622500Y-5168900I50000J0D01*
G01*
X12622500Y-5422900D02*
G75*
G02*
X12522500Y-5422900I-50000J0D01*
G01*
X12522500Y-5422900D02*
G75*
G02*
X12622500Y-5422900I50000J0D01*
G01*
X12622500Y-5676900D02*
G75*
G02*
X12522500Y-5676900I-50000J0D01*
G01*
X12522500Y-5676900D02*
G75*
G02*
X12622500Y-5676900I50000J0D01*
G01*
X12622500Y-5930900D02*
G75*
G02*
X12522500Y-5930900I-50000J0D01*
G01*
X12522500Y-5930900D02*
G75*
G02*
X12622500Y-5930900I50000J0D01*
G01*
X12622500Y-6184900D02*
G75*
G02*
X12522500Y-6184900I-50000J0D01*
G01*
X12522500Y-6184900D02*
G75*
G02*
X12622500Y-6184900I50000J0D01*
G01*
X12622500Y-6438900D02*
G75*
G02*
X12522500Y-6438900I-50000J0D01*
G01*
X12522500Y-6438900D02*
G75*
G02*
X12622500Y-6438900I50000J0D01*
G01*
X12622500Y-6692900D02*
G75*
G02*
X12522500Y-6692900I-50000J0D01*
G01*
X12522500Y-6692900D02*
G75*
G02*
X12622500Y-6692900I50000J0D01*
G01*
X12622500Y-6946900D02*
G75*
G02*
X12522500Y-6946900I-50000J0D01*
G01*
X12522500Y-6946900D02*
G75*
G02*
X12622500Y-6946900I50000J0D01*
G01*
X12622500Y-7200900D02*
G75*
G02*
X12522500Y-7200900I-50000J0D01*
G01*
X12522500Y-7200900D02*
G75*
G02*
X12622500Y-7200900I50000J0D01*
G01*
X12622500Y-7454900D02*
G75*
G02*
X12522500Y-7454900I-50000J0D01*
G01*
X12522500Y-7454900D02*
G75*
G02*
X12622500Y-7454900I50000J0D01*
G01*
X12622500Y-7708900D02*
G75*
G02*
X12522500Y-7708900I-50000J0D01*
G01*
X12522500Y-7708900D02*
G75*
G02*
X12622500Y-7708900I50000J0D01*
G01*
X12622500Y-7962900D02*
G75*
G02*
X12522500Y-7962900I-50000J0D01*
G01*
X12522500Y-7962900D02*
G75*
G02*
X12622500Y-7962900I50000J0D01*
G01*
X12622500Y-8216900D02*
G75*
G02*
X12522500Y-8216900I-50000J0D01*
G01*
X12522500Y-8216900D02*
G75*
G02*
X12622500Y-8216900I50000J0D01*
G01*
X12622500Y-8470900D02*
G75*
G02*
X12522500Y-8470900I-50000J0D01*
G01*
X12522500Y-8470900D02*
G75*
G02*
X12622500Y-8470900I50000J0D01*
G01*
X12622500Y-8724900D02*
G75*
G02*
X12522500Y-8724900I-50000J0D01*
G01*
X12522500Y-8724900D02*
G75*
G02*
X12622500Y-8724900I50000J0D01*
G01*
X12622500Y-8978900D02*
G75*
G02*
X12522500Y-8978900I-50000J0D01*
G01*
X12522500Y-8978900D02*
G75*
G02*
X12622500Y-8978900I50000J0D01*
G01*
X12622500Y-9232900D02*
G75*
G02*
X12522500Y-9232900I-50000J0D01*
G01*
X12522500Y-9232900D02*
G75*
G02*
X12622500Y-9232900I50000J0D01*
G01*
X12622500Y-9486900D02*
G75*
G02*
X12522500Y-9486900I-50000J0D01*
G01*
X12522500Y-9486900D02*
G75*
G02*
X12622500Y-9486900I50000J0D01*
G01*
X12622500Y-9740900D02*
G75*
G02*
X12522500Y-9740900I-50000J0D01*
G01*
X12522500Y-9740900D02*
G75*
G02*
X12622500Y-9740900I50000J0D01*
G01*
X13372300Y-5065900D02*
G75*
G02*
X13272300Y-5065900I-50000J0D01*
G01*
X13272300Y-5065900D02*
G75*
G02*
X13372300Y-5065900I50000J0D01*
G01*
X13372300Y-5294900D02*
G75*
G02*
X13272300Y-5294900I-50000J0D01*
G01*
X13272300Y-5294900D02*
G75*
G02*
X13372300Y-5294900I50000J0D01*
G01*
X13372300Y-5523900D02*
G75*
G02*
X13272300Y-5523900I-50000J0D01*
G01*
X13272300Y-5523900D02*
G75*
G02*
X13372300Y-5523900I50000J0D01*
G01*
X13372300Y-5752900D02*
G75*
G02*
X13272300Y-5752900I-50000J0D01*
G01*
X13272300Y-5752900D02*
G75*
G02*
X13372300Y-5752900I50000J0D01*
G01*
X13372300Y-5981900D02*
G75*
G02*
X13272300Y-5981900I-50000J0D01*
G01*
X13272300Y-5981900D02*
G75*
G02*
X13372300Y-5981900I50000J0D01*
G01*
X13626300Y-4951400D02*
G75*
G02*
X13526300Y-4951400I-50000J0D01*
G01*
X13526300Y-4951400D02*
G75*
G02*
X13626300Y-4951400I50000J0D01*
G01*
X13626300Y-5180400D02*
G75*
G02*
X13526300Y-5180400I-50000J0D01*
G01*
X13526300Y-5180400D02*
G75*
G02*
X13626300Y-5180400I50000J0D01*
G01*
X13626300Y-5409400D02*
G75*
G02*
X13526300Y-5409400I-50000J0D01*
G01*
X13526300Y-5409400D02*
G75*
G02*
X13626300Y-5409400I50000J0D01*
G01*
X13626300Y-5638400D02*
G75*
G02*
X13526300Y-5638400I-50000J0D01*
G01*
X13526300Y-5638400D02*
G75*
G02*
X13626300Y-5638400I50000J0D01*
G01*
X13626300Y-5867400D02*
G75*
G02*
X13526300Y-5867400I-50000J0D01*
G01*
X13526300Y-5867400D02*
G75*
G02*
X13626300Y-5867400I50000J0D01*
G01*
X13880300Y-5065900D02*
G75*
G02*
X13780300Y-5065900I-50000J0D01*
G01*
X13780300Y-5065900D02*
G75*
G02*
X13880300Y-5065900I50000J0D01*
G01*
X13880300Y-5294900D02*
G75*
G02*
X13780300Y-5294900I-50000J0D01*
G01*
X13780300Y-5294900D02*
G75*
G02*
X13880300Y-5294900I50000J0D01*
G01*
X13880300Y-5523900D02*
G75*
G02*
X13780300Y-5523900I-50000J0D01*
G01*
X13780300Y-5523900D02*
G75*
G02*
X13880300Y-5523900I50000J0D01*
G01*
X13880300Y-5752900D02*
G75*
G02*
X13780300Y-5752900I-50000J0D01*
G01*
X13780300Y-5752900D02*
G75*
G02*
X13880300Y-5752900I50000J0D01*
G01*
X13880300Y-5981900D02*
G75*
G02*
X13780300Y-5981900I-50000J0D01*
G01*
X13780300Y-5981900D02*
G75*
G02*
X13880300Y-5981900I50000J0D01*
G01*
D12*
X13583300Y-4087400D02*
X13583300Y-4407400D01*
X13423300Y-4247400D02*
X13743300Y-4247400D01*
X13583300Y-6587400D02*
X13583300Y-6907400D01*
X13423300Y-6747400D02*
X13743300Y-6747400D01*
D10*
X7616777Y-10290984D02*
X7616777Y-10090984D01*
X7616777Y-10090984D02*
X7664396Y-10090984D01*
X7664396Y-10090984D02*
X7692967Y-10100508D01*
X7692967Y-10100508D02*
X7712015Y-10119555D01*
X7712015Y-10119555D02*
X7721539Y-10138603D01*
X7721539Y-10138603D02*
X7731062Y-10176698D01*
X7731062Y-10176698D02*
X7731062Y-10205270D01*
X7731062Y-10205270D02*
X7721539Y-10243365D01*
X7721539Y-10243365D02*
X7712015Y-10262412D01*
X7712015Y-10262412D02*
X7692967Y-10281460D01*
X7692967Y-10281460D02*
X7664396Y-10290984D01*
X7664396Y-10290984D02*
X7616777Y-10290984D01*
X7816777Y-10290984D02*
X7816777Y-10157650D01*
X7816777Y-10195746D02*
X7826301Y-10176698D01*
X7826301Y-10176698D02*
X7835824Y-10167174D01*
X7835824Y-10167174D02*
X7854872Y-10157650D01*
X7854872Y-10157650D02*
X7873920Y-10157650D01*
X7940586Y-10290984D02*
X7940586Y-10157650D01*
X7940586Y-10090984D02*
X7931062Y-10100508D01*
X7931062Y-10100508D02*
X7940586Y-10110031D01*
X7940586Y-10110031D02*
X7950110Y-10100508D01*
X7950110Y-10100508D02*
X7940586Y-10090984D01*
X7940586Y-10090984D02*
X7940586Y-10110031D01*
X8064396Y-10290984D02*
X8045348Y-10281460D01*
X8045348Y-10281460D02*
X8035824Y-10262412D01*
X8035824Y-10262412D02*
X8035824Y-10090984D01*
X8169158Y-10290984D02*
X8150110Y-10281460D01*
X8150110Y-10281460D02*
X8140586Y-10262412D01*
X8140586Y-10262412D02*
X8140586Y-10090984D01*
X8397729Y-10290984D02*
X8397729Y-10090984D01*
X8397729Y-10090984D02*
X8464396Y-10233841D01*
X8464396Y-10233841D02*
X8531063Y-10090984D01*
X8531063Y-10090984D02*
X8531063Y-10290984D01*
X8712015Y-10290984D02*
X8712015Y-10186222D01*
X8712015Y-10186222D02*
X8702491Y-10167174D01*
X8702491Y-10167174D02*
X8683444Y-10157650D01*
X8683444Y-10157650D02*
X8645348Y-10157650D01*
X8645348Y-10157650D02*
X8626301Y-10167174D01*
X8712015Y-10281460D02*
X8692967Y-10290984D01*
X8692967Y-10290984D02*
X8645348Y-10290984D01*
X8645348Y-10290984D02*
X8626301Y-10281460D01*
X8626301Y-10281460D02*
X8616777Y-10262412D01*
X8616777Y-10262412D02*
X8616777Y-10243365D01*
X8616777Y-10243365D02*
X8626301Y-10224317D01*
X8626301Y-10224317D02*
X8645348Y-10214793D01*
X8645348Y-10214793D02*
X8692967Y-10214793D01*
X8692967Y-10214793D02*
X8712015Y-10205270D01*
X8807253Y-10157650D02*
X8807253Y-10357650D01*
X8807253Y-10167174D02*
X8826301Y-10157650D01*
X8826301Y-10157650D02*
X8864396Y-10157650D01*
X8864396Y-10157650D02*
X8883444Y-10167174D01*
X8883444Y-10167174D02*
X8892967Y-10176698D01*
X8892967Y-10176698D02*
X8902491Y-10195746D01*
X8902491Y-10195746D02*
X8902491Y-10252889D01*
X8902491Y-10252889D02*
X8892967Y-10271936D01*
X8892967Y-10271936D02*
X8883444Y-10281460D01*
X8883444Y-10281460D02*
X8864396Y-10290984D01*
X8864396Y-10290984D02*
X8826301Y-10290984D01*
X8826301Y-10290984D02*
X8807253Y-10281460D01*
X8988205Y-10271936D02*
X8997729Y-10281460D01*
X8997729Y-10281460D02*
X8988205Y-10290984D01*
X8988205Y-10290984D02*
X8978682Y-10281460D01*
X8978682Y-10281460D02*
X8988205Y-10271936D01*
X8988205Y-10271936D02*
X8988205Y-10290984D01*
X8988205Y-10167174D02*
X8997729Y-10176698D01*
X8997729Y-10176698D02*
X8988205Y-10186222D01*
X8988205Y-10186222D02*
X8978682Y-10176698D01*
X8978682Y-10176698D02*
X8988205Y-10167174D01*
X8988205Y-10167174D02*
X8988205Y-10186222D01*
D11*
X7316000Y-10599500D02*
X7356000Y-10639500D01*
X7356000Y-10599500D02*
X7316000Y-10639500D01*
D10*
X7654872Y-10510984D02*
X7673920Y-10510984D01*
X7673920Y-10510984D02*
X7692967Y-10520508D01*
X7692967Y-10520508D02*
X7702491Y-10530031D01*
X7702491Y-10530031D02*
X7712015Y-10549079D01*
X7712015Y-10549079D02*
X7721539Y-10587174D01*
X7721539Y-10587174D02*
X7721539Y-10634793D01*
X7721539Y-10634793D02*
X7712015Y-10672889D01*
X7712015Y-10672889D02*
X7702491Y-10691936D01*
X7702491Y-10691936D02*
X7692967Y-10701460D01*
X7692967Y-10701460D02*
X7673920Y-10710984D01*
X7673920Y-10710984D02*
X7654872Y-10710984D01*
X7654872Y-10710984D02*
X7635824Y-10701460D01*
X7635824Y-10701460D02*
X7626301Y-10691936D01*
X7626301Y-10691936D02*
X7616777Y-10672889D01*
X7616777Y-10672889D02*
X7607253Y-10634793D01*
X7607253Y-10634793D02*
X7607253Y-10587174D01*
X7607253Y-10587174D02*
X7616777Y-10549079D01*
X7616777Y-10549079D02*
X7626301Y-10530031D01*
X7626301Y-10530031D02*
X7635824Y-10520508D01*
X7635824Y-10520508D02*
X7654872Y-10510984D01*
X7807253Y-10691936D02*
X7816777Y-10701460D01*
X7816777Y-10701460D02*
X7807253Y-10710984D01*
X7807253Y-10710984D02*
X7797729Y-10701460D01*
X7797729Y-10701460D02*
X7807253Y-10691936D01*
X7807253Y-10691936D02*
X7807253Y-10710984D01*
X7988205Y-10577650D02*
X7988205Y-10710984D01*
X7940586Y-10501460D02*
X7892967Y-10644317D01*
X7892967Y-10644317D02*
X8016777Y-10644317D01*
X8131062Y-10510984D02*
X8150110Y-10510984D01*
X8150110Y-10510984D02*
X8169158Y-10520508D01*
X8169158Y-10520508D02*
X8178682Y-10530031D01*
X8178682Y-10530031D02*
X8188205Y-10549079D01*
X8188205Y-10549079D02*
X8197729Y-10587174D01*
X8197729Y-10587174D02*
X8197729Y-10634793D01*
X8197729Y-10634793D02*
X8188205Y-10672889D01*
X8188205Y-10672889D02*
X8178682Y-10691936D01*
X8178682Y-10691936D02*
X8169158Y-10701460D01*
X8169158Y-10701460D02*
X8150110Y-10710984D01*
X8150110Y-10710984D02*
X8131062Y-10710984D01*
X8131062Y-10710984D02*
X8112015Y-10701460D01*
X8112015Y-10701460D02*
X8102491Y-10691936D01*
X8102491Y-10691936D02*
X8092967Y-10672889D01*
X8092967Y-10672889D02*
X8083443Y-10634793D01*
X8083443Y-10634793D02*
X8083443Y-10587174D01*
X8083443Y-10587174D02*
X8092967Y-10549079D01*
X8092967Y-10549079D02*
X8102491Y-10530031D01*
X8102491Y-10530031D02*
X8112015Y-10520508D01*
X8112015Y-10520508D02*
X8131062Y-10510984D01*
X8321539Y-10510984D02*
X8340586Y-10510984D01*
X8340586Y-10510984D02*
X8359634Y-10520508D01*
X8359634Y-10520508D02*
X8369158Y-10530031D01*
X8369158Y-10530031D02*
X8378682Y-10549079D01*
X8378682Y-10549079D02*
X8388205Y-10587174D01*
X8388205Y-10587174D02*
X8388205Y-10634793D01*
X8388205Y-10634793D02*
X8378682Y-10672889D01*
X8378682Y-10672889D02*
X8369158Y-10691936D01*
X8369158Y-10691936D02*
X8359634Y-10701460D01*
X8359634Y-10701460D02*
X8340586Y-10710984D01*
X8340586Y-10710984D02*
X8321539Y-10710984D01*
X8321539Y-10710984D02*
X8302491Y-10701460D01*
X8302491Y-10701460D02*
X8292967Y-10691936D01*
X8292967Y-10691936D02*
X8283443Y-10672889D01*
X8283443Y-10672889D02*
X8273920Y-10634793D01*
X8273920Y-10634793D02*
X8273920Y-10587174D01*
X8273920Y-10587174D02*
X8283443Y-10549079D01*
X8283443Y-10549079D02*
X8292967Y-10530031D01*
X8292967Y-10530031D02*
X8302491Y-10520508D01*
X8302491Y-10520508D02*
X8321539Y-10510984D01*
X8473920Y-10710984D02*
X8473920Y-10577650D01*
X8473920Y-10596698D02*
X8483444Y-10587174D01*
X8483444Y-10587174D02*
X8502491Y-10577650D01*
X8502491Y-10577650D02*
X8531063Y-10577650D01*
X8531063Y-10577650D02*
X8550110Y-10587174D01*
X8550110Y-10587174D02*
X8559634Y-10606222D01*
X8559634Y-10606222D02*
X8559634Y-10710984D01*
X8559634Y-10606222D02*
X8569158Y-10587174D01*
X8569158Y-10587174D02*
X8588205Y-10577650D01*
X8588205Y-10577650D02*
X8616777Y-10577650D01*
X8616777Y-10577650D02*
X8635825Y-10587174D01*
X8635825Y-10587174D02*
X8645348Y-10606222D01*
X8645348Y-10606222D02*
X8645348Y-10710984D01*
X8740586Y-10710984D02*
X8740586Y-10577650D01*
X8740586Y-10596698D02*
X8750110Y-10587174D01*
X8750110Y-10587174D02*
X8769158Y-10577650D01*
X8769158Y-10577650D02*
X8797729Y-10577650D01*
X8797729Y-10577650D02*
X8816777Y-10587174D01*
X8816777Y-10587174D02*
X8826301Y-10606222D01*
X8826301Y-10606222D02*
X8826301Y-10710984D01*
X8826301Y-10606222D02*
X8835825Y-10587174D01*
X8835825Y-10587174D02*
X8854872Y-10577650D01*
X8854872Y-10577650D02*
X8883444Y-10577650D01*
X8883444Y-10577650D02*
X8902491Y-10587174D01*
X8902491Y-10587174D02*
X8912015Y-10606222D01*
X8912015Y-10606222D02*
X8912015Y-10710984D01*
X9302491Y-10501460D02*
X9131063Y-10758603D01*
X9559634Y-10510984D02*
X9578682Y-10510984D01*
X9578682Y-10510984D02*
X9597729Y-10520508D01*
X9597729Y-10520508D02*
X9607253Y-10530031D01*
X9607253Y-10530031D02*
X9616777Y-10549079D01*
X9616777Y-10549079D02*
X9626301Y-10587174D01*
X9626301Y-10587174D02*
X9626301Y-10634793D01*
X9626301Y-10634793D02*
X9616777Y-10672889D01*
X9616777Y-10672889D02*
X9607253Y-10691936D01*
X9607253Y-10691936D02*
X9597729Y-10701460D01*
X9597729Y-10701460D02*
X9578682Y-10710984D01*
X9578682Y-10710984D02*
X9559634Y-10710984D01*
X9559634Y-10710984D02*
X9540587Y-10701460D01*
X9540587Y-10701460D02*
X9531063Y-10691936D01*
X9531063Y-10691936D02*
X9521539Y-10672889D01*
X9521539Y-10672889D02*
X9512015Y-10634793D01*
X9512015Y-10634793D02*
X9512015Y-10587174D01*
X9512015Y-10587174D02*
X9521539Y-10549079D01*
X9521539Y-10549079D02*
X9531063Y-10530031D01*
X9531063Y-10530031D02*
X9540587Y-10520508D01*
X9540587Y-10520508D02*
X9559634Y-10510984D01*
X9712015Y-10691936D02*
X9721539Y-10701460D01*
X9721539Y-10701460D02*
X9712015Y-10710984D01*
X9712015Y-10710984D02*
X9702491Y-10701460D01*
X9702491Y-10701460D02*
X9712015Y-10691936D01*
X9712015Y-10691936D02*
X9712015Y-10710984D01*
X9845348Y-10510984D02*
X9864396Y-10510984D01*
X9864396Y-10510984D02*
X9883444Y-10520508D01*
X9883444Y-10520508D02*
X9892968Y-10530031D01*
X9892968Y-10530031D02*
X9902491Y-10549079D01*
X9902491Y-10549079D02*
X9912015Y-10587174D01*
X9912015Y-10587174D02*
X9912015Y-10634793D01*
X9912015Y-10634793D02*
X9902491Y-10672889D01*
X9902491Y-10672889D02*
X9892968Y-10691936D01*
X9892968Y-10691936D02*
X9883444Y-10701460D01*
X9883444Y-10701460D02*
X9864396Y-10710984D01*
X9864396Y-10710984D02*
X9845348Y-10710984D01*
X9845348Y-10710984D02*
X9826301Y-10701460D01*
X9826301Y-10701460D02*
X9816777Y-10691936D01*
X9816777Y-10691936D02*
X9807253Y-10672889D01*
X9807253Y-10672889D02*
X9797729Y-10634793D01*
X9797729Y-10634793D02*
X9797729Y-10587174D01*
X9797729Y-10587174D02*
X9807253Y-10549079D01*
X9807253Y-10549079D02*
X9816777Y-10530031D01*
X9816777Y-10530031D02*
X9826301Y-10520508D01*
X9826301Y-10520508D02*
X9845348Y-10510984D01*
X10102491Y-10710984D02*
X9988206Y-10710984D01*
X10045348Y-10710984D02*
X10045348Y-10510984D01*
X10045348Y-10510984D02*
X10026301Y-10539555D01*
X10026301Y-10539555D02*
X10007253Y-10558603D01*
X10007253Y-10558603D02*
X9988206Y-10568127D01*
X10283444Y-10510984D02*
X10188206Y-10510984D01*
X10188206Y-10510984D02*
X10178682Y-10606222D01*
X10178682Y-10606222D02*
X10188206Y-10596698D01*
X10188206Y-10596698D02*
X10207253Y-10587174D01*
X10207253Y-10587174D02*
X10254872Y-10587174D01*
X10254872Y-10587174D02*
X10273920Y-10596698D01*
X10273920Y-10596698D02*
X10283444Y-10606222D01*
X10283444Y-10606222D02*
X10292968Y-10625270D01*
X10292968Y-10625270D02*
X10292968Y-10672889D01*
X10292968Y-10672889D02*
X10283444Y-10691936D01*
X10283444Y-10691936D02*
X10273920Y-10701460D01*
X10273920Y-10701460D02*
X10254872Y-10710984D01*
X10254872Y-10710984D02*
X10207253Y-10710984D01*
X10207253Y-10710984D02*
X10188206Y-10701460D01*
X10188206Y-10701460D02*
X10178682Y-10691936D01*
X10359634Y-10510984D02*
X10492968Y-10510984D01*
X10492968Y-10510984D02*
X10407253Y-10710984D01*
X10559634Y-10510984D02*
X10559634Y-10549079D01*
X10635825Y-10510984D02*
X10635825Y-10549079D01*
X10931063Y-10787174D02*
X10921539Y-10777650D01*
X10921539Y-10777650D02*
X10902491Y-10749079D01*
X10902491Y-10749079D02*
X10892968Y-10730031D01*
X10892968Y-10730031D02*
X10883444Y-10701460D01*
X10883444Y-10701460D02*
X10873920Y-10653841D01*
X10873920Y-10653841D02*
X10873920Y-10615746D01*
X10873920Y-10615746D02*
X10883444Y-10568127D01*
X10883444Y-10568127D02*
X10892968Y-10539555D01*
X10892968Y-10539555D02*
X10902491Y-10520508D01*
X10902491Y-10520508D02*
X10921539Y-10491936D01*
X10921539Y-10491936D02*
X10931063Y-10482412D01*
X10997730Y-10530031D02*
X11007253Y-10520508D01*
X11007253Y-10520508D02*
X11026301Y-10510984D01*
X11026301Y-10510984D02*
X11073920Y-10510984D01*
X11073920Y-10510984D02*
X11092968Y-10520508D01*
X11092968Y-10520508D02*
X11102491Y-10530031D01*
X11102491Y-10530031D02*
X11112015Y-10549079D01*
X11112015Y-10549079D02*
X11112015Y-10568127D01*
X11112015Y-10568127D02*
X11102491Y-10596698D01*
X11102491Y-10596698D02*
X10988206Y-10710984D01*
X10988206Y-10710984D02*
X11112015Y-10710984D01*
X11283444Y-10510984D02*
X11245348Y-10510984D01*
X11245348Y-10510984D02*
X11226301Y-10520508D01*
X11226301Y-10520508D02*
X11216777Y-10530031D01*
X11216777Y-10530031D02*
X11197729Y-10558603D01*
X11197729Y-10558603D02*
X11188206Y-10596698D01*
X11188206Y-10596698D02*
X11188206Y-10672889D01*
X11188206Y-10672889D02*
X11197729Y-10691936D01*
X11197729Y-10691936D02*
X11207253Y-10701460D01*
X11207253Y-10701460D02*
X11226301Y-10710984D01*
X11226301Y-10710984D02*
X11264396Y-10710984D01*
X11264396Y-10710984D02*
X11283444Y-10701460D01*
X11283444Y-10701460D02*
X11292968Y-10691936D01*
X11292968Y-10691936D02*
X11302491Y-10672889D01*
X11302491Y-10672889D02*
X11302491Y-10625270D01*
X11302491Y-10625270D02*
X11292968Y-10606222D01*
X11292968Y-10606222D02*
X11283444Y-10596698D01*
X11283444Y-10596698D02*
X11264396Y-10587174D01*
X11264396Y-10587174D02*
X11226301Y-10587174D01*
X11226301Y-10587174D02*
X11207253Y-10596698D01*
X11207253Y-10596698D02*
X11197729Y-10606222D01*
X11197729Y-10606222D02*
X11188206Y-10625270D01*
X11540587Y-10710984D02*
X11540587Y-10510984D01*
X11626301Y-10710984D02*
X11626301Y-10606222D01*
X11626301Y-10606222D02*
X11616777Y-10587174D01*
X11616777Y-10587174D02*
X11597730Y-10577650D01*
X11597730Y-10577650D02*
X11569158Y-10577650D01*
X11569158Y-10577650D02*
X11550110Y-10587174D01*
X11550110Y-10587174D02*
X11540587Y-10596698D01*
X11750110Y-10710984D02*
X11731063Y-10701460D01*
X11731063Y-10701460D02*
X11721539Y-10691936D01*
X11721539Y-10691936D02*
X11712015Y-10672889D01*
X11712015Y-10672889D02*
X11712015Y-10615746D01*
X11712015Y-10615746D02*
X11721539Y-10596698D01*
X11721539Y-10596698D02*
X11731063Y-10587174D01*
X11731063Y-10587174D02*
X11750110Y-10577650D01*
X11750110Y-10577650D02*
X11778682Y-10577650D01*
X11778682Y-10577650D02*
X11797730Y-10587174D01*
X11797730Y-10587174D02*
X11807253Y-10596698D01*
X11807253Y-10596698D02*
X11816777Y-10615746D01*
X11816777Y-10615746D02*
X11816777Y-10672889D01*
X11816777Y-10672889D02*
X11807253Y-10691936D01*
X11807253Y-10691936D02*
X11797730Y-10701460D01*
X11797730Y-10701460D02*
X11778682Y-10710984D01*
X11778682Y-10710984D02*
X11750110Y-10710984D01*
X11931063Y-10710984D02*
X11912015Y-10701460D01*
X11912015Y-10701460D02*
X11902491Y-10682412D01*
X11902491Y-10682412D02*
X11902491Y-10510984D01*
X12083444Y-10701460D02*
X12064396Y-10710984D01*
X12064396Y-10710984D02*
X12026301Y-10710984D01*
X12026301Y-10710984D02*
X12007253Y-10701460D01*
X12007253Y-10701460D02*
X11997730Y-10682412D01*
X11997730Y-10682412D02*
X11997730Y-10606222D01*
X11997730Y-10606222D02*
X12007253Y-10587174D01*
X12007253Y-10587174D02*
X12026301Y-10577650D01*
X12026301Y-10577650D02*
X12064396Y-10577650D01*
X12064396Y-10577650D02*
X12083444Y-10587174D01*
X12083444Y-10587174D02*
X12092968Y-10606222D01*
X12092968Y-10606222D02*
X12092968Y-10625270D01*
X12092968Y-10625270D02*
X11997730Y-10644317D01*
X12169158Y-10701460D02*
X12188206Y-10710984D01*
X12188206Y-10710984D02*
X12226301Y-10710984D01*
X12226301Y-10710984D02*
X12245349Y-10701460D01*
X12245349Y-10701460D02*
X12254872Y-10682412D01*
X12254872Y-10682412D02*
X12254872Y-10672889D01*
X12254872Y-10672889D02*
X12245349Y-10653841D01*
X12245349Y-10653841D02*
X12226301Y-10644317D01*
X12226301Y-10644317D02*
X12197730Y-10644317D01*
X12197730Y-10644317D02*
X12178682Y-10634793D01*
X12178682Y-10634793D02*
X12169158Y-10615746D01*
X12169158Y-10615746D02*
X12169158Y-10606222D01*
X12169158Y-10606222D02*
X12178682Y-10587174D01*
X12178682Y-10587174D02*
X12197730Y-10577650D01*
X12197730Y-10577650D02*
X12226301Y-10577650D01*
X12226301Y-10577650D02*
X12245349Y-10587174D01*
X12321539Y-10787174D02*
X12331063Y-10777650D01*
X12331063Y-10777650D02*
X12350111Y-10749079D01*
X12350111Y-10749079D02*
X12359634Y-10730031D01*
X12359634Y-10730031D02*
X12369158Y-10701460D01*
X12369158Y-10701460D02*
X12378682Y-10653841D01*
X12378682Y-10653841D02*
X12378682Y-10615746D01*
X12378682Y-10615746D02*
X12369158Y-10568127D01*
X12369158Y-10568127D02*
X12359634Y-10539555D01*
X12359634Y-10539555D02*
X12350111Y-10520508D01*
X12350111Y-10520508D02*
X12331063Y-10491936D01*
X12331063Y-10491936D02*
X12321539Y-10482412D01*
D11*
X7356000Y-10883500D02*
G75*
G02*
X7256000Y-10883500I-50000J0D01*
G01*
X7256000Y-10883500D02*
G75*
G02*
X7356000Y-10883500I50000J0D01*
G01*
D10*
X7721539Y-10974984D02*
X7607253Y-10974984D01*
X7664396Y-10974984D02*
X7664396Y-10774984D01*
X7664396Y-10774984D02*
X7645348Y-10803555D01*
X7645348Y-10803555D02*
X7626301Y-10822603D01*
X7626301Y-10822603D02*
X7607253Y-10832127D01*
X7807253Y-10955936D02*
X7816777Y-10965460D01*
X7816777Y-10965460D02*
X7807253Y-10974984D01*
X7807253Y-10974984D02*
X7797729Y-10965460D01*
X7797729Y-10965460D02*
X7807253Y-10955936D01*
X7807253Y-10955936D02*
X7807253Y-10974984D01*
X7940586Y-10774984D02*
X7959634Y-10774984D01*
X7959634Y-10774984D02*
X7978682Y-10784508D01*
X7978682Y-10784508D02*
X7988205Y-10794031D01*
X7988205Y-10794031D02*
X7997729Y-10813079D01*
X7997729Y-10813079D02*
X8007253Y-10851174D01*
X8007253Y-10851174D02*
X8007253Y-10898793D01*
X8007253Y-10898793D02*
X7997729Y-10936889D01*
X7997729Y-10936889D02*
X7988205Y-10955936D01*
X7988205Y-10955936D02*
X7978682Y-10965460D01*
X7978682Y-10965460D02*
X7959634Y-10974984D01*
X7959634Y-10974984D02*
X7940586Y-10974984D01*
X7940586Y-10974984D02*
X7921539Y-10965460D01*
X7921539Y-10965460D02*
X7912015Y-10955936D01*
X7912015Y-10955936D02*
X7902491Y-10936889D01*
X7902491Y-10936889D02*
X7892967Y-10898793D01*
X7892967Y-10898793D02*
X7892967Y-10851174D01*
X7892967Y-10851174D02*
X7902491Y-10813079D01*
X7902491Y-10813079D02*
X7912015Y-10794031D01*
X7912015Y-10794031D02*
X7921539Y-10784508D01*
X7921539Y-10784508D02*
X7940586Y-10774984D01*
X8131062Y-10774984D02*
X8150110Y-10774984D01*
X8150110Y-10774984D02*
X8169158Y-10784508D01*
X8169158Y-10784508D02*
X8178682Y-10794031D01*
X8178682Y-10794031D02*
X8188205Y-10813079D01*
X8188205Y-10813079D02*
X8197729Y-10851174D01*
X8197729Y-10851174D02*
X8197729Y-10898793D01*
X8197729Y-10898793D02*
X8188205Y-10936889D01*
X8188205Y-10936889D02*
X8178682Y-10955936D01*
X8178682Y-10955936D02*
X8169158Y-10965460D01*
X8169158Y-10965460D02*
X8150110Y-10974984D01*
X8150110Y-10974984D02*
X8131062Y-10974984D01*
X8131062Y-10974984D02*
X8112015Y-10965460D01*
X8112015Y-10965460D02*
X8102491Y-10955936D01*
X8102491Y-10955936D02*
X8092967Y-10936889D01*
X8092967Y-10936889D02*
X8083443Y-10898793D01*
X8083443Y-10898793D02*
X8083443Y-10851174D01*
X8083443Y-10851174D02*
X8092967Y-10813079D01*
X8092967Y-10813079D02*
X8102491Y-10794031D01*
X8102491Y-10794031D02*
X8112015Y-10784508D01*
X8112015Y-10784508D02*
X8131062Y-10774984D01*
X8321539Y-10774984D02*
X8340586Y-10774984D01*
X8340586Y-10774984D02*
X8359634Y-10784508D01*
X8359634Y-10784508D02*
X8369158Y-10794031D01*
X8369158Y-10794031D02*
X8378682Y-10813079D01*
X8378682Y-10813079D02*
X8388205Y-10851174D01*
X8388205Y-10851174D02*
X8388205Y-10898793D01*
X8388205Y-10898793D02*
X8378682Y-10936889D01*
X8378682Y-10936889D02*
X8369158Y-10955936D01*
X8369158Y-10955936D02*
X8359634Y-10965460D01*
X8359634Y-10965460D02*
X8340586Y-10974984D01*
X8340586Y-10974984D02*
X8321539Y-10974984D01*
X8321539Y-10974984D02*
X8302491Y-10965460D01*
X8302491Y-10965460D02*
X8292967Y-10955936D01*
X8292967Y-10955936D02*
X8283443Y-10936889D01*
X8283443Y-10936889D02*
X8273920Y-10898793D01*
X8273920Y-10898793D02*
X8273920Y-10851174D01*
X8273920Y-10851174D02*
X8283443Y-10813079D01*
X8283443Y-10813079D02*
X8292967Y-10794031D01*
X8292967Y-10794031D02*
X8302491Y-10784508D01*
X8302491Y-10784508D02*
X8321539Y-10774984D01*
X8473920Y-10974984D02*
X8473920Y-10841650D01*
X8473920Y-10860698D02*
X8483444Y-10851174D01*
X8483444Y-10851174D02*
X8502491Y-10841650D01*
X8502491Y-10841650D02*
X8531063Y-10841650D01*
X8531063Y-10841650D02*
X8550110Y-10851174D01*
X8550110Y-10851174D02*
X8559634Y-10870222D01*
X8559634Y-10870222D02*
X8559634Y-10974984D01*
X8559634Y-10870222D02*
X8569158Y-10851174D01*
X8569158Y-10851174D02*
X8588205Y-10841650D01*
X8588205Y-10841650D02*
X8616777Y-10841650D01*
X8616777Y-10841650D02*
X8635825Y-10851174D01*
X8635825Y-10851174D02*
X8645348Y-10870222D01*
X8645348Y-10870222D02*
X8645348Y-10974984D01*
X8740586Y-10974984D02*
X8740586Y-10841650D01*
X8740586Y-10860698D02*
X8750110Y-10851174D01*
X8750110Y-10851174D02*
X8769158Y-10841650D01*
X8769158Y-10841650D02*
X8797729Y-10841650D01*
X8797729Y-10841650D02*
X8816777Y-10851174D01*
X8816777Y-10851174D02*
X8826301Y-10870222D01*
X8826301Y-10870222D02*
X8826301Y-10974984D01*
X8826301Y-10870222D02*
X8835825Y-10851174D01*
X8835825Y-10851174D02*
X8854872Y-10841650D01*
X8854872Y-10841650D02*
X8883444Y-10841650D01*
X8883444Y-10841650D02*
X8902491Y-10851174D01*
X8902491Y-10851174D02*
X8912015Y-10870222D01*
X8912015Y-10870222D02*
X8912015Y-10974984D01*
X9302491Y-10765460D02*
X9131063Y-11022603D01*
X9559634Y-10774984D02*
X9578682Y-10774984D01*
X9578682Y-10774984D02*
X9597729Y-10784508D01*
X9597729Y-10784508D02*
X9607253Y-10794031D01*
X9607253Y-10794031D02*
X9616777Y-10813079D01*
X9616777Y-10813079D02*
X9626301Y-10851174D01*
X9626301Y-10851174D02*
X9626301Y-10898793D01*
X9626301Y-10898793D02*
X9616777Y-10936889D01*
X9616777Y-10936889D02*
X9607253Y-10955936D01*
X9607253Y-10955936D02*
X9597729Y-10965460D01*
X9597729Y-10965460D02*
X9578682Y-10974984D01*
X9578682Y-10974984D02*
X9559634Y-10974984D01*
X9559634Y-10974984D02*
X9540587Y-10965460D01*
X9540587Y-10965460D02*
X9531063Y-10955936D01*
X9531063Y-10955936D02*
X9521539Y-10936889D01*
X9521539Y-10936889D02*
X9512015Y-10898793D01*
X9512015Y-10898793D02*
X9512015Y-10851174D01*
X9512015Y-10851174D02*
X9521539Y-10813079D01*
X9521539Y-10813079D02*
X9531063Y-10794031D01*
X9531063Y-10794031D02*
X9540587Y-10784508D01*
X9540587Y-10784508D02*
X9559634Y-10774984D01*
X9712015Y-10955936D02*
X9721539Y-10965460D01*
X9721539Y-10965460D02*
X9712015Y-10974984D01*
X9712015Y-10974984D02*
X9702491Y-10965460D01*
X9702491Y-10965460D02*
X9712015Y-10955936D01*
X9712015Y-10955936D02*
X9712015Y-10974984D01*
X9845348Y-10774984D02*
X9864396Y-10774984D01*
X9864396Y-10774984D02*
X9883444Y-10784508D01*
X9883444Y-10784508D02*
X9892968Y-10794031D01*
X9892968Y-10794031D02*
X9902491Y-10813079D01*
X9902491Y-10813079D02*
X9912015Y-10851174D01*
X9912015Y-10851174D02*
X9912015Y-10898793D01*
X9912015Y-10898793D02*
X9902491Y-10936889D01*
X9902491Y-10936889D02*
X9892968Y-10955936D01*
X9892968Y-10955936D02*
X9883444Y-10965460D01*
X9883444Y-10965460D02*
X9864396Y-10974984D01*
X9864396Y-10974984D02*
X9845348Y-10974984D01*
X9845348Y-10974984D02*
X9826301Y-10965460D01*
X9826301Y-10965460D02*
X9816777Y-10955936D01*
X9816777Y-10955936D02*
X9807253Y-10936889D01*
X9807253Y-10936889D02*
X9797729Y-10898793D01*
X9797729Y-10898793D02*
X9797729Y-10851174D01*
X9797729Y-10851174D02*
X9807253Y-10813079D01*
X9807253Y-10813079D02*
X9816777Y-10794031D01*
X9816777Y-10794031D02*
X9826301Y-10784508D01*
X9826301Y-10784508D02*
X9845348Y-10774984D01*
X9978682Y-10774984D02*
X10102491Y-10774984D01*
X10102491Y-10774984D02*
X10035825Y-10851174D01*
X10035825Y-10851174D02*
X10064396Y-10851174D01*
X10064396Y-10851174D02*
X10083444Y-10860698D01*
X10083444Y-10860698D02*
X10092968Y-10870222D01*
X10092968Y-10870222D02*
X10102491Y-10889270D01*
X10102491Y-10889270D02*
X10102491Y-10936889D01*
X10102491Y-10936889D02*
X10092968Y-10955936D01*
X10092968Y-10955936D02*
X10083444Y-10965460D01*
X10083444Y-10965460D02*
X10064396Y-10974984D01*
X10064396Y-10974984D02*
X10007253Y-10974984D01*
X10007253Y-10974984D02*
X9988206Y-10965460D01*
X9988206Y-10965460D02*
X9978682Y-10955936D01*
X10197729Y-10974984D02*
X10235825Y-10974984D01*
X10235825Y-10974984D02*
X10254872Y-10965460D01*
X10254872Y-10965460D02*
X10264396Y-10955936D01*
X10264396Y-10955936D02*
X10283444Y-10927365D01*
X10283444Y-10927365D02*
X10292968Y-10889270D01*
X10292968Y-10889270D02*
X10292968Y-10813079D01*
X10292968Y-10813079D02*
X10283444Y-10794031D01*
X10283444Y-10794031D02*
X10273920Y-10784508D01*
X10273920Y-10784508D02*
X10254872Y-10774984D01*
X10254872Y-10774984D02*
X10216777Y-10774984D01*
X10216777Y-10774984D02*
X10197729Y-10784508D01*
X10197729Y-10784508D02*
X10188206Y-10794031D01*
X10188206Y-10794031D02*
X10178682Y-10813079D01*
X10178682Y-10813079D02*
X10178682Y-10860698D01*
X10178682Y-10860698D02*
X10188206Y-10879746D01*
X10188206Y-10879746D02*
X10197729Y-10889270D01*
X10197729Y-10889270D02*
X10216777Y-10898793D01*
X10216777Y-10898793D02*
X10254872Y-10898793D01*
X10254872Y-10898793D02*
X10273920Y-10889270D01*
X10273920Y-10889270D02*
X10283444Y-10879746D01*
X10283444Y-10879746D02*
X10292968Y-10860698D01*
X10464396Y-10841650D02*
X10464396Y-10974984D01*
X10416777Y-10765460D02*
X10369158Y-10908317D01*
X10369158Y-10908317D02*
X10492968Y-10908317D01*
X10559634Y-10774984D02*
X10559634Y-10813079D01*
X10635825Y-10774984D02*
X10635825Y-10813079D01*
X10931063Y-11051174D02*
X10921539Y-11041650D01*
X10921539Y-11041650D02*
X10902491Y-11013079D01*
X10902491Y-11013079D02*
X10892968Y-10994031D01*
X10892968Y-10994031D02*
X10883444Y-10965460D01*
X10883444Y-10965460D02*
X10873920Y-10917841D01*
X10873920Y-10917841D02*
X10873920Y-10879746D01*
X10873920Y-10879746D02*
X10883444Y-10832127D01*
X10883444Y-10832127D02*
X10892968Y-10803555D01*
X10892968Y-10803555D02*
X10902491Y-10784508D01*
X10902491Y-10784508D02*
X10921539Y-10755936D01*
X10921539Y-10755936D02*
X10931063Y-10746412D01*
X10997730Y-10794031D02*
X11007253Y-10784508D01*
X11007253Y-10784508D02*
X11026301Y-10774984D01*
X11026301Y-10774984D02*
X11073920Y-10774984D01*
X11073920Y-10774984D02*
X11092968Y-10784508D01*
X11092968Y-10784508D02*
X11102491Y-10794031D01*
X11102491Y-10794031D02*
X11112015Y-10813079D01*
X11112015Y-10813079D02*
X11112015Y-10832127D01*
X11112015Y-10832127D02*
X11102491Y-10860698D01*
X11102491Y-10860698D02*
X10988206Y-10974984D01*
X10988206Y-10974984D02*
X11112015Y-10974984D01*
X11188206Y-10794031D02*
X11197729Y-10784508D01*
X11197729Y-10784508D02*
X11216777Y-10774984D01*
X11216777Y-10774984D02*
X11264396Y-10774984D01*
X11264396Y-10774984D02*
X11283444Y-10784508D01*
X11283444Y-10784508D02*
X11292968Y-10794031D01*
X11292968Y-10794031D02*
X11302491Y-10813079D01*
X11302491Y-10813079D02*
X11302491Y-10832127D01*
X11302491Y-10832127D02*
X11292968Y-10860698D01*
X11292968Y-10860698D02*
X11178682Y-10974984D01*
X11178682Y-10974984D02*
X11302491Y-10974984D01*
X11473920Y-10841650D02*
X11473920Y-10974984D01*
X11426301Y-10765460D02*
X11378682Y-10908317D01*
X11378682Y-10908317D02*
X11502491Y-10908317D01*
X11731063Y-10974984D02*
X11731063Y-10774984D01*
X11816777Y-10974984D02*
X11816777Y-10870222D01*
X11816777Y-10870222D02*
X11807253Y-10851174D01*
X11807253Y-10851174D02*
X11788206Y-10841650D01*
X11788206Y-10841650D02*
X11759634Y-10841650D01*
X11759634Y-10841650D02*
X11740587Y-10851174D01*
X11740587Y-10851174D02*
X11731063Y-10860698D01*
X11940587Y-10974984D02*
X11921539Y-10965460D01*
X11921539Y-10965460D02*
X11912015Y-10955936D01*
X11912015Y-10955936D02*
X11902491Y-10936889D01*
X11902491Y-10936889D02*
X11902491Y-10879746D01*
X11902491Y-10879746D02*
X11912015Y-10860698D01*
X11912015Y-10860698D02*
X11921539Y-10851174D01*
X11921539Y-10851174D02*
X11940587Y-10841650D01*
X11940587Y-10841650D02*
X11969158Y-10841650D01*
X11969158Y-10841650D02*
X11988206Y-10851174D01*
X11988206Y-10851174D02*
X11997730Y-10860698D01*
X11997730Y-10860698D02*
X12007253Y-10879746D01*
X12007253Y-10879746D02*
X12007253Y-10936889D01*
X12007253Y-10936889D02*
X11997730Y-10955936D01*
X11997730Y-10955936D02*
X11988206Y-10965460D01*
X11988206Y-10965460D02*
X11969158Y-10974984D01*
X11969158Y-10974984D02*
X11940587Y-10974984D01*
X12121539Y-10974984D02*
X12102491Y-10965460D01*
X12102491Y-10965460D02*
X12092968Y-10946412D01*
X12092968Y-10946412D02*
X12092968Y-10774984D01*
X12273920Y-10965460D02*
X12254872Y-10974984D01*
X12254872Y-10974984D02*
X12216777Y-10974984D01*
X12216777Y-10974984D02*
X12197730Y-10965460D01*
X12197730Y-10965460D02*
X12188206Y-10946412D01*
X12188206Y-10946412D02*
X12188206Y-10870222D01*
X12188206Y-10870222D02*
X12197730Y-10851174D01*
X12197730Y-10851174D02*
X12216777Y-10841650D01*
X12216777Y-10841650D02*
X12254872Y-10841650D01*
X12254872Y-10841650D02*
X12273920Y-10851174D01*
X12273920Y-10851174D02*
X12283444Y-10870222D01*
X12283444Y-10870222D02*
X12283444Y-10889270D01*
X12283444Y-10889270D02*
X12188206Y-10908317D01*
X12359634Y-10965460D02*
X12378682Y-10974984D01*
X12378682Y-10974984D02*
X12416777Y-10974984D01*
X12416777Y-10974984D02*
X12435825Y-10965460D01*
X12435825Y-10965460D02*
X12445349Y-10946412D01*
X12445349Y-10946412D02*
X12445349Y-10936889D01*
X12445349Y-10936889D02*
X12435825Y-10917841D01*
X12435825Y-10917841D02*
X12416777Y-10908317D01*
X12416777Y-10908317D02*
X12388206Y-10908317D01*
X12388206Y-10908317D02*
X12369158Y-10898793D01*
X12369158Y-10898793D02*
X12359634Y-10879746D01*
X12359634Y-10879746D02*
X12359634Y-10870222D01*
X12359634Y-10870222D02*
X12369158Y-10851174D01*
X12369158Y-10851174D02*
X12388206Y-10841650D01*
X12388206Y-10841650D02*
X12416777Y-10841650D01*
X12416777Y-10841650D02*
X12435825Y-10851174D01*
X12512015Y-11051174D02*
X12521539Y-11041650D01*
X12521539Y-11041650D02*
X12540587Y-11013079D01*
X12540587Y-11013079D02*
X12550111Y-10994031D01*
X12550111Y-10994031D02*
X12559634Y-10965460D01*
X12559634Y-10965460D02*
X12569158Y-10917841D01*
X12569158Y-10917841D02*
X12569158Y-10879746D01*
X12569158Y-10879746D02*
X12559634Y-10832127D01*
X12559634Y-10832127D02*
X12550111Y-10803555D01*
X12550111Y-10803555D02*
X12540587Y-10784508D01*
X12540587Y-10784508D02*
X12521539Y-10755936D01*
X12521539Y-10755936D02*
X12512015Y-10746412D01*
X7256000Y-11047500D02*
X7256000Y-11247500D01*
X7156000Y-11147500D02*
X7356000Y-11147500D01*
X7597729Y-11038984D02*
X7721539Y-11038984D01*
X7721539Y-11038984D02*
X7654872Y-11115174D01*
X7654872Y-11115174D02*
X7683443Y-11115174D01*
X7683443Y-11115174D02*
X7702491Y-11124698D01*
X7702491Y-11124698D02*
X7712015Y-11134222D01*
X7712015Y-11134222D02*
X7721539Y-11153270D01*
X7721539Y-11153270D02*
X7721539Y-11200888D01*
X7721539Y-11200888D02*
X7712015Y-11219936D01*
X7712015Y-11219936D02*
X7702491Y-11229460D01*
X7702491Y-11229460D02*
X7683443Y-11238984D01*
X7683443Y-11238984D02*
X7626301Y-11238984D01*
X7626301Y-11238984D02*
X7607253Y-11229460D01*
X7607253Y-11229460D02*
X7597729Y-11219936D01*
X7807253Y-11219936D02*
X7816777Y-11229460D01*
X7816777Y-11229460D02*
X7807253Y-11238984D01*
X7807253Y-11238984D02*
X7797729Y-11229460D01*
X7797729Y-11229460D02*
X7807253Y-11219936D01*
X7807253Y-11219936D02*
X7807253Y-11238984D01*
X7892967Y-11058031D02*
X7902491Y-11048508D01*
X7902491Y-11048508D02*
X7921539Y-11038984D01*
X7921539Y-11038984D02*
X7969158Y-11038984D01*
X7969158Y-11038984D02*
X7988205Y-11048508D01*
X7988205Y-11048508D02*
X7997729Y-11058031D01*
X7997729Y-11058031D02*
X8007253Y-11077079D01*
X8007253Y-11077079D02*
X8007253Y-11096127D01*
X8007253Y-11096127D02*
X7997729Y-11124698D01*
X7997729Y-11124698D02*
X7883443Y-11238984D01*
X7883443Y-11238984D02*
X8007253Y-11238984D01*
X8131062Y-11038984D02*
X8150110Y-11038984D01*
X8150110Y-11038984D02*
X8169158Y-11048508D01*
X8169158Y-11048508D02*
X8178682Y-11058031D01*
X8178682Y-11058031D02*
X8188205Y-11077079D01*
X8188205Y-11077079D02*
X8197729Y-11115174D01*
X8197729Y-11115174D02*
X8197729Y-11162793D01*
X8197729Y-11162793D02*
X8188205Y-11200888D01*
X8188205Y-11200888D02*
X8178682Y-11219936D01*
X8178682Y-11219936D02*
X8169158Y-11229460D01*
X8169158Y-11229460D02*
X8150110Y-11238984D01*
X8150110Y-11238984D02*
X8131062Y-11238984D01*
X8131062Y-11238984D02*
X8112015Y-11229460D01*
X8112015Y-11229460D02*
X8102491Y-11219936D01*
X8102491Y-11219936D02*
X8092967Y-11200888D01*
X8092967Y-11200888D02*
X8083443Y-11162793D01*
X8083443Y-11162793D02*
X8083443Y-11115174D01*
X8083443Y-11115174D02*
X8092967Y-11077079D01*
X8092967Y-11077079D02*
X8102491Y-11058031D01*
X8102491Y-11058031D02*
X8112015Y-11048508D01*
X8112015Y-11048508D02*
X8131062Y-11038984D01*
X8321539Y-11038984D02*
X8340586Y-11038984D01*
X8340586Y-11038984D02*
X8359634Y-11048508D01*
X8359634Y-11048508D02*
X8369158Y-11058031D01*
X8369158Y-11058031D02*
X8378682Y-11077079D01*
X8378682Y-11077079D02*
X8388205Y-11115174D01*
X8388205Y-11115174D02*
X8388205Y-11162793D01*
X8388205Y-11162793D02*
X8378682Y-11200888D01*
X8378682Y-11200888D02*
X8369158Y-11219936D01*
X8369158Y-11219936D02*
X8359634Y-11229460D01*
X8359634Y-11229460D02*
X8340586Y-11238984D01*
X8340586Y-11238984D02*
X8321539Y-11238984D01*
X8321539Y-11238984D02*
X8302491Y-11229460D01*
X8302491Y-11229460D02*
X8292967Y-11219936D01*
X8292967Y-11219936D02*
X8283443Y-11200888D01*
X8283443Y-11200888D02*
X8273920Y-11162793D01*
X8273920Y-11162793D02*
X8273920Y-11115174D01*
X8273920Y-11115174D02*
X8283443Y-11077079D01*
X8283443Y-11077079D02*
X8292967Y-11058031D01*
X8292967Y-11058031D02*
X8302491Y-11048508D01*
X8302491Y-11048508D02*
X8321539Y-11038984D01*
X8473920Y-11238984D02*
X8473920Y-11105650D01*
X8473920Y-11124698D02*
X8483444Y-11115174D01*
X8483444Y-11115174D02*
X8502491Y-11105650D01*
X8502491Y-11105650D02*
X8531063Y-11105650D01*
X8531063Y-11105650D02*
X8550110Y-11115174D01*
X8550110Y-11115174D02*
X8559634Y-11134222D01*
X8559634Y-11134222D02*
X8559634Y-11238984D01*
X8559634Y-11134222D02*
X8569158Y-11115174D01*
X8569158Y-11115174D02*
X8588205Y-11105650D01*
X8588205Y-11105650D02*
X8616777Y-11105650D01*
X8616777Y-11105650D02*
X8635825Y-11115174D01*
X8635825Y-11115174D02*
X8645348Y-11134222D01*
X8645348Y-11134222D02*
X8645348Y-11238984D01*
X8740586Y-11238984D02*
X8740586Y-11105650D01*
X8740586Y-11124698D02*
X8750110Y-11115174D01*
X8750110Y-11115174D02*
X8769158Y-11105650D01*
X8769158Y-11105650D02*
X8797729Y-11105650D01*
X8797729Y-11105650D02*
X8816777Y-11115174D01*
X8816777Y-11115174D02*
X8826301Y-11134222D01*
X8826301Y-11134222D02*
X8826301Y-11238984D01*
X8826301Y-11134222D02*
X8835825Y-11115174D01*
X8835825Y-11115174D02*
X8854872Y-11105650D01*
X8854872Y-11105650D02*
X8883444Y-11105650D01*
X8883444Y-11105650D02*
X8902491Y-11115174D01*
X8902491Y-11115174D02*
X8912015Y-11134222D01*
X8912015Y-11134222D02*
X8912015Y-11238984D01*
X9302491Y-11029460D02*
X9131063Y-11286603D01*
X9559634Y-11038984D02*
X9578682Y-11038984D01*
X9578682Y-11038984D02*
X9597729Y-11048508D01*
X9597729Y-11048508D02*
X9607253Y-11058031D01*
X9607253Y-11058031D02*
X9616777Y-11077079D01*
X9616777Y-11077079D02*
X9626301Y-11115174D01*
X9626301Y-11115174D02*
X9626301Y-11162793D01*
X9626301Y-11162793D02*
X9616777Y-11200888D01*
X9616777Y-11200888D02*
X9607253Y-11219936D01*
X9607253Y-11219936D02*
X9597729Y-11229460D01*
X9597729Y-11229460D02*
X9578682Y-11238984D01*
X9578682Y-11238984D02*
X9559634Y-11238984D01*
X9559634Y-11238984D02*
X9540587Y-11229460D01*
X9540587Y-11229460D02*
X9531063Y-11219936D01*
X9531063Y-11219936D02*
X9521539Y-11200888D01*
X9521539Y-11200888D02*
X9512015Y-11162793D01*
X9512015Y-11162793D02*
X9512015Y-11115174D01*
X9512015Y-11115174D02*
X9521539Y-11077079D01*
X9521539Y-11077079D02*
X9531063Y-11058031D01*
X9531063Y-11058031D02*
X9540587Y-11048508D01*
X9540587Y-11048508D02*
X9559634Y-11038984D01*
X9712015Y-11219936D02*
X9721539Y-11229460D01*
X9721539Y-11229460D02*
X9712015Y-11238984D01*
X9712015Y-11238984D02*
X9702491Y-11229460D01*
X9702491Y-11229460D02*
X9712015Y-11219936D01*
X9712015Y-11219936D02*
X9712015Y-11238984D01*
X9912015Y-11238984D02*
X9797729Y-11238984D01*
X9854872Y-11238984D02*
X9854872Y-11038984D01*
X9854872Y-11038984D02*
X9835825Y-11067555D01*
X9835825Y-11067555D02*
X9816777Y-11086603D01*
X9816777Y-11086603D02*
X9797729Y-11096127D01*
X9988206Y-11058031D02*
X9997729Y-11048508D01*
X9997729Y-11048508D02*
X10016777Y-11038984D01*
X10016777Y-11038984D02*
X10064396Y-11038984D01*
X10064396Y-11038984D02*
X10083444Y-11048508D01*
X10083444Y-11048508D02*
X10092968Y-11058031D01*
X10092968Y-11058031D02*
X10102491Y-11077079D01*
X10102491Y-11077079D02*
X10102491Y-11096127D01*
X10102491Y-11096127D02*
X10092968Y-11124698D01*
X10092968Y-11124698D02*
X9978682Y-11238984D01*
X9978682Y-11238984D02*
X10102491Y-11238984D01*
X10273920Y-11038984D02*
X10235825Y-11038984D01*
X10235825Y-11038984D02*
X10216777Y-11048508D01*
X10216777Y-11048508D02*
X10207253Y-11058031D01*
X10207253Y-11058031D02*
X10188206Y-11086603D01*
X10188206Y-11086603D02*
X10178682Y-11124698D01*
X10178682Y-11124698D02*
X10178682Y-11200888D01*
X10178682Y-11200888D02*
X10188206Y-11219936D01*
X10188206Y-11219936D02*
X10197729Y-11229460D01*
X10197729Y-11229460D02*
X10216777Y-11238984D01*
X10216777Y-11238984D02*
X10254872Y-11238984D01*
X10254872Y-11238984D02*
X10273920Y-11229460D01*
X10273920Y-11229460D02*
X10283444Y-11219936D01*
X10283444Y-11219936D02*
X10292968Y-11200888D01*
X10292968Y-11200888D02*
X10292968Y-11153270D01*
X10292968Y-11153270D02*
X10283444Y-11134222D01*
X10283444Y-11134222D02*
X10273920Y-11124698D01*
X10273920Y-11124698D02*
X10254872Y-11115174D01*
X10254872Y-11115174D02*
X10216777Y-11115174D01*
X10216777Y-11115174D02*
X10197729Y-11124698D01*
X10197729Y-11124698D02*
X10188206Y-11134222D01*
X10188206Y-11134222D02*
X10178682Y-11153270D01*
X10416777Y-11038984D02*
X10435825Y-11038984D01*
X10435825Y-11038984D02*
X10454872Y-11048508D01*
X10454872Y-11048508D02*
X10464396Y-11058031D01*
X10464396Y-11058031D02*
X10473920Y-11077079D01*
X10473920Y-11077079D02*
X10483444Y-11115174D01*
X10483444Y-11115174D02*
X10483444Y-11162793D01*
X10483444Y-11162793D02*
X10473920Y-11200888D01*
X10473920Y-11200888D02*
X10464396Y-11219936D01*
X10464396Y-11219936D02*
X10454872Y-11229460D01*
X10454872Y-11229460D02*
X10435825Y-11238984D01*
X10435825Y-11238984D02*
X10416777Y-11238984D01*
X10416777Y-11238984D02*
X10397729Y-11229460D01*
X10397729Y-11229460D02*
X10388206Y-11219936D01*
X10388206Y-11219936D02*
X10378682Y-11200888D01*
X10378682Y-11200888D02*
X10369158Y-11162793D01*
X10369158Y-11162793D02*
X10369158Y-11115174D01*
X10369158Y-11115174D02*
X10378682Y-11077079D01*
X10378682Y-11077079D02*
X10388206Y-11058031D01*
X10388206Y-11058031D02*
X10397729Y-11048508D01*
X10397729Y-11048508D02*
X10416777Y-11038984D01*
X10559634Y-11038984D02*
X10559634Y-11077079D01*
X10635825Y-11038984D02*
X10635825Y-11077079D01*
X10931063Y-11315174D02*
X10921539Y-11305650D01*
X10921539Y-11305650D02*
X10902491Y-11277079D01*
X10902491Y-11277079D02*
X10892968Y-11258031D01*
X10892968Y-11258031D02*
X10883444Y-11229460D01*
X10883444Y-11229460D02*
X10873920Y-11181841D01*
X10873920Y-11181841D02*
X10873920Y-11143746D01*
X10873920Y-11143746D02*
X10883444Y-11096127D01*
X10883444Y-11096127D02*
X10892968Y-11067555D01*
X10892968Y-11067555D02*
X10902491Y-11048508D01*
X10902491Y-11048508D02*
X10921539Y-11019936D01*
X10921539Y-11019936D02*
X10931063Y-11010412D01*
X10997730Y-11058031D02*
X11007253Y-11048508D01*
X11007253Y-11048508D02*
X11026301Y-11038984D01*
X11026301Y-11038984D02*
X11073920Y-11038984D01*
X11073920Y-11038984D02*
X11092968Y-11048508D01*
X11092968Y-11048508D02*
X11102491Y-11058031D01*
X11102491Y-11058031D02*
X11112015Y-11077079D01*
X11112015Y-11077079D02*
X11112015Y-11096127D01*
X11112015Y-11096127D02*
X11102491Y-11124698D01*
X11102491Y-11124698D02*
X10988206Y-11238984D01*
X10988206Y-11238984D02*
X11112015Y-11238984D01*
X11350110Y-11238984D02*
X11350110Y-11038984D01*
X11435825Y-11238984D02*
X11435825Y-11134222D01*
X11435825Y-11134222D02*
X11426301Y-11115174D01*
X11426301Y-11115174D02*
X11407253Y-11105650D01*
X11407253Y-11105650D02*
X11378682Y-11105650D01*
X11378682Y-11105650D02*
X11359634Y-11115174D01*
X11359634Y-11115174D02*
X11350110Y-11124698D01*
X11559634Y-11238984D02*
X11540587Y-11229460D01*
X11540587Y-11229460D02*
X11531063Y-11219936D01*
X11531063Y-11219936D02*
X11521539Y-11200888D01*
X11521539Y-11200888D02*
X11521539Y-11143746D01*
X11521539Y-11143746D02*
X11531063Y-11124698D01*
X11531063Y-11124698D02*
X11540587Y-11115174D01*
X11540587Y-11115174D02*
X11559634Y-11105650D01*
X11559634Y-11105650D02*
X11588206Y-11105650D01*
X11588206Y-11105650D02*
X11607253Y-11115174D01*
X11607253Y-11115174D02*
X11616777Y-11124698D01*
X11616777Y-11124698D02*
X11626301Y-11143746D01*
X11626301Y-11143746D02*
X11626301Y-11200888D01*
X11626301Y-11200888D02*
X11616777Y-11219936D01*
X11616777Y-11219936D02*
X11607253Y-11229460D01*
X11607253Y-11229460D02*
X11588206Y-11238984D01*
X11588206Y-11238984D02*
X11559634Y-11238984D01*
X11740587Y-11238984D02*
X11721539Y-11229460D01*
X11721539Y-11229460D02*
X11712015Y-11210412D01*
X11712015Y-11210412D02*
X11712015Y-11038984D01*
X11892968Y-11229460D02*
X11873920Y-11238984D01*
X11873920Y-11238984D02*
X11835825Y-11238984D01*
X11835825Y-11238984D02*
X11816777Y-11229460D01*
X11816777Y-11229460D02*
X11807253Y-11210412D01*
X11807253Y-11210412D02*
X11807253Y-11134222D01*
X11807253Y-11134222D02*
X11816777Y-11115174D01*
X11816777Y-11115174D02*
X11835825Y-11105650D01*
X11835825Y-11105650D02*
X11873920Y-11105650D01*
X11873920Y-11105650D02*
X11892968Y-11115174D01*
X11892968Y-11115174D02*
X11902491Y-11134222D01*
X11902491Y-11134222D02*
X11902491Y-11153270D01*
X11902491Y-11153270D02*
X11807253Y-11172317D01*
X11978682Y-11229460D02*
X11997730Y-11238984D01*
X11997730Y-11238984D02*
X12035825Y-11238984D01*
X12035825Y-11238984D02*
X12054872Y-11229460D01*
X12054872Y-11229460D02*
X12064396Y-11210412D01*
X12064396Y-11210412D02*
X12064396Y-11200888D01*
X12064396Y-11200888D02*
X12054872Y-11181841D01*
X12054872Y-11181841D02*
X12035825Y-11172317D01*
X12035825Y-11172317D02*
X12007253Y-11172317D01*
X12007253Y-11172317D02*
X11988206Y-11162793D01*
X11988206Y-11162793D02*
X11978682Y-11143746D01*
X11978682Y-11143746D02*
X11978682Y-11134222D01*
X11978682Y-11134222D02*
X11988206Y-11115174D01*
X11988206Y-11115174D02*
X12007253Y-11105650D01*
X12007253Y-11105650D02*
X12035825Y-11105650D01*
X12035825Y-11105650D02*
X12054872Y-11115174D01*
X12131063Y-11315174D02*
X12140587Y-11305650D01*
X12140587Y-11305650D02*
X12159634Y-11277079D01*
X12159634Y-11277079D02*
X12169158Y-11258031D01*
X12169158Y-11258031D02*
X12178682Y-11229460D01*
X12178682Y-11229460D02*
X12188206Y-11181841D01*
X12188206Y-11181841D02*
X12188206Y-11143746D01*
X12188206Y-11143746D02*
X12178682Y-11096127D01*
X12178682Y-11096127D02*
X12169158Y-11067555D01*
X12169158Y-11067555D02*
X12159634Y-11048508D01*
X12159634Y-11048508D02*
X12140587Y-11019936D01*
X12140587Y-11019936D02*
X12131063Y-11010412D01*
M02*
