G04 #@! TF.GenerationSoftware,KiCad,Pcbnew,8.0.8*
G04 #@! TF.CreationDate,2025-02-08T14:03:33+10:30*
G04 #@! TF.ProjectId,tt06-vga-interposer,74743036-2d76-4676-912d-696e74657270,rev?*
G04 #@! TF.SameCoordinates,Original*
G04 #@! TF.FileFunction,Paste,Top*
G04 #@! TF.FilePolarity,Positive*
%FSLAX46Y46*%
G04 Gerber Fmt 4.6, Leading zero omitted, Abs format (unit mm)*
G04 Created by KiCad (PCBNEW 8.0.8) date 2025-02-08 14:03:33*
%MOMM*%
%LPD*%
G01*
G04 APERTURE LIST*
G04 Aperture macros list*
%AMRoundRect*
0 Rectangle with rounded corners*
0 $1 Rounding radius*
0 $2 $3 $4 $5 $6 $7 $8 $9 X,Y pos of 4 corners*
0 Add a 4 corners polygon primitive as box body*
4,1,4,$2,$3,$4,$5,$6,$7,$8,$9,$2,$3,0*
0 Add four circle primitives for the rounded corners*
1,1,$1+$1,$2,$3*
1,1,$1+$1,$4,$5*
1,1,$1+$1,$6,$7*
1,1,$1+$1,$8,$9*
0 Add four rect primitives between the rounded corners*
20,1,$1+$1,$2,$3,$4,$5,0*
20,1,$1+$1,$4,$5,$6,$7,0*
20,1,$1+$1,$6,$7,$8,$9,0*
20,1,$1+$1,$8,$9,$2,$3,0*%
G04 Aperture macros list end*
%ADD10RoundRect,0.396226X-0.653774X-0.953774X0.653774X-0.953774X0.653774X0.953774X-0.653774X0.953774X0*%
%ADD11RoundRect,0.396226X0.953774X-0.653774X0.953774X0.653774X-0.953774X0.653774X-0.953774X-0.653774X0*%
%ADD12RoundRect,0.396226X-0.953774X0.653774X-0.953774X-0.653774X0.953774X-0.653774X0.953774X0.653774X0*%
%ADD13RoundRect,0.100000X0.100000X-1.037500X0.100000X1.037500X-0.100000X1.037500X-0.100000X-1.037500X0*%
%ADD14RoundRect,0.396226X0.653774X0.953774X-0.653774X0.953774X-0.653774X-0.953774X0.653774X-0.953774X0*%
G04 APERTURE END LIST*
D10*
X106727000Y-68707000D03*
X109427000Y-68707000D03*
D11*
X107950000Y-84535000D03*
X107950000Y-81835000D03*
D12*
X107950000Y-88439000D03*
X107950000Y-91139000D03*
X95250000Y-88439000D03*
X95250000Y-91139000D03*
D11*
X102235000Y-72343000D03*
X102235000Y-69643000D03*
X99441000Y-66755000D03*
X99441000Y-64055000D03*
X91440000Y-71835000D03*
X91440000Y-69135000D03*
D10*
X91360000Y-75565000D03*
X94060000Y-75565000D03*
D11*
X111252000Y-84535000D03*
X111252000Y-81835000D03*
D10*
X106727000Y-65405000D03*
X109427000Y-65405000D03*
D12*
X110871000Y-71929000D03*
X110871000Y-74629000D03*
D11*
X91821000Y-53547000D03*
X91821000Y-50847000D03*
D13*
X98380000Y-81776500D03*
X99030000Y-81776500D03*
X99680000Y-81776500D03*
X100330000Y-81776500D03*
X100980000Y-81776500D03*
X101630000Y-81776500D03*
X102280000Y-81776500D03*
X102280000Y-75251500D03*
X101630000Y-75251500D03*
X100980000Y-75251500D03*
X100330000Y-75251500D03*
X99680000Y-75251500D03*
X99030000Y-75251500D03*
X98380000Y-75251500D03*
D11*
X98933000Y-72343000D03*
X98933000Y-69643000D03*
D12*
X102870000Y-88439000D03*
X102870000Y-91139000D03*
D11*
X93853000Y-65405000D03*
X93853000Y-62705000D03*
D12*
X106553000Y-71929000D03*
X106553000Y-74629000D03*
D11*
X111760000Y-91139000D03*
X111760000Y-88439000D03*
X90551000Y-65405000D03*
X90551000Y-62705000D03*
X129413000Y-64977000D03*
X129413000Y-62277000D03*
X102743000Y-66755000D03*
X102743000Y-64055000D03*
D13*
X94738000Y-56983500D03*
X95388000Y-56983500D03*
X96038000Y-56983500D03*
X96688000Y-56983500D03*
X97338000Y-56983500D03*
X97988000Y-56983500D03*
X98638000Y-56983500D03*
X99288000Y-56983500D03*
X99938000Y-56983500D03*
X100588000Y-56983500D03*
X100588000Y-50458500D03*
X99938000Y-50458500D03*
X99288000Y-50458500D03*
X98638000Y-50458500D03*
X97988000Y-50458500D03*
X97338000Y-50458500D03*
X96688000Y-50458500D03*
X96038000Y-50458500D03*
X95388000Y-50458500D03*
X94738000Y-50458500D03*
D10*
X105711000Y-53721000D03*
X108411000Y-53721000D03*
D12*
X129413000Y-39925000D03*
X129413000Y-42625000D03*
D11*
X94742000Y-71835000D03*
X94742000Y-69135000D03*
D14*
X94060000Y-78867000D03*
X91360000Y-78867000D03*
D12*
X99060000Y-88439000D03*
X99060000Y-91139000D03*
M02*
