G04 #@! TF.GenerationSoftware,KiCad,Pcbnew,8.0.8*
G04 #@! TF.CreationDate,2025-02-08T14:03:33+10:30*
G04 #@! TF.ProjectId,tt06-vga-interposer,74743036-2d76-4676-912d-696e74657270,rev?*
G04 #@! TF.SameCoordinates,Original*
G04 #@! TF.FileFunction,Soldermask,Top*
G04 #@! TF.FilePolarity,Negative*
%FSLAX46Y46*%
G04 Gerber Fmt 4.6, Leading zero omitted, Abs format (unit mm)*
G04 Created by KiCad (PCBNEW 8.0.8) date 2025-02-08 14:03:33*
%MOMM*%
%LPD*%
G01*
G04 APERTURE LIST*
G04 Aperture macros list*
%AMRoundRect*
0 Rectangle with rounded corners*
0 $1 Rounding radius*
0 $2 $3 $4 $5 $6 $7 $8 $9 X,Y pos of 4 corners*
0 Add a 4 corners polygon primitive as box body*
4,1,4,$2,$3,$4,$5,$6,$7,$8,$9,$2,$3,0*
0 Add four circle primitives for the rounded corners*
1,1,$1+$1,$2,$3*
1,1,$1+$1,$4,$5*
1,1,$1+$1,$6,$7*
1,1,$1+$1,$8,$9*
0 Add four rect primitives between the rounded corners*
20,1,$1+$1,$2,$3,$4,$5,0*
20,1,$1+$1,$4,$5,$6,$7,0*
20,1,$1+$1,$6,$7,$8,$9,0*
20,1,$1+$1,$8,$9,$2,$3,0*%
%AMFreePoly0*
4,1,17,-0.500000,0.000000,-0.488573,0.106283,-0.438839,0.239624,-0.353553,0.353553,-0.239624,0.438839,-0.106283,0.488573,0.000000,0.500000,0.500000,0.500000,0.500000,-0.500000,0.000000,-0.500000,-0.106283,-0.488573,-0.239624,-0.438839,-0.353553,-0.353553,-0.438839,-0.239624,-0.488573,-0.106283,-0.500000,0.000000,-0.500000,0.000000,-0.500000,0.000000,$1*%
%AMFreePoly1*
4,1,16,-0.500000,0.500000,0.000000,0.500000,0.106283,0.488573,0.239624,0.438839,0.353553,0.353553,0.438839,0.239624,0.488573,0.106283,0.500000,0.000000,0.488573,-0.106283,0.438839,-0.239624,0.353553,-0.353553,0.239624,-0.438839,0.106283,-0.488573,0.000000,-0.500000,-0.500000,-0.500000,-0.500000,0.500000,-0.500000,0.500000,$1*%
G04 Aperture macros list end*
%ADD10RoundRect,0.396226X-0.653774X-0.953774X0.653774X-0.953774X0.653774X0.953774X-0.653774X0.953774X0*%
%ADD11RoundRect,0.396226X0.953774X-0.653774X0.953774X0.653774X-0.953774X0.653774X-0.953774X-0.653774X0*%
%ADD12R,1.700000X1.700000*%
%ADD13O,1.700000X1.700000*%
%ADD14RoundRect,0.396226X-0.953774X0.653774X-0.953774X-0.653774X0.953774X-0.653774X0.953774X0.653774X0*%
%ADD15FreePoly0,90.000000*%
%ADD16FreePoly1,90.000000*%
%ADD17FreePoly0,0.000000*%
%ADD18FreePoly1,0.000000*%
%ADD19RoundRect,0.100000X0.100000X-1.037500X0.100000X1.037500X-0.100000X1.037500X-0.100000X-1.037500X0*%
%ADD20RoundRect,1.000000X2.250000X-1.500000X2.250000X1.500000X-2.250000X1.500000X-2.250000X-1.500000X0*%
%ADD21R,1.600000X1.600000*%
%ADD22C,1.600000*%
%ADD23RoundRect,0.396226X0.653774X0.953774X-0.653774X0.953774X-0.653774X-0.953774X0.653774X-0.953774X0*%
G04 APERTURE END LIST*
G36*
X101481000Y-51839000D02*
G01*
X102481000Y-51839000D01*
X102481000Y-51539000D01*
X101481000Y-51539000D01*
X101481000Y-51839000D01*
G37*
G36*
X105641000Y-58047000D02*
G01*
X105941000Y-58047000D01*
X105941000Y-59047000D01*
X105641000Y-59047000D01*
X105641000Y-58047000D01*
G37*
G36*
X88130000Y-79129000D02*
G01*
X88430000Y-79129000D01*
X88430000Y-80129000D01*
X88130000Y-80129000D01*
X88130000Y-79129000D01*
G37*
G36*
X105641000Y-56523000D02*
G01*
X105941000Y-56523000D01*
X105941000Y-57523000D01*
X105641000Y-57523000D01*
X105641000Y-56523000D01*
G37*
G36*
X99124000Y-53802500D02*
G01*
X100124000Y-53802500D01*
X100124000Y-53502500D01*
X99124000Y-53502500D01*
X99124000Y-53802500D01*
G37*
G36*
X88130000Y-74049000D02*
G01*
X88430000Y-74049000D01*
X88430000Y-75049000D01*
X88130000Y-75049000D01*
X88130000Y-74049000D01*
G37*
D10*
X106727000Y-68707000D03*
X109427000Y-68707000D03*
D11*
X107950000Y-84535000D03*
X107950000Y-81835000D03*
D12*
X99060000Y-84836000D03*
X109347000Y-61849000D03*
D13*
X106807000Y-61849000D03*
D12*
X75565000Y-44069000D03*
D13*
X78105000Y-44069000D03*
X80645000Y-44069000D03*
X83185000Y-44069000D03*
D14*
X107950000Y-88439000D03*
X107950000Y-91139000D03*
X95250000Y-88439000D03*
X95250000Y-91139000D03*
D11*
X102235000Y-72343000D03*
X102235000Y-69643000D03*
D12*
X104780000Y-94869000D03*
D13*
X104780000Y-97409000D03*
X102240000Y-94869000D03*
X102240000Y-97409000D03*
X99700000Y-94869000D03*
X99700000Y-97409000D03*
X97160000Y-94869000D03*
X97160000Y-97409000D03*
X94620000Y-94869000D03*
X94620000Y-97409000D03*
X92080000Y-94869000D03*
X92080000Y-97409000D03*
X89540000Y-94869000D03*
X89540000Y-97409000D03*
D11*
X99441000Y-66755000D03*
X99441000Y-64055000D03*
D15*
X101981000Y-52339000D03*
D16*
X101981000Y-51039000D03*
D17*
X105141000Y-58547000D03*
D18*
X106441000Y-58547000D03*
D17*
X87630000Y-79629000D03*
D18*
X88930000Y-79629000D03*
D11*
X91440000Y-71835000D03*
X91440000Y-69135000D03*
D10*
X91360000Y-75565000D03*
X94060000Y-75565000D03*
D11*
X111252000Y-84535000D03*
X111252000Y-81835000D03*
D17*
X105141000Y-57023000D03*
D18*
X106441000Y-57023000D03*
D10*
X106727000Y-65405000D03*
X109427000Y-65405000D03*
D14*
X110871000Y-71929000D03*
X110871000Y-74629000D03*
D11*
X91821000Y-53547000D03*
X91821000Y-50847000D03*
D12*
X101727000Y-60833000D03*
D13*
X99187000Y-60833000D03*
D19*
X98380000Y-81776500D03*
X99030000Y-81776500D03*
X99680000Y-81776500D03*
X100330000Y-81776500D03*
X100980000Y-81776500D03*
X101630000Y-81776500D03*
X102280000Y-81776500D03*
X102280000Y-75251500D03*
X101630000Y-75251500D03*
X100980000Y-75251500D03*
X100330000Y-75251500D03*
X99680000Y-75251500D03*
X99030000Y-75251500D03*
X98380000Y-75251500D03*
D11*
X98933000Y-72343000D03*
X98933000Y-69643000D03*
D14*
X102870000Y-88439000D03*
X102870000Y-91139000D03*
D12*
X89535000Y-45593000D03*
D13*
X89535000Y-43053000D03*
X92075000Y-45593000D03*
X92075000Y-43053000D03*
X94615000Y-45593000D03*
X94615000Y-43053000D03*
X97155000Y-45593000D03*
X97155000Y-43053000D03*
X99695000Y-45593000D03*
X99695000Y-43053000D03*
X102235000Y-45593000D03*
X102235000Y-43053000D03*
X104775000Y-45593000D03*
X104775000Y-43053000D03*
X107315000Y-45593000D03*
X107315000Y-43053000D03*
X109855000Y-45593000D03*
X109855000Y-43053000D03*
D12*
X102870000Y-84836000D03*
X114427000Y-44069000D03*
D13*
X116967000Y-44069000D03*
X119507000Y-44069000D03*
X122047000Y-44069000D03*
D11*
X93853000Y-65405000D03*
X93853000Y-62705000D03*
D14*
X106553000Y-71929000D03*
X106553000Y-74629000D03*
D11*
X111760000Y-91139000D03*
X111760000Y-88439000D03*
X90551000Y-65405000D03*
X90551000Y-62705000D03*
D12*
X123185000Y-49149000D03*
D13*
X125725000Y-49149000D03*
X123185000Y-51689000D03*
X125725000Y-51689000D03*
X123185000Y-54229000D03*
X125725000Y-54229000D03*
X123185000Y-56769000D03*
X125725000Y-56769000D03*
X123185000Y-59309000D03*
X125725000Y-59309000D03*
X123185000Y-61849000D03*
X125725000Y-61849000D03*
X123185000Y-64389000D03*
X125725000Y-64389000D03*
X123185000Y-66929000D03*
X125725000Y-66929000D03*
X123185000Y-69469000D03*
X125725000Y-69469000D03*
X123185000Y-72009000D03*
X125725000Y-72009000D03*
X123185000Y-74549000D03*
X125725000Y-74549000D03*
X123185000Y-77089000D03*
X125725000Y-77089000D03*
X123185000Y-79629000D03*
X125725000Y-79629000D03*
X123185000Y-82169000D03*
X125725000Y-82169000D03*
X123185000Y-84709000D03*
X125725000Y-84709000D03*
X123185000Y-87249000D03*
X125725000Y-87249000D03*
X123185000Y-89789000D03*
X125725000Y-89789000D03*
X123185000Y-92329000D03*
X125725000Y-92329000D03*
X123185000Y-94869000D03*
X125725000Y-94869000D03*
X123185000Y-97409000D03*
X125725000Y-97409000D03*
D11*
X129413000Y-64977000D03*
X129413000Y-62277000D03*
D12*
X83185000Y-49149000D03*
D13*
X85725000Y-49149000D03*
X83185000Y-51689000D03*
X85725000Y-51689000D03*
X83185000Y-54229000D03*
X85725000Y-54229000D03*
X83185000Y-56769000D03*
X85725000Y-56769000D03*
X83185000Y-59309000D03*
X85725000Y-59309000D03*
X83185000Y-61849000D03*
X85725000Y-61849000D03*
X83185000Y-64389000D03*
X85725000Y-64389000D03*
X83185000Y-66929000D03*
X85725000Y-66929000D03*
X83185000Y-69469000D03*
X85725000Y-69469000D03*
X83185000Y-72009000D03*
X85725000Y-72009000D03*
X83185000Y-74549000D03*
X85725000Y-74549000D03*
X83185000Y-77089000D03*
X85725000Y-77089000D03*
X83185000Y-79629000D03*
X85725000Y-79629000D03*
X83185000Y-82169000D03*
X85725000Y-82169000D03*
X83185000Y-84709000D03*
X85725000Y-84709000D03*
X83185000Y-87249000D03*
X85725000Y-87249000D03*
X83185000Y-89789000D03*
X85725000Y-89789000D03*
X83185000Y-92329000D03*
X85725000Y-92329000D03*
X83185000Y-94869000D03*
X85725000Y-94869000D03*
X83185000Y-97409000D03*
X85725000Y-97409000D03*
D15*
X99624000Y-54302500D03*
D16*
X99624000Y-53002500D03*
D12*
X109855000Y-77724000D03*
D13*
X107315000Y-77724000D03*
D11*
X102743000Y-66755000D03*
X102743000Y-64055000D03*
D19*
X94738000Y-56983500D03*
X95388000Y-56983500D03*
X96038000Y-56983500D03*
X96688000Y-56983500D03*
X97338000Y-56983500D03*
X97988000Y-56983500D03*
X98638000Y-56983500D03*
X99288000Y-56983500D03*
X99938000Y-56983500D03*
X100588000Y-56983500D03*
X100588000Y-50458500D03*
X99938000Y-50458500D03*
X99288000Y-50458500D03*
X98638000Y-50458500D03*
X97988000Y-50458500D03*
X97338000Y-50458500D03*
X96688000Y-50458500D03*
X96038000Y-50458500D03*
X95388000Y-50458500D03*
X94738000Y-50458500D03*
D12*
X95250000Y-84836000D03*
D10*
X105711000Y-53721000D03*
X108411000Y-53721000D03*
D17*
X87630000Y-74549000D03*
D18*
X88930000Y-74549000D03*
D20*
X135833000Y-67474000D03*
X135833000Y-42474000D03*
D21*
X133223000Y-50659000D03*
D22*
X133223000Y-52949000D03*
X133223000Y-55239000D03*
X133223000Y-57529000D03*
X133223000Y-59819000D03*
X135763000Y-49514000D03*
X135763000Y-51804000D03*
X135763000Y-54094000D03*
X135763000Y-56384000D03*
X135763000Y-58674000D03*
X138303000Y-50659000D03*
X138303000Y-52949000D03*
X138303000Y-55239000D03*
X138303000Y-57529000D03*
X138303000Y-59819000D03*
D14*
X129413000Y-39925000D03*
X129413000Y-42625000D03*
D11*
X94742000Y-71835000D03*
X94742000Y-69135000D03*
D23*
X94060000Y-78867000D03*
X91360000Y-78867000D03*
D14*
X99060000Y-88439000D03*
X99060000Y-91139000D03*
D12*
X115565000Y-49149000D03*
D13*
X118105000Y-49149000D03*
X115565000Y-51689000D03*
X118105000Y-51689000D03*
X115565000Y-54229000D03*
X118105000Y-54229000D03*
X115565000Y-56769000D03*
X118105000Y-56769000D03*
X115565000Y-59309000D03*
X118105000Y-59309000D03*
X115565000Y-61849000D03*
X118105000Y-61849000D03*
X115565000Y-64389000D03*
X118105000Y-64389000D03*
X115565000Y-66929000D03*
X118105000Y-66929000D03*
X115565000Y-69469000D03*
X118105000Y-69469000D03*
X115565000Y-72009000D03*
X118105000Y-72009000D03*
X115565000Y-74549000D03*
X118105000Y-74549000D03*
X115565000Y-77089000D03*
X118105000Y-77089000D03*
X115565000Y-79629000D03*
X118105000Y-79629000D03*
X115565000Y-82169000D03*
X118105000Y-82169000D03*
X115565000Y-84709000D03*
X118105000Y-84709000D03*
X115565000Y-87249000D03*
X118105000Y-87249000D03*
X115565000Y-89789000D03*
X118105000Y-89789000D03*
X115565000Y-92329000D03*
X118105000Y-92329000D03*
X115565000Y-94869000D03*
X118105000Y-94869000D03*
X115565000Y-97409000D03*
X118105000Y-97409000D03*
D12*
X75565000Y-49149000D03*
D13*
X78105000Y-49149000D03*
X75565000Y-51689000D03*
X78105000Y-51689000D03*
X75565000Y-54229000D03*
X78105000Y-54229000D03*
X75565000Y-56769000D03*
X78105000Y-56769000D03*
X75565000Y-59309000D03*
X78105000Y-59309000D03*
X75565000Y-61849000D03*
X78105000Y-61849000D03*
X75565000Y-64389000D03*
X78105000Y-64389000D03*
X75565000Y-66929000D03*
X78105000Y-66929000D03*
X75565000Y-69469000D03*
X78105000Y-69469000D03*
X75565000Y-72009000D03*
X78105000Y-72009000D03*
X75565000Y-74549000D03*
X78105000Y-74549000D03*
X75565000Y-77089000D03*
X78105000Y-77089000D03*
X75565000Y-79629000D03*
X78105000Y-79629000D03*
X75565000Y-82169000D03*
X78105000Y-82169000D03*
X75565000Y-84709000D03*
X78105000Y-84709000D03*
X75565000Y-87249000D03*
X78105000Y-87249000D03*
X75565000Y-89789000D03*
X78105000Y-89789000D03*
X75565000Y-92329000D03*
X78105000Y-92329000D03*
X75565000Y-94869000D03*
X78105000Y-94869000D03*
X75565000Y-97409000D03*
X78105000Y-97409000D03*
M02*
