G04 #@! TF.GenerationSoftware,KiCad,Pcbnew,8.0.3*
G04 #@! TF.CreationDate,2025-01-02T16:48:01+10:30*
G04 #@! TF.ProjectId,tt06-vga-opamp,74743036-2d76-4676-912d-6f70616d702e,rev?*
G04 #@! TF.SameCoordinates,Original*
G04 #@! TF.FileFunction,Soldermask,Bot*
G04 #@! TF.FilePolarity,Negative*
%FSLAX46Y46*%
G04 Gerber Fmt 4.6, Leading zero omitted, Abs format (unit mm)*
G04 Created by KiCad (PCBNEW 8.0.3) date 2025-01-02 16:48:01*
%MOMM*%
%LPD*%
G01*
G04 APERTURE LIST*
G04 Aperture macros list*
%AMRoundRect*
0 Rectangle with rounded corners*
0 $1 Rounding radius*
0 $2 $3 $4 $5 $6 $7 $8 $9 X,Y pos of 4 corners*
0 Add a 4 corners polygon primitive as box body*
4,1,4,$2,$3,$4,$5,$6,$7,$8,$9,$2,$3,0*
0 Add four circle primitives for the rounded corners*
1,1,$1+$1,$2,$3*
1,1,$1+$1,$4,$5*
1,1,$1+$1,$6,$7*
1,1,$1+$1,$8,$9*
0 Add four rect primitives between the rounded corners*
20,1,$1+$1,$2,$3,$4,$5,0*
20,1,$1+$1,$4,$5,$6,$7,0*
20,1,$1+$1,$6,$7,$8,$9,0*
20,1,$1+$1,$8,$9,$2,$3,0*%
G04 Aperture macros list end*
%ADD10R,1.700000X1.700000*%
%ADD11O,1.700000X1.700000*%
%ADD12C,7.500000*%
%ADD13RoundRect,0.100000X-1.037500X-0.100000X1.037500X-0.100000X1.037500X0.100000X-1.037500X0.100000X0*%
%ADD14RoundRect,1.000000X2.250000X-1.500000X2.250000X1.500000X-2.250000X1.500000X-2.250000X-1.500000X0*%
%ADD15R,1.600000X1.600000*%
%ADD16C,1.600000*%
%ADD17C,1.560000*%
%ADD18R,1.560000X1.560000*%
%ADD19RoundRect,0.396226X0.953774X-0.653774X0.953774X0.653774X-0.953774X0.653774X-0.953774X-0.653774X0*%
G04 APERTURE END LIST*
D10*
X76200000Y-107950000D03*
D11*
X76200000Y-110490000D03*
X76200000Y-113030000D03*
X76200000Y-115570000D03*
D10*
X76200000Y-69850000D03*
D11*
X76200000Y-72390000D03*
X76200000Y-74930000D03*
X76200000Y-77470000D03*
D12*
X166660000Y-145070000D03*
X80660000Y-145070000D03*
X166660000Y-59070000D03*
X80660000Y-59070000D03*
D10*
X114935000Y-116840000D03*
D11*
X117475000Y-116840000D03*
D10*
X99695000Y-116840000D03*
D11*
X102235000Y-116840000D03*
X104775000Y-116840000D03*
X107315000Y-116840000D03*
D10*
X89535000Y-116840000D03*
D11*
X92075000Y-116840000D03*
X94615000Y-116840000D03*
D10*
X114935000Y-91440000D03*
D11*
X117475000Y-91440000D03*
D10*
X99695000Y-91440000D03*
D11*
X102235000Y-91440000D03*
X104775000Y-91440000D03*
X107315000Y-91440000D03*
D10*
X89535000Y-91440000D03*
D11*
X92075000Y-91440000D03*
X94615000Y-91440000D03*
D10*
X114935000Y-66040000D03*
D11*
X117475000Y-66040000D03*
D10*
X99695000Y-66040000D03*
D11*
X102235000Y-66040000D03*
X104775000Y-66040000D03*
X107315000Y-66040000D03*
D10*
X89535000Y-66040000D03*
D11*
X92075000Y-66040000D03*
X94615000Y-66040000D03*
D13*
X101687500Y-83230000D03*
X101687500Y-82580000D03*
X101687500Y-81930000D03*
X101687500Y-81280000D03*
X101687500Y-80630000D03*
X101687500Y-79980000D03*
X101687500Y-79330000D03*
X95162500Y-79330000D03*
X95162500Y-79980000D03*
X95162500Y-80630000D03*
X95162500Y-81280000D03*
X95162500Y-81930000D03*
X95162500Y-82580000D03*
X95162500Y-83230000D03*
D14*
X165170000Y-103175000D03*
X165170000Y-78175000D03*
D15*
X162560000Y-86360000D03*
D16*
X162560000Y-88650000D03*
X162560000Y-90940000D03*
X162560000Y-93230000D03*
X162560000Y-95520000D03*
X165100000Y-85215000D03*
X165100000Y-87505000D03*
X165100000Y-89795000D03*
X165100000Y-92085000D03*
X165100000Y-94375000D03*
X167640000Y-86360000D03*
X167640000Y-88650000D03*
X167640000Y-90940000D03*
X167640000Y-93230000D03*
X167640000Y-95520000D03*
D10*
X97155000Y-116840000D03*
X97155000Y-91440000D03*
X97155000Y-66040000D03*
D17*
X132415000Y-123785000D03*
X127415000Y-121285000D03*
D18*
X132415000Y-118785000D03*
D17*
X108885000Y-120690000D03*
X113885000Y-123190000D03*
D18*
X108885000Y-125690000D03*
X132415000Y-93385000D03*
D17*
X127415000Y-95885000D03*
X132415000Y-98385000D03*
X108885000Y-95290000D03*
X113885000Y-97790000D03*
D18*
X108885000Y-100290000D03*
X132415000Y-67985000D03*
D17*
X127415000Y-70485000D03*
X132415000Y-72985000D03*
D18*
X108885000Y-74890000D03*
D17*
X113885000Y-72390000D03*
X108885000Y-69890000D03*
D11*
X144150000Y-116205000D03*
D10*
X146690000Y-116205000D03*
D11*
X144065000Y-111125000D03*
D10*
X146605000Y-111125000D03*
D11*
X122555000Y-116840000D03*
D10*
X120015000Y-116840000D03*
D11*
X109855000Y-116840000D03*
D10*
X112395000Y-116840000D03*
D11*
X122555000Y-114300000D03*
D10*
X120015000Y-114300000D03*
D11*
X117475000Y-114300000D03*
D10*
X114935000Y-114300000D03*
D11*
X112395000Y-114300000D03*
D10*
X109855000Y-114300000D03*
D11*
X107315000Y-114300000D03*
D10*
X104775000Y-114300000D03*
D11*
X146610000Y-113665000D03*
D10*
X144070000Y-113665000D03*
D11*
X92075000Y-114300000D03*
D10*
X89535000Y-114300000D03*
D11*
X102235000Y-114300000D03*
D10*
X99695000Y-114300000D03*
D11*
X94615000Y-114300000D03*
D10*
X97155000Y-114300000D03*
X146685000Y-90805000D03*
D11*
X144145000Y-90805000D03*
D10*
X146605000Y-85725000D03*
D11*
X144065000Y-85725000D03*
X122555000Y-91440000D03*
D10*
X120015000Y-91440000D03*
D11*
X109855000Y-91440000D03*
D10*
X112395000Y-91440000D03*
D11*
X122555000Y-88900000D03*
D10*
X120015000Y-88900000D03*
D11*
X117475000Y-88900000D03*
D10*
X114935000Y-88900000D03*
D11*
X112395000Y-88900000D03*
D10*
X109855000Y-88900000D03*
X104775000Y-88900000D03*
D11*
X107315000Y-88900000D03*
X146610000Y-88265000D03*
D10*
X144070000Y-88265000D03*
D11*
X92075000Y-88900000D03*
D10*
X89535000Y-88900000D03*
D11*
X102235000Y-88900000D03*
D10*
X99695000Y-88900000D03*
D11*
X94615000Y-88900000D03*
D10*
X97155000Y-88900000D03*
X146685000Y-65405000D03*
D11*
X144145000Y-65405000D03*
D10*
X146685000Y-60325000D03*
D11*
X144145000Y-60325000D03*
D10*
X120015000Y-66040000D03*
D11*
X122555000Y-66040000D03*
X109855000Y-66040000D03*
D10*
X112395000Y-66040000D03*
D11*
X122555000Y-63500000D03*
D10*
X120015000Y-63500000D03*
D11*
X117475000Y-63500000D03*
D10*
X114935000Y-63500000D03*
D11*
X112395000Y-63500000D03*
D10*
X109855000Y-63500000D03*
D11*
X107315000Y-63500000D03*
D10*
X104775000Y-63500000D03*
D11*
X146685000Y-62865000D03*
D10*
X144145000Y-62865000D03*
X89535000Y-63500000D03*
D11*
X92075000Y-63500000D03*
X102235000Y-63500000D03*
D10*
X99695000Y-63500000D03*
D11*
X94615000Y-63500000D03*
D10*
X97155000Y-63500000D03*
X157480000Y-82550000D03*
D11*
X157480000Y-85090000D03*
X157480000Y-87630000D03*
X157480000Y-90170000D03*
X157480000Y-92710000D03*
X157480000Y-95250000D03*
X157480000Y-97790000D03*
D10*
X154940000Y-82550000D03*
D11*
X154940000Y-85090000D03*
X154940000Y-87630000D03*
X154940000Y-90170000D03*
X154940000Y-92710000D03*
X154940000Y-95250000D03*
X154940000Y-97790000D03*
D10*
X81280000Y-85090000D03*
D11*
X81280000Y-87630000D03*
X81280000Y-90170000D03*
X81280000Y-92710000D03*
X81280000Y-95250000D03*
X81280000Y-97790000D03*
X81280000Y-100330000D03*
D10*
X78740000Y-85090000D03*
D11*
X78740000Y-87630000D03*
X78740000Y-90170000D03*
X78740000Y-92710000D03*
X78740000Y-95250000D03*
X78740000Y-97790000D03*
X78740000Y-100330000D03*
D10*
X76200000Y-85090000D03*
D11*
X76200000Y-87630000D03*
X76200000Y-90170000D03*
X76200000Y-92710000D03*
X76200000Y-95250000D03*
X76200000Y-97790000D03*
X76200000Y-100330000D03*
D16*
X131775000Y-109071740D03*
X130175000Y-109742677D03*
D15*
X130175000Y-112242677D03*
X128575000Y-112913614D03*
D16*
X131775000Y-83671740D03*
X130175000Y-84342677D03*
D15*
X130175000Y-86842677D03*
X128575000Y-87513614D03*
D16*
X131775000Y-58271740D03*
X130175000Y-58942677D03*
D15*
X130175000Y-61442677D03*
X128575000Y-62113614D03*
D19*
X87630000Y-80090000D03*
X87630000Y-77390000D03*
X91440000Y-77390000D03*
X91440000Y-80090000D03*
M02*
