G04 #@! TF.GenerationSoftware,KiCad,Pcbnew,8.0.3*
G04 #@! TF.CreationDate,2025-01-02T16:48:01+10:30*
G04 #@! TF.ProjectId,tt06-vga-opamp,74743036-2d76-4676-912d-6f70616d702e,rev?*
G04 #@! TF.SameCoordinates,Original*
G04 #@! TF.FileFunction,Paste,Top*
G04 #@! TF.FilePolarity,Positive*
%FSLAX46Y46*%
G04 Gerber Fmt 4.6, Leading zero omitted, Abs format (unit mm)*
G04 Created by KiCad (PCBNEW 8.0.3) date 2025-01-02 16:48:01*
%MOMM*%
%LPD*%
G01*
G04 APERTURE LIST*
G04 Aperture macros list*
%AMRoundRect*
0 Rectangle with rounded corners*
0 $1 Rounding radius*
0 $2 $3 $4 $5 $6 $7 $8 $9 X,Y pos of 4 corners*
0 Add a 4 corners polygon primitive as box body*
4,1,4,$2,$3,$4,$5,$6,$7,$8,$9,$2,$3,0*
0 Add four circle primitives for the rounded corners*
1,1,$1+$1,$2,$3*
1,1,$1+$1,$4,$5*
1,1,$1+$1,$6,$7*
1,1,$1+$1,$8,$9*
0 Add four rect primitives between the rounded corners*
20,1,$1+$1,$2,$3,$4,$5,0*
20,1,$1+$1,$4,$5,$6,$7,0*
20,1,$1+$1,$6,$7,$8,$9,0*
20,1,$1+$1,$8,$9,$2,$3,0*%
G04 Aperture macros list end*
%ADD10R,1.050000X2.200000*%
%ADD11R,1.000000X1.000000*%
%ADD12R,2.200000X1.050000*%
%ADD13RoundRect,0.150000X-0.150000X0.875000X-0.150000X-0.875000X0.150000X-0.875000X0.150000X0.875000X0*%
%ADD14RoundRect,0.396226X-0.653774X-0.953774X0.653774X-0.953774X0.653774X0.953774X-0.653774X0.953774X0*%
%ADD15RoundRect,0.396226X0.653774X0.953774X-0.653774X0.953774X-0.653774X-0.953774X0.653774X-0.953774X0*%
%ADD16RoundRect,0.396226X-0.953774X0.653774X-0.953774X-0.653774X0.953774X-0.653774X0.953774X0.653774X0*%
%ADD17RoundRect,0.396226X0.953774X-0.653774X0.953774X0.653774X-0.953774X0.653774X-0.953774X-0.653774X0*%
G04 APERTURE END LIST*
D10*
X85295000Y-109220000D03*
D11*
X83820000Y-107720000D03*
D10*
X82345000Y-109220000D03*
D11*
X83820000Y-110720000D03*
X93575000Y-103505000D03*
D12*
X92075000Y-104980000D03*
D11*
X90575000Y-103505000D03*
D12*
X92075000Y-102030000D03*
D11*
X81915000Y-68810000D03*
D10*
X80440000Y-67310000D03*
D11*
X81915000Y-65810000D03*
D10*
X83390000Y-67310000D03*
D13*
X97790000Y-129335000D03*
X96520000Y-129335000D03*
X95250000Y-129335000D03*
X93980000Y-129335000D03*
X92710000Y-129335000D03*
X91440000Y-129335000D03*
X90170000Y-129335000D03*
X88900000Y-129335000D03*
X87630000Y-129335000D03*
X86360000Y-129335000D03*
X86360000Y-138635000D03*
X87630000Y-138635000D03*
X88900000Y-138635000D03*
X90170000Y-138635000D03*
X91440000Y-138635000D03*
X92710000Y-138635000D03*
X93980000Y-138635000D03*
X95250000Y-138635000D03*
X96520000Y-138635000D03*
X97790000Y-138635000D03*
D14*
X140340000Y-112395000D03*
X137640000Y-112395000D03*
X146690000Y-125095000D03*
X143990000Y-125095000D03*
X146690000Y-121285000D03*
X143990000Y-121285000D03*
X137640000Y-122555000D03*
X140340000Y-122555000D03*
X140340000Y-118745000D03*
X137640000Y-118745000D03*
D15*
X123905000Y-127000000D03*
X121205000Y-127000000D03*
X118665000Y-121920000D03*
X121365000Y-121920000D03*
X100885000Y-121920000D03*
X103585000Y-121920000D03*
X88185000Y-121920000D03*
X90885000Y-121920000D03*
D14*
X97235000Y-121920000D03*
X94535000Y-121920000D03*
X137640000Y-86995000D03*
X140340000Y-86995000D03*
X143990000Y-99695000D03*
X146690000Y-99695000D03*
X143990000Y-95885000D03*
X146690000Y-95885000D03*
X137640000Y-97155000D03*
X140340000Y-97155000D03*
X137640000Y-93345000D03*
X140340000Y-93345000D03*
D15*
X121205000Y-101600000D03*
X123905000Y-101600000D03*
X118665000Y-96520000D03*
X121365000Y-96520000D03*
X100885000Y-96520000D03*
X103585000Y-96520000D03*
X88185000Y-96520000D03*
X90885000Y-96520000D03*
D14*
X97235000Y-96520000D03*
X94535000Y-96520000D03*
X137720000Y-61595000D03*
X140420000Y-61595000D03*
X144070000Y-74295000D03*
X146770000Y-74295000D03*
X144070000Y-70485000D03*
X146770000Y-70485000D03*
X137720000Y-71755000D03*
X140420000Y-71755000D03*
X137720000Y-67945000D03*
X140420000Y-67945000D03*
D15*
X121205000Y-76200000D03*
X123905000Y-76200000D03*
X121365000Y-71120000D03*
X118665000Y-71120000D03*
X100885000Y-71120000D03*
X103585000Y-71120000D03*
X88185000Y-71120000D03*
X90885000Y-71120000D03*
D14*
X97235000Y-71120000D03*
X94535000Y-71120000D03*
X102155000Y-135890000D03*
X104855000Y-135890000D03*
X102155000Y-132080000D03*
X104855000Y-132080000D03*
D16*
X80645000Y-125015000D03*
X80645000Y-127715000D03*
X81915000Y-118665000D03*
X81915000Y-121365000D03*
D15*
X162640000Y-113665000D03*
X159940000Y-113665000D03*
D17*
X122555000Y-107870000D03*
X122555000Y-110570000D03*
X122555000Y-85170000D03*
X122555000Y-82470000D03*
X122555000Y-59770000D03*
X122555000Y-57070000D03*
X79375000Y-135335000D03*
X79375000Y-132635000D03*
X83185000Y-132635000D03*
X83185000Y-135335000D03*
D15*
X162640000Y-109220000D03*
X159940000Y-109220000D03*
M02*
