%TF.GenerationSoftware,KiCad,Pcbnew,8.0.3*%
%TF.CreationDate,2025-01-02T16:49:17+10:30*%
%TF.ProjectId,tt06-vga-opamp,74743036-2d76-4676-912d-6f70616d702e,rev?*%
%TF.SameCoordinates,Original*%
%TF.FileFunction,Drillmap*%
%TF.FilePolarity,Positive*%
%FSLAX45Y45*%
G04 Gerber Fmt 4.5, Leading zero omitted, Abs format (unit mm)*
G04 Created by KiCad (PCBNEW 8.0.3) date 2025-01-02 16:49:17*
%MOMM*%
%LPD*%
G01*
G04 APERTURE LIST*
%ADD10C,0.500000*%
%ADD11C,0.200000*%
%ADD12C,0.100000*%
%ADD13C,0.320000*%
%ADD14C,0.430000*%
G04 APERTURE END LIST*
D10*
X7366000Y-5207000D02*
X17366000Y-5207000D01*
X17366000Y-15207000D01*
X7366000Y-15207000D01*
X7366000Y-5207000D01*
D11*
D12*
X7920000Y-13000000D02*
X7955000Y-13035000D01*
X7955000Y-13000000D02*
X7920000Y-13035000D01*
X7983500Y-10396500D02*
X8018500Y-10431500D01*
X8018500Y-10396500D02*
X7983500Y-10431500D01*
X8364500Y-6459500D02*
X8399500Y-6494500D01*
X8399500Y-6459500D02*
X8364500Y-6494500D01*
X8428000Y-7666000D02*
X8463000Y-7701000D01*
X8463000Y-7666000D02*
X8428000Y-7701000D01*
X8428000Y-10396500D02*
X8463000Y-10431500D01*
X8463000Y-10396500D02*
X8428000Y-10431500D01*
X8555000Y-10587000D02*
X8590000Y-10622000D01*
X8590000Y-10587000D02*
X8555000Y-10622000D01*
X8618500Y-11730000D02*
X8653500Y-11765000D01*
X8653500Y-11730000D02*
X8618500Y-11765000D01*
X8936000Y-10079000D02*
X8971000Y-10114000D01*
X8971000Y-10079000D02*
X8936000Y-10114000D01*
X9380500Y-13190500D02*
X9415500Y-13225500D01*
X9415500Y-13190500D02*
X9380500Y-13225500D01*
X9444000Y-11920500D02*
X9479000Y-11955500D01*
X9479000Y-11920500D02*
X9444000Y-11955500D01*
X9634500Y-13635000D02*
X9669500Y-13670000D01*
X9669500Y-13635000D02*
X9634500Y-13670000D01*
X9825000Y-7920000D02*
X9860000Y-7955000D01*
X9860000Y-7920000D02*
X9825000Y-7955000D01*
X10142500Y-10142500D02*
X10177500Y-10177500D01*
X10177500Y-10142500D02*
X10142500Y-10177500D01*
X10333000Y-7475500D02*
X10368000Y-7510500D01*
X10368000Y-7475500D02*
X10333000Y-7510500D01*
X10460000Y-8110500D02*
X10495000Y-8145500D01*
X10495000Y-8110500D02*
X10460000Y-8145500D01*
X10460000Y-10142500D02*
X10495000Y-10177500D01*
X10495000Y-10142500D02*
X10460000Y-10177500D01*
X10777500Y-10269500D02*
X10812500Y-10304500D01*
X10812500Y-10269500D02*
X10777500Y-10304500D01*
X11095000Y-8110500D02*
X11130000Y-8145500D01*
X11130000Y-8110500D02*
X11095000Y-8145500D01*
X11603000Y-7094500D02*
X11638000Y-7129500D01*
X11638000Y-7094500D02*
X11603000Y-7129500D01*
X11603000Y-7983500D02*
X11638000Y-8018500D01*
X11638000Y-7983500D02*
X11603000Y-8018500D01*
X11603000Y-9634500D02*
X11638000Y-9669500D01*
X11638000Y-9634500D02*
X11603000Y-9669500D01*
X11603000Y-12174500D02*
X11638000Y-12209500D01*
X11638000Y-12174500D02*
X11603000Y-12209500D01*
X11857000Y-7475500D02*
X11892000Y-7510500D01*
X11892000Y-7475500D02*
X11857000Y-7510500D01*
X14397000Y-6777000D02*
X14432000Y-6812000D01*
X14432000Y-6777000D02*
X14397000Y-6812000D01*
X14397000Y-8174000D02*
X14432000Y-8209000D01*
X14432000Y-8174000D02*
X14397000Y-8209000D01*
X14397000Y-9317000D02*
X14432000Y-9352000D01*
X14432000Y-9317000D02*
X14397000Y-9352000D01*
X14397000Y-11857000D02*
X14432000Y-11892000D01*
X14432000Y-11857000D02*
X14397000Y-11892000D01*
X14524000Y-10396500D02*
X14559000Y-10431500D01*
X14559000Y-10396500D02*
X14524000Y-10431500D01*
X14524000Y-12936500D02*
X14559000Y-12971500D01*
X14559000Y-12936500D02*
X14524000Y-12971500D01*
X14841500Y-7920000D02*
X14876500Y-7955000D01*
X14876500Y-7920000D02*
X14841500Y-7955000D01*
X14905000Y-10777500D02*
X14940000Y-10812500D01*
X14940000Y-10777500D02*
X14905000Y-10812500D01*
X14905000Y-13317500D02*
X14940000Y-13352500D01*
X14940000Y-13317500D02*
X14905000Y-13352500D01*
X15476500Y-10460000D02*
X15511500Y-10495000D01*
X15511500Y-10460000D02*
X15476500Y-10495000D01*
X15603500Y-10904500D02*
X15638500Y-10939500D01*
X15638500Y-10904500D02*
X15603500Y-10939500D01*
X12897500Y-6211361D02*
G75*
G02*
X12817500Y-6211361I-40000J0D01*
G01*
X12817500Y-6211361D02*
G75*
G02*
X12897500Y-6211361I40000J0D01*
G01*
X12897500Y-8751361D02*
G75*
G02*
X12817500Y-8751361I-40000J0D01*
G01*
X12817500Y-8751361D02*
G75*
G02*
X12897500Y-8751361I40000J0D01*
G01*
X12897500Y-11291361D02*
G75*
G02*
X12817500Y-11291361I-40000J0D01*
G01*
X12817500Y-11291361D02*
G75*
G02*
X12897500Y-11291361I40000J0D01*
G01*
X13057500Y-5894268D02*
G75*
G02*
X12977500Y-5894268I-40000J0D01*
G01*
X12977500Y-5894268D02*
G75*
G02*
X13057500Y-5894268I40000J0D01*
G01*
X13057500Y-6144268D02*
G75*
G02*
X12977500Y-6144268I-40000J0D01*
G01*
X12977500Y-6144268D02*
G75*
G02*
X13057500Y-6144268I40000J0D01*
G01*
X13057500Y-8434268D02*
G75*
G02*
X12977500Y-8434268I-40000J0D01*
G01*
X12977500Y-8434268D02*
G75*
G02*
X13057500Y-8434268I40000J0D01*
G01*
X13057500Y-8684268D02*
G75*
G02*
X12977500Y-8684268I-40000J0D01*
G01*
X12977500Y-8684268D02*
G75*
G02*
X13057500Y-8684268I40000J0D01*
G01*
X13057500Y-10974268D02*
G75*
G02*
X12977500Y-10974268I-40000J0D01*
G01*
X12977500Y-10974268D02*
G75*
G02*
X13057500Y-10974268I40000J0D01*
G01*
X13057500Y-11224268D02*
G75*
G02*
X12977500Y-11224268I-40000J0D01*
G01*
X12977500Y-11224268D02*
G75*
G02*
X13057500Y-11224268I40000J0D01*
G01*
X13217500Y-5827174D02*
G75*
G02*
X13137500Y-5827174I-40000J0D01*
G01*
X13137500Y-5827174D02*
G75*
G02*
X13217500Y-5827174I40000J0D01*
G01*
X13217500Y-8367174D02*
G75*
G02*
X13137500Y-8367174I-40000J0D01*
G01*
X13137500Y-8367174D02*
G75*
G02*
X13217500Y-8367174I40000J0D01*
G01*
X13217500Y-10907174D02*
G75*
G02*
X13137500Y-10907174I-40000J0D01*
G01*
X13137500Y-10907174D02*
G75*
G02*
X13217500Y-10907174I40000J0D01*
G01*
X7620000Y-6935000D02*
X7620000Y-7035000D01*
X7570000Y-6985000D02*
X7670000Y-6985000D01*
X7620000Y-7189000D02*
X7620000Y-7289000D01*
X7570000Y-7239000D02*
X7670000Y-7239000D01*
X7620000Y-7443000D02*
X7620000Y-7543000D01*
X7570000Y-7493000D02*
X7670000Y-7493000D01*
X7620000Y-7697000D02*
X7620000Y-7797000D01*
X7570000Y-7747000D02*
X7670000Y-7747000D01*
X7620000Y-8459000D02*
X7620000Y-8559000D01*
X7570000Y-8509000D02*
X7670000Y-8509000D01*
X7620000Y-8713000D02*
X7620000Y-8813000D01*
X7570000Y-8763000D02*
X7670000Y-8763000D01*
X7620000Y-8967000D02*
X7620000Y-9067000D01*
X7570000Y-9017000D02*
X7670000Y-9017000D01*
X7620000Y-9221000D02*
X7620000Y-9321000D01*
X7570000Y-9271000D02*
X7670000Y-9271000D01*
X7620000Y-9475000D02*
X7620000Y-9575000D01*
X7570000Y-9525000D02*
X7670000Y-9525000D01*
X7620000Y-9729000D02*
X7620000Y-9829000D01*
X7570000Y-9779000D02*
X7670000Y-9779000D01*
X7620000Y-9983000D02*
X7620000Y-10083000D01*
X7570000Y-10033000D02*
X7670000Y-10033000D01*
X7620000Y-10745000D02*
X7620000Y-10845000D01*
X7570000Y-10795000D02*
X7670000Y-10795000D01*
X7620000Y-10999000D02*
X7620000Y-11099000D01*
X7570000Y-11049000D02*
X7670000Y-11049000D01*
X7620000Y-11253000D02*
X7620000Y-11353000D01*
X7570000Y-11303000D02*
X7670000Y-11303000D01*
X7620000Y-11507000D02*
X7620000Y-11607000D01*
X7570000Y-11557000D02*
X7670000Y-11557000D01*
X7874000Y-8459000D02*
X7874000Y-8559000D01*
X7824000Y-8509000D02*
X7924000Y-8509000D01*
X7874000Y-8713000D02*
X7874000Y-8813000D01*
X7824000Y-8763000D02*
X7924000Y-8763000D01*
X7874000Y-8967000D02*
X7874000Y-9067000D01*
X7824000Y-9017000D02*
X7924000Y-9017000D01*
X7874000Y-9221000D02*
X7874000Y-9321000D01*
X7824000Y-9271000D02*
X7924000Y-9271000D01*
X7874000Y-9475000D02*
X7874000Y-9575000D01*
X7824000Y-9525000D02*
X7924000Y-9525000D01*
X7874000Y-9729000D02*
X7874000Y-9829000D01*
X7824000Y-9779000D02*
X7924000Y-9779000D01*
X7874000Y-9983000D02*
X7874000Y-10083000D01*
X7824000Y-10033000D02*
X7924000Y-10033000D01*
X8128000Y-8459000D02*
X8128000Y-8559000D01*
X8078000Y-8509000D02*
X8178000Y-8509000D01*
X8128000Y-8713000D02*
X8128000Y-8813000D01*
X8078000Y-8763000D02*
X8178000Y-8763000D01*
X8128000Y-8967000D02*
X8128000Y-9067000D01*
X8078000Y-9017000D02*
X8178000Y-9017000D01*
X8128000Y-9221000D02*
X8128000Y-9321000D01*
X8078000Y-9271000D02*
X8178000Y-9271000D01*
X8128000Y-9475000D02*
X8128000Y-9575000D01*
X8078000Y-9525000D02*
X8178000Y-9525000D01*
X8128000Y-9729000D02*
X8128000Y-9829000D01*
X8078000Y-9779000D02*
X8178000Y-9779000D01*
X8128000Y-9983000D02*
X8128000Y-10083000D01*
X8078000Y-10033000D02*
X8178000Y-10033000D01*
X8953500Y-6300000D02*
X8953500Y-6400000D01*
X8903500Y-6350000D02*
X9003500Y-6350000D01*
X8953500Y-6554000D02*
X8953500Y-6654000D01*
X8903500Y-6604000D02*
X9003500Y-6604000D01*
X8953500Y-8840000D02*
X8953500Y-8940000D01*
X8903500Y-8890000D02*
X9003500Y-8890000D01*
X8953500Y-9094000D02*
X8953500Y-9194000D01*
X8903500Y-9144000D02*
X9003500Y-9144000D01*
X8953500Y-11380000D02*
X8953500Y-11480000D01*
X8903500Y-11430000D02*
X9003500Y-11430000D01*
X8953500Y-11634000D02*
X8953500Y-11734000D01*
X8903500Y-11684000D02*
X9003500Y-11684000D01*
X9207500Y-6300000D02*
X9207500Y-6400000D01*
X9157500Y-6350000D02*
X9257500Y-6350000D01*
X9207500Y-6554000D02*
X9207500Y-6654000D01*
X9157500Y-6604000D02*
X9257500Y-6604000D01*
X9207500Y-8840000D02*
X9207500Y-8940000D01*
X9157500Y-8890000D02*
X9257500Y-8890000D01*
X9207500Y-9094000D02*
X9207500Y-9194000D01*
X9157500Y-9144000D02*
X9257500Y-9144000D01*
X9207500Y-11380000D02*
X9207500Y-11480000D01*
X9157500Y-11430000D02*
X9257500Y-11430000D01*
X9207500Y-11634000D02*
X9207500Y-11734000D01*
X9157500Y-11684000D02*
X9257500Y-11684000D01*
X9461500Y-6300000D02*
X9461500Y-6400000D01*
X9411500Y-6350000D02*
X9511500Y-6350000D01*
X9461500Y-6554000D02*
X9461500Y-6654000D01*
X9411500Y-6604000D02*
X9511500Y-6604000D01*
X9461500Y-8840000D02*
X9461500Y-8940000D01*
X9411500Y-8890000D02*
X9511500Y-8890000D01*
X9461500Y-9094000D02*
X9461500Y-9194000D01*
X9411500Y-9144000D02*
X9511500Y-9144000D01*
X9461500Y-11380000D02*
X9461500Y-11480000D01*
X9411500Y-11430000D02*
X9511500Y-11430000D01*
X9461500Y-11634000D02*
X9461500Y-11734000D01*
X9411500Y-11684000D02*
X9511500Y-11684000D01*
X9715500Y-6300000D02*
X9715500Y-6400000D01*
X9665500Y-6350000D02*
X9765500Y-6350000D01*
X9715500Y-6554000D02*
X9715500Y-6654000D01*
X9665500Y-6604000D02*
X9765500Y-6604000D01*
X9715500Y-8840000D02*
X9715500Y-8940000D01*
X9665500Y-8890000D02*
X9765500Y-8890000D01*
X9715500Y-9094000D02*
X9715500Y-9194000D01*
X9665500Y-9144000D02*
X9765500Y-9144000D01*
X9715500Y-11380000D02*
X9715500Y-11480000D01*
X9665500Y-11430000D02*
X9765500Y-11430000D01*
X9715500Y-11634000D02*
X9715500Y-11734000D01*
X9665500Y-11684000D02*
X9765500Y-11684000D01*
X9969500Y-6300000D02*
X9969500Y-6400000D01*
X9919500Y-6350000D02*
X10019500Y-6350000D01*
X9969500Y-6554000D02*
X9969500Y-6654000D01*
X9919500Y-6604000D02*
X10019500Y-6604000D01*
X9969500Y-8840000D02*
X9969500Y-8940000D01*
X9919500Y-8890000D02*
X10019500Y-8890000D01*
X9969500Y-9094000D02*
X9969500Y-9194000D01*
X9919500Y-9144000D02*
X10019500Y-9144000D01*
X9969500Y-11380000D02*
X9969500Y-11480000D01*
X9919500Y-11430000D02*
X10019500Y-11430000D01*
X9969500Y-11634000D02*
X9969500Y-11734000D01*
X9919500Y-11684000D02*
X10019500Y-11684000D01*
X10223500Y-6300000D02*
X10223500Y-6400000D01*
X10173500Y-6350000D02*
X10273500Y-6350000D01*
X10223500Y-6554000D02*
X10223500Y-6654000D01*
X10173500Y-6604000D02*
X10273500Y-6604000D01*
X10223500Y-8840000D02*
X10223500Y-8940000D01*
X10173500Y-8890000D02*
X10273500Y-8890000D01*
X10223500Y-9094000D02*
X10223500Y-9194000D01*
X10173500Y-9144000D02*
X10273500Y-9144000D01*
X10223500Y-11380000D02*
X10223500Y-11480000D01*
X10173500Y-11430000D02*
X10273500Y-11430000D01*
X10223500Y-11634000D02*
X10223500Y-11734000D01*
X10173500Y-11684000D02*
X10273500Y-11684000D01*
X10477500Y-6300000D02*
X10477500Y-6400000D01*
X10427500Y-6350000D02*
X10527500Y-6350000D01*
X10477500Y-6554000D02*
X10477500Y-6654000D01*
X10427500Y-6604000D02*
X10527500Y-6604000D01*
X10477500Y-8840000D02*
X10477500Y-8940000D01*
X10427500Y-8890000D02*
X10527500Y-8890000D01*
X10477500Y-9094000D02*
X10477500Y-9194000D01*
X10427500Y-9144000D02*
X10527500Y-9144000D01*
X10477500Y-11380000D02*
X10477500Y-11480000D01*
X10427500Y-11430000D02*
X10527500Y-11430000D01*
X10477500Y-11634000D02*
X10477500Y-11734000D01*
X10427500Y-11684000D02*
X10527500Y-11684000D01*
X10731500Y-6300000D02*
X10731500Y-6400000D01*
X10681500Y-6350000D02*
X10781500Y-6350000D01*
X10731500Y-6554000D02*
X10731500Y-6654000D01*
X10681500Y-6604000D02*
X10781500Y-6604000D01*
X10731500Y-8840000D02*
X10731500Y-8940000D01*
X10681500Y-8890000D02*
X10781500Y-8890000D01*
X10731500Y-9094000D02*
X10731500Y-9194000D01*
X10681500Y-9144000D02*
X10781500Y-9144000D01*
X10731500Y-11380000D02*
X10731500Y-11480000D01*
X10681500Y-11430000D02*
X10781500Y-11430000D01*
X10731500Y-11634000D02*
X10731500Y-11734000D01*
X10681500Y-11684000D02*
X10781500Y-11684000D01*
X10888500Y-6939000D02*
X10888500Y-7039000D01*
X10838500Y-6989000D02*
X10938500Y-6989000D01*
X10888500Y-7439000D02*
X10888500Y-7539000D01*
X10838500Y-7489000D02*
X10938500Y-7489000D01*
X10888500Y-9479000D02*
X10888500Y-9579000D01*
X10838500Y-9529000D02*
X10938500Y-9529000D01*
X10888500Y-9979000D02*
X10888500Y-10079000D01*
X10838500Y-10029000D02*
X10938500Y-10029000D01*
X10888500Y-12019000D02*
X10888500Y-12119000D01*
X10838500Y-12069000D02*
X10938500Y-12069000D01*
X10888500Y-12519000D02*
X10888500Y-12619000D01*
X10838500Y-12569000D02*
X10938500Y-12569000D01*
X10985500Y-6300000D02*
X10985500Y-6400000D01*
X10935500Y-6350000D02*
X11035500Y-6350000D01*
X10985500Y-6554000D02*
X10985500Y-6654000D01*
X10935500Y-6604000D02*
X11035500Y-6604000D01*
X10985500Y-8840000D02*
X10985500Y-8940000D01*
X10935500Y-8890000D02*
X11035500Y-8890000D01*
X10985500Y-9094000D02*
X10985500Y-9194000D01*
X10935500Y-9144000D02*
X11035500Y-9144000D01*
X10985500Y-11380000D02*
X10985500Y-11480000D01*
X10935500Y-11430000D02*
X11035500Y-11430000D01*
X10985500Y-11634000D02*
X10985500Y-11734000D01*
X10935500Y-11684000D02*
X11035500Y-11684000D01*
X11239500Y-6300000D02*
X11239500Y-6400000D01*
X11189500Y-6350000D02*
X11289500Y-6350000D01*
X11239500Y-6554000D02*
X11239500Y-6654000D01*
X11189500Y-6604000D02*
X11289500Y-6604000D01*
X11239500Y-8840000D02*
X11239500Y-8940000D01*
X11189500Y-8890000D02*
X11289500Y-8890000D01*
X11239500Y-9094000D02*
X11239500Y-9194000D01*
X11189500Y-9144000D02*
X11289500Y-9144000D01*
X11239500Y-11380000D02*
X11239500Y-11480000D01*
X11189500Y-11430000D02*
X11289500Y-11430000D01*
X11239500Y-11634000D02*
X11239500Y-11734000D01*
X11189500Y-11684000D02*
X11289500Y-11684000D01*
X11388500Y-7189000D02*
X11388500Y-7289000D01*
X11338500Y-7239000D02*
X11438500Y-7239000D01*
X11388500Y-9729000D02*
X11388500Y-9829000D01*
X11338500Y-9779000D02*
X11438500Y-9779000D01*
X11388500Y-12269000D02*
X11388500Y-12369000D01*
X11338500Y-12319000D02*
X11438500Y-12319000D01*
X11493500Y-6300000D02*
X11493500Y-6400000D01*
X11443500Y-6350000D02*
X11543500Y-6350000D01*
X11493500Y-6554000D02*
X11493500Y-6654000D01*
X11443500Y-6604000D02*
X11543500Y-6604000D01*
X11493500Y-8840000D02*
X11493500Y-8940000D01*
X11443500Y-8890000D02*
X11543500Y-8890000D01*
X11493500Y-9094000D02*
X11493500Y-9194000D01*
X11443500Y-9144000D02*
X11543500Y-9144000D01*
X11493500Y-11380000D02*
X11493500Y-11480000D01*
X11443500Y-11430000D02*
X11543500Y-11430000D01*
X11493500Y-11634000D02*
X11493500Y-11734000D01*
X11443500Y-11684000D02*
X11543500Y-11684000D01*
X11747500Y-6300000D02*
X11747500Y-6400000D01*
X11697500Y-6350000D02*
X11797500Y-6350000D01*
X11747500Y-6554000D02*
X11747500Y-6654000D01*
X11697500Y-6604000D02*
X11797500Y-6604000D01*
X11747500Y-8840000D02*
X11747500Y-8940000D01*
X11697500Y-8890000D02*
X11797500Y-8890000D01*
X11747500Y-9094000D02*
X11747500Y-9194000D01*
X11697500Y-9144000D02*
X11797500Y-9144000D01*
X11747500Y-11380000D02*
X11747500Y-11480000D01*
X11697500Y-11430000D02*
X11797500Y-11430000D01*
X11747500Y-11634000D02*
X11747500Y-11734000D01*
X11697500Y-11684000D02*
X11797500Y-11684000D01*
X12001500Y-6300000D02*
X12001500Y-6400000D01*
X11951500Y-6350000D02*
X12051500Y-6350000D01*
X12001500Y-6554000D02*
X12001500Y-6654000D01*
X11951500Y-6604000D02*
X12051500Y-6604000D01*
X12001500Y-8840000D02*
X12001500Y-8940000D01*
X11951500Y-8890000D02*
X12051500Y-8890000D01*
X12001500Y-9094000D02*
X12001500Y-9194000D01*
X11951500Y-9144000D02*
X12051500Y-9144000D01*
X12001500Y-11380000D02*
X12001500Y-11480000D01*
X11951500Y-11430000D02*
X12051500Y-11430000D01*
X12001500Y-11634000D02*
X12001500Y-11734000D01*
X11951500Y-11684000D02*
X12051500Y-11684000D01*
X12255500Y-6300000D02*
X12255500Y-6400000D01*
X12205500Y-6350000D02*
X12305500Y-6350000D01*
X12255500Y-6554000D02*
X12255500Y-6654000D01*
X12205500Y-6604000D02*
X12305500Y-6604000D01*
X12255500Y-8840000D02*
X12255500Y-8940000D01*
X12205500Y-8890000D02*
X12305500Y-8890000D01*
X12255500Y-9094000D02*
X12255500Y-9194000D01*
X12205500Y-9144000D02*
X12305500Y-9144000D01*
X12255500Y-11380000D02*
X12255500Y-11480000D01*
X12205500Y-11430000D02*
X12305500Y-11430000D01*
X12255500Y-11634000D02*
X12255500Y-11734000D01*
X12205500Y-11684000D02*
X12305500Y-11684000D01*
X12741500Y-6998500D02*
X12741500Y-7098500D01*
X12691500Y-7048500D02*
X12791500Y-7048500D01*
X12741500Y-9538500D02*
X12741500Y-9638500D01*
X12691500Y-9588500D02*
X12791500Y-9588500D01*
X12741500Y-12078500D02*
X12741500Y-12178500D01*
X12691500Y-12128500D02*
X12791500Y-12128500D01*
X13241500Y-6748500D02*
X13241500Y-6848500D01*
X13191500Y-6798500D02*
X13291500Y-6798500D01*
X13241500Y-7248500D02*
X13241500Y-7348500D01*
X13191500Y-7298500D02*
X13291500Y-7298500D01*
X13241500Y-9288500D02*
X13241500Y-9388500D01*
X13191500Y-9338500D02*
X13291500Y-9338500D01*
X13241500Y-9788500D02*
X13241500Y-9888500D01*
X13191500Y-9838500D02*
X13291500Y-9838500D01*
X13241500Y-11828500D02*
X13241500Y-11928500D01*
X13191500Y-11878500D02*
X13291500Y-11878500D01*
X13241500Y-12328500D02*
X13241500Y-12428500D01*
X13191500Y-12378500D02*
X13291500Y-12378500D01*
X14406500Y-8522500D02*
X14406500Y-8622500D01*
X14356500Y-8572500D02*
X14456500Y-8572500D01*
X14406500Y-11062500D02*
X14406500Y-11162500D01*
X14356500Y-11112500D02*
X14456500Y-11112500D01*
X14407000Y-8776500D02*
X14407000Y-8876500D01*
X14357000Y-8826500D02*
X14457000Y-8826500D01*
X14407000Y-11316500D02*
X14407000Y-11416500D01*
X14357000Y-11366500D02*
X14457000Y-11366500D01*
X14414500Y-5982500D02*
X14414500Y-6082500D01*
X14364500Y-6032500D02*
X14464500Y-6032500D01*
X14414500Y-6236500D02*
X14414500Y-6336500D01*
X14364500Y-6286500D02*
X14464500Y-6286500D01*
X14414500Y-6490500D02*
X14414500Y-6590500D01*
X14364500Y-6540500D02*
X14464500Y-6540500D01*
X14414500Y-9030500D02*
X14414500Y-9130500D01*
X14364500Y-9080500D02*
X14464500Y-9080500D01*
X14415000Y-11570500D02*
X14415000Y-11670500D01*
X14365000Y-11620500D02*
X14465000Y-11620500D01*
X14660500Y-8522500D02*
X14660500Y-8622500D01*
X14610500Y-8572500D02*
X14710500Y-8572500D01*
X14660500Y-11062500D02*
X14660500Y-11162500D01*
X14610500Y-11112500D02*
X14710500Y-11112500D01*
X14661000Y-8776500D02*
X14661000Y-8876500D01*
X14611000Y-8826500D02*
X14711000Y-8826500D01*
X14661000Y-11316500D02*
X14661000Y-11416500D01*
X14611000Y-11366500D02*
X14711000Y-11366500D01*
X14668500Y-5982500D02*
X14668500Y-6082500D01*
X14618500Y-6032500D02*
X14718500Y-6032500D01*
X14668500Y-6236500D02*
X14668500Y-6336500D01*
X14618500Y-6286500D02*
X14718500Y-6286500D01*
X14668500Y-6490500D02*
X14668500Y-6590500D01*
X14618500Y-6540500D02*
X14718500Y-6540500D01*
X14668500Y-9030500D02*
X14668500Y-9130500D01*
X14618500Y-9080500D02*
X14718500Y-9080500D01*
X14669000Y-11570500D02*
X14669000Y-11670500D01*
X14619000Y-11620500D02*
X14719000Y-11620500D01*
X15494000Y-8205000D02*
X15494000Y-8305000D01*
X15444000Y-8255000D02*
X15544000Y-8255000D01*
X15494000Y-8459000D02*
X15494000Y-8559000D01*
X15444000Y-8509000D02*
X15544000Y-8509000D01*
X15494000Y-8713000D02*
X15494000Y-8813000D01*
X15444000Y-8763000D02*
X15544000Y-8763000D01*
X15494000Y-8967000D02*
X15494000Y-9067000D01*
X15444000Y-9017000D02*
X15544000Y-9017000D01*
X15494000Y-9221000D02*
X15494000Y-9321000D01*
X15444000Y-9271000D02*
X15544000Y-9271000D01*
X15494000Y-9475000D02*
X15494000Y-9575000D01*
X15444000Y-9525000D02*
X15544000Y-9525000D01*
X15494000Y-9729000D02*
X15494000Y-9829000D01*
X15444000Y-9779000D02*
X15544000Y-9779000D01*
X15748000Y-8205000D02*
X15748000Y-8305000D01*
X15698000Y-8255000D02*
X15798000Y-8255000D01*
X15748000Y-8459000D02*
X15748000Y-8559000D01*
X15698000Y-8509000D02*
X15798000Y-8509000D01*
X15748000Y-8713000D02*
X15748000Y-8813000D01*
X15698000Y-8763000D02*
X15798000Y-8763000D01*
X15748000Y-8967000D02*
X15748000Y-9067000D01*
X15698000Y-9017000D02*
X15798000Y-9017000D01*
X15748000Y-9221000D02*
X15748000Y-9321000D01*
X15698000Y-9271000D02*
X15798000Y-9271000D01*
X15748000Y-9475000D02*
X15748000Y-9575000D01*
X15698000Y-9525000D02*
X15798000Y-9525000D01*
X15748000Y-9729000D02*
X15748000Y-9829000D01*
X15698000Y-9779000D02*
X15798000Y-9779000D01*
X16256000Y-8586000D02*
X16256000Y-8686000D01*
X16206000Y-8636000D02*
X16306000Y-8636000D01*
X16256000Y-8815000D02*
X16256000Y-8915000D01*
X16206000Y-8865000D02*
X16306000Y-8865000D01*
X16256000Y-9044000D02*
X16256000Y-9144000D01*
X16206000Y-9094000D02*
X16306000Y-9094000D01*
X16256000Y-9273000D02*
X16256000Y-9373000D01*
X16206000Y-9323000D02*
X16306000Y-9323000D01*
X16256000Y-9502000D02*
X16256000Y-9602000D01*
X16206000Y-9552000D02*
X16306000Y-9552000D01*
X16510000Y-8471500D02*
X16510000Y-8571500D01*
X16460000Y-8521500D02*
X16560000Y-8521500D01*
X16510000Y-8700500D02*
X16510000Y-8800500D01*
X16460000Y-8750500D02*
X16560000Y-8750500D01*
X16510000Y-8929500D02*
X16510000Y-9029500D01*
X16460000Y-8979500D02*
X16560000Y-8979500D01*
X16510000Y-9158500D02*
X16510000Y-9258500D01*
X16460000Y-9208500D02*
X16560000Y-9208500D01*
X16510000Y-9387500D02*
X16510000Y-9487500D01*
X16460000Y-9437500D02*
X16560000Y-9437500D01*
X16764000Y-8586000D02*
X16764000Y-8686000D01*
X16714000Y-8636000D02*
X16814000Y-8636000D01*
X16764000Y-8815000D02*
X16764000Y-8915000D01*
X16714000Y-8865000D02*
X16814000Y-8865000D01*
X16764000Y-9044000D02*
X16764000Y-9144000D01*
X16714000Y-9094000D02*
X16814000Y-9094000D01*
X16764000Y-9273000D02*
X16764000Y-9373000D01*
X16714000Y-9323000D02*
X16814000Y-9323000D01*
X16764000Y-9502000D02*
X16764000Y-9602000D01*
X16714000Y-9552000D02*
X16814000Y-9552000D01*
D13*
X16630138Y-7930638D02*
X16630138Y-7704362D01*
X16403862Y-7704362D01*
X16403862Y-7930638D01*
X16630138Y-7930638D01*
X16630138Y-10430638D02*
X16630138Y-10204362D01*
X16403862Y-10204362D01*
X16403862Y-10430638D01*
X16630138Y-10430638D01*
D14*
X8066000Y-6122000D02*
X8281000Y-5907000D01*
X8066000Y-5692000D01*
X7851000Y-5907000D01*
X8066000Y-6122000D01*
X8066000Y-14722000D02*
X8281000Y-14507000D01*
X8066000Y-14292000D01*
X7851000Y-14507000D01*
X8066000Y-14722000D01*
X16666000Y-6122000D02*
X16881000Y-5907000D01*
X16666000Y-5692000D01*
X16451000Y-5907000D01*
X16666000Y-6122000D01*
X16666000Y-14722000D02*
X16881000Y-14507000D01*
X16666000Y-14292000D01*
X16451000Y-14507000D01*
X16666000Y-14722000D01*
D11*
X7601777Y-15543484D02*
X7601777Y-15343484D01*
X7601777Y-15343484D02*
X7649396Y-15343484D01*
X7649396Y-15343484D02*
X7677967Y-15353008D01*
X7677967Y-15353008D02*
X7697015Y-15372055D01*
X7697015Y-15372055D02*
X7706539Y-15391103D01*
X7706539Y-15391103D02*
X7716062Y-15429198D01*
X7716062Y-15429198D02*
X7716062Y-15457769D01*
X7716062Y-15457769D02*
X7706539Y-15495865D01*
X7706539Y-15495865D02*
X7697015Y-15514912D01*
X7697015Y-15514912D02*
X7677967Y-15533960D01*
X7677967Y-15533960D02*
X7649396Y-15543484D01*
X7649396Y-15543484D02*
X7601777Y-15543484D01*
X7801777Y-15543484D02*
X7801777Y-15410150D01*
X7801777Y-15448246D02*
X7811301Y-15429198D01*
X7811301Y-15429198D02*
X7820824Y-15419674D01*
X7820824Y-15419674D02*
X7839872Y-15410150D01*
X7839872Y-15410150D02*
X7858920Y-15410150D01*
X7925586Y-15543484D02*
X7925586Y-15410150D01*
X7925586Y-15343484D02*
X7916062Y-15353008D01*
X7916062Y-15353008D02*
X7925586Y-15362531D01*
X7925586Y-15362531D02*
X7935110Y-15353008D01*
X7935110Y-15353008D02*
X7925586Y-15343484D01*
X7925586Y-15343484D02*
X7925586Y-15362531D01*
X8049396Y-15543484D02*
X8030348Y-15533960D01*
X8030348Y-15533960D02*
X8020824Y-15514912D01*
X8020824Y-15514912D02*
X8020824Y-15343484D01*
X8154158Y-15543484D02*
X8135110Y-15533960D01*
X8135110Y-15533960D02*
X8125586Y-15514912D01*
X8125586Y-15514912D02*
X8125586Y-15343484D01*
X8382729Y-15543484D02*
X8382729Y-15343484D01*
X8382729Y-15343484D02*
X8449396Y-15486341D01*
X8449396Y-15486341D02*
X8516063Y-15343484D01*
X8516063Y-15343484D02*
X8516063Y-15543484D01*
X8697015Y-15543484D02*
X8697015Y-15438722D01*
X8697015Y-15438722D02*
X8687491Y-15419674D01*
X8687491Y-15419674D02*
X8668444Y-15410150D01*
X8668444Y-15410150D02*
X8630348Y-15410150D01*
X8630348Y-15410150D02*
X8611301Y-15419674D01*
X8697015Y-15533960D02*
X8677967Y-15543484D01*
X8677967Y-15543484D02*
X8630348Y-15543484D01*
X8630348Y-15543484D02*
X8611301Y-15533960D01*
X8611301Y-15533960D02*
X8601777Y-15514912D01*
X8601777Y-15514912D02*
X8601777Y-15495865D01*
X8601777Y-15495865D02*
X8611301Y-15476817D01*
X8611301Y-15476817D02*
X8630348Y-15467293D01*
X8630348Y-15467293D02*
X8677967Y-15467293D01*
X8677967Y-15467293D02*
X8697015Y-15457769D01*
X8792253Y-15410150D02*
X8792253Y-15610150D01*
X8792253Y-15419674D02*
X8811301Y-15410150D01*
X8811301Y-15410150D02*
X8849396Y-15410150D01*
X8849396Y-15410150D02*
X8868444Y-15419674D01*
X8868444Y-15419674D02*
X8877967Y-15429198D01*
X8877967Y-15429198D02*
X8887491Y-15448246D01*
X8887491Y-15448246D02*
X8887491Y-15505388D01*
X8887491Y-15505388D02*
X8877967Y-15524436D01*
X8877967Y-15524436D02*
X8868444Y-15533960D01*
X8868444Y-15533960D02*
X8849396Y-15543484D01*
X8849396Y-15543484D02*
X8811301Y-15543484D01*
X8811301Y-15543484D02*
X8792253Y-15533960D01*
X8973205Y-15524436D02*
X8982729Y-15533960D01*
X8982729Y-15533960D02*
X8973205Y-15543484D01*
X8973205Y-15543484D02*
X8963682Y-15533960D01*
X8963682Y-15533960D02*
X8973205Y-15524436D01*
X8973205Y-15524436D02*
X8973205Y-15543484D01*
X8973205Y-15419674D02*
X8982729Y-15429198D01*
X8982729Y-15429198D02*
X8973205Y-15438722D01*
X8973205Y-15438722D02*
X8963682Y-15429198D01*
X8963682Y-15429198D02*
X8973205Y-15419674D01*
X8973205Y-15419674D02*
X8973205Y-15438722D01*
D12*
X7306000Y-15854500D02*
X7341000Y-15889500D01*
X7341000Y-15854500D02*
X7306000Y-15889500D01*
D11*
X7639872Y-15763484D02*
X7658920Y-15763484D01*
X7658920Y-15763484D02*
X7677967Y-15773008D01*
X7677967Y-15773008D02*
X7687491Y-15782531D01*
X7687491Y-15782531D02*
X7697015Y-15801579D01*
X7697015Y-15801579D02*
X7706539Y-15839674D01*
X7706539Y-15839674D02*
X7706539Y-15887293D01*
X7706539Y-15887293D02*
X7697015Y-15925388D01*
X7697015Y-15925388D02*
X7687491Y-15944436D01*
X7687491Y-15944436D02*
X7677967Y-15953960D01*
X7677967Y-15953960D02*
X7658920Y-15963484D01*
X7658920Y-15963484D02*
X7639872Y-15963484D01*
X7639872Y-15963484D02*
X7620824Y-15953960D01*
X7620824Y-15953960D02*
X7611301Y-15944436D01*
X7611301Y-15944436D02*
X7601777Y-15925388D01*
X7601777Y-15925388D02*
X7592253Y-15887293D01*
X7592253Y-15887293D02*
X7592253Y-15839674D01*
X7592253Y-15839674D02*
X7601777Y-15801579D01*
X7601777Y-15801579D02*
X7611301Y-15782531D01*
X7611301Y-15782531D02*
X7620824Y-15773008D01*
X7620824Y-15773008D02*
X7639872Y-15763484D01*
X7792253Y-15944436D02*
X7801777Y-15953960D01*
X7801777Y-15953960D02*
X7792253Y-15963484D01*
X7792253Y-15963484D02*
X7782729Y-15953960D01*
X7782729Y-15953960D02*
X7792253Y-15944436D01*
X7792253Y-15944436D02*
X7792253Y-15963484D01*
X7868443Y-15763484D02*
X7992253Y-15763484D01*
X7992253Y-15763484D02*
X7925586Y-15839674D01*
X7925586Y-15839674D02*
X7954158Y-15839674D01*
X7954158Y-15839674D02*
X7973205Y-15849198D01*
X7973205Y-15849198D02*
X7982729Y-15858722D01*
X7982729Y-15858722D02*
X7992253Y-15877769D01*
X7992253Y-15877769D02*
X7992253Y-15925388D01*
X7992253Y-15925388D02*
X7982729Y-15944436D01*
X7982729Y-15944436D02*
X7973205Y-15953960D01*
X7973205Y-15953960D02*
X7954158Y-15963484D01*
X7954158Y-15963484D02*
X7897015Y-15963484D01*
X7897015Y-15963484D02*
X7877967Y-15953960D01*
X7877967Y-15953960D02*
X7868443Y-15944436D01*
X8173205Y-15763484D02*
X8077967Y-15763484D01*
X8077967Y-15763484D02*
X8068443Y-15858722D01*
X8068443Y-15858722D02*
X8077967Y-15849198D01*
X8077967Y-15849198D02*
X8097015Y-15839674D01*
X8097015Y-15839674D02*
X8144634Y-15839674D01*
X8144634Y-15839674D02*
X8163682Y-15849198D01*
X8163682Y-15849198D02*
X8173205Y-15858722D01*
X8173205Y-15858722D02*
X8182729Y-15877769D01*
X8182729Y-15877769D02*
X8182729Y-15925388D01*
X8182729Y-15925388D02*
X8173205Y-15944436D01*
X8173205Y-15944436D02*
X8163682Y-15953960D01*
X8163682Y-15953960D02*
X8144634Y-15963484D01*
X8144634Y-15963484D02*
X8097015Y-15963484D01*
X8097015Y-15963484D02*
X8077967Y-15953960D01*
X8077967Y-15953960D02*
X8068443Y-15944436D01*
X8306539Y-15763484D02*
X8325586Y-15763484D01*
X8325586Y-15763484D02*
X8344634Y-15773008D01*
X8344634Y-15773008D02*
X8354158Y-15782531D01*
X8354158Y-15782531D02*
X8363682Y-15801579D01*
X8363682Y-15801579D02*
X8373205Y-15839674D01*
X8373205Y-15839674D02*
X8373205Y-15887293D01*
X8373205Y-15887293D02*
X8363682Y-15925388D01*
X8363682Y-15925388D02*
X8354158Y-15944436D01*
X8354158Y-15944436D02*
X8344634Y-15953960D01*
X8344634Y-15953960D02*
X8325586Y-15963484D01*
X8325586Y-15963484D02*
X8306539Y-15963484D01*
X8306539Y-15963484D02*
X8287491Y-15953960D01*
X8287491Y-15953960D02*
X8277967Y-15944436D01*
X8277967Y-15944436D02*
X8268443Y-15925388D01*
X8268443Y-15925388D02*
X8258920Y-15887293D01*
X8258920Y-15887293D02*
X8258920Y-15839674D01*
X8258920Y-15839674D02*
X8268443Y-15801579D01*
X8268443Y-15801579D02*
X8277967Y-15782531D01*
X8277967Y-15782531D02*
X8287491Y-15773008D01*
X8287491Y-15773008D02*
X8306539Y-15763484D01*
X8458920Y-15963484D02*
X8458920Y-15830150D01*
X8458920Y-15849198D02*
X8468444Y-15839674D01*
X8468444Y-15839674D02*
X8487491Y-15830150D01*
X8487491Y-15830150D02*
X8516063Y-15830150D01*
X8516063Y-15830150D02*
X8535110Y-15839674D01*
X8535110Y-15839674D02*
X8544634Y-15858722D01*
X8544634Y-15858722D02*
X8544634Y-15963484D01*
X8544634Y-15858722D02*
X8554158Y-15839674D01*
X8554158Y-15839674D02*
X8573205Y-15830150D01*
X8573205Y-15830150D02*
X8601777Y-15830150D01*
X8601777Y-15830150D02*
X8620825Y-15839674D01*
X8620825Y-15839674D02*
X8630348Y-15858722D01*
X8630348Y-15858722D02*
X8630348Y-15963484D01*
X8725586Y-15963484D02*
X8725586Y-15830150D01*
X8725586Y-15849198D02*
X8735110Y-15839674D01*
X8735110Y-15839674D02*
X8754158Y-15830150D01*
X8754158Y-15830150D02*
X8782729Y-15830150D01*
X8782729Y-15830150D02*
X8801777Y-15839674D01*
X8801777Y-15839674D02*
X8811301Y-15858722D01*
X8811301Y-15858722D02*
X8811301Y-15963484D01*
X8811301Y-15858722D02*
X8820825Y-15839674D01*
X8820825Y-15839674D02*
X8839872Y-15830150D01*
X8839872Y-15830150D02*
X8868444Y-15830150D01*
X8868444Y-15830150D02*
X8887491Y-15839674D01*
X8887491Y-15839674D02*
X8897015Y-15858722D01*
X8897015Y-15858722D02*
X8897015Y-15963484D01*
X9287491Y-15753960D02*
X9116063Y-16011103D01*
X9544634Y-15763484D02*
X9563682Y-15763484D01*
X9563682Y-15763484D02*
X9582729Y-15773008D01*
X9582729Y-15773008D02*
X9592253Y-15782531D01*
X9592253Y-15782531D02*
X9601777Y-15801579D01*
X9601777Y-15801579D02*
X9611301Y-15839674D01*
X9611301Y-15839674D02*
X9611301Y-15887293D01*
X9611301Y-15887293D02*
X9601777Y-15925388D01*
X9601777Y-15925388D02*
X9592253Y-15944436D01*
X9592253Y-15944436D02*
X9582729Y-15953960D01*
X9582729Y-15953960D02*
X9563682Y-15963484D01*
X9563682Y-15963484D02*
X9544634Y-15963484D01*
X9544634Y-15963484D02*
X9525587Y-15953960D01*
X9525587Y-15953960D02*
X9516063Y-15944436D01*
X9516063Y-15944436D02*
X9506539Y-15925388D01*
X9506539Y-15925388D02*
X9497015Y-15887293D01*
X9497015Y-15887293D02*
X9497015Y-15839674D01*
X9497015Y-15839674D02*
X9506539Y-15801579D01*
X9506539Y-15801579D02*
X9516063Y-15782531D01*
X9516063Y-15782531D02*
X9525587Y-15773008D01*
X9525587Y-15773008D02*
X9544634Y-15763484D01*
X9697015Y-15944436D02*
X9706539Y-15953960D01*
X9706539Y-15953960D02*
X9697015Y-15963484D01*
X9697015Y-15963484D02*
X9687491Y-15953960D01*
X9687491Y-15953960D02*
X9697015Y-15944436D01*
X9697015Y-15944436D02*
X9697015Y-15963484D01*
X9830348Y-15763484D02*
X9849396Y-15763484D01*
X9849396Y-15763484D02*
X9868444Y-15773008D01*
X9868444Y-15773008D02*
X9877968Y-15782531D01*
X9877968Y-15782531D02*
X9887491Y-15801579D01*
X9887491Y-15801579D02*
X9897015Y-15839674D01*
X9897015Y-15839674D02*
X9897015Y-15887293D01*
X9897015Y-15887293D02*
X9887491Y-15925388D01*
X9887491Y-15925388D02*
X9877968Y-15944436D01*
X9877968Y-15944436D02*
X9868444Y-15953960D01*
X9868444Y-15953960D02*
X9849396Y-15963484D01*
X9849396Y-15963484D02*
X9830348Y-15963484D01*
X9830348Y-15963484D02*
X9811301Y-15953960D01*
X9811301Y-15953960D02*
X9801777Y-15944436D01*
X9801777Y-15944436D02*
X9792253Y-15925388D01*
X9792253Y-15925388D02*
X9782729Y-15887293D01*
X9782729Y-15887293D02*
X9782729Y-15839674D01*
X9782729Y-15839674D02*
X9792253Y-15801579D01*
X9792253Y-15801579D02*
X9801777Y-15782531D01*
X9801777Y-15782531D02*
X9811301Y-15773008D01*
X9811301Y-15773008D02*
X9830348Y-15763484D01*
X10087491Y-15963484D02*
X9973206Y-15963484D01*
X10030348Y-15963484D02*
X10030348Y-15763484D01*
X10030348Y-15763484D02*
X10011301Y-15792055D01*
X10011301Y-15792055D02*
X9992253Y-15811103D01*
X9992253Y-15811103D02*
X9973206Y-15820627D01*
X10154158Y-15763484D02*
X10277968Y-15763484D01*
X10277968Y-15763484D02*
X10211301Y-15839674D01*
X10211301Y-15839674D02*
X10239872Y-15839674D01*
X10239872Y-15839674D02*
X10258920Y-15849198D01*
X10258920Y-15849198D02*
X10268444Y-15858722D01*
X10268444Y-15858722D02*
X10277968Y-15877769D01*
X10277968Y-15877769D02*
X10277968Y-15925388D01*
X10277968Y-15925388D02*
X10268444Y-15944436D01*
X10268444Y-15944436D02*
X10258920Y-15953960D01*
X10258920Y-15953960D02*
X10239872Y-15963484D01*
X10239872Y-15963484D02*
X10182729Y-15963484D01*
X10182729Y-15963484D02*
X10163682Y-15953960D01*
X10163682Y-15953960D02*
X10154158Y-15944436D01*
X10392253Y-15849198D02*
X10373206Y-15839674D01*
X10373206Y-15839674D02*
X10363682Y-15830150D01*
X10363682Y-15830150D02*
X10354158Y-15811103D01*
X10354158Y-15811103D02*
X10354158Y-15801579D01*
X10354158Y-15801579D02*
X10363682Y-15782531D01*
X10363682Y-15782531D02*
X10373206Y-15773008D01*
X10373206Y-15773008D02*
X10392253Y-15763484D01*
X10392253Y-15763484D02*
X10430349Y-15763484D01*
X10430349Y-15763484D02*
X10449396Y-15773008D01*
X10449396Y-15773008D02*
X10458920Y-15782531D01*
X10458920Y-15782531D02*
X10468444Y-15801579D01*
X10468444Y-15801579D02*
X10468444Y-15811103D01*
X10468444Y-15811103D02*
X10458920Y-15830150D01*
X10458920Y-15830150D02*
X10449396Y-15839674D01*
X10449396Y-15839674D02*
X10430349Y-15849198D01*
X10430349Y-15849198D02*
X10392253Y-15849198D01*
X10392253Y-15849198D02*
X10373206Y-15858722D01*
X10373206Y-15858722D02*
X10363682Y-15868246D01*
X10363682Y-15868246D02*
X10354158Y-15887293D01*
X10354158Y-15887293D02*
X10354158Y-15925388D01*
X10354158Y-15925388D02*
X10363682Y-15944436D01*
X10363682Y-15944436D02*
X10373206Y-15953960D01*
X10373206Y-15953960D02*
X10392253Y-15963484D01*
X10392253Y-15963484D02*
X10430349Y-15963484D01*
X10430349Y-15963484D02*
X10449396Y-15953960D01*
X10449396Y-15953960D02*
X10458920Y-15944436D01*
X10458920Y-15944436D02*
X10468444Y-15925388D01*
X10468444Y-15925388D02*
X10468444Y-15887293D01*
X10468444Y-15887293D02*
X10458920Y-15868246D01*
X10458920Y-15868246D02*
X10449396Y-15858722D01*
X10449396Y-15858722D02*
X10430349Y-15849198D01*
X10544634Y-15763484D02*
X10544634Y-15801579D01*
X10620825Y-15763484D02*
X10620825Y-15801579D01*
X10916063Y-16039674D02*
X10906539Y-16030150D01*
X10906539Y-16030150D02*
X10887491Y-16001579D01*
X10887491Y-16001579D02*
X10877968Y-15982531D01*
X10877968Y-15982531D02*
X10868444Y-15953960D01*
X10868444Y-15953960D02*
X10858920Y-15906341D01*
X10858920Y-15906341D02*
X10858920Y-15868246D01*
X10858920Y-15868246D02*
X10868444Y-15820627D01*
X10868444Y-15820627D02*
X10877968Y-15792055D01*
X10877968Y-15792055D02*
X10887491Y-15773008D01*
X10887491Y-15773008D02*
X10906539Y-15744436D01*
X10906539Y-15744436D02*
X10916063Y-15734912D01*
X10973206Y-15763484D02*
X11097015Y-15763484D01*
X11097015Y-15763484D02*
X11030349Y-15839674D01*
X11030349Y-15839674D02*
X11058920Y-15839674D01*
X11058920Y-15839674D02*
X11077968Y-15849198D01*
X11077968Y-15849198D02*
X11087491Y-15858722D01*
X11087491Y-15858722D02*
X11097015Y-15877769D01*
X11097015Y-15877769D02*
X11097015Y-15925388D01*
X11097015Y-15925388D02*
X11087491Y-15944436D01*
X11087491Y-15944436D02*
X11077968Y-15953960D01*
X11077968Y-15953960D02*
X11058920Y-15963484D01*
X11058920Y-15963484D02*
X11001777Y-15963484D01*
X11001777Y-15963484D02*
X10982730Y-15953960D01*
X10982730Y-15953960D02*
X10973206Y-15944436D01*
X11268444Y-15830150D02*
X11268444Y-15963484D01*
X11220825Y-15753960D02*
X11173206Y-15896817D01*
X11173206Y-15896817D02*
X11297015Y-15896817D01*
X11525587Y-15963484D02*
X11525587Y-15763484D01*
X11611301Y-15963484D02*
X11611301Y-15858722D01*
X11611301Y-15858722D02*
X11601777Y-15839674D01*
X11601777Y-15839674D02*
X11582730Y-15830150D01*
X11582730Y-15830150D02*
X11554158Y-15830150D01*
X11554158Y-15830150D02*
X11535110Y-15839674D01*
X11535110Y-15839674D02*
X11525587Y-15849198D01*
X11735110Y-15963484D02*
X11716063Y-15953960D01*
X11716063Y-15953960D02*
X11706539Y-15944436D01*
X11706539Y-15944436D02*
X11697015Y-15925388D01*
X11697015Y-15925388D02*
X11697015Y-15868246D01*
X11697015Y-15868246D02*
X11706539Y-15849198D01*
X11706539Y-15849198D02*
X11716063Y-15839674D01*
X11716063Y-15839674D02*
X11735110Y-15830150D01*
X11735110Y-15830150D02*
X11763682Y-15830150D01*
X11763682Y-15830150D02*
X11782730Y-15839674D01*
X11782730Y-15839674D02*
X11792253Y-15849198D01*
X11792253Y-15849198D02*
X11801777Y-15868246D01*
X11801777Y-15868246D02*
X11801777Y-15925388D01*
X11801777Y-15925388D02*
X11792253Y-15944436D01*
X11792253Y-15944436D02*
X11782730Y-15953960D01*
X11782730Y-15953960D02*
X11763682Y-15963484D01*
X11763682Y-15963484D02*
X11735110Y-15963484D01*
X11916063Y-15963484D02*
X11897015Y-15953960D01*
X11897015Y-15953960D02*
X11887491Y-15934912D01*
X11887491Y-15934912D02*
X11887491Y-15763484D01*
X12068444Y-15953960D02*
X12049396Y-15963484D01*
X12049396Y-15963484D02*
X12011301Y-15963484D01*
X12011301Y-15963484D02*
X11992253Y-15953960D01*
X11992253Y-15953960D02*
X11982730Y-15934912D01*
X11982730Y-15934912D02*
X11982730Y-15858722D01*
X11982730Y-15858722D02*
X11992253Y-15839674D01*
X11992253Y-15839674D02*
X12011301Y-15830150D01*
X12011301Y-15830150D02*
X12049396Y-15830150D01*
X12049396Y-15830150D02*
X12068444Y-15839674D01*
X12068444Y-15839674D02*
X12077968Y-15858722D01*
X12077968Y-15858722D02*
X12077968Y-15877769D01*
X12077968Y-15877769D02*
X11982730Y-15896817D01*
X12154158Y-15953960D02*
X12173206Y-15963484D01*
X12173206Y-15963484D02*
X12211301Y-15963484D01*
X12211301Y-15963484D02*
X12230349Y-15953960D01*
X12230349Y-15953960D02*
X12239872Y-15934912D01*
X12239872Y-15934912D02*
X12239872Y-15925388D01*
X12239872Y-15925388D02*
X12230349Y-15906341D01*
X12230349Y-15906341D02*
X12211301Y-15896817D01*
X12211301Y-15896817D02*
X12182730Y-15896817D01*
X12182730Y-15896817D02*
X12163682Y-15887293D01*
X12163682Y-15887293D02*
X12154158Y-15868246D01*
X12154158Y-15868246D02*
X12154158Y-15858722D01*
X12154158Y-15858722D02*
X12163682Y-15839674D01*
X12163682Y-15839674D02*
X12182730Y-15830150D01*
X12182730Y-15830150D02*
X12211301Y-15830150D01*
X12211301Y-15830150D02*
X12230349Y-15839674D01*
X12306539Y-16039674D02*
X12316063Y-16030150D01*
X12316063Y-16030150D02*
X12335111Y-16001579D01*
X12335111Y-16001579D02*
X12344634Y-15982531D01*
X12344634Y-15982531D02*
X12354158Y-15953960D01*
X12354158Y-15953960D02*
X12363682Y-15906341D01*
X12363682Y-15906341D02*
X12363682Y-15868246D01*
X12363682Y-15868246D02*
X12354158Y-15820627D01*
X12354158Y-15820627D02*
X12344634Y-15792055D01*
X12344634Y-15792055D02*
X12335111Y-15773008D01*
X12335111Y-15773008D02*
X12316063Y-15744436D01*
X12316063Y-15744436D02*
X12306539Y-15734912D01*
D12*
X7341000Y-16136000D02*
G75*
G02*
X7261000Y-16136000I-40000J0D01*
G01*
X7261000Y-16136000D02*
G75*
G02*
X7341000Y-16136000I40000J0D01*
G01*
D11*
X7639872Y-16027484D02*
X7658920Y-16027484D01*
X7658920Y-16027484D02*
X7677967Y-16037008D01*
X7677967Y-16037008D02*
X7687491Y-16046531D01*
X7687491Y-16046531D02*
X7697015Y-16065579D01*
X7697015Y-16065579D02*
X7706539Y-16103674D01*
X7706539Y-16103674D02*
X7706539Y-16151293D01*
X7706539Y-16151293D02*
X7697015Y-16189388D01*
X7697015Y-16189388D02*
X7687491Y-16208436D01*
X7687491Y-16208436D02*
X7677967Y-16217960D01*
X7677967Y-16217960D02*
X7658920Y-16227484D01*
X7658920Y-16227484D02*
X7639872Y-16227484D01*
X7639872Y-16227484D02*
X7620824Y-16217960D01*
X7620824Y-16217960D02*
X7611301Y-16208436D01*
X7611301Y-16208436D02*
X7601777Y-16189388D01*
X7601777Y-16189388D02*
X7592253Y-16151293D01*
X7592253Y-16151293D02*
X7592253Y-16103674D01*
X7592253Y-16103674D02*
X7601777Y-16065579D01*
X7601777Y-16065579D02*
X7611301Y-16046531D01*
X7611301Y-16046531D02*
X7620824Y-16037008D01*
X7620824Y-16037008D02*
X7639872Y-16027484D01*
X7792253Y-16208436D02*
X7801777Y-16217960D01*
X7801777Y-16217960D02*
X7792253Y-16227484D01*
X7792253Y-16227484D02*
X7782729Y-16217960D01*
X7782729Y-16217960D02*
X7792253Y-16208436D01*
X7792253Y-16208436D02*
X7792253Y-16227484D01*
X7916062Y-16113198D02*
X7897015Y-16103674D01*
X7897015Y-16103674D02*
X7887491Y-16094150D01*
X7887491Y-16094150D02*
X7877967Y-16075103D01*
X7877967Y-16075103D02*
X7877967Y-16065579D01*
X7877967Y-16065579D02*
X7887491Y-16046531D01*
X7887491Y-16046531D02*
X7897015Y-16037008D01*
X7897015Y-16037008D02*
X7916062Y-16027484D01*
X7916062Y-16027484D02*
X7954158Y-16027484D01*
X7954158Y-16027484D02*
X7973205Y-16037008D01*
X7973205Y-16037008D02*
X7982729Y-16046531D01*
X7982729Y-16046531D02*
X7992253Y-16065579D01*
X7992253Y-16065579D02*
X7992253Y-16075103D01*
X7992253Y-16075103D02*
X7982729Y-16094150D01*
X7982729Y-16094150D02*
X7973205Y-16103674D01*
X7973205Y-16103674D02*
X7954158Y-16113198D01*
X7954158Y-16113198D02*
X7916062Y-16113198D01*
X7916062Y-16113198D02*
X7897015Y-16122722D01*
X7897015Y-16122722D02*
X7887491Y-16132246D01*
X7887491Y-16132246D02*
X7877967Y-16151293D01*
X7877967Y-16151293D02*
X7877967Y-16189388D01*
X7877967Y-16189388D02*
X7887491Y-16208436D01*
X7887491Y-16208436D02*
X7897015Y-16217960D01*
X7897015Y-16217960D02*
X7916062Y-16227484D01*
X7916062Y-16227484D02*
X7954158Y-16227484D01*
X7954158Y-16227484D02*
X7973205Y-16217960D01*
X7973205Y-16217960D02*
X7982729Y-16208436D01*
X7982729Y-16208436D02*
X7992253Y-16189388D01*
X7992253Y-16189388D02*
X7992253Y-16151293D01*
X7992253Y-16151293D02*
X7982729Y-16132246D01*
X7982729Y-16132246D02*
X7973205Y-16122722D01*
X7973205Y-16122722D02*
X7954158Y-16113198D01*
X8116062Y-16027484D02*
X8135110Y-16027484D01*
X8135110Y-16027484D02*
X8154158Y-16037008D01*
X8154158Y-16037008D02*
X8163682Y-16046531D01*
X8163682Y-16046531D02*
X8173205Y-16065579D01*
X8173205Y-16065579D02*
X8182729Y-16103674D01*
X8182729Y-16103674D02*
X8182729Y-16151293D01*
X8182729Y-16151293D02*
X8173205Y-16189388D01*
X8173205Y-16189388D02*
X8163682Y-16208436D01*
X8163682Y-16208436D02*
X8154158Y-16217960D01*
X8154158Y-16217960D02*
X8135110Y-16227484D01*
X8135110Y-16227484D02*
X8116062Y-16227484D01*
X8116062Y-16227484D02*
X8097015Y-16217960D01*
X8097015Y-16217960D02*
X8087491Y-16208436D01*
X8087491Y-16208436D02*
X8077967Y-16189388D01*
X8077967Y-16189388D02*
X8068443Y-16151293D01*
X8068443Y-16151293D02*
X8068443Y-16103674D01*
X8068443Y-16103674D02*
X8077967Y-16065579D01*
X8077967Y-16065579D02*
X8087491Y-16046531D01*
X8087491Y-16046531D02*
X8097015Y-16037008D01*
X8097015Y-16037008D02*
X8116062Y-16027484D01*
X8306539Y-16027484D02*
X8325586Y-16027484D01*
X8325586Y-16027484D02*
X8344634Y-16037008D01*
X8344634Y-16037008D02*
X8354158Y-16046531D01*
X8354158Y-16046531D02*
X8363682Y-16065579D01*
X8363682Y-16065579D02*
X8373205Y-16103674D01*
X8373205Y-16103674D02*
X8373205Y-16151293D01*
X8373205Y-16151293D02*
X8363682Y-16189388D01*
X8363682Y-16189388D02*
X8354158Y-16208436D01*
X8354158Y-16208436D02*
X8344634Y-16217960D01*
X8344634Y-16217960D02*
X8325586Y-16227484D01*
X8325586Y-16227484D02*
X8306539Y-16227484D01*
X8306539Y-16227484D02*
X8287491Y-16217960D01*
X8287491Y-16217960D02*
X8277967Y-16208436D01*
X8277967Y-16208436D02*
X8268443Y-16189388D01*
X8268443Y-16189388D02*
X8258920Y-16151293D01*
X8258920Y-16151293D02*
X8258920Y-16103674D01*
X8258920Y-16103674D02*
X8268443Y-16065579D01*
X8268443Y-16065579D02*
X8277967Y-16046531D01*
X8277967Y-16046531D02*
X8287491Y-16037008D01*
X8287491Y-16037008D02*
X8306539Y-16027484D01*
X8458920Y-16227484D02*
X8458920Y-16094150D01*
X8458920Y-16113198D02*
X8468444Y-16103674D01*
X8468444Y-16103674D02*
X8487491Y-16094150D01*
X8487491Y-16094150D02*
X8516063Y-16094150D01*
X8516063Y-16094150D02*
X8535110Y-16103674D01*
X8535110Y-16103674D02*
X8544634Y-16122722D01*
X8544634Y-16122722D02*
X8544634Y-16227484D01*
X8544634Y-16122722D02*
X8554158Y-16103674D01*
X8554158Y-16103674D02*
X8573205Y-16094150D01*
X8573205Y-16094150D02*
X8601777Y-16094150D01*
X8601777Y-16094150D02*
X8620825Y-16103674D01*
X8620825Y-16103674D02*
X8630348Y-16122722D01*
X8630348Y-16122722D02*
X8630348Y-16227484D01*
X8725586Y-16227484D02*
X8725586Y-16094150D01*
X8725586Y-16113198D02*
X8735110Y-16103674D01*
X8735110Y-16103674D02*
X8754158Y-16094150D01*
X8754158Y-16094150D02*
X8782729Y-16094150D01*
X8782729Y-16094150D02*
X8801777Y-16103674D01*
X8801777Y-16103674D02*
X8811301Y-16122722D01*
X8811301Y-16122722D02*
X8811301Y-16227484D01*
X8811301Y-16122722D02*
X8820825Y-16103674D01*
X8820825Y-16103674D02*
X8839872Y-16094150D01*
X8839872Y-16094150D02*
X8868444Y-16094150D01*
X8868444Y-16094150D02*
X8887491Y-16103674D01*
X8887491Y-16103674D02*
X8897015Y-16122722D01*
X8897015Y-16122722D02*
X8897015Y-16227484D01*
X9287491Y-16017960D02*
X9116063Y-16275103D01*
X9544634Y-16027484D02*
X9563682Y-16027484D01*
X9563682Y-16027484D02*
X9582729Y-16037008D01*
X9582729Y-16037008D02*
X9592253Y-16046531D01*
X9592253Y-16046531D02*
X9601777Y-16065579D01*
X9601777Y-16065579D02*
X9611301Y-16103674D01*
X9611301Y-16103674D02*
X9611301Y-16151293D01*
X9611301Y-16151293D02*
X9601777Y-16189388D01*
X9601777Y-16189388D02*
X9592253Y-16208436D01*
X9592253Y-16208436D02*
X9582729Y-16217960D01*
X9582729Y-16217960D02*
X9563682Y-16227484D01*
X9563682Y-16227484D02*
X9544634Y-16227484D01*
X9544634Y-16227484D02*
X9525587Y-16217960D01*
X9525587Y-16217960D02*
X9516063Y-16208436D01*
X9516063Y-16208436D02*
X9506539Y-16189388D01*
X9506539Y-16189388D02*
X9497015Y-16151293D01*
X9497015Y-16151293D02*
X9497015Y-16103674D01*
X9497015Y-16103674D02*
X9506539Y-16065579D01*
X9506539Y-16065579D02*
X9516063Y-16046531D01*
X9516063Y-16046531D02*
X9525587Y-16037008D01*
X9525587Y-16037008D02*
X9544634Y-16027484D01*
X9697015Y-16208436D02*
X9706539Y-16217960D01*
X9706539Y-16217960D02*
X9697015Y-16227484D01*
X9697015Y-16227484D02*
X9687491Y-16217960D01*
X9687491Y-16217960D02*
X9697015Y-16208436D01*
X9697015Y-16208436D02*
X9697015Y-16227484D01*
X9830348Y-16027484D02*
X9849396Y-16027484D01*
X9849396Y-16027484D02*
X9868444Y-16037008D01*
X9868444Y-16037008D02*
X9877968Y-16046531D01*
X9877968Y-16046531D02*
X9887491Y-16065579D01*
X9887491Y-16065579D02*
X9897015Y-16103674D01*
X9897015Y-16103674D02*
X9897015Y-16151293D01*
X9897015Y-16151293D02*
X9887491Y-16189388D01*
X9887491Y-16189388D02*
X9877968Y-16208436D01*
X9877968Y-16208436D02*
X9868444Y-16217960D01*
X9868444Y-16217960D02*
X9849396Y-16227484D01*
X9849396Y-16227484D02*
X9830348Y-16227484D01*
X9830348Y-16227484D02*
X9811301Y-16217960D01*
X9811301Y-16217960D02*
X9801777Y-16208436D01*
X9801777Y-16208436D02*
X9792253Y-16189388D01*
X9792253Y-16189388D02*
X9782729Y-16151293D01*
X9782729Y-16151293D02*
X9782729Y-16103674D01*
X9782729Y-16103674D02*
X9792253Y-16065579D01*
X9792253Y-16065579D02*
X9801777Y-16046531D01*
X9801777Y-16046531D02*
X9811301Y-16037008D01*
X9811301Y-16037008D02*
X9830348Y-16027484D01*
X9963682Y-16027484D02*
X10087491Y-16027484D01*
X10087491Y-16027484D02*
X10020825Y-16103674D01*
X10020825Y-16103674D02*
X10049396Y-16103674D01*
X10049396Y-16103674D02*
X10068444Y-16113198D01*
X10068444Y-16113198D02*
X10077968Y-16122722D01*
X10077968Y-16122722D02*
X10087491Y-16141769D01*
X10087491Y-16141769D02*
X10087491Y-16189388D01*
X10087491Y-16189388D02*
X10077968Y-16208436D01*
X10077968Y-16208436D02*
X10068444Y-16217960D01*
X10068444Y-16217960D02*
X10049396Y-16227484D01*
X10049396Y-16227484D02*
X9992253Y-16227484D01*
X9992253Y-16227484D02*
X9973206Y-16217960D01*
X9973206Y-16217960D02*
X9963682Y-16208436D01*
X10277968Y-16227484D02*
X10163682Y-16227484D01*
X10220825Y-16227484D02*
X10220825Y-16027484D01*
X10220825Y-16027484D02*
X10201777Y-16056055D01*
X10201777Y-16056055D02*
X10182729Y-16075103D01*
X10182729Y-16075103D02*
X10163682Y-16084627D01*
X10458920Y-16027484D02*
X10363682Y-16027484D01*
X10363682Y-16027484D02*
X10354158Y-16122722D01*
X10354158Y-16122722D02*
X10363682Y-16113198D01*
X10363682Y-16113198D02*
X10382729Y-16103674D01*
X10382729Y-16103674D02*
X10430349Y-16103674D01*
X10430349Y-16103674D02*
X10449396Y-16113198D01*
X10449396Y-16113198D02*
X10458920Y-16122722D01*
X10458920Y-16122722D02*
X10468444Y-16141769D01*
X10468444Y-16141769D02*
X10468444Y-16189388D01*
X10468444Y-16189388D02*
X10458920Y-16208436D01*
X10458920Y-16208436D02*
X10449396Y-16217960D01*
X10449396Y-16217960D02*
X10430349Y-16227484D01*
X10430349Y-16227484D02*
X10382729Y-16227484D01*
X10382729Y-16227484D02*
X10363682Y-16217960D01*
X10363682Y-16217960D02*
X10354158Y-16208436D01*
X10544634Y-16027484D02*
X10544634Y-16065579D01*
X10620825Y-16027484D02*
X10620825Y-16065579D01*
X10916063Y-16303674D02*
X10906539Y-16294150D01*
X10906539Y-16294150D02*
X10887491Y-16265579D01*
X10887491Y-16265579D02*
X10877968Y-16246531D01*
X10877968Y-16246531D02*
X10868444Y-16217960D01*
X10868444Y-16217960D02*
X10858920Y-16170341D01*
X10858920Y-16170341D02*
X10858920Y-16132246D01*
X10858920Y-16132246D02*
X10868444Y-16084627D01*
X10868444Y-16084627D02*
X10877968Y-16056055D01*
X10877968Y-16056055D02*
X10887491Y-16037008D01*
X10887491Y-16037008D02*
X10906539Y-16008436D01*
X10906539Y-16008436D02*
X10916063Y-15998912D01*
X11097015Y-16227484D02*
X10982730Y-16227484D01*
X11039872Y-16227484D02*
X11039872Y-16027484D01*
X11039872Y-16027484D02*
X11020825Y-16056055D01*
X11020825Y-16056055D02*
X11001777Y-16075103D01*
X11001777Y-16075103D02*
X10982730Y-16084627D01*
X11173206Y-16046531D02*
X11182730Y-16037008D01*
X11182730Y-16037008D02*
X11201777Y-16027484D01*
X11201777Y-16027484D02*
X11249396Y-16027484D01*
X11249396Y-16027484D02*
X11268444Y-16037008D01*
X11268444Y-16037008D02*
X11277968Y-16046531D01*
X11277968Y-16046531D02*
X11287491Y-16065579D01*
X11287491Y-16065579D02*
X11287491Y-16084627D01*
X11287491Y-16084627D02*
X11277968Y-16113198D01*
X11277968Y-16113198D02*
X11163682Y-16227484D01*
X11163682Y-16227484D02*
X11287491Y-16227484D01*
X11525587Y-16227484D02*
X11525587Y-16027484D01*
X11611301Y-16227484D02*
X11611301Y-16122722D01*
X11611301Y-16122722D02*
X11601777Y-16103674D01*
X11601777Y-16103674D02*
X11582730Y-16094150D01*
X11582730Y-16094150D02*
X11554158Y-16094150D01*
X11554158Y-16094150D02*
X11535110Y-16103674D01*
X11535110Y-16103674D02*
X11525587Y-16113198D01*
X11735110Y-16227484D02*
X11716063Y-16217960D01*
X11716063Y-16217960D02*
X11706539Y-16208436D01*
X11706539Y-16208436D02*
X11697015Y-16189388D01*
X11697015Y-16189388D02*
X11697015Y-16132246D01*
X11697015Y-16132246D02*
X11706539Y-16113198D01*
X11706539Y-16113198D02*
X11716063Y-16103674D01*
X11716063Y-16103674D02*
X11735110Y-16094150D01*
X11735110Y-16094150D02*
X11763682Y-16094150D01*
X11763682Y-16094150D02*
X11782730Y-16103674D01*
X11782730Y-16103674D02*
X11792253Y-16113198D01*
X11792253Y-16113198D02*
X11801777Y-16132246D01*
X11801777Y-16132246D02*
X11801777Y-16189388D01*
X11801777Y-16189388D02*
X11792253Y-16208436D01*
X11792253Y-16208436D02*
X11782730Y-16217960D01*
X11782730Y-16217960D02*
X11763682Y-16227484D01*
X11763682Y-16227484D02*
X11735110Y-16227484D01*
X11916063Y-16227484D02*
X11897015Y-16217960D01*
X11897015Y-16217960D02*
X11887491Y-16198912D01*
X11887491Y-16198912D02*
X11887491Y-16027484D01*
X12068444Y-16217960D02*
X12049396Y-16227484D01*
X12049396Y-16227484D02*
X12011301Y-16227484D01*
X12011301Y-16227484D02*
X11992253Y-16217960D01*
X11992253Y-16217960D02*
X11982730Y-16198912D01*
X11982730Y-16198912D02*
X11982730Y-16122722D01*
X11982730Y-16122722D02*
X11992253Y-16103674D01*
X11992253Y-16103674D02*
X12011301Y-16094150D01*
X12011301Y-16094150D02*
X12049396Y-16094150D01*
X12049396Y-16094150D02*
X12068444Y-16103674D01*
X12068444Y-16103674D02*
X12077968Y-16122722D01*
X12077968Y-16122722D02*
X12077968Y-16141769D01*
X12077968Y-16141769D02*
X11982730Y-16160817D01*
X12154158Y-16217960D02*
X12173206Y-16227484D01*
X12173206Y-16227484D02*
X12211301Y-16227484D01*
X12211301Y-16227484D02*
X12230349Y-16217960D01*
X12230349Y-16217960D02*
X12239872Y-16198912D01*
X12239872Y-16198912D02*
X12239872Y-16189388D01*
X12239872Y-16189388D02*
X12230349Y-16170341D01*
X12230349Y-16170341D02*
X12211301Y-16160817D01*
X12211301Y-16160817D02*
X12182730Y-16160817D01*
X12182730Y-16160817D02*
X12163682Y-16151293D01*
X12163682Y-16151293D02*
X12154158Y-16132246D01*
X12154158Y-16132246D02*
X12154158Y-16122722D01*
X12154158Y-16122722D02*
X12163682Y-16103674D01*
X12163682Y-16103674D02*
X12182730Y-16094150D01*
X12182730Y-16094150D02*
X12211301Y-16094150D01*
X12211301Y-16094150D02*
X12230349Y-16103674D01*
X12306539Y-16303674D02*
X12316063Y-16294150D01*
X12316063Y-16294150D02*
X12335111Y-16265579D01*
X12335111Y-16265579D02*
X12344634Y-16246531D01*
X12344634Y-16246531D02*
X12354158Y-16217960D01*
X12354158Y-16217960D02*
X12363682Y-16170341D01*
X12363682Y-16170341D02*
X12363682Y-16132246D01*
X12363682Y-16132246D02*
X12354158Y-16084627D01*
X12354158Y-16084627D02*
X12344634Y-16056055D01*
X12344634Y-16056055D02*
X12335111Y-16037008D01*
X12335111Y-16037008D02*
X12316063Y-16008436D01*
X12316063Y-16008436D02*
X12306539Y-15998912D01*
D12*
X7291000Y-16350000D02*
X7291000Y-16450000D01*
X7241000Y-16400000D02*
X7341000Y-16400000D01*
D11*
X7706539Y-16491484D02*
X7592253Y-16491484D01*
X7649396Y-16491484D02*
X7649396Y-16291484D01*
X7649396Y-16291484D02*
X7630348Y-16320055D01*
X7630348Y-16320055D02*
X7611301Y-16339103D01*
X7611301Y-16339103D02*
X7592253Y-16348627D01*
X7792253Y-16472436D02*
X7801777Y-16481960D01*
X7801777Y-16481960D02*
X7792253Y-16491484D01*
X7792253Y-16491484D02*
X7782729Y-16481960D01*
X7782729Y-16481960D02*
X7792253Y-16472436D01*
X7792253Y-16472436D02*
X7792253Y-16491484D01*
X7925586Y-16291484D02*
X7944634Y-16291484D01*
X7944634Y-16291484D02*
X7963682Y-16301008D01*
X7963682Y-16301008D02*
X7973205Y-16310531D01*
X7973205Y-16310531D02*
X7982729Y-16329579D01*
X7982729Y-16329579D02*
X7992253Y-16367674D01*
X7992253Y-16367674D02*
X7992253Y-16415293D01*
X7992253Y-16415293D02*
X7982729Y-16453388D01*
X7982729Y-16453388D02*
X7973205Y-16472436D01*
X7973205Y-16472436D02*
X7963682Y-16481960D01*
X7963682Y-16481960D02*
X7944634Y-16491484D01*
X7944634Y-16491484D02*
X7925586Y-16491484D01*
X7925586Y-16491484D02*
X7906539Y-16481960D01*
X7906539Y-16481960D02*
X7897015Y-16472436D01*
X7897015Y-16472436D02*
X7887491Y-16453388D01*
X7887491Y-16453388D02*
X7877967Y-16415293D01*
X7877967Y-16415293D02*
X7877967Y-16367674D01*
X7877967Y-16367674D02*
X7887491Y-16329579D01*
X7887491Y-16329579D02*
X7897015Y-16310531D01*
X7897015Y-16310531D02*
X7906539Y-16301008D01*
X7906539Y-16301008D02*
X7925586Y-16291484D01*
X8116062Y-16291484D02*
X8135110Y-16291484D01*
X8135110Y-16291484D02*
X8154158Y-16301008D01*
X8154158Y-16301008D02*
X8163682Y-16310531D01*
X8163682Y-16310531D02*
X8173205Y-16329579D01*
X8173205Y-16329579D02*
X8182729Y-16367674D01*
X8182729Y-16367674D02*
X8182729Y-16415293D01*
X8182729Y-16415293D02*
X8173205Y-16453388D01*
X8173205Y-16453388D02*
X8163682Y-16472436D01*
X8163682Y-16472436D02*
X8154158Y-16481960D01*
X8154158Y-16481960D02*
X8135110Y-16491484D01*
X8135110Y-16491484D02*
X8116062Y-16491484D01*
X8116062Y-16491484D02*
X8097015Y-16481960D01*
X8097015Y-16481960D02*
X8087491Y-16472436D01*
X8087491Y-16472436D02*
X8077967Y-16453388D01*
X8077967Y-16453388D02*
X8068443Y-16415293D01*
X8068443Y-16415293D02*
X8068443Y-16367674D01*
X8068443Y-16367674D02*
X8077967Y-16329579D01*
X8077967Y-16329579D02*
X8087491Y-16310531D01*
X8087491Y-16310531D02*
X8097015Y-16301008D01*
X8097015Y-16301008D02*
X8116062Y-16291484D01*
X8306539Y-16291484D02*
X8325586Y-16291484D01*
X8325586Y-16291484D02*
X8344634Y-16301008D01*
X8344634Y-16301008D02*
X8354158Y-16310531D01*
X8354158Y-16310531D02*
X8363682Y-16329579D01*
X8363682Y-16329579D02*
X8373205Y-16367674D01*
X8373205Y-16367674D02*
X8373205Y-16415293D01*
X8373205Y-16415293D02*
X8363682Y-16453388D01*
X8363682Y-16453388D02*
X8354158Y-16472436D01*
X8354158Y-16472436D02*
X8344634Y-16481960D01*
X8344634Y-16481960D02*
X8325586Y-16491484D01*
X8325586Y-16491484D02*
X8306539Y-16491484D01*
X8306539Y-16491484D02*
X8287491Y-16481960D01*
X8287491Y-16481960D02*
X8277967Y-16472436D01*
X8277967Y-16472436D02*
X8268443Y-16453388D01*
X8268443Y-16453388D02*
X8258920Y-16415293D01*
X8258920Y-16415293D02*
X8258920Y-16367674D01*
X8258920Y-16367674D02*
X8268443Y-16329579D01*
X8268443Y-16329579D02*
X8277967Y-16310531D01*
X8277967Y-16310531D02*
X8287491Y-16301008D01*
X8287491Y-16301008D02*
X8306539Y-16291484D01*
X8458920Y-16491484D02*
X8458920Y-16358150D01*
X8458920Y-16377198D02*
X8468444Y-16367674D01*
X8468444Y-16367674D02*
X8487491Y-16358150D01*
X8487491Y-16358150D02*
X8516063Y-16358150D01*
X8516063Y-16358150D02*
X8535110Y-16367674D01*
X8535110Y-16367674D02*
X8544634Y-16386722D01*
X8544634Y-16386722D02*
X8544634Y-16491484D01*
X8544634Y-16386722D02*
X8554158Y-16367674D01*
X8554158Y-16367674D02*
X8573205Y-16358150D01*
X8573205Y-16358150D02*
X8601777Y-16358150D01*
X8601777Y-16358150D02*
X8620825Y-16367674D01*
X8620825Y-16367674D02*
X8630348Y-16386722D01*
X8630348Y-16386722D02*
X8630348Y-16491484D01*
X8725586Y-16491484D02*
X8725586Y-16358150D01*
X8725586Y-16377198D02*
X8735110Y-16367674D01*
X8735110Y-16367674D02*
X8754158Y-16358150D01*
X8754158Y-16358150D02*
X8782729Y-16358150D01*
X8782729Y-16358150D02*
X8801777Y-16367674D01*
X8801777Y-16367674D02*
X8811301Y-16386722D01*
X8811301Y-16386722D02*
X8811301Y-16491484D01*
X8811301Y-16386722D02*
X8820825Y-16367674D01*
X8820825Y-16367674D02*
X8839872Y-16358150D01*
X8839872Y-16358150D02*
X8868444Y-16358150D01*
X8868444Y-16358150D02*
X8887491Y-16367674D01*
X8887491Y-16367674D02*
X8897015Y-16386722D01*
X8897015Y-16386722D02*
X8897015Y-16491484D01*
X9287491Y-16281960D02*
X9116063Y-16539103D01*
X9544634Y-16291484D02*
X9563682Y-16291484D01*
X9563682Y-16291484D02*
X9582729Y-16301008D01*
X9582729Y-16301008D02*
X9592253Y-16310531D01*
X9592253Y-16310531D02*
X9601777Y-16329579D01*
X9601777Y-16329579D02*
X9611301Y-16367674D01*
X9611301Y-16367674D02*
X9611301Y-16415293D01*
X9611301Y-16415293D02*
X9601777Y-16453388D01*
X9601777Y-16453388D02*
X9592253Y-16472436D01*
X9592253Y-16472436D02*
X9582729Y-16481960D01*
X9582729Y-16481960D02*
X9563682Y-16491484D01*
X9563682Y-16491484D02*
X9544634Y-16491484D01*
X9544634Y-16491484D02*
X9525587Y-16481960D01*
X9525587Y-16481960D02*
X9516063Y-16472436D01*
X9516063Y-16472436D02*
X9506539Y-16453388D01*
X9506539Y-16453388D02*
X9497015Y-16415293D01*
X9497015Y-16415293D02*
X9497015Y-16367674D01*
X9497015Y-16367674D02*
X9506539Y-16329579D01*
X9506539Y-16329579D02*
X9516063Y-16310531D01*
X9516063Y-16310531D02*
X9525587Y-16301008D01*
X9525587Y-16301008D02*
X9544634Y-16291484D01*
X9697015Y-16472436D02*
X9706539Y-16481960D01*
X9706539Y-16481960D02*
X9697015Y-16491484D01*
X9697015Y-16491484D02*
X9687491Y-16481960D01*
X9687491Y-16481960D02*
X9697015Y-16472436D01*
X9697015Y-16472436D02*
X9697015Y-16491484D01*
X9830348Y-16291484D02*
X9849396Y-16291484D01*
X9849396Y-16291484D02*
X9868444Y-16301008D01*
X9868444Y-16301008D02*
X9877968Y-16310531D01*
X9877968Y-16310531D02*
X9887491Y-16329579D01*
X9887491Y-16329579D02*
X9897015Y-16367674D01*
X9897015Y-16367674D02*
X9897015Y-16415293D01*
X9897015Y-16415293D02*
X9887491Y-16453388D01*
X9887491Y-16453388D02*
X9877968Y-16472436D01*
X9877968Y-16472436D02*
X9868444Y-16481960D01*
X9868444Y-16481960D02*
X9849396Y-16491484D01*
X9849396Y-16491484D02*
X9830348Y-16491484D01*
X9830348Y-16491484D02*
X9811301Y-16481960D01*
X9811301Y-16481960D02*
X9801777Y-16472436D01*
X9801777Y-16472436D02*
X9792253Y-16453388D01*
X9792253Y-16453388D02*
X9782729Y-16415293D01*
X9782729Y-16415293D02*
X9782729Y-16367674D01*
X9782729Y-16367674D02*
X9792253Y-16329579D01*
X9792253Y-16329579D02*
X9801777Y-16310531D01*
X9801777Y-16310531D02*
X9811301Y-16301008D01*
X9811301Y-16301008D02*
X9830348Y-16291484D01*
X9963682Y-16291484D02*
X10087491Y-16291484D01*
X10087491Y-16291484D02*
X10020825Y-16367674D01*
X10020825Y-16367674D02*
X10049396Y-16367674D01*
X10049396Y-16367674D02*
X10068444Y-16377198D01*
X10068444Y-16377198D02*
X10077968Y-16386722D01*
X10077968Y-16386722D02*
X10087491Y-16405769D01*
X10087491Y-16405769D02*
X10087491Y-16453388D01*
X10087491Y-16453388D02*
X10077968Y-16472436D01*
X10077968Y-16472436D02*
X10068444Y-16481960D01*
X10068444Y-16481960D02*
X10049396Y-16491484D01*
X10049396Y-16491484D02*
X9992253Y-16491484D01*
X9992253Y-16491484D02*
X9973206Y-16481960D01*
X9973206Y-16481960D02*
X9963682Y-16472436D01*
X10182729Y-16491484D02*
X10220825Y-16491484D01*
X10220825Y-16491484D02*
X10239872Y-16481960D01*
X10239872Y-16481960D02*
X10249396Y-16472436D01*
X10249396Y-16472436D02*
X10268444Y-16443865D01*
X10268444Y-16443865D02*
X10277968Y-16405769D01*
X10277968Y-16405769D02*
X10277968Y-16329579D01*
X10277968Y-16329579D02*
X10268444Y-16310531D01*
X10268444Y-16310531D02*
X10258920Y-16301008D01*
X10258920Y-16301008D02*
X10239872Y-16291484D01*
X10239872Y-16291484D02*
X10201777Y-16291484D01*
X10201777Y-16291484D02*
X10182729Y-16301008D01*
X10182729Y-16301008D02*
X10173206Y-16310531D01*
X10173206Y-16310531D02*
X10163682Y-16329579D01*
X10163682Y-16329579D02*
X10163682Y-16377198D01*
X10163682Y-16377198D02*
X10173206Y-16396246D01*
X10173206Y-16396246D02*
X10182729Y-16405769D01*
X10182729Y-16405769D02*
X10201777Y-16415293D01*
X10201777Y-16415293D02*
X10239872Y-16415293D01*
X10239872Y-16415293D02*
X10258920Y-16405769D01*
X10258920Y-16405769D02*
X10268444Y-16396246D01*
X10268444Y-16396246D02*
X10277968Y-16377198D01*
X10449396Y-16358150D02*
X10449396Y-16491484D01*
X10401777Y-16281960D02*
X10354158Y-16424817D01*
X10354158Y-16424817D02*
X10477968Y-16424817D01*
X10544634Y-16291484D02*
X10544634Y-16329579D01*
X10620825Y-16291484D02*
X10620825Y-16329579D01*
X10916063Y-16567674D02*
X10906539Y-16558150D01*
X10906539Y-16558150D02*
X10887491Y-16529579D01*
X10887491Y-16529579D02*
X10877968Y-16510531D01*
X10877968Y-16510531D02*
X10868444Y-16481960D01*
X10868444Y-16481960D02*
X10858920Y-16434341D01*
X10858920Y-16434341D02*
X10858920Y-16396246D01*
X10858920Y-16396246D02*
X10868444Y-16348627D01*
X10868444Y-16348627D02*
X10877968Y-16320055D01*
X10877968Y-16320055D02*
X10887491Y-16301008D01*
X10887491Y-16301008D02*
X10906539Y-16272436D01*
X10906539Y-16272436D02*
X10916063Y-16262912D01*
X11097015Y-16491484D02*
X10982730Y-16491484D01*
X11039872Y-16491484D02*
X11039872Y-16291484D01*
X11039872Y-16291484D02*
X11020825Y-16320055D01*
X11020825Y-16320055D02*
X11001777Y-16339103D01*
X11001777Y-16339103D02*
X10982730Y-16348627D01*
X11163682Y-16291484D02*
X11297015Y-16291484D01*
X11297015Y-16291484D02*
X11211301Y-16491484D01*
X11401777Y-16377198D02*
X11382729Y-16367674D01*
X11382729Y-16367674D02*
X11373206Y-16358150D01*
X11373206Y-16358150D02*
X11363682Y-16339103D01*
X11363682Y-16339103D02*
X11363682Y-16329579D01*
X11363682Y-16329579D02*
X11373206Y-16310531D01*
X11373206Y-16310531D02*
X11382729Y-16301008D01*
X11382729Y-16301008D02*
X11401777Y-16291484D01*
X11401777Y-16291484D02*
X11439872Y-16291484D01*
X11439872Y-16291484D02*
X11458920Y-16301008D01*
X11458920Y-16301008D02*
X11468444Y-16310531D01*
X11468444Y-16310531D02*
X11477968Y-16329579D01*
X11477968Y-16329579D02*
X11477968Y-16339103D01*
X11477968Y-16339103D02*
X11468444Y-16358150D01*
X11468444Y-16358150D02*
X11458920Y-16367674D01*
X11458920Y-16367674D02*
X11439872Y-16377198D01*
X11439872Y-16377198D02*
X11401777Y-16377198D01*
X11401777Y-16377198D02*
X11382729Y-16386722D01*
X11382729Y-16386722D02*
X11373206Y-16396246D01*
X11373206Y-16396246D02*
X11363682Y-16415293D01*
X11363682Y-16415293D02*
X11363682Y-16453388D01*
X11363682Y-16453388D02*
X11373206Y-16472436D01*
X11373206Y-16472436D02*
X11382729Y-16481960D01*
X11382729Y-16481960D02*
X11401777Y-16491484D01*
X11401777Y-16491484D02*
X11439872Y-16491484D01*
X11439872Y-16491484D02*
X11458920Y-16481960D01*
X11458920Y-16481960D02*
X11468444Y-16472436D01*
X11468444Y-16472436D02*
X11477968Y-16453388D01*
X11477968Y-16453388D02*
X11477968Y-16415293D01*
X11477968Y-16415293D02*
X11468444Y-16396246D01*
X11468444Y-16396246D02*
X11458920Y-16386722D01*
X11458920Y-16386722D02*
X11439872Y-16377198D01*
X11716063Y-16491484D02*
X11716063Y-16291484D01*
X11801777Y-16491484D02*
X11801777Y-16386722D01*
X11801777Y-16386722D02*
X11792253Y-16367674D01*
X11792253Y-16367674D02*
X11773206Y-16358150D01*
X11773206Y-16358150D02*
X11744634Y-16358150D01*
X11744634Y-16358150D02*
X11725587Y-16367674D01*
X11725587Y-16367674D02*
X11716063Y-16377198D01*
X11925587Y-16491484D02*
X11906539Y-16481960D01*
X11906539Y-16481960D02*
X11897015Y-16472436D01*
X11897015Y-16472436D02*
X11887491Y-16453388D01*
X11887491Y-16453388D02*
X11887491Y-16396246D01*
X11887491Y-16396246D02*
X11897015Y-16377198D01*
X11897015Y-16377198D02*
X11906539Y-16367674D01*
X11906539Y-16367674D02*
X11925587Y-16358150D01*
X11925587Y-16358150D02*
X11954158Y-16358150D01*
X11954158Y-16358150D02*
X11973206Y-16367674D01*
X11973206Y-16367674D02*
X11982730Y-16377198D01*
X11982730Y-16377198D02*
X11992253Y-16396246D01*
X11992253Y-16396246D02*
X11992253Y-16453388D01*
X11992253Y-16453388D02*
X11982730Y-16472436D01*
X11982730Y-16472436D02*
X11973206Y-16481960D01*
X11973206Y-16481960D02*
X11954158Y-16491484D01*
X11954158Y-16491484D02*
X11925587Y-16491484D01*
X12106539Y-16491484D02*
X12087491Y-16481960D01*
X12087491Y-16481960D02*
X12077968Y-16462912D01*
X12077968Y-16462912D02*
X12077968Y-16291484D01*
X12258920Y-16481960D02*
X12239872Y-16491484D01*
X12239872Y-16491484D02*
X12201777Y-16491484D01*
X12201777Y-16491484D02*
X12182730Y-16481960D01*
X12182730Y-16481960D02*
X12173206Y-16462912D01*
X12173206Y-16462912D02*
X12173206Y-16386722D01*
X12173206Y-16386722D02*
X12182730Y-16367674D01*
X12182730Y-16367674D02*
X12201777Y-16358150D01*
X12201777Y-16358150D02*
X12239872Y-16358150D01*
X12239872Y-16358150D02*
X12258920Y-16367674D01*
X12258920Y-16367674D02*
X12268444Y-16386722D01*
X12268444Y-16386722D02*
X12268444Y-16405769D01*
X12268444Y-16405769D02*
X12173206Y-16424817D01*
X12344634Y-16481960D02*
X12363682Y-16491484D01*
X12363682Y-16491484D02*
X12401777Y-16491484D01*
X12401777Y-16491484D02*
X12420825Y-16481960D01*
X12420825Y-16481960D02*
X12430349Y-16462912D01*
X12430349Y-16462912D02*
X12430349Y-16453388D01*
X12430349Y-16453388D02*
X12420825Y-16434341D01*
X12420825Y-16434341D02*
X12401777Y-16424817D01*
X12401777Y-16424817D02*
X12373206Y-16424817D01*
X12373206Y-16424817D02*
X12354158Y-16415293D01*
X12354158Y-16415293D02*
X12344634Y-16396246D01*
X12344634Y-16396246D02*
X12344634Y-16386722D01*
X12344634Y-16386722D02*
X12354158Y-16367674D01*
X12354158Y-16367674D02*
X12373206Y-16358150D01*
X12373206Y-16358150D02*
X12401777Y-16358150D01*
X12401777Y-16358150D02*
X12420825Y-16367674D01*
X12497015Y-16567674D02*
X12506539Y-16558150D01*
X12506539Y-16558150D02*
X12525587Y-16529579D01*
X12525587Y-16529579D02*
X12535111Y-16510531D01*
X12535111Y-16510531D02*
X12544634Y-16481960D01*
X12544634Y-16481960D02*
X12554158Y-16434341D01*
X12554158Y-16434341D02*
X12554158Y-16396246D01*
X12554158Y-16396246D02*
X12544634Y-16348627D01*
X12544634Y-16348627D02*
X12535111Y-16320055D01*
X12535111Y-16320055D02*
X12525587Y-16301008D01*
X12525587Y-16301008D02*
X12506539Y-16272436D01*
X12506539Y-16272436D02*
X12497015Y-16262912D01*
X7311711Y-16734711D02*
X7311711Y-16593289D01*
X7170289Y-16593289D01*
X7170289Y-16734711D01*
X7311711Y-16734711D01*
X7582729Y-16555484D02*
X7706539Y-16555484D01*
X7706539Y-16555484D02*
X7639872Y-16631674D01*
X7639872Y-16631674D02*
X7668443Y-16631674D01*
X7668443Y-16631674D02*
X7687491Y-16641198D01*
X7687491Y-16641198D02*
X7697015Y-16650722D01*
X7697015Y-16650722D02*
X7706539Y-16669769D01*
X7706539Y-16669769D02*
X7706539Y-16717388D01*
X7706539Y-16717388D02*
X7697015Y-16736436D01*
X7697015Y-16736436D02*
X7687491Y-16745960D01*
X7687491Y-16745960D02*
X7668443Y-16755484D01*
X7668443Y-16755484D02*
X7611301Y-16755484D01*
X7611301Y-16755484D02*
X7592253Y-16745960D01*
X7592253Y-16745960D02*
X7582729Y-16736436D01*
X7792253Y-16736436D02*
X7801777Y-16745960D01*
X7801777Y-16745960D02*
X7792253Y-16755484D01*
X7792253Y-16755484D02*
X7782729Y-16745960D01*
X7782729Y-16745960D02*
X7792253Y-16736436D01*
X7792253Y-16736436D02*
X7792253Y-16755484D01*
X7877967Y-16574531D02*
X7887491Y-16565008D01*
X7887491Y-16565008D02*
X7906539Y-16555484D01*
X7906539Y-16555484D02*
X7954158Y-16555484D01*
X7954158Y-16555484D02*
X7973205Y-16565008D01*
X7973205Y-16565008D02*
X7982729Y-16574531D01*
X7982729Y-16574531D02*
X7992253Y-16593579D01*
X7992253Y-16593579D02*
X7992253Y-16612627D01*
X7992253Y-16612627D02*
X7982729Y-16641198D01*
X7982729Y-16641198D02*
X7868443Y-16755484D01*
X7868443Y-16755484D02*
X7992253Y-16755484D01*
X8116062Y-16555484D02*
X8135110Y-16555484D01*
X8135110Y-16555484D02*
X8154158Y-16565008D01*
X8154158Y-16565008D02*
X8163682Y-16574531D01*
X8163682Y-16574531D02*
X8173205Y-16593579D01*
X8173205Y-16593579D02*
X8182729Y-16631674D01*
X8182729Y-16631674D02*
X8182729Y-16679293D01*
X8182729Y-16679293D02*
X8173205Y-16717388D01*
X8173205Y-16717388D02*
X8163682Y-16736436D01*
X8163682Y-16736436D02*
X8154158Y-16745960D01*
X8154158Y-16745960D02*
X8135110Y-16755484D01*
X8135110Y-16755484D02*
X8116062Y-16755484D01*
X8116062Y-16755484D02*
X8097015Y-16745960D01*
X8097015Y-16745960D02*
X8087491Y-16736436D01*
X8087491Y-16736436D02*
X8077967Y-16717388D01*
X8077967Y-16717388D02*
X8068443Y-16679293D01*
X8068443Y-16679293D02*
X8068443Y-16631674D01*
X8068443Y-16631674D02*
X8077967Y-16593579D01*
X8077967Y-16593579D02*
X8087491Y-16574531D01*
X8087491Y-16574531D02*
X8097015Y-16565008D01*
X8097015Y-16565008D02*
X8116062Y-16555484D01*
X8306539Y-16555484D02*
X8325586Y-16555484D01*
X8325586Y-16555484D02*
X8344634Y-16565008D01*
X8344634Y-16565008D02*
X8354158Y-16574531D01*
X8354158Y-16574531D02*
X8363682Y-16593579D01*
X8363682Y-16593579D02*
X8373205Y-16631674D01*
X8373205Y-16631674D02*
X8373205Y-16679293D01*
X8373205Y-16679293D02*
X8363682Y-16717388D01*
X8363682Y-16717388D02*
X8354158Y-16736436D01*
X8354158Y-16736436D02*
X8344634Y-16745960D01*
X8344634Y-16745960D02*
X8325586Y-16755484D01*
X8325586Y-16755484D02*
X8306539Y-16755484D01*
X8306539Y-16755484D02*
X8287491Y-16745960D01*
X8287491Y-16745960D02*
X8277967Y-16736436D01*
X8277967Y-16736436D02*
X8268443Y-16717388D01*
X8268443Y-16717388D02*
X8258920Y-16679293D01*
X8258920Y-16679293D02*
X8258920Y-16631674D01*
X8258920Y-16631674D02*
X8268443Y-16593579D01*
X8268443Y-16593579D02*
X8277967Y-16574531D01*
X8277967Y-16574531D02*
X8287491Y-16565008D01*
X8287491Y-16565008D02*
X8306539Y-16555484D01*
X8458920Y-16755484D02*
X8458920Y-16622150D01*
X8458920Y-16641198D02*
X8468444Y-16631674D01*
X8468444Y-16631674D02*
X8487491Y-16622150D01*
X8487491Y-16622150D02*
X8516063Y-16622150D01*
X8516063Y-16622150D02*
X8535110Y-16631674D01*
X8535110Y-16631674D02*
X8544634Y-16650722D01*
X8544634Y-16650722D02*
X8544634Y-16755484D01*
X8544634Y-16650722D02*
X8554158Y-16631674D01*
X8554158Y-16631674D02*
X8573205Y-16622150D01*
X8573205Y-16622150D02*
X8601777Y-16622150D01*
X8601777Y-16622150D02*
X8620825Y-16631674D01*
X8620825Y-16631674D02*
X8630348Y-16650722D01*
X8630348Y-16650722D02*
X8630348Y-16755484D01*
X8725586Y-16755484D02*
X8725586Y-16622150D01*
X8725586Y-16641198D02*
X8735110Y-16631674D01*
X8735110Y-16631674D02*
X8754158Y-16622150D01*
X8754158Y-16622150D02*
X8782729Y-16622150D01*
X8782729Y-16622150D02*
X8801777Y-16631674D01*
X8801777Y-16631674D02*
X8811301Y-16650722D01*
X8811301Y-16650722D02*
X8811301Y-16755484D01*
X8811301Y-16650722D02*
X8820825Y-16631674D01*
X8820825Y-16631674D02*
X8839872Y-16622150D01*
X8839872Y-16622150D02*
X8868444Y-16622150D01*
X8868444Y-16622150D02*
X8887491Y-16631674D01*
X8887491Y-16631674D02*
X8897015Y-16650722D01*
X8897015Y-16650722D02*
X8897015Y-16755484D01*
X9287491Y-16545960D02*
X9116063Y-16803103D01*
X9544634Y-16555484D02*
X9563682Y-16555484D01*
X9563682Y-16555484D02*
X9582729Y-16565008D01*
X9582729Y-16565008D02*
X9592253Y-16574531D01*
X9592253Y-16574531D02*
X9601777Y-16593579D01*
X9601777Y-16593579D02*
X9611301Y-16631674D01*
X9611301Y-16631674D02*
X9611301Y-16679293D01*
X9611301Y-16679293D02*
X9601777Y-16717388D01*
X9601777Y-16717388D02*
X9592253Y-16736436D01*
X9592253Y-16736436D02*
X9582729Y-16745960D01*
X9582729Y-16745960D02*
X9563682Y-16755484D01*
X9563682Y-16755484D02*
X9544634Y-16755484D01*
X9544634Y-16755484D02*
X9525587Y-16745960D01*
X9525587Y-16745960D02*
X9516063Y-16736436D01*
X9516063Y-16736436D02*
X9506539Y-16717388D01*
X9506539Y-16717388D02*
X9497015Y-16679293D01*
X9497015Y-16679293D02*
X9497015Y-16631674D01*
X9497015Y-16631674D02*
X9506539Y-16593579D01*
X9506539Y-16593579D02*
X9516063Y-16574531D01*
X9516063Y-16574531D02*
X9525587Y-16565008D01*
X9525587Y-16565008D02*
X9544634Y-16555484D01*
X9697015Y-16736436D02*
X9706539Y-16745960D01*
X9706539Y-16745960D02*
X9697015Y-16755484D01*
X9697015Y-16755484D02*
X9687491Y-16745960D01*
X9687491Y-16745960D02*
X9697015Y-16736436D01*
X9697015Y-16736436D02*
X9697015Y-16755484D01*
X9897015Y-16755484D02*
X9782729Y-16755484D01*
X9839872Y-16755484D02*
X9839872Y-16555484D01*
X9839872Y-16555484D02*
X9820825Y-16584055D01*
X9820825Y-16584055D02*
X9801777Y-16603103D01*
X9801777Y-16603103D02*
X9782729Y-16612627D01*
X9973206Y-16574531D02*
X9982729Y-16565008D01*
X9982729Y-16565008D02*
X10001777Y-16555484D01*
X10001777Y-16555484D02*
X10049396Y-16555484D01*
X10049396Y-16555484D02*
X10068444Y-16565008D01*
X10068444Y-16565008D02*
X10077968Y-16574531D01*
X10077968Y-16574531D02*
X10087491Y-16593579D01*
X10087491Y-16593579D02*
X10087491Y-16612627D01*
X10087491Y-16612627D02*
X10077968Y-16641198D01*
X10077968Y-16641198D02*
X9963682Y-16755484D01*
X9963682Y-16755484D02*
X10087491Y-16755484D01*
X10258920Y-16555484D02*
X10220825Y-16555484D01*
X10220825Y-16555484D02*
X10201777Y-16565008D01*
X10201777Y-16565008D02*
X10192253Y-16574531D01*
X10192253Y-16574531D02*
X10173206Y-16603103D01*
X10173206Y-16603103D02*
X10163682Y-16641198D01*
X10163682Y-16641198D02*
X10163682Y-16717388D01*
X10163682Y-16717388D02*
X10173206Y-16736436D01*
X10173206Y-16736436D02*
X10182729Y-16745960D01*
X10182729Y-16745960D02*
X10201777Y-16755484D01*
X10201777Y-16755484D02*
X10239872Y-16755484D01*
X10239872Y-16755484D02*
X10258920Y-16745960D01*
X10258920Y-16745960D02*
X10268444Y-16736436D01*
X10268444Y-16736436D02*
X10277968Y-16717388D01*
X10277968Y-16717388D02*
X10277968Y-16669769D01*
X10277968Y-16669769D02*
X10268444Y-16650722D01*
X10268444Y-16650722D02*
X10258920Y-16641198D01*
X10258920Y-16641198D02*
X10239872Y-16631674D01*
X10239872Y-16631674D02*
X10201777Y-16631674D01*
X10201777Y-16631674D02*
X10182729Y-16641198D01*
X10182729Y-16641198D02*
X10173206Y-16650722D01*
X10173206Y-16650722D02*
X10163682Y-16669769D01*
X10401777Y-16555484D02*
X10420825Y-16555484D01*
X10420825Y-16555484D02*
X10439872Y-16565008D01*
X10439872Y-16565008D02*
X10449396Y-16574531D01*
X10449396Y-16574531D02*
X10458920Y-16593579D01*
X10458920Y-16593579D02*
X10468444Y-16631674D01*
X10468444Y-16631674D02*
X10468444Y-16679293D01*
X10468444Y-16679293D02*
X10458920Y-16717388D01*
X10458920Y-16717388D02*
X10449396Y-16736436D01*
X10449396Y-16736436D02*
X10439872Y-16745960D01*
X10439872Y-16745960D02*
X10420825Y-16755484D01*
X10420825Y-16755484D02*
X10401777Y-16755484D01*
X10401777Y-16755484D02*
X10382729Y-16745960D01*
X10382729Y-16745960D02*
X10373206Y-16736436D01*
X10373206Y-16736436D02*
X10363682Y-16717388D01*
X10363682Y-16717388D02*
X10354158Y-16679293D01*
X10354158Y-16679293D02*
X10354158Y-16631674D01*
X10354158Y-16631674D02*
X10363682Y-16593579D01*
X10363682Y-16593579D02*
X10373206Y-16574531D01*
X10373206Y-16574531D02*
X10382729Y-16565008D01*
X10382729Y-16565008D02*
X10401777Y-16555484D01*
X10544634Y-16555484D02*
X10544634Y-16593579D01*
X10620825Y-16555484D02*
X10620825Y-16593579D01*
X10916063Y-16831674D02*
X10906539Y-16822150D01*
X10906539Y-16822150D02*
X10887491Y-16793579D01*
X10887491Y-16793579D02*
X10877968Y-16774531D01*
X10877968Y-16774531D02*
X10868444Y-16745960D01*
X10868444Y-16745960D02*
X10858920Y-16698341D01*
X10858920Y-16698341D02*
X10858920Y-16660246D01*
X10858920Y-16660246D02*
X10868444Y-16612627D01*
X10868444Y-16612627D02*
X10877968Y-16584055D01*
X10877968Y-16584055D02*
X10887491Y-16565008D01*
X10887491Y-16565008D02*
X10906539Y-16536436D01*
X10906539Y-16536436D02*
X10916063Y-16526912D01*
X10982730Y-16574531D02*
X10992253Y-16565008D01*
X10992253Y-16565008D02*
X11011301Y-16555484D01*
X11011301Y-16555484D02*
X11058920Y-16555484D01*
X11058920Y-16555484D02*
X11077968Y-16565008D01*
X11077968Y-16565008D02*
X11087491Y-16574531D01*
X11087491Y-16574531D02*
X11097015Y-16593579D01*
X11097015Y-16593579D02*
X11097015Y-16612627D01*
X11097015Y-16612627D02*
X11087491Y-16641198D01*
X11087491Y-16641198D02*
X10973206Y-16755484D01*
X10973206Y-16755484D02*
X11097015Y-16755484D01*
X11335110Y-16755484D02*
X11335110Y-16555484D01*
X11420825Y-16755484D02*
X11420825Y-16650722D01*
X11420825Y-16650722D02*
X11411301Y-16631674D01*
X11411301Y-16631674D02*
X11392253Y-16622150D01*
X11392253Y-16622150D02*
X11363682Y-16622150D01*
X11363682Y-16622150D02*
X11344634Y-16631674D01*
X11344634Y-16631674D02*
X11335110Y-16641198D01*
X11544634Y-16755484D02*
X11525587Y-16745960D01*
X11525587Y-16745960D02*
X11516063Y-16736436D01*
X11516063Y-16736436D02*
X11506539Y-16717388D01*
X11506539Y-16717388D02*
X11506539Y-16660246D01*
X11506539Y-16660246D02*
X11516063Y-16641198D01*
X11516063Y-16641198D02*
X11525587Y-16631674D01*
X11525587Y-16631674D02*
X11544634Y-16622150D01*
X11544634Y-16622150D02*
X11573206Y-16622150D01*
X11573206Y-16622150D02*
X11592253Y-16631674D01*
X11592253Y-16631674D02*
X11601777Y-16641198D01*
X11601777Y-16641198D02*
X11611301Y-16660246D01*
X11611301Y-16660246D02*
X11611301Y-16717388D01*
X11611301Y-16717388D02*
X11601777Y-16736436D01*
X11601777Y-16736436D02*
X11592253Y-16745960D01*
X11592253Y-16745960D02*
X11573206Y-16755484D01*
X11573206Y-16755484D02*
X11544634Y-16755484D01*
X11725587Y-16755484D02*
X11706539Y-16745960D01*
X11706539Y-16745960D02*
X11697015Y-16726912D01*
X11697015Y-16726912D02*
X11697015Y-16555484D01*
X11877968Y-16745960D02*
X11858920Y-16755484D01*
X11858920Y-16755484D02*
X11820825Y-16755484D01*
X11820825Y-16755484D02*
X11801777Y-16745960D01*
X11801777Y-16745960D02*
X11792253Y-16726912D01*
X11792253Y-16726912D02*
X11792253Y-16650722D01*
X11792253Y-16650722D02*
X11801777Y-16631674D01*
X11801777Y-16631674D02*
X11820825Y-16622150D01*
X11820825Y-16622150D02*
X11858920Y-16622150D01*
X11858920Y-16622150D02*
X11877968Y-16631674D01*
X11877968Y-16631674D02*
X11887491Y-16650722D01*
X11887491Y-16650722D02*
X11887491Y-16669769D01*
X11887491Y-16669769D02*
X11792253Y-16688817D01*
X11963682Y-16745960D02*
X11982730Y-16755484D01*
X11982730Y-16755484D02*
X12020825Y-16755484D01*
X12020825Y-16755484D02*
X12039872Y-16745960D01*
X12039872Y-16745960D02*
X12049396Y-16726912D01*
X12049396Y-16726912D02*
X12049396Y-16717388D01*
X12049396Y-16717388D02*
X12039872Y-16698341D01*
X12039872Y-16698341D02*
X12020825Y-16688817D01*
X12020825Y-16688817D02*
X11992253Y-16688817D01*
X11992253Y-16688817D02*
X11973206Y-16679293D01*
X11973206Y-16679293D02*
X11963682Y-16660246D01*
X11963682Y-16660246D02*
X11963682Y-16650722D01*
X11963682Y-16650722D02*
X11973206Y-16631674D01*
X11973206Y-16631674D02*
X11992253Y-16622150D01*
X11992253Y-16622150D02*
X12020825Y-16622150D01*
X12020825Y-16622150D02*
X12039872Y-16631674D01*
X12116063Y-16831674D02*
X12125587Y-16822150D01*
X12125587Y-16822150D02*
X12144634Y-16793579D01*
X12144634Y-16793579D02*
X12154158Y-16774531D01*
X12154158Y-16774531D02*
X12163682Y-16745960D01*
X12163682Y-16745960D02*
X12173206Y-16698341D01*
X12173206Y-16698341D02*
X12173206Y-16660246D01*
X12173206Y-16660246D02*
X12163682Y-16612627D01*
X12163682Y-16612627D02*
X12154158Y-16584055D01*
X12154158Y-16584055D02*
X12144634Y-16565008D01*
X12144634Y-16565008D02*
X12125587Y-16536436D01*
X12125587Y-16536436D02*
X12116063Y-16526912D01*
X7241000Y-17084000D02*
X7341000Y-16984000D01*
X7241000Y-16884000D01*
X7141000Y-16984000D01*
X7241000Y-17084000D01*
X7687491Y-16942150D02*
X7687491Y-17075484D01*
X7639872Y-16865960D02*
X7592253Y-17008817D01*
X7592253Y-17008817D02*
X7716062Y-17008817D01*
X7792253Y-17056436D02*
X7801777Y-17065960D01*
X7801777Y-17065960D02*
X7792253Y-17075484D01*
X7792253Y-17075484D02*
X7782729Y-17065960D01*
X7782729Y-17065960D02*
X7792253Y-17056436D01*
X7792253Y-17056436D02*
X7792253Y-17075484D01*
X7868443Y-16875484D02*
X7992253Y-16875484D01*
X7992253Y-16875484D02*
X7925586Y-16951674D01*
X7925586Y-16951674D02*
X7954158Y-16951674D01*
X7954158Y-16951674D02*
X7973205Y-16961198D01*
X7973205Y-16961198D02*
X7982729Y-16970722D01*
X7982729Y-16970722D02*
X7992253Y-16989770D01*
X7992253Y-16989770D02*
X7992253Y-17037389D01*
X7992253Y-17037389D02*
X7982729Y-17056436D01*
X7982729Y-17056436D02*
X7973205Y-17065960D01*
X7973205Y-17065960D02*
X7954158Y-17075484D01*
X7954158Y-17075484D02*
X7897015Y-17075484D01*
X7897015Y-17075484D02*
X7877967Y-17065960D01*
X7877967Y-17065960D02*
X7868443Y-17056436D01*
X8116062Y-16875484D02*
X8135110Y-16875484D01*
X8135110Y-16875484D02*
X8154158Y-16885008D01*
X8154158Y-16885008D02*
X8163682Y-16894531D01*
X8163682Y-16894531D02*
X8173205Y-16913579D01*
X8173205Y-16913579D02*
X8182729Y-16951674D01*
X8182729Y-16951674D02*
X8182729Y-16999293D01*
X8182729Y-16999293D02*
X8173205Y-17037389D01*
X8173205Y-17037389D02*
X8163682Y-17056436D01*
X8163682Y-17056436D02*
X8154158Y-17065960D01*
X8154158Y-17065960D02*
X8135110Y-17075484D01*
X8135110Y-17075484D02*
X8116062Y-17075484D01*
X8116062Y-17075484D02*
X8097015Y-17065960D01*
X8097015Y-17065960D02*
X8087491Y-17056436D01*
X8087491Y-17056436D02*
X8077967Y-17037389D01*
X8077967Y-17037389D02*
X8068443Y-16999293D01*
X8068443Y-16999293D02*
X8068443Y-16951674D01*
X8068443Y-16951674D02*
X8077967Y-16913579D01*
X8077967Y-16913579D02*
X8087491Y-16894531D01*
X8087491Y-16894531D02*
X8097015Y-16885008D01*
X8097015Y-16885008D02*
X8116062Y-16875484D01*
X8306539Y-16875484D02*
X8325586Y-16875484D01*
X8325586Y-16875484D02*
X8344634Y-16885008D01*
X8344634Y-16885008D02*
X8354158Y-16894531D01*
X8354158Y-16894531D02*
X8363682Y-16913579D01*
X8363682Y-16913579D02*
X8373205Y-16951674D01*
X8373205Y-16951674D02*
X8373205Y-16999293D01*
X8373205Y-16999293D02*
X8363682Y-17037389D01*
X8363682Y-17037389D02*
X8354158Y-17056436D01*
X8354158Y-17056436D02*
X8344634Y-17065960D01*
X8344634Y-17065960D02*
X8325586Y-17075484D01*
X8325586Y-17075484D02*
X8306539Y-17075484D01*
X8306539Y-17075484D02*
X8287491Y-17065960D01*
X8287491Y-17065960D02*
X8277967Y-17056436D01*
X8277967Y-17056436D02*
X8268443Y-17037389D01*
X8268443Y-17037389D02*
X8258920Y-16999293D01*
X8258920Y-16999293D02*
X8258920Y-16951674D01*
X8258920Y-16951674D02*
X8268443Y-16913579D01*
X8268443Y-16913579D02*
X8277967Y-16894531D01*
X8277967Y-16894531D02*
X8287491Y-16885008D01*
X8287491Y-16885008D02*
X8306539Y-16875484D01*
X8458920Y-17075484D02*
X8458920Y-16942150D01*
X8458920Y-16961198D02*
X8468444Y-16951674D01*
X8468444Y-16951674D02*
X8487491Y-16942150D01*
X8487491Y-16942150D02*
X8516063Y-16942150D01*
X8516063Y-16942150D02*
X8535110Y-16951674D01*
X8535110Y-16951674D02*
X8544634Y-16970722D01*
X8544634Y-16970722D02*
X8544634Y-17075484D01*
X8544634Y-16970722D02*
X8554158Y-16951674D01*
X8554158Y-16951674D02*
X8573205Y-16942150D01*
X8573205Y-16942150D02*
X8601777Y-16942150D01*
X8601777Y-16942150D02*
X8620825Y-16951674D01*
X8620825Y-16951674D02*
X8630348Y-16970722D01*
X8630348Y-16970722D02*
X8630348Y-17075484D01*
X8725586Y-17075484D02*
X8725586Y-16942150D01*
X8725586Y-16961198D02*
X8735110Y-16951674D01*
X8735110Y-16951674D02*
X8754158Y-16942150D01*
X8754158Y-16942150D02*
X8782729Y-16942150D01*
X8782729Y-16942150D02*
X8801777Y-16951674D01*
X8801777Y-16951674D02*
X8811301Y-16970722D01*
X8811301Y-16970722D02*
X8811301Y-17075484D01*
X8811301Y-16970722D02*
X8820825Y-16951674D01*
X8820825Y-16951674D02*
X8839872Y-16942150D01*
X8839872Y-16942150D02*
X8868444Y-16942150D01*
X8868444Y-16942150D02*
X8887491Y-16951674D01*
X8887491Y-16951674D02*
X8897015Y-16970722D01*
X8897015Y-16970722D02*
X8897015Y-17075484D01*
X9287491Y-16865960D02*
X9116063Y-17123103D01*
X9544634Y-16875484D02*
X9563682Y-16875484D01*
X9563682Y-16875484D02*
X9582729Y-16885008D01*
X9582729Y-16885008D02*
X9592253Y-16894531D01*
X9592253Y-16894531D02*
X9601777Y-16913579D01*
X9601777Y-16913579D02*
X9611301Y-16951674D01*
X9611301Y-16951674D02*
X9611301Y-16999293D01*
X9611301Y-16999293D02*
X9601777Y-17037389D01*
X9601777Y-17037389D02*
X9592253Y-17056436D01*
X9592253Y-17056436D02*
X9582729Y-17065960D01*
X9582729Y-17065960D02*
X9563682Y-17075484D01*
X9563682Y-17075484D02*
X9544634Y-17075484D01*
X9544634Y-17075484D02*
X9525587Y-17065960D01*
X9525587Y-17065960D02*
X9516063Y-17056436D01*
X9516063Y-17056436D02*
X9506539Y-17037389D01*
X9506539Y-17037389D02*
X9497015Y-16999293D01*
X9497015Y-16999293D02*
X9497015Y-16951674D01*
X9497015Y-16951674D02*
X9506539Y-16913579D01*
X9506539Y-16913579D02*
X9516063Y-16894531D01*
X9516063Y-16894531D02*
X9525587Y-16885008D01*
X9525587Y-16885008D02*
X9544634Y-16875484D01*
X9697015Y-17056436D02*
X9706539Y-17065960D01*
X9706539Y-17065960D02*
X9697015Y-17075484D01*
X9697015Y-17075484D02*
X9687491Y-17065960D01*
X9687491Y-17065960D02*
X9697015Y-17056436D01*
X9697015Y-17056436D02*
X9697015Y-17075484D01*
X9897015Y-17075484D02*
X9782729Y-17075484D01*
X9839872Y-17075484D02*
X9839872Y-16875484D01*
X9839872Y-16875484D02*
X9820825Y-16904055D01*
X9820825Y-16904055D02*
X9801777Y-16923103D01*
X9801777Y-16923103D02*
X9782729Y-16932627D01*
X10068444Y-16875484D02*
X10030348Y-16875484D01*
X10030348Y-16875484D02*
X10011301Y-16885008D01*
X10011301Y-16885008D02*
X10001777Y-16894531D01*
X10001777Y-16894531D02*
X9982729Y-16923103D01*
X9982729Y-16923103D02*
X9973206Y-16961198D01*
X9973206Y-16961198D02*
X9973206Y-17037389D01*
X9973206Y-17037389D02*
X9982729Y-17056436D01*
X9982729Y-17056436D02*
X9992253Y-17065960D01*
X9992253Y-17065960D02*
X10011301Y-17075484D01*
X10011301Y-17075484D02*
X10049396Y-17075484D01*
X10049396Y-17075484D02*
X10068444Y-17065960D01*
X10068444Y-17065960D02*
X10077968Y-17056436D01*
X10077968Y-17056436D02*
X10087491Y-17037389D01*
X10087491Y-17037389D02*
X10087491Y-16989770D01*
X10087491Y-16989770D02*
X10077968Y-16970722D01*
X10077968Y-16970722D02*
X10068444Y-16961198D01*
X10068444Y-16961198D02*
X10049396Y-16951674D01*
X10049396Y-16951674D02*
X10011301Y-16951674D01*
X10011301Y-16951674D02*
X9992253Y-16961198D01*
X9992253Y-16961198D02*
X9982729Y-16970722D01*
X9982729Y-16970722D02*
X9973206Y-16989770D01*
X10182729Y-17075484D02*
X10220825Y-17075484D01*
X10220825Y-17075484D02*
X10239872Y-17065960D01*
X10239872Y-17065960D02*
X10249396Y-17056436D01*
X10249396Y-17056436D02*
X10268444Y-17027865D01*
X10268444Y-17027865D02*
X10277968Y-16989770D01*
X10277968Y-16989770D02*
X10277968Y-16913579D01*
X10277968Y-16913579D02*
X10268444Y-16894531D01*
X10268444Y-16894531D02*
X10258920Y-16885008D01*
X10258920Y-16885008D02*
X10239872Y-16875484D01*
X10239872Y-16875484D02*
X10201777Y-16875484D01*
X10201777Y-16875484D02*
X10182729Y-16885008D01*
X10182729Y-16885008D02*
X10173206Y-16894531D01*
X10173206Y-16894531D02*
X10163682Y-16913579D01*
X10163682Y-16913579D02*
X10163682Y-16961198D01*
X10163682Y-16961198D02*
X10173206Y-16980246D01*
X10173206Y-16980246D02*
X10182729Y-16989770D01*
X10182729Y-16989770D02*
X10201777Y-16999293D01*
X10201777Y-16999293D02*
X10239872Y-16999293D01*
X10239872Y-16999293D02*
X10258920Y-16989770D01*
X10258920Y-16989770D02*
X10268444Y-16980246D01*
X10268444Y-16980246D02*
X10277968Y-16961198D01*
X10344634Y-16875484D02*
X10468444Y-16875484D01*
X10468444Y-16875484D02*
X10401777Y-16951674D01*
X10401777Y-16951674D02*
X10430349Y-16951674D01*
X10430349Y-16951674D02*
X10449396Y-16961198D01*
X10449396Y-16961198D02*
X10458920Y-16970722D01*
X10458920Y-16970722D02*
X10468444Y-16989770D01*
X10468444Y-16989770D02*
X10468444Y-17037389D01*
X10468444Y-17037389D02*
X10458920Y-17056436D01*
X10458920Y-17056436D02*
X10449396Y-17065960D01*
X10449396Y-17065960D02*
X10430349Y-17075484D01*
X10430349Y-17075484D02*
X10373206Y-17075484D01*
X10373206Y-17075484D02*
X10354158Y-17065960D01*
X10354158Y-17065960D02*
X10344634Y-17056436D01*
X10544634Y-16875484D02*
X10544634Y-16913579D01*
X10620825Y-16875484D02*
X10620825Y-16913579D01*
X10916063Y-17151674D02*
X10906539Y-17142150D01*
X10906539Y-17142150D02*
X10887491Y-17113579D01*
X10887491Y-17113579D02*
X10877968Y-17094531D01*
X10877968Y-17094531D02*
X10868444Y-17065960D01*
X10868444Y-17065960D02*
X10858920Y-17018341D01*
X10858920Y-17018341D02*
X10858920Y-16980246D01*
X10858920Y-16980246D02*
X10868444Y-16932627D01*
X10868444Y-16932627D02*
X10877968Y-16904055D01*
X10877968Y-16904055D02*
X10887491Y-16885008D01*
X10887491Y-16885008D02*
X10906539Y-16856436D01*
X10906539Y-16856436D02*
X10916063Y-16846912D01*
X11077968Y-16942150D02*
X11077968Y-17075484D01*
X11030349Y-16865960D02*
X10982730Y-17008817D01*
X10982730Y-17008817D02*
X11106539Y-17008817D01*
X11335110Y-17075484D02*
X11335110Y-16875484D01*
X11420825Y-17075484D02*
X11420825Y-16970722D01*
X11420825Y-16970722D02*
X11411301Y-16951674D01*
X11411301Y-16951674D02*
X11392253Y-16942150D01*
X11392253Y-16942150D02*
X11363682Y-16942150D01*
X11363682Y-16942150D02*
X11344634Y-16951674D01*
X11344634Y-16951674D02*
X11335110Y-16961198D01*
X11544634Y-17075484D02*
X11525587Y-17065960D01*
X11525587Y-17065960D02*
X11516063Y-17056436D01*
X11516063Y-17056436D02*
X11506539Y-17037389D01*
X11506539Y-17037389D02*
X11506539Y-16980246D01*
X11506539Y-16980246D02*
X11516063Y-16961198D01*
X11516063Y-16961198D02*
X11525587Y-16951674D01*
X11525587Y-16951674D02*
X11544634Y-16942150D01*
X11544634Y-16942150D02*
X11573206Y-16942150D01*
X11573206Y-16942150D02*
X11592253Y-16951674D01*
X11592253Y-16951674D02*
X11601777Y-16961198D01*
X11601777Y-16961198D02*
X11611301Y-16980246D01*
X11611301Y-16980246D02*
X11611301Y-17037389D01*
X11611301Y-17037389D02*
X11601777Y-17056436D01*
X11601777Y-17056436D02*
X11592253Y-17065960D01*
X11592253Y-17065960D02*
X11573206Y-17075484D01*
X11573206Y-17075484D02*
X11544634Y-17075484D01*
X11725587Y-17075484D02*
X11706539Y-17065960D01*
X11706539Y-17065960D02*
X11697015Y-17046912D01*
X11697015Y-17046912D02*
X11697015Y-16875484D01*
X11877968Y-17065960D02*
X11858920Y-17075484D01*
X11858920Y-17075484D02*
X11820825Y-17075484D01*
X11820825Y-17075484D02*
X11801777Y-17065960D01*
X11801777Y-17065960D02*
X11792253Y-17046912D01*
X11792253Y-17046912D02*
X11792253Y-16970722D01*
X11792253Y-16970722D02*
X11801777Y-16951674D01*
X11801777Y-16951674D02*
X11820825Y-16942150D01*
X11820825Y-16942150D02*
X11858920Y-16942150D01*
X11858920Y-16942150D02*
X11877968Y-16951674D01*
X11877968Y-16951674D02*
X11887491Y-16970722D01*
X11887491Y-16970722D02*
X11887491Y-16989770D01*
X11887491Y-16989770D02*
X11792253Y-17008817D01*
X11963682Y-17065960D02*
X11982730Y-17075484D01*
X11982730Y-17075484D02*
X12020825Y-17075484D01*
X12020825Y-17075484D02*
X12039872Y-17065960D01*
X12039872Y-17065960D02*
X12049396Y-17046912D01*
X12049396Y-17046912D02*
X12049396Y-17037389D01*
X12049396Y-17037389D02*
X12039872Y-17018341D01*
X12039872Y-17018341D02*
X12020825Y-17008817D01*
X12020825Y-17008817D02*
X11992253Y-17008817D01*
X11992253Y-17008817D02*
X11973206Y-16999293D01*
X11973206Y-16999293D02*
X11963682Y-16980246D01*
X11963682Y-16980246D02*
X11963682Y-16970722D01*
X11963682Y-16970722D02*
X11973206Y-16951674D01*
X11973206Y-16951674D02*
X11992253Y-16942150D01*
X11992253Y-16942150D02*
X12020825Y-16942150D01*
X12020825Y-16942150D02*
X12039872Y-16951674D01*
X12116063Y-17151674D02*
X12125587Y-17142150D01*
X12125587Y-17142150D02*
X12144634Y-17113579D01*
X12144634Y-17113579D02*
X12154158Y-17094531D01*
X12154158Y-17094531D02*
X12163682Y-17065960D01*
X12163682Y-17065960D02*
X12173206Y-17018341D01*
X12173206Y-17018341D02*
X12173206Y-16980246D01*
X12173206Y-16980246D02*
X12163682Y-16932627D01*
X12163682Y-16932627D02*
X12154158Y-16904055D01*
X12154158Y-16904055D02*
X12144634Y-16885008D01*
X12144634Y-16885008D02*
X12125587Y-16856436D01*
X12125587Y-16856436D02*
X12116063Y-16846912D01*
M02*
