M48
; DRILL file {KiCad 8.0.3} date 2025-01-02T16:49:08+1030
; FORMAT={-:-/ absolute / metric / decimal}
; #@! TF.CreationDate,2025-01-02T16:49:08+10:30
; #@! TF.GenerationSoftware,Kicad,Pcbnew,8.0.3
; #@! TF.FileFunction,Plated,1,2,PTH
FMAT,2
METRIC
; #@! TA.AperFunction,Plated,PTH,ViaDrill
T1C0.350
; #@! TA.AperFunction,Plated,PTH,ComponentDrill
T2C0.800
; #@! TA.AperFunction,Plated,PTH,ComponentDrill
T3C1.000
; #@! TA.AperFunction,Plated,PTH,ComponentDrill
T4C3.200
; #@! TA.AperFunction,Plated,PTH,ComponentDrill
T5C4.300
%
G90
G05
T1
X79.375Y-130.175
X80.01Y-104.14
X83.82Y-64.77
X84.455Y-76.835
X84.455Y-104.14
X85.725Y-106.045
X86.36Y-117.475
X89.535Y-100.965
X93.98Y-132.08
X94.615Y-119.38
X96.52Y-136.525
X98.425Y-79.375
X101.6Y-101.6
X103.505Y-74.93
X104.775Y-81.28
X104.775Y-101.6
X107.95Y-102.87
X111.125Y-81.28
X116.205Y-71.12
X116.205Y-80.01
X116.205Y-96.52
X116.205Y-121.92
X118.745Y-74.93
X144.145Y-67.945
X144.145Y-81.915
X144.145Y-93.345
X144.145Y-118.745
X145.415Y-104.14
X145.415Y-129.54
X148.59Y-79.375
X149.225Y-107.95
X149.225Y-133.35
X154.94Y-104.775
X156.21Y-109.22
T2
X128.575Y-62.114
X128.575Y-87.514
X128.575Y-112.914
X130.175Y-58.943
X130.175Y-61.443
X130.175Y-84.343
X130.175Y-86.843
X130.175Y-109.743
X130.175Y-112.243
X131.775Y-58.272
X131.775Y-83.672
X131.775Y-109.072
T3
X76.2Y-69.85
X76.2Y-72.39
X76.2Y-74.93
X76.2Y-77.47
X76.2Y-85.09
X76.2Y-87.63
X76.2Y-90.17
X76.2Y-92.71
X76.2Y-95.25
X76.2Y-97.79
X76.2Y-100.33
X76.2Y-107.95
X76.2Y-110.49
X76.2Y-113.03
X76.2Y-115.57
X78.74Y-85.09
X78.74Y-87.63
X78.74Y-90.17
X78.74Y-92.71
X78.74Y-95.25
X78.74Y-97.79
X78.74Y-100.33
X81.28Y-85.09
X81.28Y-87.63
X81.28Y-90.17
X81.28Y-92.71
X81.28Y-95.25
X81.28Y-97.79
X81.28Y-100.33
X89.535Y-63.5
X89.535Y-66.04
X89.535Y-88.9
X89.535Y-91.44
X89.535Y-114.3
X89.535Y-116.84
X92.075Y-63.5
X92.075Y-66.04
X92.075Y-88.9
X92.075Y-91.44
X92.075Y-114.3
X92.075Y-116.84
X94.615Y-63.5
X94.615Y-66.04
X94.615Y-88.9
X94.615Y-91.44
X94.615Y-114.3
X94.615Y-116.84
X97.155Y-63.5
X97.155Y-66.04
X97.155Y-88.9
X97.155Y-91.44
X97.155Y-114.3
X97.155Y-116.84
X99.695Y-63.5
X99.695Y-66.04
X99.695Y-88.9
X99.695Y-91.44
X99.695Y-114.3
X99.695Y-116.84
X102.235Y-63.5
X102.235Y-66.04
X102.235Y-88.9
X102.235Y-91.44
X102.235Y-114.3
X102.235Y-116.84
X104.775Y-63.5
X104.775Y-66.04
X104.775Y-88.9
X104.775Y-91.44
X104.775Y-114.3
X104.775Y-116.84
X107.315Y-63.5
X107.315Y-66.04
X107.315Y-88.9
X107.315Y-91.44
X107.315Y-114.3
X107.315Y-116.84
X108.885Y-69.89
X108.885Y-74.89
X108.885Y-95.29
X108.885Y-100.29
X108.885Y-120.69
X108.885Y-125.69
X109.855Y-63.5
X109.855Y-66.04
X109.855Y-88.9
X109.855Y-91.44
X109.855Y-114.3
X109.855Y-116.84
X112.395Y-63.5
X112.395Y-66.04
X112.395Y-88.9
X112.395Y-91.44
X112.395Y-114.3
X112.395Y-116.84
X113.885Y-72.39
X113.885Y-97.79
X113.885Y-123.19
X114.935Y-63.5
X114.935Y-66.04
X114.935Y-88.9
X114.935Y-91.44
X114.935Y-114.3
X114.935Y-116.84
X117.475Y-63.5
X117.475Y-66.04
X117.475Y-88.9
X117.475Y-91.44
X117.475Y-114.3
X117.475Y-116.84
X120.015Y-63.5
X120.015Y-66.04
X120.015Y-88.9
X120.015Y-91.44
X120.015Y-114.3
X120.015Y-116.84
X122.555Y-63.5
X122.555Y-66.04
X122.555Y-88.9
X122.555Y-91.44
X122.555Y-114.3
X122.555Y-116.84
X127.415Y-70.485
X127.415Y-95.885
X127.415Y-121.285
X132.415Y-67.985
X132.415Y-72.985
X132.415Y-93.385
X132.415Y-98.385
X132.415Y-118.785
X132.415Y-123.785
X144.065Y-85.725
X144.065Y-111.125
X144.07Y-88.265
X144.07Y-113.665
X144.145Y-60.325
X144.145Y-62.865
X144.145Y-65.405
X144.145Y-90.805
X144.15Y-116.205
X146.605Y-85.725
X146.605Y-111.125
X146.61Y-88.265
X146.61Y-113.665
X146.685Y-60.325
X146.685Y-62.865
X146.685Y-65.405
X146.685Y-90.805
X146.69Y-116.205
X154.94Y-82.55
X154.94Y-85.09
X154.94Y-87.63
X154.94Y-90.17
X154.94Y-92.71
X154.94Y-95.25
X154.94Y-97.79
X157.48Y-82.55
X157.48Y-85.09
X157.48Y-87.63
X157.48Y-90.17
X157.48Y-92.71
X157.48Y-95.25
X157.48Y-97.79
X162.56Y-86.36
X162.56Y-88.65
X162.56Y-90.94
X162.56Y-93.23
X162.56Y-95.52
X165.1Y-85.215
X165.1Y-87.505
X165.1Y-89.795
X165.1Y-92.085
X165.1Y-94.375
X167.64Y-86.36
X167.64Y-88.65
X167.64Y-90.94
X167.64Y-93.23
X167.64Y-95.52
T4
X165.17Y-78.175
X165.17Y-103.175
T5
X80.66Y-59.07
X80.66Y-145.07
X166.66Y-59.07
X166.66Y-145.07
M30
