G04 #@! TF.GenerationSoftware,KiCad,Pcbnew,8.0.3*
G04 #@! TF.CreationDate,2025-01-02T16:48:01+10:30*
G04 #@! TF.ProjectId,tt06-vga-opamp,74743036-2d76-4676-912d-6f70616d702e,rev?*
G04 #@! TF.SameCoordinates,Original*
G04 #@! TF.FileFunction,Legend,Bot*
G04 #@! TF.FilePolarity,Positive*
%FSLAX46Y46*%
G04 Gerber Fmt 4.6, Leading zero omitted, Abs format (unit mm)*
G04 Created by KiCad (PCBNEW 8.0.3) date 2025-01-02 16:48:01*
%MOMM*%
%LPD*%
G01*
G04 APERTURE LIST*
G04 Aperture macros list*
%AMRoundRect*
0 Rectangle with rounded corners*
0 $1 Rounding radius*
0 $2 $3 $4 $5 $6 $7 $8 $9 X,Y pos of 4 corners*
0 Add a 4 corners polygon primitive as box body*
4,1,4,$2,$3,$4,$5,$6,$7,$8,$9,$2,$3,0*
0 Add four circle primitives for the rounded corners*
1,1,$1+$1,$2,$3*
1,1,$1+$1,$4,$5*
1,1,$1+$1,$6,$7*
1,1,$1+$1,$8,$9*
0 Add four rect primitives between the rounded corners*
20,1,$1+$1,$2,$3,$4,$5,0*
20,1,$1+$1,$4,$5,$6,$7,0*
20,1,$1+$1,$6,$7,$8,$9,0*
20,1,$1+$1,$8,$9,$2,$3,0*%
G04 Aperture macros list end*
%ADD10C,0.300000*%
%ADD11C,0.150000*%
%ADD12C,0.100000*%
%ADD13C,0.000000*%
%ADD14C,0.120000*%
%ADD15R,1.700000X1.700000*%
%ADD16O,1.700000X1.700000*%
%ADD17C,7.500000*%
%ADD18RoundRect,0.100000X-1.037500X-0.100000X1.037500X-0.100000X1.037500X0.100000X-1.037500X0.100000X0*%
%ADD19RoundRect,1.000000X2.250000X-1.500000X2.250000X1.500000X-2.250000X1.500000X-2.250000X-1.500000X0*%
%ADD20R,1.600000X1.600000*%
%ADD21C,1.600000*%
%ADD22C,1.560000*%
%ADD23R,1.560000X1.560000*%
%ADD24RoundRect,0.396226X0.953774X-0.653774X0.953774X0.653774X-0.953774X0.653774X-0.953774X-0.653774X0*%
G04 APERTURE END LIST*
D10*
X152451427Y-133234757D02*
X152594285Y-133163328D01*
X152594285Y-133163328D02*
X152808570Y-133163328D01*
X152808570Y-133163328D02*
X153022856Y-133234757D01*
X153022856Y-133234757D02*
X153165713Y-133377614D01*
X153165713Y-133377614D02*
X153237142Y-133520471D01*
X153237142Y-133520471D02*
X153308570Y-133806185D01*
X153308570Y-133806185D02*
X153308570Y-134020471D01*
X153308570Y-134020471D02*
X153237142Y-134306185D01*
X153237142Y-134306185D02*
X153165713Y-134449042D01*
X153165713Y-134449042D02*
X153022856Y-134591900D01*
X153022856Y-134591900D02*
X152808570Y-134663328D01*
X152808570Y-134663328D02*
X152665713Y-134663328D01*
X152665713Y-134663328D02*
X152451427Y-134591900D01*
X152451427Y-134591900D02*
X152379999Y-134520471D01*
X152379999Y-134520471D02*
X152379999Y-134020471D01*
X152379999Y-134020471D02*
X152665713Y-134020471D01*
X151522856Y-133163328D02*
X151522856Y-133520471D01*
X151879999Y-133377614D02*
X151522856Y-133520471D01*
X151522856Y-133520471D02*
X151165713Y-133377614D01*
X151737142Y-133806185D02*
X151522856Y-133520471D01*
X151522856Y-133520471D02*
X151308570Y-133806185D01*
X150379999Y-133163328D02*
X150379999Y-133520471D01*
X150737142Y-133377614D02*
X150379999Y-133520471D01*
X150379999Y-133520471D02*
X150022856Y-133377614D01*
X150594285Y-133806185D02*
X150379999Y-133520471D01*
X150379999Y-133520471D02*
X150165713Y-133806185D01*
X149237142Y-133163328D02*
X149237142Y-133520471D01*
X149594285Y-133377614D02*
X149237142Y-133520471D01*
X149237142Y-133520471D02*
X148879999Y-133377614D01*
X149451428Y-133806185D02*
X149237142Y-133520471D01*
X149237142Y-133520471D02*
X149022856Y-133806185D01*
D11*
X99186904Y-84184819D02*
X99186904Y-84994342D01*
X99186904Y-84994342D02*
X99139285Y-85089580D01*
X99139285Y-85089580D02*
X99091666Y-85137200D01*
X99091666Y-85137200D02*
X98996428Y-85184819D01*
X98996428Y-85184819D02*
X98805952Y-85184819D01*
X98805952Y-85184819D02*
X98710714Y-85137200D01*
X98710714Y-85137200D02*
X98663095Y-85089580D01*
X98663095Y-85089580D02*
X98615476Y-84994342D01*
X98615476Y-84994342D02*
X98615476Y-84184819D01*
X97615476Y-85184819D02*
X98186904Y-85184819D01*
X97901190Y-85184819D02*
X97901190Y-84184819D01*
X97901190Y-84184819D02*
X97996428Y-84327676D01*
X97996428Y-84327676D02*
X98091666Y-84422914D01*
X98091666Y-84422914D02*
X98186904Y-84470533D01*
D12*
X87796666Y-75927180D02*
X87844285Y-75974800D01*
X87844285Y-75974800D02*
X87987142Y-76022419D01*
X87987142Y-76022419D02*
X88082380Y-76022419D01*
X88082380Y-76022419D02*
X88225237Y-75974800D01*
X88225237Y-75974800D02*
X88320475Y-75879561D01*
X88320475Y-75879561D02*
X88368094Y-75784323D01*
X88368094Y-75784323D02*
X88415713Y-75593847D01*
X88415713Y-75593847D02*
X88415713Y-75450990D01*
X88415713Y-75450990D02*
X88368094Y-75260514D01*
X88368094Y-75260514D02*
X88320475Y-75165276D01*
X88320475Y-75165276D02*
X88225237Y-75070038D01*
X88225237Y-75070038D02*
X88082380Y-75022419D01*
X88082380Y-75022419D02*
X87987142Y-75022419D01*
X87987142Y-75022419D02*
X87844285Y-75070038D01*
X87844285Y-75070038D02*
X87796666Y-75117657D01*
X87415713Y-75117657D02*
X87368094Y-75070038D01*
X87368094Y-75070038D02*
X87272856Y-75022419D01*
X87272856Y-75022419D02*
X87034761Y-75022419D01*
X87034761Y-75022419D02*
X86939523Y-75070038D01*
X86939523Y-75070038D02*
X86891904Y-75117657D01*
X86891904Y-75117657D02*
X86844285Y-75212895D01*
X86844285Y-75212895D02*
X86844285Y-75308133D01*
X86844285Y-75308133D02*
X86891904Y-75450990D01*
X86891904Y-75450990D02*
X87463332Y-76022419D01*
X87463332Y-76022419D02*
X86844285Y-76022419D01*
X91606666Y-75927180D02*
X91654285Y-75974800D01*
X91654285Y-75974800D02*
X91797142Y-76022419D01*
X91797142Y-76022419D02*
X91892380Y-76022419D01*
X91892380Y-76022419D02*
X92035237Y-75974800D01*
X92035237Y-75974800D02*
X92130475Y-75879561D01*
X92130475Y-75879561D02*
X92178094Y-75784323D01*
X92178094Y-75784323D02*
X92225713Y-75593847D01*
X92225713Y-75593847D02*
X92225713Y-75450990D01*
X92225713Y-75450990D02*
X92178094Y-75260514D01*
X92178094Y-75260514D02*
X92130475Y-75165276D01*
X92130475Y-75165276D02*
X92035237Y-75070038D01*
X92035237Y-75070038D02*
X91892380Y-75022419D01*
X91892380Y-75022419D02*
X91797142Y-75022419D01*
X91797142Y-75022419D02*
X91654285Y-75070038D01*
X91654285Y-75070038D02*
X91606666Y-75117657D01*
X90654285Y-76022419D02*
X91225713Y-76022419D01*
X90939999Y-76022419D02*
X90939999Y-75022419D01*
X90939999Y-75022419D02*
X91035237Y-75165276D01*
X91035237Y-75165276D02*
X91130475Y-75260514D01*
X91130475Y-75260514D02*
X91225713Y-75308133D01*
D13*
G36*
X164746011Y-130679755D02*
G01*
X164888639Y-131405144D01*
X164993426Y-132143186D01*
X165060582Y-132894658D01*
X165063706Y-132948649D01*
X165070505Y-133111838D01*
X165075518Y-133303168D01*
X165078744Y-133514125D01*
X165080184Y-133736196D01*
X165079837Y-133960871D01*
X165077703Y-134179635D01*
X165073782Y-134383976D01*
X165068076Y-134565382D01*
X165060582Y-134715341D01*
X165004566Y-135363331D01*
X164903826Y-136104757D01*
X164764992Y-136835403D01*
X164591781Y-137540770D01*
X164588475Y-137554231D01*
X164374687Y-138260204D01*
X164124040Y-138952286D01*
X163836945Y-139629440D01*
X163576922Y-140161497D01*
X163513813Y-140290629D01*
X163446248Y-140411950D01*
X163293798Y-140685691D01*
X163165720Y-140915670D01*
X163155057Y-140934816D01*
X163024590Y-141142172D01*
X162865632Y-141394809D01*
X162761088Y-141560965D01*
X162742882Y-141586742D01*
X162603041Y-141784734D01*
X162484800Y-141952145D01*
X162365153Y-142121547D01*
X162332317Y-142168038D01*
X162289876Y-142221823D01*
X162187147Y-142352012D01*
X162124207Y-142431775D01*
X162038808Y-142540000D01*
X161951992Y-142650021D01*
X161869155Y-142755000D01*
X161609325Y-143056930D01*
X161238885Y-143458561D01*
X160848168Y-143852425D01*
X160692279Y-143998632D01*
X160447454Y-144228251D01*
X160047021Y-144575766D01*
X159563273Y-144960198D01*
X158960100Y-145393368D01*
X158336871Y-145792496D01*
X158138745Y-145905011D01*
X157694953Y-146157039D01*
X157035712Y-146486451D01*
X156360514Y-146780188D01*
X155670725Y-147037706D01*
X154967710Y-147258460D01*
X154252837Y-147441906D01*
X153527471Y-147587498D01*
X152792979Y-147694693D01*
X152050725Y-147762947D01*
X151965873Y-147767510D01*
X151819529Y-147772769D01*
X151646122Y-147776813D01*
X151453104Y-147779634D01*
X151247928Y-147781227D01*
X151038047Y-147781585D01*
X150830913Y-147780701D01*
X150633980Y-147778568D01*
X150454700Y-147775180D01*
X150300526Y-147770531D01*
X150178910Y-147764612D01*
X149532437Y-147708867D01*
X148790271Y-147608303D01*
X148058925Y-147469668D01*
X147339423Y-147293366D01*
X146632793Y-147079805D01*
X145940058Y-146829392D01*
X145262246Y-146542532D01*
X144600382Y-146219632D01*
X144515822Y-146172620D01*
X146271887Y-146172620D01*
X146284723Y-146182507D01*
X146328465Y-146206439D01*
X146397640Y-146241605D01*
X146486584Y-146285327D01*
X146589633Y-146334922D01*
X146701121Y-146387709D01*
X146815384Y-146441008D01*
X146926758Y-146492137D01*
X147029578Y-146538415D01*
X147118178Y-146577162D01*
X147186895Y-146605695D01*
X147348714Y-146668573D01*
X147752880Y-146813882D01*
X148146319Y-146937032D01*
X148537222Y-147039845D01*
X148933781Y-147124142D01*
X149344185Y-147191742D01*
X149776628Y-147244466D01*
X150239299Y-147284135D01*
X150303253Y-147288626D01*
X150412669Y-147296307D01*
X150507497Y-147302961D01*
X150579290Y-147307994D01*
X150619598Y-147310814D01*
X150639816Y-147311350D01*
X150698989Y-147311478D01*
X150789385Y-147310917D01*
X150905852Y-147309725D01*
X151043241Y-147307955D01*
X151196401Y-147305662D01*
X151360181Y-147302902D01*
X151525498Y-147299522D01*
X151804187Y-147291400D01*
X152044487Y-147280919D01*
X152246002Y-147268104D01*
X152408339Y-147252976D01*
X152531103Y-147235558D01*
X152556193Y-147231544D01*
X152619183Y-147222997D01*
X152691229Y-147214453D01*
X152755365Y-147206749D01*
X152895098Y-147187136D01*
X153057739Y-147161598D01*
X153232908Y-147131921D01*
X153410228Y-147099887D01*
X153579322Y-147067282D01*
X153729810Y-147035889D01*
X154141402Y-146935414D01*
X154586564Y-146801928D01*
X155028522Y-146642257D01*
X155475015Y-146453583D01*
X155933783Y-146233085D01*
X155993824Y-146202372D01*
X156114700Y-146139179D01*
X156227453Y-146078531D01*
X156327496Y-146023045D01*
X156410247Y-145975335D01*
X156471121Y-145938016D01*
X156505534Y-145913703D01*
X156508902Y-145905011D01*
X156508413Y-145905050D01*
X156483487Y-145914622D01*
X156430790Y-145938648D01*
X156357730Y-145973654D01*
X156271717Y-146016169D01*
X156157226Y-146071654D01*
X155999906Y-146144177D01*
X155822614Y-146222957D01*
X155634676Y-146304034D01*
X155445421Y-146383445D01*
X155264175Y-146457229D01*
X155100265Y-146521423D01*
X154963018Y-146572066D01*
X154497632Y-146726060D01*
X153953944Y-146881288D01*
X153415896Y-147008625D01*
X152889554Y-147106658D01*
X152380985Y-147173973D01*
X152342892Y-147177979D01*
X152261325Y-147186735D01*
X152162719Y-147197456D01*
X152060733Y-147208663D01*
X152057804Y-147208982D01*
X151965120Y-147216252D01*
X151839288Y-147222186D01*
X151686906Y-147226783D01*
X151514571Y-147230046D01*
X151328881Y-147231976D01*
X151136433Y-147232575D01*
X150943824Y-147231843D01*
X150757651Y-147229782D01*
X150584513Y-147226394D01*
X150431006Y-147221679D01*
X150303728Y-147215640D01*
X150209275Y-147208277D01*
X150131134Y-147200035D01*
X150029110Y-147189344D01*
X149940706Y-147180155D01*
X149879015Y-147173833D01*
X149858734Y-147171759D01*
X149434899Y-147116226D01*
X148988640Y-147035934D01*
X148526991Y-146932734D01*
X148056984Y-146808481D01*
X147585654Y-146665025D01*
X147120032Y-146504220D01*
X146667152Y-146327917D01*
X146627987Y-146311783D01*
X146515817Y-146266041D01*
X146418635Y-146227098D01*
X146341928Y-146197110D01*
X146291183Y-146178232D01*
X146271887Y-146172620D01*
X144515822Y-146172620D01*
X143955491Y-145861099D01*
X143328599Y-145467339D01*
X142720732Y-145038759D01*
X142132916Y-144575766D01*
X141939379Y-144409506D01*
X143108482Y-144409506D01*
X143110646Y-144418725D01*
X143120011Y-144437242D01*
X143126446Y-144446963D01*
X143160941Y-144487274D01*
X143218456Y-144547840D01*
X143294210Y-144624095D01*
X143383422Y-144711476D01*
X143481308Y-144805418D01*
X143583089Y-144901356D01*
X143683980Y-144994725D01*
X143779202Y-145080962D01*
X143863972Y-145155501D01*
X143933507Y-145213779D01*
X144065230Y-145315938D01*
X144296539Y-145480676D01*
X144545030Y-145642352D01*
X144797600Y-145792577D01*
X145041145Y-145922962D01*
X145115261Y-145959774D01*
X145184932Y-145993604D01*
X145234037Y-146016549D01*
X145255011Y-146025000D01*
X145263272Y-146022781D01*
X145258070Y-146012927D01*
X145233170Y-145992760D01*
X145184942Y-145959668D01*
X145109757Y-145911036D01*
X145003987Y-145844253D01*
X144872904Y-145760741D01*
X144358858Y-145409211D01*
X143842549Y-145017945D01*
X143323854Y-144586849D01*
X143251242Y-144523895D01*
X143184897Y-144466779D01*
X143141636Y-144430618D01*
X143117488Y-144412499D01*
X143108482Y-144409506D01*
X141939379Y-144409506D01*
X141831209Y-144316581D01*
X141429612Y-143946755D01*
X141035489Y-143556368D01*
X140659119Y-143155692D01*
X140310782Y-142755000D01*
X140277893Y-142715365D01*
X140153147Y-142556020D01*
X141102104Y-142556020D01*
X141104400Y-142565166D01*
X141123440Y-142606449D01*
X141158685Y-142672112D01*
X141206424Y-142755837D01*
X141262945Y-142851306D01*
X141324537Y-142952201D01*
X141387488Y-143052205D01*
X141448088Y-143145000D01*
X141511505Y-143239061D01*
X141588554Y-143349437D01*
X141659724Y-143444872D01*
X141731999Y-143533860D01*
X141812362Y-143624896D01*
X141907798Y-143726475D01*
X142025289Y-143847092D01*
X142111928Y-143933881D01*
X142192630Y-144012382D01*
X142261626Y-144077147D01*
X142313561Y-144123150D01*
X142343081Y-144145366D01*
X142373280Y-144160398D01*
X142381811Y-144158955D01*
X142363877Y-144133274D01*
X142352141Y-144118634D01*
X142314878Y-144074211D01*
X142262781Y-144013432D01*
X142203272Y-143945000D01*
X142178848Y-143916989D01*
X142107074Y-143833600D01*
X142037540Y-143751498D01*
X141982409Y-143685000D01*
X141981373Y-143683726D01*
X141933940Y-143625865D01*
X141894967Y-143579076D01*
X141872801Y-143553382D01*
X141851536Y-143528353D01*
X141807954Y-143474004D01*
X141748294Y-143397944D01*
X141676828Y-143305734D01*
X141597826Y-143202934D01*
X141515559Y-143095105D01*
X141434299Y-142987809D01*
X141358317Y-142886606D01*
X141291885Y-142797057D01*
X141248294Y-142738263D01*
X141190203Y-142661504D01*
X141143867Y-142602232D01*
X141113197Y-142565415D01*
X141102104Y-142556020D01*
X140153147Y-142556020D01*
X139818754Y-142128880D01*
X139393245Y-141521312D01*
X139001931Y-140893997D01*
X138856029Y-140629767D01*
X139693423Y-140629767D01*
X139704869Y-140675862D01*
X139725936Y-140745830D01*
X139754662Y-140834002D01*
X139789084Y-140934707D01*
X139827240Y-141042275D01*
X139867169Y-141151035D01*
X139906909Y-141255316D01*
X139944497Y-141349448D01*
X139977971Y-141427761D01*
X139978051Y-141427939D01*
X140018343Y-141509569D01*
X140074753Y-141613143D01*
X140141524Y-141729084D01*
X140212900Y-141847817D01*
X140283125Y-141959764D01*
X140346441Y-142055350D01*
X140397094Y-142125000D01*
X140443932Y-142183846D01*
X140476550Y-142223362D01*
X140493762Y-142240705D01*
X140500484Y-142240733D01*
X140501631Y-142228306D01*
X140498930Y-142217667D01*
X140480651Y-142175864D01*
X140448916Y-142113394D01*
X140408198Y-142039306D01*
X140407178Y-142037509D01*
X140367201Y-141964357D01*
X140313401Y-141862096D01*
X140249151Y-141737466D01*
X140177828Y-141597208D01*
X140102806Y-141448064D01*
X140027458Y-141296776D01*
X139955160Y-141150083D01*
X139889287Y-141014729D01*
X139833213Y-140897454D01*
X139790313Y-140805000D01*
X139772390Y-140765822D01*
X139738736Y-140694718D01*
X139712095Y-140641629D01*
X139697047Y-140615843D01*
X139693559Y-140613217D01*
X139693423Y-140629767D01*
X138856029Y-140629767D01*
X138645376Y-140248273D01*
X138324146Y-139585475D01*
X138038806Y-138906941D01*
X137932117Y-138609902D01*
X138702373Y-138609902D01*
X138708734Y-138685921D01*
X138720794Y-138786247D01*
X138765853Y-139080448D01*
X138823481Y-139349121D01*
X138896093Y-139602407D01*
X138986105Y-139850444D01*
X138989796Y-139859650D01*
X139039633Y-139979867D01*
X139084815Y-140081551D01*
X139123404Y-140160941D01*
X139153465Y-140214273D01*
X139173060Y-140237784D01*
X139180254Y-140227712D01*
X139175683Y-140205280D01*
X139160539Y-140149942D01*
X139136701Y-140069135D01*
X139106136Y-139969508D01*
X139070809Y-139857712D01*
X139063317Y-139834215D01*
X139018174Y-139688786D01*
X138970187Y-139528552D01*
X138921472Y-139361079D01*
X138874149Y-139193935D01*
X138830336Y-139034688D01*
X138792150Y-138890905D01*
X138761711Y-138770153D01*
X138741137Y-138680000D01*
X138726522Y-138616703D01*
X138712530Y-138575063D01*
X138704059Y-138572872D01*
X138702373Y-138609902D01*
X137932117Y-138609902D01*
X137789921Y-138214006D01*
X137578055Y-137508008D01*
X137439371Y-136936884D01*
X138062742Y-136936884D01*
X138063297Y-137041014D01*
X138066062Y-137135000D01*
X138073131Y-137238662D01*
X138090752Y-137400207D01*
X138115580Y-137570896D01*
X138145568Y-137738447D01*
X138178668Y-137890576D01*
X138212830Y-138015000D01*
X138225461Y-138052017D01*
X138246949Y-138105475D01*
X138263351Y-138135000D01*
X138266107Y-138137887D01*
X138271933Y-138141741D01*
X138274914Y-138135783D01*
X138274593Y-138115047D01*
X138270514Y-138074567D01*
X138262221Y-138009376D01*
X138249255Y-137914509D01*
X138231161Y-137785000D01*
X138225332Y-137743022D01*
X138204522Y-137585356D01*
X138185363Y-137425810D01*
X138167062Y-137256775D01*
X138148826Y-137070639D01*
X138129861Y-136859791D01*
X138109373Y-136616620D01*
X138104249Y-136563485D01*
X138097432Y-136512905D01*
X138091657Y-136490256D01*
X138090308Y-136489619D01*
X138083419Y-136508161D01*
X138077079Y-136558402D01*
X138071565Y-136633369D01*
X138067152Y-136726088D01*
X138064119Y-136829584D01*
X138062742Y-136936884D01*
X137439371Y-136936884D01*
X137403773Y-136790283D01*
X137283129Y-136145000D01*
X139313581Y-136145000D01*
X139314025Y-136301778D01*
X139316539Y-136540712D01*
X139321670Y-136752469D01*
X139329887Y-136945088D01*
X139341655Y-137126611D01*
X139357440Y-137305076D01*
X139377710Y-137488526D01*
X139402930Y-137685000D01*
X139407443Y-137718051D01*
X139426180Y-137848883D01*
X139442277Y-137950869D01*
X139455313Y-138022206D01*
X139464866Y-138061091D01*
X139470513Y-138065720D01*
X139471834Y-138034291D01*
X139468407Y-137965000D01*
X139462528Y-137891405D01*
X139452646Y-137786818D01*
X139440477Y-137669944D01*
X139427441Y-137555000D01*
X139419032Y-137466393D01*
X139410422Y-137326446D01*
X139403721Y-137158568D01*
X139398923Y-136969390D01*
X139396027Y-136765545D01*
X139395027Y-136553664D01*
X139395920Y-136340378D01*
X139398131Y-136175000D01*
X139701494Y-136175000D01*
X139702515Y-136389478D01*
X139708741Y-136703891D01*
X139721413Y-136994341D01*
X139741440Y-137270481D01*
X139769730Y-137541964D01*
X139807191Y-137818442D01*
X139854733Y-138109570D01*
X139859597Y-138135783D01*
X139913264Y-138425000D01*
X139947391Y-138589231D01*
X139994433Y-138793569D01*
X140047940Y-139008380D01*
X140105248Y-139223688D01*
X140163691Y-139429518D01*
X140220605Y-139615892D01*
X140273324Y-139772834D01*
X140279867Y-139790951D01*
X140311139Y-139872881D01*
X140336629Y-139932031D01*
X140353998Y-139963359D01*
X140360912Y-139961825D01*
X140360908Y-139961459D01*
X140355285Y-139936282D01*
X140340627Y-139881042D01*
X140319076Y-139803602D01*
X140292775Y-139711825D01*
X140172190Y-139270682D01*
X140065710Y-138816127D01*
X139981534Y-138371460D01*
X139918347Y-137927347D01*
X139874837Y-137474455D01*
X139849691Y-137003450D01*
X139841596Y-136505000D01*
X139842160Y-136358337D01*
X139846107Y-136158781D01*
X140091046Y-136158781D01*
X140091713Y-136361488D01*
X140093870Y-136557758D01*
X140097518Y-136740919D01*
X140102659Y-136904295D01*
X140109294Y-137041214D01*
X140117424Y-137145000D01*
X140154376Y-137466636D01*
X140235652Y-138021179D01*
X140337643Y-138551669D01*
X140462278Y-139065701D01*
X140611487Y-139570870D01*
X140787198Y-140074772D01*
X140848390Y-140227712D01*
X140991342Y-140585000D01*
X140995797Y-140595321D01*
X141025215Y-140660036D01*
X141068134Y-140751074D01*
X141120884Y-140860789D01*
X141179797Y-140981533D01*
X141241202Y-141105660D01*
X141295062Y-141212367D01*
X141362171Y-141341615D01*
X141425420Y-141459566D01*
X141482476Y-141562139D01*
X141531003Y-141645248D01*
X141568669Y-141704811D01*
X141593139Y-141736745D01*
X141602078Y-141736966D01*
X141602078Y-141736867D01*
X141593296Y-141713593D01*
X141569135Y-141660697D01*
X141532416Y-141584065D01*
X141485960Y-141489586D01*
X141432586Y-141383146D01*
X141194674Y-140880329D01*
X140953067Y-140285028D01*
X140747191Y-139675928D01*
X140577734Y-139055932D01*
X140445388Y-138427939D01*
X140350841Y-137794852D01*
X140294783Y-137159572D01*
X140277903Y-136525000D01*
X140279118Y-136438964D01*
X140464339Y-136438964D01*
X140502058Y-137045725D01*
X140509198Y-137120731D01*
X140524251Y-137271766D01*
X140538818Y-137404656D01*
X140554360Y-137530913D01*
X140572343Y-137662048D01*
X140594229Y-137809573D01*
X140621482Y-137985000D01*
X140641242Y-138102713D01*
X140698768Y-138393661D01*
X140771045Y-138704896D01*
X140855375Y-139025885D01*
X140949059Y-139346097D01*
X141049398Y-139655000D01*
X141114561Y-139839355D01*
X141353257Y-140436831D01*
X141628597Y-141019619D01*
X141939403Y-141585677D01*
X142284498Y-142132963D01*
X142352990Y-142228306D01*
X142662706Y-142659438D01*
X143072848Y-143163060D01*
X143077985Y-143168986D01*
X143163699Y-143266163D01*
X143236590Y-143345632D01*
X143294059Y-143404820D01*
X143333505Y-143441159D01*
X143352327Y-143452075D01*
X143347925Y-143435000D01*
X143345357Y-143430635D01*
X143319787Y-143395023D01*
X143274924Y-143337587D01*
X143216280Y-143265266D01*
X143149365Y-143185000D01*
X143035168Y-143047232D01*
X142664422Y-142561206D01*
X142321741Y-142050299D01*
X142008616Y-141517819D01*
X141726540Y-140967070D01*
X141477006Y-140401358D01*
X141261504Y-139823989D01*
X141081527Y-139238269D01*
X140938566Y-138647504D01*
X140834115Y-138055000D01*
X140808162Y-137863808D01*
X140785938Y-137674815D01*
X140768279Y-137489593D01*
X140754749Y-137300856D01*
X140744914Y-137101315D01*
X140738337Y-136883683D01*
X140734585Y-136640674D01*
X140733646Y-136450738D01*
X140864031Y-136450738D01*
X140891608Y-137095000D01*
X140906167Y-137270772D01*
X140935482Y-137537994D01*
X140974120Y-137802563D01*
X141023762Y-138074302D01*
X141086092Y-138363036D01*
X141162792Y-138678589D01*
X141206388Y-138844550D01*
X141395074Y-139464665D01*
X141620041Y-140068094D01*
X141880880Y-140654094D01*
X142177181Y-141221922D01*
X142508536Y-141770836D01*
X142874534Y-142300093D01*
X143274766Y-142808951D01*
X143708824Y-143296668D01*
X143862177Y-143452075D01*
X143900715Y-143491129D01*
X144133229Y-143709886D01*
X144385074Y-143932175D01*
X144648975Y-144152110D01*
X144657663Y-144158955D01*
X144917658Y-144363807D01*
X145183846Y-144561383D01*
X145440265Y-144738955D01*
X145679640Y-144890637D01*
X145744027Y-144928929D01*
X145848232Y-144989550D01*
X145930567Y-145035568D01*
X145987995Y-145065363D01*
X146017476Y-145077319D01*
X146015973Y-145069815D01*
X145994710Y-145053742D01*
X145945281Y-145019227D01*
X145873536Y-144970321D01*
X145785128Y-144910878D01*
X145685713Y-144844751D01*
X145588613Y-144779920D01*
X145354883Y-144618931D01*
X145139063Y-144463157D01*
X144947063Y-144316928D01*
X144784795Y-144184577D01*
X144354440Y-143800927D01*
X143928051Y-143381301D01*
X143536029Y-142950431D01*
X143175573Y-142504841D01*
X142843883Y-142041057D01*
X142538160Y-141555602D01*
X142255602Y-141045000D01*
X142052238Y-140623882D01*
X141853061Y-140146521D01*
X141676384Y-139651139D01*
X141525638Y-139147409D01*
X141404253Y-138645000D01*
X141397790Y-138614531D01*
X141374919Y-138507378D01*
X141352075Y-138401167D01*
X141333360Y-138315000D01*
X141310420Y-138205667D01*
X141239366Y-137789436D01*
X141187403Y-137347270D01*
X141154775Y-136886527D01*
X141141730Y-136414568D01*
X141142913Y-136331578D01*
X141291913Y-136331578D01*
X141292541Y-136529470D01*
X141294647Y-136720631D01*
X141298235Y-136898413D01*
X141303310Y-137056167D01*
X141309874Y-137187245D01*
X141317933Y-137285000D01*
X141338835Y-137462942D01*
X141398808Y-137890585D01*
X141470092Y-138289487D01*
X141554438Y-138667014D01*
X141653600Y-139030532D01*
X141769329Y-139387405D01*
X141903380Y-139745000D01*
X142044205Y-140082835D01*
X142296885Y-140622246D01*
X142574808Y-141136456D01*
X142881613Y-141631575D01*
X143220938Y-142113716D01*
X143596420Y-142588989D01*
X143654617Y-142656378D01*
X143755002Y-142766346D01*
X143875425Y-142893187D01*
X144010234Y-143031311D01*
X144153775Y-143175125D01*
X144300394Y-143319041D01*
X144444440Y-143457465D01*
X144580259Y-143584809D01*
X144702197Y-143695480D01*
X144804603Y-143783888D01*
X145129043Y-144043578D01*
X145510446Y-144322227D01*
X145900140Y-144577153D01*
X146308662Y-144815188D01*
X146746549Y-145043166D01*
X146820057Y-145077319D01*
X147203129Y-145255301D01*
X147772729Y-145483323D01*
X148346227Y-145672860D01*
X148922073Y-145823407D01*
X149498716Y-145934465D01*
X149542545Y-145941396D01*
X149646732Y-145957885D01*
X149744372Y-145973354D01*
X149818968Y-145985189D01*
X149847691Y-145989350D01*
X149926772Y-145999190D01*
X150030172Y-146010746D01*
X150146550Y-146022781D01*
X150147739Y-146022904D01*
X150269322Y-146034553D01*
X150362139Y-146042145D01*
X150578562Y-146054357D01*
X150816934Y-146061578D01*
X151069528Y-146063978D01*
X151328616Y-146061728D01*
X151586472Y-146054996D01*
X151835370Y-146043953D01*
X152067581Y-146028768D01*
X152275380Y-146009610D01*
X152451040Y-145986649D01*
X152506823Y-145977827D01*
X152662555Y-145953019D01*
X152788063Y-145932625D01*
X152890472Y-145915394D01*
X152976908Y-145900075D01*
X153054497Y-145885415D01*
X153130365Y-145870164D01*
X153211639Y-145853069D01*
X153430243Y-145803183D01*
X153791950Y-145708449D01*
X153797306Y-145706850D01*
X157512247Y-145706850D01*
X157536150Y-145700110D01*
X157590600Y-145673495D01*
X157674123Y-145627714D01*
X157785241Y-145563472D01*
X158009986Y-145425565D01*
X158344208Y-145195611D01*
X158655172Y-144947990D01*
X158953004Y-144675000D01*
X159028001Y-144600994D01*
X159145242Y-144482788D01*
X159255473Y-144368724D01*
X159355068Y-144262748D01*
X159440401Y-144168805D01*
X159507845Y-144090840D01*
X159553774Y-144032801D01*
X159574562Y-143998632D01*
X159574517Y-143997237D01*
X159558168Y-144007128D01*
X159519317Y-144039606D01*
X159462963Y-144090341D01*
X159394107Y-144155000D01*
X159378463Y-144169936D01*
X159105628Y-144425985D01*
X158849573Y-144657007D01*
X158665915Y-144815000D01*
X158602904Y-144869206D01*
X158358228Y-145068787D01*
X158108154Y-145261955D01*
X157845288Y-145454914D01*
X157753056Y-145521253D01*
X157666754Y-145583686D01*
X157596475Y-145634907D01*
X157547731Y-145670900D01*
X157526036Y-145687644D01*
X157520370Y-145693007D01*
X157512247Y-145706850D01*
X153797306Y-145706850D01*
X154163804Y-145597428D01*
X154532056Y-145474314D01*
X154882955Y-145343301D01*
X154963484Y-145309931D01*
X155098657Y-145249843D01*
X155255132Y-145176811D01*
X155425076Y-145094741D01*
X155600651Y-145007539D01*
X155774023Y-144919110D01*
X155937355Y-144833361D01*
X155971092Y-144815000D01*
X156674366Y-144815000D01*
X156684374Y-144825000D01*
X156694382Y-144815000D01*
X156684374Y-144805000D01*
X156674366Y-144815000D01*
X155971092Y-144815000D01*
X156004726Y-144796695D01*
X156717177Y-144796695D01*
X156717754Y-144802784D01*
X156742638Y-144791222D01*
X156788344Y-144764256D01*
X156851392Y-144724134D01*
X156928298Y-144673105D01*
X157015581Y-144613417D01*
X157109757Y-144547317D01*
X157207345Y-144477053D01*
X157304862Y-144404873D01*
X157434471Y-144306223D01*
X157703465Y-144091798D01*
X157955547Y-143875724D01*
X158140459Y-143705000D01*
X160300338Y-143705000D01*
X160307845Y-143700533D01*
X160339318Y-143672453D01*
X160389441Y-143623307D01*
X160452948Y-143558612D01*
X160524576Y-143483886D01*
X160599059Y-143404644D01*
X160671134Y-143326404D01*
X160735535Y-143254684D01*
X160786998Y-143195000D01*
X160805251Y-143172855D01*
X160872462Y-143087473D01*
X160941380Y-142994900D01*
X161007615Y-142901590D01*
X161066776Y-142813995D01*
X161114471Y-142738566D01*
X161146308Y-142681757D01*
X161157896Y-142650021D01*
X161154694Y-142632648D01*
X161133892Y-142625682D01*
X161121138Y-142633457D01*
X161096772Y-142648310D01*
X161046881Y-142697989D01*
X160987762Y-142772173D01*
X160979838Y-142782979D01*
X160932213Y-142847215D01*
X160866983Y-142934428D01*
X160789551Y-143037431D01*
X160705315Y-143149036D01*
X160619678Y-143262055D01*
X160587602Y-143304341D01*
X160509877Y-143407170D01*
X160440488Y-143499475D01*
X160383416Y-143575930D01*
X160342641Y-143631213D01*
X160322143Y-143660000D01*
X160304046Y-143690783D01*
X160300338Y-143705000D01*
X158140459Y-143705000D01*
X158203179Y-143647093D01*
X158458825Y-143395000D01*
X158515253Y-143337359D01*
X158625017Y-143223026D01*
X158734972Y-143105918D01*
X158790341Y-143045727D01*
X159274852Y-143045727D01*
X159288074Y-143038387D01*
X159320556Y-143008828D01*
X159368467Y-142960000D01*
X159411127Y-142913234D01*
X159507892Y-142797815D01*
X159622714Y-142650000D01*
X159630380Y-142633457D01*
X159611428Y-142625000D01*
X159591334Y-142637538D01*
X159552493Y-142676832D01*
X159501915Y-142736499D01*
X159445469Y-142810000D01*
X159396271Y-142876963D01*
X159346708Y-142944277D01*
X159309620Y-142994483D01*
X159290597Y-143020000D01*
X159284717Y-143027896D01*
X159274852Y-143045727D01*
X158790341Y-143045727D01*
X158841620Y-142989983D01*
X158941465Y-142879166D01*
X159031011Y-142777414D01*
X159106761Y-142688675D01*
X159165220Y-142616895D01*
X159202889Y-142566021D01*
X159216274Y-142540000D01*
X159201126Y-142529692D01*
X159161086Y-142525000D01*
X159155150Y-142525245D01*
X159131660Y-142531703D01*
X159103629Y-142549914D01*
X159067076Y-142583864D01*
X159018022Y-142637539D01*
X158952486Y-142714922D01*
X158866489Y-142820000D01*
X158699871Y-143017534D01*
X158449084Y-143292406D01*
X158174845Y-143571016D01*
X157884717Y-143846249D01*
X157586261Y-144110995D01*
X157287041Y-144358138D01*
X156994618Y-144580568D01*
X156946916Y-144615380D01*
X156870719Y-144671881D01*
X156806458Y-144720583D01*
X156764437Y-144753734D01*
X156744388Y-144770706D01*
X156717177Y-144796695D01*
X156004726Y-144796695D01*
X156082812Y-144754197D01*
X156202559Y-144685523D01*
X156240948Y-144662536D01*
X156693195Y-144373196D01*
X157128651Y-144058917D01*
X157553862Y-143714713D01*
X157975380Y-143335598D01*
X157996608Y-143315413D01*
X158087436Y-143226516D01*
X158187637Y-143125129D01*
X158292496Y-143016343D01*
X158397297Y-142905249D01*
X158497324Y-142796940D01*
X158587864Y-142696506D01*
X158664199Y-142609039D01*
X158721616Y-142539630D01*
X158755398Y-142493370D01*
X158766248Y-142472283D01*
X158768671Y-142431775D01*
X158738721Y-142411218D01*
X158679782Y-142414157D01*
X158673917Y-142415685D01*
X158637505Y-142434517D01*
X158591429Y-142473894D01*
X158531353Y-142537959D01*
X158452943Y-142630851D01*
X158422994Y-142666478D01*
X158347603Y-142751940D01*
X158253612Y-142854646D01*
X158147584Y-142967562D01*
X158036081Y-143083656D01*
X157925668Y-143195893D01*
X157684680Y-143430261D01*
X157250628Y-143816430D01*
X156803899Y-144167984D01*
X156340060Y-144488098D01*
X155854677Y-144779952D01*
X155343318Y-145046721D01*
X154966112Y-145221041D01*
X154397694Y-145450671D01*
X153846787Y-145635000D01*
X153828197Y-145641220D01*
X153258375Y-145792469D01*
X152688985Y-145904202D01*
X152120780Y-145976199D01*
X152082909Y-145979657D01*
X152001320Y-145987060D01*
X151902625Y-145995979D01*
X151800528Y-146005174D01*
X151756433Y-146008677D01*
X151623335Y-146015819D01*
X151463640Y-146020794D01*
X151286857Y-146023603D01*
X151102498Y-146024244D01*
X150920071Y-146022720D01*
X150749087Y-146019029D01*
X150599056Y-146013171D01*
X150479488Y-146005148D01*
X150414999Y-145999336D01*
X150308418Y-145989705D01*
X150211643Y-145980930D01*
X150139707Y-145974375D01*
X149952991Y-145953729D01*
X149722280Y-145921155D01*
X149477741Y-145880486D01*
X149232074Y-145833992D01*
X148997979Y-145783946D01*
X148788156Y-145732620D01*
X148458240Y-145635000D01*
X151390205Y-145635000D01*
X151400213Y-145645000D01*
X151410221Y-145635000D01*
X151570347Y-145635000D01*
X151580355Y-145645000D01*
X151590363Y-145635000D01*
X151580355Y-145625000D01*
X151570347Y-145635000D01*
X151410221Y-145635000D01*
X151400213Y-145625000D01*
X151390205Y-145635000D01*
X148458240Y-145635000D01*
X148388769Y-145614444D01*
X150434685Y-145614444D01*
X150452036Y-145618008D01*
X150499504Y-145619279D01*
X150536521Y-145618380D01*
X150558154Y-145615230D01*
X150548747Y-145612127D01*
X151712125Y-145612127D01*
X151721668Y-145615230D01*
X151745144Y-145622863D01*
X151812613Y-145628878D01*
X151907984Y-145630005D01*
X152025277Y-145626587D01*
X152158512Y-145618971D01*
X152301708Y-145607500D01*
X152448885Y-145592519D01*
X152594063Y-145574372D01*
X152731261Y-145553404D01*
X152845072Y-145533376D01*
X153440413Y-145404901D01*
X154024789Y-145238969D01*
X154596181Y-145036582D01*
X155152572Y-144798745D01*
X155691941Y-144526460D01*
X156212271Y-144220733D01*
X156711543Y-143882567D01*
X157187738Y-143512966D01*
X157638837Y-143112934D01*
X157748437Y-143007566D01*
X157860672Y-142896833D01*
X157969896Y-142786503D01*
X158072425Y-142680487D01*
X158164575Y-142582698D01*
X158242661Y-142497044D01*
X158302998Y-142427438D01*
X158341903Y-142377791D01*
X158355690Y-142352012D01*
X158352396Y-142335581D01*
X158321915Y-142307148D01*
X158267534Y-142295621D01*
X158199151Y-142304034D01*
X158177631Y-142311050D01*
X158129875Y-142337738D01*
X158078144Y-142384707D01*
X158014089Y-142458943D01*
X158001853Y-142473691D01*
X157946958Y-142535922D01*
X157871441Y-142617727D01*
X157781336Y-142712721D01*
X157682674Y-142814521D01*
X157581489Y-142916743D01*
X157533418Y-142964397D01*
X157091752Y-143371323D01*
X156625417Y-143747602D01*
X156136377Y-144091932D01*
X155626600Y-144403014D01*
X155098050Y-144679547D01*
X154552695Y-144920230D01*
X154475262Y-144950753D01*
X154222713Y-145043475D01*
X153947954Y-145135463D01*
X153659340Y-145224407D01*
X153365229Y-145307996D01*
X153073975Y-145383922D01*
X152793935Y-145449875D01*
X152533466Y-145503545D01*
X152300922Y-145542622D01*
X152258587Y-145548701D01*
X152126407Y-145567556D01*
X152025940Y-145581542D01*
X151995881Y-145585494D01*
X151950982Y-145591397D01*
X151917968Y-145595230D01*
X151895332Y-145597858D01*
X151852783Y-145601662D01*
X151817134Y-145603545D01*
X151782180Y-145604244D01*
X151764778Y-145604597D01*
X151724278Y-145607498D01*
X151712125Y-145612127D01*
X150548747Y-145612127D01*
X150544264Y-145610648D01*
X150499097Y-145607319D01*
X150444185Y-145610921D01*
X150434685Y-145614444D01*
X148388769Y-145614444D01*
X148211928Y-145562118D01*
X147622608Y-145348362D01*
X147053126Y-145100259D01*
X146504213Y-144818250D01*
X145976603Y-144502774D01*
X145471027Y-144154271D01*
X144988220Y-143773181D01*
X144528914Y-143359944D01*
X144093841Y-142915000D01*
X144011856Y-142824591D01*
X143677995Y-142431448D01*
X143372447Y-142027732D01*
X143091641Y-141607838D01*
X142832006Y-141166156D01*
X142589972Y-140697079D01*
X142361968Y-140195000D01*
X142242974Y-139907417D01*
X142082089Y-139480631D01*
X141946103Y-139064855D01*
X141832409Y-138650247D01*
X141738399Y-138226964D01*
X141661466Y-137785162D01*
X141599001Y-137315000D01*
X141589288Y-137221229D01*
X141573396Y-137012652D01*
X141562004Y-136781309D01*
X141555153Y-136536125D01*
X141553328Y-136335000D01*
X141712585Y-136335000D01*
X141712813Y-136537704D01*
X141713959Y-136733246D01*
X141716608Y-136902088D01*
X141721342Y-137051259D01*
X141728744Y-137187786D01*
X141739397Y-137318697D01*
X141753883Y-137451020D01*
X141772785Y-137591784D01*
X141796686Y-137748016D01*
X141826168Y-137926746D01*
X141861815Y-138135000D01*
X141873681Y-138200360D01*
X141923587Y-138433734D01*
X141988609Y-138691395D01*
X142066123Y-138964800D01*
X142153505Y-139245406D01*
X142248131Y-139524670D01*
X142347374Y-139794049D01*
X142448612Y-140045000D01*
X142536017Y-140242803D01*
X142773713Y-140716744D01*
X143049768Y-141187846D01*
X143362999Y-141654300D01*
X143712225Y-142114301D01*
X144096267Y-142566042D01*
X144245676Y-142728204D01*
X144642355Y-143121701D01*
X145067733Y-143494818D01*
X145517588Y-143844754D01*
X145987701Y-144168707D01*
X146473853Y-144463875D01*
X146971822Y-144727457D01*
X147477390Y-144956651D01*
X147986335Y-145148656D01*
X148009676Y-145156469D01*
X148200487Y-145215038D01*
X148421542Y-145275122D01*
X148664378Y-145334888D01*
X148920531Y-145392505D01*
X149181537Y-145446140D01*
X149438933Y-145493962D01*
X149684255Y-145534138D01*
X149909039Y-145564837D01*
X149954843Y-145570396D01*
X150036317Y-145580666D01*
X150099735Y-145589156D01*
X150134244Y-145594438D01*
X150152335Y-145595519D01*
X150153108Y-145594444D01*
X150214512Y-145594444D01*
X150231862Y-145598008D01*
X150279330Y-145599279D01*
X150316347Y-145598380D01*
X150337981Y-145595230D01*
X150324091Y-145590648D01*
X150278923Y-145587319D01*
X150224012Y-145590921D01*
X150214512Y-145594444D01*
X150153108Y-145594444D01*
X150159542Y-145585494D01*
X150159530Y-145585475D01*
X150136017Y-145575612D01*
X150083885Y-145564918D01*
X150014400Y-145555706D01*
X149973568Y-145551239D01*
X149747128Y-145519392D01*
X149497485Y-145474124D01*
X149233660Y-145417727D01*
X148964674Y-145352489D01*
X148699548Y-145280699D01*
X148447304Y-145204648D01*
X148216964Y-145126625D01*
X148017549Y-145048919D01*
X147633348Y-144881406D01*
X147254137Y-144705139D01*
X146904401Y-144529570D01*
X146578968Y-144351591D01*
X146272663Y-144168094D01*
X145980315Y-143975969D01*
X145696751Y-143772107D01*
X145416796Y-143553400D01*
X145135280Y-143316739D01*
X144924135Y-143125935D01*
X144565151Y-142766958D01*
X144218181Y-142376621D01*
X143886823Y-141960085D01*
X143574672Y-141522510D01*
X143285323Y-141069054D01*
X143022374Y-140604877D01*
X142789420Y-140135139D01*
X142590058Y-139665000D01*
X142553140Y-139568036D01*
X142358552Y-138992538D01*
X142202922Y-138410703D01*
X142086099Y-137824189D01*
X142007935Y-137234655D01*
X141968282Y-136643758D01*
X141967700Y-136377601D01*
X142103049Y-136377601D01*
X142125869Y-136973209D01*
X142188501Y-137566587D01*
X142290906Y-138156924D01*
X142433044Y-138743412D01*
X142614877Y-139325241D01*
X142687535Y-139525755D01*
X142895550Y-140029766D01*
X143134734Y-140521640D01*
X143402504Y-140997262D01*
X143696273Y-141452521D01*
X144013458Y-141883305D01*
X144351475Y-142285502D01*
X144707737Y-142655000D01*
X144809954Y-142752700D01*
X145060271Y-142982761D01*
X145303367Y-143191427D01*
X145549912Y-143387311D01*
X145810578Y-143579021D01*
X146096036Y-143775169D01*
X146208723Y-143848936D01*
X146381381Y-143957134D01*
X146559028Y-144063415D01*
X146736227Y-144164832D01*
X146907541Y-144258438D01*
X147067535Y-144341285D01*
X147210773Y-144410426D01*
X147331818Y-144462914D01*
X147425233Y-144495801D01*
X147449111Y-144503063D01*
X147521733Y-144527487D01*
X147617253Y-144561585D01*
X147726022Y-144601873D01*
X147838387Y-144644870D01*
X147989734Y-144701780D01*
X148241964Y-144789190D01*
X148505938Y-144872684D01*
X148773656Y-144950093D01*
X149037114Y-145019248D01*
X149288311Y-145077979D01*
X149519244Y-145124116D01*
X149721911Y-145155490D01*
X149752859Y-145159578D01*
X149812032Y-145168594D01*
X149848992Y-145175888D01*
X149856234Y-145177392D01*
X149899325Y-145183838D01*
X149971172Y-145193155D01*
X150063803Y-145204337D01*
X150169244Y-145216374D01*
X150316944Y-145229749D01*
X150510549Y-145241371D01*
X150726842Y-145249575D01*
X150956890Y-145254321D01*
X151191755Y-145255568D01*
X151422503Y-145253275D01*
X151640197Y-145247401D01*
X151835904Y-145237905D01*
X152000686Y-145224746D01*
X152250772Y-145196924D01*
X152488688Y-145165179D01*
X152718214Y-145128280D01*
X152950889Y-145084199D01*
X153198252Y-145030909D01*
X153471844Y-144966386D01*
X153541867Y-144949331D01*
X153661802Y-144920173D01*
X153772696Y-144893274D01*
X153864600Y-144871046D01*
X153927564Y-144855901D01*
X154003245Y-144835724D01*
X154150969Y-144788566D01*
X154322989Y-144726193D01*
X154512766Y-144651382D01*
X154713762Y-144566913D01*
X154919436Y-144475564D01*
X155123250Y-144380115D01*
X155318664Y-144283345D01*
X155499139Y-144188033D01*
X155934798Y-143934856D01*
X156375838Y-143645274D01*
X156798430Y-143330940D01*
X157209361Y-142986786D01*
X157615416Y-142607745D01*
X157714861Y-142509368D01*
X157805264Y-142416930D01*
X157870157Y-142345313D01*
X157911679Y-142291161D01*
X157931972Y-142251116D01*
X157933174Y-142221823D01*
X157917428Y-142199926D01*
X157886872Y-142182067D01*
X157881063Y-142179699D01*
X157822835Y-142169654D01*
X157751702Y-142172981D01*
X157727124Y-142177495D01*
X157691983Y-142189260D01*
X157655862Y-142211051D01*
X157612368Y-142247847D01*
X157555109Y-142304625D01*
X157477693Y-142386362D01*
X157356346Y-142511173D01*
X157193292Y-142668566D01*
X157010805Y-142836034D01*
X156816260Y-143007107D01*
X156617031Y-143175319D01*
X156420493Y-143334199D01*
X156234019Y-143477279D01*
X155974950Y-143660674D01*
X155671176Y-143856693D01*
X155354448Y-144043409D01*
X155034372Y-144215432D01*
X154720552Y-144367372D01*
X154422593Y-144493838D01*
X154372460Y-144513786D01*
X154268284Y-144557157D01*
X154169566Y-144600433D01*
X154092333Y-144636681D01*
X154033437Y-144665648D01*
X153960040Y-144699955D01*
X153890957Y-144729005D01*
X153817581Y-144755886D01*
X153731308Y-144783687D01*
X153623533Y-144815496D01*
X153485651Y-144854401D01*
X153285264Y-144908404D01*
X153074783Y-144960039D01*
X152867784Y-145004662D01*
X152655568Y-145043867D01*
X152429433Y-145079249D01*
X152180680Y-145112403D01*
X151900607Y-145144924D01*
X151821303Y-145151084D01*
X151707117Y-145156193D01*
X151567272Y-145160036D01*
X151409058Y-145162611D01*
X151239761Y-145163918D01*
X151066672Y-145163957D01*
X150897078Y-145162726D01*
X150738268Y-145160224D01*
X150597530Y-145156451D01*
X150482153Y-145151406D01*
X150399425Y-145145089D01*
X150376038Y-145142552D01*
X150276887Y-145131901D01*
X150182022Y-145121849D01*
X150109196Y-145114281D01*
X150003319Y-145101812D01*
X149815392Y-145073994D01*
X149606433Y-145037551D01*
X149386836Y-144994556D01*
X149166993Y-144947081D01*
X148957296Y-144897196D01*
X148768140Y-144846974D01*
X148720358Y-144833244D01*
X148525632Y-144773683D01*
X148327237Y-144707758D01*
X148130453Y-144637597D01*
X147940564Y-144565331D01*
X147762850Y-144493087D01*
X147602592Y-144422994D01*
X147465072Y-144357181D01*
X147355571Y-144297776D01*
X147279371Y-144246909D01*
X147259823Y-144232364D01*
X147196229Y-144190305D01*
X147115473Y-144141404D01*
X147030312Y-144093520D01*
X146781303Y-143953170D01*
X146337956Y-143672523D01*
X145902986Y-143358379D01*
X145481106Y-143014908D01*
X145077032Y-142646277D01*
X144695477Y-142256653D01*
X144341156Y-141850205D01*
X144018783Y-141431100D01*
X143953135Y-141338456D01*
X143643543Y-140862153D01*
X143364583Y-140364616D01*
X143117815Y-139849650D01*
X142904801Y-139321060D01*
X142727102Y-138782649D01*
X142586281Y-138238221D01*
X142483897Y-137691582D01*
X142429453Y-137262039D01*
X142389198Y-136704353D01*
X142384779Y-136335000D01*
X142533814Y-136335000D01*
X142534077Y-136447762D01*
X142536721Y-136692845D01*
X142542813Y-136909500D01*
X142553102Y-137105841D01*
X142568336Y-137289980D01*
X142589265Y-137470029D01*
X142616637Y-137654101D01*
X142651203Y-137850308D01*
X142693710Y-138066762D01*
X142718651Y-138184275D01*
X142839227Y-138660972D01*
X142990235Y-139140194D01*
X143168059Y-139612141D01*
X143369081Y-140067010D01*
X143589686Y-140495000D01*
X143881940Y-140982070D01*
X144213416Y-141460950D01*
X144574103Y-141914780D01*
X144962362Y-142341761D01*
X145376554Y-142740094D01*
X145815039Y-143107981D01*
X146276178Y-143443621D01*
X146336880Y-143484234D01*
X146485544Y-143580529D01*
X146633597Y-143672356D01*
X146776400Y-143757135D01*
X146909315Y-143832286D01*
X147027705Y-143895228D01*
X147126931Y-143943381D01*
X147202355Y-143974165D01*
X147249340Y-143985000D01*
X147256862Y-143985926D01*
X147300625Y-143998819D01*
X147370171Y-144024530D01*
X147457616Y-144060036D01*
X147555080Y-144102313D01*
X148029757Y-144299195D01*
X148582480Y-144489950D01*
X149143005Y-144642257D01*
X149714326Y-144756914D01*
X150299433Y-144834720D01*
X150372044Y-144840795D01*
X150502335Y-144848225D01*
X150657537Y-144854168D01*
X150830441Y-144858585D01*
X151013833Y-144861437D01*
X151200503Y-144862684D01*
X151383240Y-144862289D01*
X151554832Y-144860211D01*
X151708069Y-144856414D01*
X151835739Y-144850857D01*
X151930631Y-144843502D01*
X152023692Y-144832926D01*
X152131628Y-144819932D01*
X152243182Y-144805949D01*
X152347505Y-144792363D01*
X152433750Y-144780558D01*
X152491072Y-144771921D01*
X152538765Y-144763807D01*
X152995041Y-144674705D01*
X153433530Y-144566862D01*
X153872159Y-144435916D01*
X153955006Y-144409507D01*
X154064293Y-144375922D01*
X154159862Y-144347953D01*
X154233628Y-144327948D01*
X154277507Y-144318254D01*
X154287199Y-144316423D01*
X154341621Y-144300617D01*
X154420912Y-144272734D01*
X154515991Y-144236090D01*
X154617775Y-144194001D01*
X154882548Y-144075616D01*
X155391457Y-143817201D01*
X155875064Y-143528546D01*
X156335492Y-143208231D01*
X156774860Y-142854835D01*
X157195290Y-142466938D01*
X157240212Y-142422374D01*
X157328232Y-142333183D01*
X157403816Y-142254084D01*
X157462872Y-142189497D01*
X157501307Y-142143845D01*
X157515028Y-142121547D01*
X157511676Y-142098436D01*
X157479680Y-142056052D01*
X157418396Y-142032175D01*
X157333459Y-142029656D01*
X157322230Y-142030767D01*
X157287174Y-142035720D01*
X157255844Y-142045216D01*
X157222884Y-142063193D01*
X157182938Y-142093590D01*
X157130649Y-142140348D01*
X157060661Y-142207405D01*
X156967616Y-142298701D01*
X156725004Y-142529509D01*
X156388212Y-142821933D01*
X156042451Y-143088561D01*
X155677533Y-143337116D01*
X155283270Y-143575321D01*
X155220694Y-143610222D01*
X155125286Y-143661446D01*
X155017407Y-143717750D01*
X154903044Y-143776167D01*
X154788182Y-143833732D01*
X154678807Y-143887481D01*
X154580906Y-143934447D01*
X154500464Y-143971666D01*
X154443467Y-143996172D01*
X154415902Y-144005000D01*
X154393924Y-144016389D01*
X154360644Y-144047161D01*
X154332139Y-144073561D01*
X154279445Y-144108515D01*
X154205022Y-144146085D01*
X154104623Y-144188166D01*
X153974004Y-144236654D01*
X153808921Y-144293442D01*
X153466281Y-144400921D01*
X153105634Y-144497495D01*
X152731500Y-144580443D01*
X152330946Y-144652909D01*
X152321862Y-144654381D01*
X152070644Y-144686981D01*
X151789077Y-144709850D01*
X151485318Y-144723016D01*
X151167520Y-144726508D01*
X150843840Y-144720356D01*
X150522431Y-144704588D01*
X150211448Y-144679233D01*
X149919047Y-144644320D01*
X149752036Y-144617558D01*
X149523569Y-144573531D01*
X149278376Y-144519465D01*
X149027690Y-144458004D01*
X148782744Y-144391789D01*
X148554771Y-144323461D01*
X148469984Y-144295718D01*
X148307236Y-144238563D01*
X148139135Y-144175130D01*
X147971090Y-144107806D01*
X147808512Y-144038974D01*
X147656810Y-143971020D01*
X147521393Y-143906330D01*
X147407673Y-143847287D01*
X147321058Y-143796278D01*
X147266958Y-143755688D01*
X147258983Y-143748483D01*
X147208274Y-143709692D01*
X147133497Y-143658776D01*
X147043394Y-143601523D01*
X146946706Y-143543718D01*
X146893943Y-143512940D01*
X146512816Y-143274503D01*
X146140090Y-143011750D01*
X145765776Y-142717694D01*
X145765290Y-142717293D01*
X145663119Y-142628643D01*
X145541110Y-142515721D01*
X145405304Y-142384710D01*
X145261745Y-142241792D01*
X145116476Y-142093151D01*
X144975540Y-141944968D01*
X144844978Y-141803427D01*
X144730835Y-141674710D01*
X144639153Y-141565000D01*
X144376148Y-141218932D01*
X144051729Y-140735906D01*
X143763619Y-140236043D01*
X143511780Y-139719257D01*
X143296168Y-139185462D01*
X143116744Y-138634571D01*
X142973465Y-138066498D01*
X142964776Y-138025696D01*
X142915143Y-137760353D01*
X142871560Y-137472246D01*
X142835352Y-137173517D01*
X142807847Y-136876306D01*
X142790371Y-136592753D01*
X142784251Y-136335000D01*
X142954419Y-136335000D01*
X142954438Y-136364620D01*
X142955046Y-136583511D01*
X142956824Y-136769727D01*
X142960283Y-136929783D01*
X142965934Y-137070195D01*
X142974290Y-137197478D01*
X142985861Y-137318147D01*
X143001159Y-137438718D01*
X143020696Y-137565707D01*
X143044983Y-137705629D01*
X143074532Y-137865000D01*
X143097398Y-137979402D01*
X143164606Y-138268943D01*
X143246910Y-138573603D01*
X143340319Y-138879965D01*
X143440840Y-139174616D01*
X143544481Y-139444142D01*
X143579601Y-139526877D01*
X143650124Y-139683452D01*
X143731944Y-139856307D01*
X143819777Y-140034780D01*
X143908337Y-140208209D01*
X143992339Y-140365929D01*
X144066497Y-140497279D01*
X144140833Y-140620827D01*
X144441167Y-141073533D01*
X144775016Y-141510263D01*
X145138206Y-141926152D01*
X145526562Y-142316334D01*
X145935910Y-142675946D01*
X146069508Y-142782658D01*
X146232496Y-142906614D01*
X146399133Y-143027427D01*
X146565088Y-143142325D01*
X146726034Y-143248535D01*
X146877640Y-143343284D01*
X147015577Y-143423800D01*
X147135516Y-143487308D01*
X147233128Y-143531038D01*
X147304082Y-143552215D01*
X147326695Y-143557247D01*
X147394704Y-143579615D01*
X147478580Y-143613570D01*
X147565165Y-143653981D01*
X147581817Y-143662299D01*
X147890703Y-143804628D01*
X148228431Y-143939955D01*
X148584556Y-144064846D01*
X148948630Y-144175864D01*
X149310208Y-144269574D01*
X149658842Y-144342540D01*
X149799960Y-144367643D01*
X149946843Y-144391957D01*
X150079752Y-144411193D01*
X150212176Y-144427109D01*
X150357604Y-144441462D01*
X150529527Y-144456011D01*
X150769731Y-144471399D01*
X151313806Y-144478357D01*
X151861801Y-144447787D01*
X152408940Y-144380367D01*
X152950444Y-144276775D01*
X153481536Y-144137690D01*
X153997440Y-143963788D01*
X154020407Y-143955233D01*
X154121697Y-143919885D01*
X154214000Y-143891228D01*
X154287935Y-143872015D01*
X154334121Y-143865000D01*
X154368970Y-143860270D01*
X154428827Y-143841754D01*
X154512530Y-143807819D01*
X154623707Y-143756976D01*
X154765988Y-143687735D01*
X155116984Y-143505376D01*
X155477969Y-143297022D01*
X155817701Y-143076318D01*
X156145150Y-142837041D01*
X156469287Y-142572973D01*
X156799081Y-142277891D01*
X156855366Y-142225190D01*
X156945960Y-142138321D01*
X157011255Y-142071615D01*
X157054525Y-142021040D01*
X157079045Y-141982561D01*
X157088089Y-141952145D01*
X157084930Y-141925759D01*
X157080275Y-141916092D01*
X157044441Y-141884312D01*
X156991599Y-141861600D01*
X156939575Y-141856455D01*
X156920474Y-141858681D01*
X156874155Y-141862500D01*
X156859902Y-141868284D01*
X156817384Y-141897427D01*
X156755815Y-141946854D01*
X156681048Y-142011781D01*
X156598938Y-142087423D01*
X156254826Y-142394311D01*
X155856307Y-142708539D01*
X155440320Y-142996688D01*
X155013559Y-143254147D01*
X154582719Y-143476303D01*
X154573836Y-143480508D01*
X154478336Y-143528003D01*
X154391807Y-143574846D01*
X154323455Y-143615841D01*
X154282482Y-143645793D01*
X154282193Y-143646064D01*
X154222722Y-143687514D01*
X154128774Y-143735103D01*
X154005132Y-143787340D01*
X153856581Y-143842738D01*
X153687904Y-143899808D01*
X153503886Y-143957061D01*
X153309309Y-144013007D01*
X153108957Y-144066159D01*
X152907616Y-144115028D01*
X152710067Y-144158124D01*
X152521096Y-144193959D01*
X152510415Y-144195806D01*
X152314038Y-144228354D01*
X152138058Y-144254100D01*
X151973854Y-144273656D01*
X151812805Y-144287635D01*
X151646289Y-144296647D01*
X151465685Y-144301307D01*
X151262371Y-144302225D01*
X151027726Y-144300015D01*
X150887178Y-144297467D01*
X150598536Y-144287672D01*
X150335836Y-144271176D01*
X150089561Y-144246729D01*
X149850195Y-144213086D01*
X149608221Y-144168998D01*
X149354123Y-144113219D01*
X149078385Y-144044500D01*
X148940106Y-144006257D01*
X148766327Y-143953167D01*
X148585663Y-143893294D01*
X148402629Y-143828490D01*
X148221742Y-143760605D01*
X148047516Y-143691489D01*
X147884469Y-143622993D01*
X147737115Y-143556969D01*
X147609971Y-143495267D01*
X147507553Y-143439737D01*
X147434376Y-143392230D01*
X147394956Y-143354597D01*
X147383668Y-143342499D01*
X147340230Y-143308088D01*
X147272542Y-143260978D01*
X147187308Y-143205752D01*
X147091233Y-143146991D01*
X146946309Y-143058990D01*
X146567505Y-142808975D01*
X146210638Y-142541658D01*
X145866231Y-142249649D01*
X145524807Y-141925560D01*
X145221294Y-141605258D01*
X144862998Y-141176041D01*
X144537340Y-140724705D01*
X144245175Y-140252906D01*
X143987357Y-139762302D01*
X143764742Y-139254552D01*
X143578185Y-138731313D01*
X143428541Y-138194243D01*
X143316665Y-137645000D01*
X143258703Y-137235392D01*
X143213353Y-136673576D01*
X143210161Y-136357818D01*
X143354290Y-136357818D01*
X143355457Y-136540793D01*
X143358617Y-136714725D01*
X143363775Y-136871888D01*
X143370935Y-137004555D01*
X143380098Y-137105000D01*
X143421549Y-137407792D01*
X143498539Y-137853216D01*
X143592477Y-138272738D01*
X143705459Y-138673517D01*
X143839582Y-139062713D01*
X143996942Y-139447484D01*
X144179637Y-139834991D01*
X144310535Y-140084304D01*
X144548597Y-140487042D01*
X144818009Y-140885140D01*
X145122748Y-141284710D01*
X145195511Y-141370669D01*
X145294590Y-141480536D01*
X145411136Y-141604772D01*
X145538880Y-141737046D01*
X145671550Y-141871027D01*
X145802873Y-142000386D01*
X145926581Y-142118792D01*
X146036400Y-142219917D01*
X146126060Y-142297430D01*
X146211040Y-142366130D01*
X146365434Y-142486325D01*
X146524484Y-142604942D01*
X146684199Y-142719379D01*
X146840591Y-142827031D01*
X146989672Y-142925297D01*
X147127451Y-143011573D01*
X147249941Y-143083256D01*
X147353151Y-143137743D01*
X147433094Y-143172432D01*
X147485780Y-143184718D01*
X147494076Y-143185745D01*
X147539623Y-143199364D01*
X147610446Y-143226335D01*
X147698572Y-143263498D01*
X147796025Y-143307690D01*
X147808839Y-143313689D01*
X148285218Y-143519701D01*
X148759879Y-143690777D01*
X149240953Y-143829268D01*
X149736573Y-143937521D01*
X150254870Y-144017885D01*
X150277403Y-144020644D01*
X150488908Y-144040051D01*
X150729647Y-144052297D01*
X150990565Y-144057535D01*
X151262606Y-144055917D01*
X151536716Y-144047594D01*
X151803840Y-144032719D01*
X152054921Y-144011443D01*
X152280906Y-143983918D01*
X152390538Y-143966683D01*
X152628239Y-143922048D01*
X152880253Y-143866301D01*
X153137549Y-143801895D01*
X153391096Y-143731280D01*
X153631866Y-143656907D01*
X153850827Y-143581229D01*
X154038949Y-143506695D01*
X154071269Y-143494261D01*
X154147119Y-143473289D01*
X154211714Y-143465000D01*
X154223850Y-143464222D01*
X154288806Y-143448310D01*
X154381444Y-143413685D01*
X154497102Y-143362740D01*
X154631117Y-143297867D01*
X154778828Y-143221460D01*
X154935571Y-143135910D01*
X155096684Y-143043611D01*
X155257506Y-142946955D01*
X155413373Y-142848334D01*
X155588872Y-142729689D01*
X155806463Y-142571791D01*
X156023389Y-142403629D01*
X156230874Y-142232260D01*
X156420142Y-142064741D01*
X156582420Y-141908130D01*
X156638444Y-141850256D01*
X156672004Y-141811219D01*
X156685378Y-141784734D01*
X156682584Y-141762745D01*
X156667638Y-141737195D01*
X156656929Y-141723428D01*
X156599659Y-141685153D01*
X156526755Y-141670202D01*
X156453984Y-141682603D01*
X156446819Y-141686241D01*
X156406865Y-141714167D01*
X156346849Y-141762318D01*
X156273610Y-141825061D01*
X156193988Y-141896762D01*
X156110813Y-141971907D01*
X155843200Y-142195910D01*
X155552418Y-142415876D01*
X155247388Y-142625854D01*
X154937026Y-142819895D01*
X154630253Y-142992047D01*
X154335986Y-143136362D01*
X154286403Y-143159564D01*
X154204337Y-143201675D01*
X154137121Y-143240691D01*
X154095797Y-143270449D01*
X154075067Y-143288967D01*
X154039777Y-143315701D01*
X153996915Y-143340926D01*
X153940375Y-143367400D01*
X153864052Y-143397881D01*
X153761841Y-143435125D01*
X153627636Y-143481891D01*
X153229034Y-143607721D01*
X152694519Y-143740817D01*
X152157178Y-143834134D01*
X151617411Y-143887623D01*
X151075618Y-143901231D01*
X150532199Y-143874910D01*
X150364327Y-143859162D01*
X149945319Y-143805387D01*
X149544875Y-143731296D01*
X149150106Y-143634266D01*
X148748125Y-143511673D01*
X148603902Y-143462059D01*
X148434368Y-143399699D01*
X148270622Y-143335414D01*
X148117267Y-143271276D01*
X147978904Y-143209356D01*
X147860137Y-143151724D01*
X147765565Y-143100452D01*
X147699793Y-143057612D01*
X147667420Y-143025274D01*
X147658300Y-143012640D01*
X147617155Y-142976530D01*
X147561522Y-142942211D01*
X147519359Y-142919921D01*
X147419799Y-142863509D01*
X147301201Y-142792812D01*
X147172575Y-142713430D01*
X147042928Y-142630961D01*
X146921268Y-142551006D01*
X146816604Y-142479163D01*
X146639728Y-142350342D01*
X146208675Y-142002671D01*
X145807244Y-141628094D01*
X145435428Y-141226605D01*
X145093223Y-140798198D01*
X144780622Y-140342866D01*
X144497621Y-139860604D01*
X144463480Y-139796453D01*
X144295986Y-139450161D01*
X144140891Y-139077253D01*
X144001713Y-138688203D01*
X143881968Y-138293486D01*
X143785172Y-137903578D01*
X143714843Y-137528952D01*
X143680132Y-137278313D01*
X143631486Y-136726509D01*
X143624163Y-136294978D01*
X143775208Y-136294978D01*
X143775702Y-136476435D01*
X143777744Y-136652519D01*
X143781330Y-136816322D01*
X143786461Y-136960940D01*
X143793132Y-137079468D01*
X143801342Y-137165000D01*
X143805356Y-137194493D01*
X143897735Y-137743284D01*
X144020824Y-138267815D01*
X144175545Y-138770479D01*
X144362818Y-139253664D01*
X144583567Y-139719762D01*
X144838711Y-140171163D01*
X145129171Y-140610258D01*
X145285454Y-140821504D01*
X145621516Y-141227023D01*
X145987748Y-141609758D01*
X146380342Y-141966129D01*
X146795490Y-142292551D01*
X147229381Y-142585444D01*
X147309130Y-142634688D01*
X147463632Y-142727333D01*
X147588523Y-142797745D01*
X147685654Y-142846890D01*
X147756876Y-142875735D01*
X147804042Y-142885244D01*
X147814661Y-142886200D01*
X147866385Y-142899099D01*
X147938062Y-142923889D01*
X148017549Y-142956517D01*
X148360477Y-143101570D01*
X148816373Y-143270923D01*
X149256712Y-143406275D01*
X149683612Y-143508257D01*
X150099189Y-143577501D01*
X150138683Y-143582955D01*
X150217965Y-143594878D01*
X150299346Y-143607991D01*
X150314774Y-143610003D01*
X150377287Y-143614775D01*
X150470847Y-143619403D01*
X150589120Y-143623774D01*
X150725771Y-143627778D01*
X150874466Y-143631301D01*
X151028870Y-143634232D01*
X151182649Y-143636460D01*
X151329468Y-143637871D01*
X151462994Y-143638354D01*
X151576892Y-143637797D01*
X151664827Y-143636088D01*
X151720465Y-143633115D01*
X151750352Y-143630101D01*
X151831009Y-143621401D01*
X151924660Y-143610771D01*
X152020747Y-143599464D01*
X152108713Y-143588734D01*
X152177999Y-143579836D01*
X152218048Y-143574023D01*
X152227580Y-143572354D01*
X152277198Y-143563721D01*
X152349978Y-143551098D01*
X152433807Y-143536589D01*
X152664404Y-143491913D01*
X152934234Y-143429343D01*
X153204274Y-143356865D01*
X153461114Y-143278103D01*
X153691343Y-143196683D01*
X153715833Y-143187564D01*
X153810160Y-143156549D01*
X153901214Y-143131985D01*
X153972238Y-143118536D01*
X153986138Y-143116520D01*
X154070299Y-143093848D01*
X154181435Y-143051393D01*
X154314737Y-142991753D01*
X154465398Y-142917527D01*
X154628613Y-142831317D01*
X154799573Y-142735720D01*
X154973472Y-142633337D01*
X155145502Y-142526766D01*
X155310856Y-142418608D01*
X155464728Y-142311462D01*
X155493656Y-142290445D01*
X155618028Y-142197271D01*
X155743082Y-142099507D01*
X155864728Y-142000724D01*
X155978878Y-141904496D01*
X156081442Y-141814397D01*
X156168332Y-141733998D01*
X156235458Y-141666874D01*
X156278733Y-141616598D01*
X156294066Y-141586742D01*
X156290891Y-141565131D01*
X156259009Y-141518868D01*
X156199941Y-141486919D01*
X156122464Y-141475000D01*
X156106877Y-141475183D01*
X156063249Y-141480147D01*
X156024691Y-141496370D01*
X155980357Y-141529798D01*
X155919404Y-141586381D01*
X155686999Y-141794811D01*
X155403891Y-142017850D01*
X155094670Y-142233930D01*
X154766535Y-142438322D01*
X154426687Y-142626296D01*
X154082325Y-142793122D01*
X154051901Y-142806947D01*
X153957905Y-142851649D01*
X153877525Y-142892772D01*
X153818483Y-142926246D01*
X153788500Y-142948001D01*
X153782994Y-142953763D01*
X153724114Y-142994795D01*
X153625649Y-143041557D01*
X153487624Y-143094037D01*
X153310068Y-143152223D01*
X152873602Y-143274961D01*
X152443727Y-143369266D01*
X152016835Y-143434605D01*
X151582426Y-143472579D01*
X151130000Y-143484791D01*
X150991704Y-143483739D01*
X150853387Y-143480878D01*
X150725297Y-143476543D01*
X150617369Y-143471072D01*
X150539535Y-143464799D01*
X150514206Y-143462005D01*
X150417416Y-143451342D01*
X150326860Y-143441379D01*
X150259315Y-143433963D01*
X150223985Y-143429823D01*
X150082006Y-143409504D01*
X149917248Y-143381476D01*
X149741945Y-143348037D01*
X149568333Y-143311487D01*
X149408645Y-143274124D01*
X149284027Y-143241608D01*
X149106663Y-143190810D01*
X148927598Y-143134869D01*
X148751883Y-143075698D01*
X148584572Y-143015210D01*
X148430717Y-142955318D01*
X148295370Y-142897936D01*
X148183584Y-142844977D01*
X148100411Y-142798354D01*
X148050903Y-142759981D01*
X148050738Y-142759802D01*
X148005462Y-142721322D01*
X147938291Y-142676119D01*
X147863703Y-142633940D01*
X147767639Y-142583719D01*
X147440851Y-142394715D01*
X147102614Y-142172176D01*
X146756557Y-141918445D01*
X146683519Y-141860145D01*
X146547188Y-141743409D01*
X146396621Y-141606572D01*
X146238307Y-141456091D01*
X146078732Y-141298421D01*
X145924383Y-141140021D01*
X145781746Y-140987346D01*
X145657308Y-140846853D01*
X145557556Y-140725000D01*
X145247448Y-140294019D01*
X144963470Y-139834610D01*
X144716254Y-139360972D01*
X144506246Y-138874146D01*
X144333895Y-138375173D01*
X144199648Y-137865093D01*
X144103953Y-137344946D01*
X144097747Y-137299465D01*
X144083267Y-137174648D01*
X144068840Y-137027916D01*
X144055257Y-136869538D01*
X144043312Y-136709787D01*
X144033798Y-136558932D01*
X144027507Y-136427246D01*
X144026150Y-136366266D01*
X144186356Y-136366266D01*
X144187211Y-136524904D01*
X144190258Y-136678509D01*
X144195635Y-136823122D01*
X144203482Y-136954783D01*
X144213937Y-137069532D01*
X144225492Y-137166562D01*
X144311569Y-137695119D01*
X144434788Y-138209822D01*
X144594472Y-138709406D01*
X144789946Y-139192607D01*
X145020532Y-139658159D01*
X145285556Y-140104797D01*
X145584340Y-140531255D01*
X145916208Y-140936269D01*
X146280485Y-141318573D01*
X146676493Y-141676902D01*
X146798214Y-141775662D01*
X146948322Y-141890025D01*
X147108163Y-142005262D01*
X147273162Y-142118527D01*
X147438743Y-142226972D01*
X147600328Y-142327752D01*
X147753342Y-142418021D01*
X147893208Y-142494932D01*
X148015349Y-142555639D01*
X148115190Y-142597296D01*
X148188152Y-142617056D01*
X148198903Y-142618884D01*
X148258806Y-142634230D01*
X148343412Y-142660743D01*
X148443030Y-142695256D01*
X148547967Y-142734603D01*
X148579755Y-142746943D01*
X148941759Y-142878248D01*
X149288806Y-142985515D01*
X149633829Y-143072019D01*
X149989760Y-143141035D01*
X150369532Y-143195837D01*
X150429407Y-143202146D01*
X150538429Y-143210714D01*
X150668593Y-143218586D01*
X150812263Y-143225513D01*
X150961802Y-143231248D01*
X151109577Y-143235545D01*
X151247950Y-143238156D01*
X151369288Y-143238834D01*
X151465955Y-143237332D01*
X151530315Y-143233403D01*
X151562457Y-143229903D01*
X151632923Y-143222597D01*
X151722888Y-143213519D01*
X151820544Y-143203869D01*
X152040687Y-143178172D01*
X152371933Y-143125660D01*
X152705440Y-143057679D01*
X153027298Y-142977161D01*
X153323597Y-142887039D01*
X153353724Y-142877202D01*
X153455259Y-142847534D01*
X153554985Y-142822747D01*
X153635058Y-142807406D01*
X153654176Y-142804220D01*
X153755505Y-142777235D01*
X153883147Y-142730804D01*
X154031739Y-142667625D01*
X154195923Y-142590400D01*
X154370337Y-142501828D01*
X154549622Y-142404609D01*
X154728417Y-142301443D01*
X154901362Y-142195031D01*
X155063097Y-142088073D01*
X155144774Y-142030556D01*
X155259321Y-141946633D01*
X155378707Y-141856123D01*
X155497607Y-141763317D01*
X155610696Y-141672505D01*
X155712649Y-141587977D01*
X155798142Y-141514023D01*
X155861850Y-141454934D01*
X155898449Y-141415000D01*
X155909201Y-141394809D01*
X155907977Y-141348433D01*
X155876858Y-141306710D01*
X155822619Y-141276584D01*
X155752039Y-141265000D01*
X155751259Y-141265000D01*
X155711949Y-141267875D01*
X155674803Y-141279392D01*
X155631869Y-141304114D01*
X155575198Y-141346602D01*
X155496838Y-141411417D01*
X155374933Y-141512141D01*
X154963151Y-141821781D01*
X154538670Y-142094479D01*
X154099083Y-142331692D01*
X153641978Y-142534882D01*
X153636579Y-142537048D01*
X153540578Y-142577437D01*
X153454204Y-142617041D01*
X153386732Y-142651413D01*
X153347437Y-142676105D01*
X153301545Y-142705579D01*
X153211165Y-142746049D01*
X153089350Y-142788721D01*
X152940785Y-142832416D01*
X152770153Y-142875955D01*
X152582139Y-142918160D01*
X152381428Y-142957853D01*
X152172705Y-142993854D01*
X151960654Y-143024985D01*
X151822779Y-143039285D01*
X151650251Y-143050323D01*
X151455294Y-143057647D01*
X151246744Y-143061265D01*
X151033437Y-143061181D01*
X150824209Y-143057400D01*
X150627895Y-143049930D01*
X150453331Y-143038775D01*
X150309354Y-143023940D01*
X149933483Y-142964503D01*
X149427443Y-142852091D01*
X148941547Y-142705181D01*
X148842933Y-142670707D01*
X148724951Y-142627413D01*
X148636656Y-142591579D01*
X148572852Y-142560865D01*
X148528342Y-142532931D01*
X148497928Y-142505437D01*
X148481600Y-142491150D01*
X148430020Y-142457085D01*
X148357838Y-142416508D01*
X148275299Y-142375401D01*
X147974705Y-142224976D01*
X147544741Y-141973114D01*
X147134359Y-141688258D01*
X146745642Y-141372573D01*
X146380672Y-141028226D01*
X146041533Y-140657384D01*
X145730306Y-140262213D01*
X145449075Y-139844882D01*
X145199923Y-139407555D01*
X144984931Y-138952399D01*
X144903249Y-138752994D01*
X144772168Y-138390428D01*
X144665071Y-138028225D01*
X144580369Y-137658983D01*
X144516474Y-137275299D01*
X144471798Y-136869772D01*
X144456368Y-136621729D01*
X144605149Y-136621729D01*
X144605723Y-136711044D01*
X144609101Y-136812801D01*
X144615157Y-136920355D01*
X144623766Y-137027060D01*
X144634800Y-137126271D01*
X144680758Y-137429680D01*
X144781117Y-137908707D01*
X144914136Y-138370360D01*
X145081572Y-138820415D01*
X145285182Y-139264647D01*
X145334863Y-139361731D01*
X145588125Y-139804607D01*
X145872861Y-140224106D01*
X146187603Y-140618631D01*
X146530886Y-140986583D01*
X146901243Y-141326364D01*
X147297207Y-141636376D01*
X147717313Y-141915023D01*
X147845680Y-141990372D01*
X147988567Y-142069264D01*
X148134916Y-142145773D01*
X148278428Y-142216870D01*
X148412801Y-142279526D01*
X148531735Y-142330712D01*
X148628930Y-142367399D01*
X148698085Y-142386557D01*
X148706303Y-142388089D01*
X148776080Y-142404122D01*
X148870598Y-142429234D01*
X148978491Y-142460294D01*
X149088393Y-142494166D01*
X149370083Y-142579127D01*
X149685022Y-142660016D01*
X149999190Y-142724239D01*
X150329546Y-142775641D01*
X150368679Y-142780222D01*
X150473000Y-142789070D01*
X150604464Y-142797207D01*
X150754685Y-142804382D01*
X150915279Y-142810344D01*
X151077861Y-142814841D01*
X151234044Y-142817622D01*
X151375444Y-142818435D01*
X151493676Y-142817029D01*
X151580355Y-142813153D01*
X151734173Y-142799477D01*
X152080693Y-142755856D01*
X152425970Y-142695895D01*
X152751277Y-142622641D01*
X152826859Y-142604256D01*
X152942849Y-142578745D01*
X153052670Y-142557352D01*
X153140123Y-142543379D01*
X153241662Y-142524067D01*
X153392639Y-142480637D01*
X153566208Y-142417984D01*
X153757026Y-142338599D01*
X153959750Y-142244971D01*
X154169040Y-142139590D01*
X154379553Y-142024946D01*
X154585945Y-141903527D01*
X154782876Y-141777824D01*
X154784552Y-141776706D01*
X154889643Y-141704515D01*
X155000553Y-141624811D01*
X155112474Y-141541425D01*
X155220594Y-141458187D01*
X155320104Y-141378928D01*
X155406194Y-141307477D01*
X155474053Y-141247664D01*
X155518871Y-141203319D01*
X155535839Y-141178274D01*
X155536376Y-141142172D01*
X155515524Y-141087135D01*
X155463725Y-141055270D01*
X155379123Y-141045000D01*
X155353415Y-141045806D01*
X155317892Y-141051989D01*
X155280370Y-141067765D01*
X155233722Y-141097206D01*
X155170818Y-141144389D01*
X155084529Y-141213389D01*
X154900851Y-141356372D01*
X154495058Y-141635358D01*
X154067742Y-141881662D01*
X153622349Y-142093396D01*
X153162320Y-142268667D01*
X153112664Y-142285617D01*
X153001239Y-142325615D01*
X152899126Y-142364772D01*
X152815937Y-142399328D01*
X152761285Y-142425523D01*
X152706725Y-142450720D01*
X152599225Y-142486359D01*
X152461718Y-142521082D01*
X152300080Y-142554015D01*
X152120191Y-142584281D01*
X151927926Y-142611006D01*
X151729164Y-142633316D01*
X151529781Y-142650335D01*
X151335656Y-142661187D01*
X151152666Y-142665000D01*
X151142962Y-142664988D01*
X150940051Y-142659975D01*
X150725219Y-142646497D01*
X150503659Y-142625489D01*
X150280566Y-142597882D01*
X150061135Y-142564612D01*
X149850559Y-142526610D01*
X149654033Y-142484812D01*
X149476752Y-142440150D01*
X149323909Y-142393558D01*
X149200700Y-142345969D01*
X149112319Y-142298317D01*
X149079060Y-142278571D01*
X149009280Y-142243432D01*
X148921830Y-142203764D01*
X148828188Y-142164953D01*
X148742376Y-142129857D01*
X148555598Y-142046660D01*
X148355749Y-141950145D01*
X148155593Y-141846795D01*
X147967896Y-141743093D01*
X147805423Y-141645523D01*
X147683697Y-141566481D01*
X147271596Y-141269199D01*
X146888923Y-140945193D01*
X146536425Y-140595555D01*
X146214852Y-140221375D01*
X145924951Y-139823743D01*
X145667470Y-139403750D01*
X145443156Y-138962487D01*
X145252759Y-138501042D01*
X145097026Y-138020508D01*
X144978672Y-137530126D01*
X145129784Y-137530126D01*
X145131232Y-137565816D01*
X145142944Y-137633681D01*
X145163385Y-137726564D01*
X145190904Y-137837800D01*
X145223850Y-137960726D01*
X145260573Y-138088681D01*
X145299422Y-138215000D01*
X145302314Y-138224032D01*
X145468115Y-138675710D01*
X145669828Y-139112361D01*
X145905519Y-139531716D01*
X146173255Y-139931503D01*
X146471103Y-140309452D01*
X146797130Y-140663290D01*
X147149402Y-140990747D01*
X147525986Y-141289551D01*
X147924950Y-141557432D01*
X148344358Y-141792117D01*
X148459343Y-141848961D01*
X148622807Y-141925356D01*
X148783656Y-141995826D01*
X148936425Y-142058250D01*
X149075646Y-142110509D01*
X149195853Y-142150481D01*
X149291579Y-142176045D01*
X149357356Y-142185082D01*
X149368503Y-142185660D01*
X149421948Y-142192445D01*
X149502392Y-142205653D01*
X149600986Y-142223770D01*
X149708881Y-142245279D01*
X149711765Y-142245876D01*
X149843877Y-142272390D01*
X149989114Y-142300231D01*
X150130063Y-142326126D01*
X150249307Y-142346804D01*
X150283125Y-142352230D01*
X150375142Y-142364982D01*
X150471214Y-142374866D01*
X150578534Y-142382315D01*
X150704297Y-142387762D01*
X150855698Y-142391640D01*
X151039929Y-142394381D01*
X151161668Y-142395760D01*
X151308371Y-142397145D01*
X151427564Y-142397448D01*
X151526642Y-142396256D01*
X151612999Y-142393159D01*
X151694030Y-142387745D01*
X151777129Y-142379603D01*
X151869690Y-142368321D01*
X151979108Y-142353488D01*
X152112777Y-142334693D01*
X152206116Y-142321926D01*
X152321713Y-142307213D01*
X152423058Y-142295514D01*
X152501704Y-142287788D01*
X152549204Y-142285000D01*
X152606448Y-142280865D01*
X152716950Y-142260622D01*
X152853576Y-142225281D01*
X153010718Y-142176817D01*
X153182767Y-142117205D01*
X153364112Y-142048418D01*
X153549146Y-141972432D01*
X153732259Y-141891220D01*
X153907843Y-141806757D01*
X153910653Y-141805343D01*
X154065007Y-141724220D01*
X154223102Y-141634936D01*
X154381054Y-141540228D01*
X154534975Y-141442832D01*
X154680981Y-141345485D01*
X154815186Y-141250923D01*
X154933703Y-141161883D01*
X155032647Y-141081101D01*
X155108133Y-141011314D01*
X155156273Y-140955258D01*
X155173184Y-140915670D01*
X155172786Y-140906444D01*
X155149987Y-140852626D01*
X155096020Y-140817541D01*
X155016288Y-140805000D01*
X154999140Y-140805367D01*
X154956544Y-140811781D01*
X154913612Y-140830066D01*
X154860579Y-140865233D01*
X154787683Y-140922291D01*
X154567322Y-141090495D01*
X154203307Y-141330702D01*
X153813773Y-141546223D01*
X153403962Y-141734726D01*
X152979117Y-141893880D01*
X152544480Y-142021355D01*
X152105294Y-142114820D01*
X152080474Y-142119256D01*
X151976061Y-142140644D01*
X151873038Y-142165313D01*
X151790520Y-142188770D01*
X151720871Y-142206260D01*
X151597632Y-142224488D01*
X151447502Y-142236705D01*
X151277738Y-142243115D01*
X151095597Y-142243923D01*
X150908336Y-142239333D01*
X150723213Y-142229549D01*
X150547483Y-142214775D01*
X150388404Y-142195216D01*
X150253234Y-142171077D01*
X150149228Y-142142560D01*
X150087237Y-142122218D01*
X149997814Y-142095178D01*
X149893514Y-142065173D01*
X149786353Y-142035737D01*
X149705432Y-142013990D01*
X149551833Y-141971783D01*
X149424177Y-141934918D01*
X149313564Y-141900566D01*
X149211092Y-141865900D01*
X149107859Y-141828091D01*
X148994964Y-141784311D01*
X148915810Y-141752186D01*
X148615646Y-141616437D01*
X148311797Y-141458673D01*
X148015162Y-141285171D01*
X147736641Y-141102208D01*
X147487132Y-140916059D01*
X147453288Y-140888378D01*
X147334337Y-140785039D01*
X147200417Y-140661370D01*
X147059175Y-140524998D01*
X146918254Y-140383548D01*
X146785300Y-140244647D01*
X146667958Y-140115922D01*
X146573872Y-140005000D01*
X146487863Y-139895561D01*
X146239831Y-139548098D01*
X146020752Y-139187497D01*
X145826074Y-138805818D01*
X145676736Y-138455000D01*
X145841134Y-138455000D01*
X145855036Y-138515000D01*
X145862257Y-138539685D01*
X145889914Y-138611037D01*
X145932347Y-138706244D01*
X145986001Y-138818178D01*
X146047321Y-138939711D01*
X146112755Y-139063715D01*
X146178748Y-139183062D01*
X146241746Y-139290624D01*
X146270907Y-139338102D01*
X146535070Y-139726764D01*
X146828533Y-140090559D01*
X147149059Y-140428035D01*
X147494416Y-140737738D01*
X147862369Y-141018216D01*
X148250682Y-141268018D01*
X148657120Y-141485690D01*
X149079450Y-141669779D01*
X149515437Y-141818834D01*
X149962845Y-141931402D01*
X150419441Y-142006031D01*
X150474425Y-142011408D01*
X150579092Y-142018355D01*
X150707839Y-142024318D01*
X150853549Y-142029197D01*
X151009102Y-142032894D01*
X151167381Y-142035308D01*
X151321265Y-142036340D01*
X151463636Y-142035890D01*
X151587377Y-142033858D01*
X151685367Y-142030146D01*
X151750489Y-142024653D01*
X151813100Y-142016017D01*
X151899187Y-142004242D01*
X151967640Y-141994984D01*
X151969396Y-141994749D01*
X152176579Y-141960369D01*
X152407310Y-141910726D01*
X152649666Y-141848860D01*
X152891727Y-141777813D01*
X153121568Y-141700626D01*
X153180032Y-141678722D01*
X153340825Y-141612381D01*
X153519479Y-141531749D01*
X153704943Y-141442254D01*
X153886168Y-141349324D01*
X154052105Y-141258388D01*
X154191705Y-141174875D01*
X154278777Y-141118233D01*
X154389249Y-141043287D01*
X154499091Y-140965890D01*
X154601709Y-140890878D01*
X154690506Y-140823089D01*
X154758889Y-140767361D01*
X154800261Y-140728530D01*
X154824966Y-140685691D01*
X154823393Y-140633743D01*
X154791225Y-140588710D01*
X154733519Y-140556994D01*
X154655331Y-140545000D01*
X154630201Y-140549088D01*
X154564745Y-140579631D01*
X154481135Y-140638055D01*
X154271082Y-140792489D01*
X153965770Y-140987830D01*
X153638238Y-141168448D01*
X153298372Y-141329377D01*
X152956056Y-141465652D01*
X152621174Y-141572308D01*
X152360869Y-141639723D01*
X152121732Y-141691644D01*
X151893567Y-141729133D01*
X151663884Y-141753886D01*
X151420197Y-141767598D01*
X151150016Y-141771964D01*
X150943590Y-141770240D01*
X150751822Y-141763449D01*
X150575860Y-141750361D01*
X150403335Y-141729764D01*
X150221880Y-141700446D01*
X150019125Y-141661197D01*
X149916188Y-141638845D01*
X149517296Y-141529673D01*
X149119330Y-141386286D01*
X148729318Y-141212053D01*
X148354288Y-141010347D01*
X148001267Y-140784537D01*
X147677281Y-140537994D01*
X147375248Y-140265656D01*
X147069204Y-139944274D01*
X146781471Y-139593678D01*
X146617013Y-139361105D01*
X146789117Y-139361105D01*
X146804378Y-139394957D01*
X146841747Y-139451535D01*
X146897536Y-139526367D01*
X146968056Y-139614986D01*
X147049618Y-139712921D01*
X147138533Y-139815704D01*
X147231114Y-139918864D01*
X147323672Y-140017934D01*
X147412517Y-140108443D01*
X147509586Y-140202142D01*
X147801704Y-140457740D01*
X148108474Y-140686446D01*
X148437945Y-140893936D01*
X148798164Y-141085888D01*
X148840571Y-141106565D01*
X149198642Y-141265631D01*
X149554329Y-141394258D01*
X149920333Y-141496571D01*
X150309354Y-141576694D01*
X150358773Y-141584337D01*
X150449468Y-141594430D01*
X150559852Y-141602281D01*
X150695005Y-141608149D01*
X150860009Y-141612295D01*
X151059945Y-141614977D01*
X151159318Y-141615878D01*
X151319264Y-141617047D01*
X151448786Y-141617244D01*
X151554159Y-141616135D01*
X151641660Y-141613385D01*
X151717563Y-141608661D01*
X151788144Y-141601631D01*
X151859679Y-141591959D01*
X151938442Y-141579312D01*
X152030709Y-141563357D01*
X152316927Y-141506109D01*
X152744516Y-141391469D01*
X153154094Y-141244126D01*
X153549931Y-141062258D01*
X153936295Y-140844044D01*
X154317455Y-140587662D01*
X154329674Y-140578731D01*
X154415025Y-140511255D01*
X154467057Y-140457091D01*
X154487898Y-140411950D01*
X154479677Y-140371541D01*
X154444523Y-140331572D01*
X154431014Y-140320924D01*
X154355017Y-140288422D01*
X154274361Y-140292314D01*
X154198951Y-140332559D01*
X154197881Y-140333457D01*
X154076679Y-140426331D01*
X153925976Y-140527859D01*
X153753932Y-140633415D01*
X153568705Y-140738374D01*
X153378454Y-140838111D01*
X153191340Y-140928001D01*
X153015520Y-141003418D01*
X152795627Y-141085086D01*
X152373034Y-141210703D01*
X151944828Y-141298512D01*
X151513523Y-141348914D01*
X151081636Y-141362312D01*
X150651682Y-141339110D01*
X150226177Y-141279710D01*
X149807637Y-141184515D01*
X149398578Y-141053928D01*
X149001515Y-140888350D01*
X148618965Y-140688186D01*
X148253442Y-140453837D01*
X147907463Y-140185707D01*
X147866652Y-140151140D01*
X148094804Y-140151140D01*
X148095448Y-140154398D01*
X148116836Y-140176596D01*
X148161286Y-140213827D01*
X148221883Y-140260160D01*
X148548837Y-140481243D01*
X148932854Y-140695860D01*
X149334501Y-140875708D01*
X149750837Y-141019637D01*
X150178922Y-141126498D01*
X150615814Y-141195144D01*
X150729700Y-141206445D01*
X151161431Y-141224210D01*
X151594254Y-141203207D01*
X152024430Y-141144073D01*
X152448219Y-141047446D01*
X152861882Y-140913962D01*
X153261679Y-140744259D01*
X153296160Y-140727507D01*
X153424910Y-140661291D01*
X153556401Y-140588615D01*
X153685858Y-140512603D01*
X153808504Y-140436380D01*
X153919561Y-140363073D01*
X154014254Y-140295806D01*
X154087806Y-140237704D01*
X154135440Y-140191893D01*
X154152380Y-140161497D01*
X154151015Y-140141676D01*
X154143924Y-140125000D01*
X154142018Y-140125480D01*
X154113604Y-140136527D01*
X154057252Y-140159968D01*
X153979958Y-140192862D01*
X153888723Y-140232266D01*
X153793233Y-140272674D01*
X153659896Y-140326618D01*
X153526707Y-140378244D01*
X153411797Y-140420400D01*
X153322347Y-140452169D01*
X153190096Y-140499921D01*
X153053616Y-140549891D01*
X152931419Y-140595340D01*
X152720896Y-140671751D01*
X152442533Y-140762259D01*
X152182270Y-140832536D01*
X151931530Y-140884264D01*
X151681739Y-140919129D01*
X151424322Y-140938812D01*
X151150704Y-140945000D01*
X150902811Y-140940013D01*
X150620236Y-140919315D01*
X150347412Y-140880949D01*
X150069165Y-140823205D01*
X150056476Y-140820138D01*
X149946651Y-140790911D01*
X149807186Y-140750272D01*
X149644885Y-140700491D01*
X149466552Y-140643842D01*
X149278990Y-140582598D01*
X149089003Y-140519030D01*
X148903395Y-140455412D01*
X148728970Y-140394017D01*
X148572530Y-140337116D01*
X148440881Y-140286983D01*
X148340824Y-140245890D01*
X148324961Y-140238989D01*
X148237581Y-140202045D01*
X148165345Y-140173260D01*
X148115378Y-140155377D01*
X148094804Y-140151140D01*
X147866652Y-140151140D01*
X147838505Y-140127299D01*
X147745024Y-140048538D01*
X147657116Y-139974882D01*
X147587211Y-139916770D01*
X147548578Y-139885922D01*
X147478874Y-139832755D01*
X147393663Y-139769615D01*
X147298249Y-139700244D01*
X147197939Y-139628385D01*
X147098037Y-139557781D01*
X147003849Y-139492174D01*
X146920680Y-139435308D01*
X146853835Y-139390924D01*
X146808619Y-139362767D01*
X146790337Y-139354579D01*
X146789117Y-139361105D01*
X146617013Y-139361105D01*
X146516366Y-139218772D01*
X146481769Y-139168824D01*
X146400031Y-139062561D01*
X146296825Y-138938987D01*
X146177437Y-138804161D01*
X146047153Y-138664145D01*
X145911260Y-138525000D01*
X145841134Y-138455000D01*
X145676736Y-138455000D01*
X145651245Y-138395117D01*
X145616616Y-138308144D01*
X145568982Y-138197772D01*
X145519370Y-138096568D01*
X145462277Y-137994235D01*
X145392197Y-137880477D01*
X145303624Y-137745000D01*
X145298531Y-137737356D01*
X145227816Y-137634280D01*
X145175957Y-137565182D01*
X145143198Y-137530363D01*
X145129784Y-137530126D01*
X144978672Y-137530126D01*
X144976705Y-137521975D01*
X144958872Y-137435962D01*
X144932503Y-137315945D01*
X144906997Y-137207304D01*
X144884561Y-137119344D01*
X144867405Y-137061373D01*
X144850219Y-137014140D01*
X144818564Y-136933175D01*
X144780835Y-136841120D01*
X144740510Y-136746019D01*
X144701068Y-136655914D01*
X144665988Y-136578847D01*
X144638750Y-136522862D01*
X144622832Y-136496000D01*
X144621517Y-136494895D01*
X144612920Y-136507009D01*
X144607506Y-136551502D01*
X144605149Y-136621729D01*
X144456368Y-136621729D01*
X144444752Y-136435000D01*
X144442871Y-136391577D01*
X144436135Y-136258083D01*
X144428554Y-136134680D01*
X144420670Y-136028841D01*
X144413019Y-135948036D01*
X144406142Y-135899739D01*
X144395343Y-135852737D01*
X144376471Y-135775837D01*
X144353292Y-135684430D01*
X144328578Y-135589187D01*
X144305100Y-135500777D01*
X144285633Y-135429870D01*
X144272947Y-135387137D01*
X144267787Y-135374262D01*
X144254365Y-135365436D01*
X144241746Y-135391175D01*
X144230068Y-135447520D01*
X144219471Y-135530510D01*
X144210093Y-135636187D01*
X144202074Y-135760589D01*
X144195552Y-135899758D01*
X144190665Y-136049734D01*
X144187554Y-136206556D01*
X144186356Y-136366266D01*
X144026150Y-136366266D01*
X144025232Y-136325000D01*
X144026235Y-136250932D01*
X144032722Y-136094385D01*
X144044393Y-135916795D01*
X144060268Y-135728335D01*
X144079367Y-135539178D01*
X144100711Y-135359496D01*
X144123318Y-135199462D01*
X144146209Y-135069250D01*
X144152267Y-135018127D01*
X144155021Y-134939797D01*
X144154350Y-134843500D01*
X144150727Y-134735674D01*
X144144624Y-134622761D01*
X144136514Y-134511200D01*
X144126868Y-134407430D01*
X144116159Y-134317893D01*
X144104860Y-134249027D01*
X144093443Y-134207273D01*
X144082380Y-134199070D01*
X144073680Y-134212755D01*
X144053651Y-134265169D01*
X144028958Y-134348804D01*
X144000747Y-134458352D01*
X143970160Y-134588507D01*
X143938342Y-134733961D01*
X143906438Y-134889409D01*
X143875591Y-135049544D01*
X143846945Y-135209058D01*
X143821645Y-135362646D01*
X143800834Y-135505000D01*
X143796022Y-135548770D01*
X143788747Y-135653516D01*
X143783031Y-135787415D01*
X143778870Y-135943562D01*
X143776263Y-136115052D01*
X143775208Y-136294978D01*
X143624163Y-136294978D01*
X143622221Y-136180556D01*
X143652451Y-135638940D01*
X143722292Y-135100150D01*
X143831858Y-134562674D01*
X143981265Y-134025000D01*
X144011859Y-133922058D01*
X144042283Y-133808228D01*
X144066766Y-133704597D01*
X144077584Y-133647438D01*
X147250707Y-133647438D01*
X147252889Y-133701890D01*
X147263389Y-133763308D01*
X147263448Y-133763595D01*
X147272585Y-133828737D01*
X147280065Y-133921475D01*
X147285119Y-134029490D01*
X147286974Y-134140463D01*
X147287524Y-134227511D01*
X147290677Y-134323249D01*
X147297527Y-134394926D01*
X147309085Y-134451858D01*
X147326361Y-134503365D01*
X147345524Y-134556147D01*
X147376369Y-134658278D01*
X147402394Y-134764495D01*
X147420374Y-134861007D01*
X147427084Y-134934024D01*
X147427530Y-134942415D01*
X147442328Y-135002141D01*
X147476065Y-135086660D01*
X147526004Y-135188918D01*
X147550957Y-135238144D01*
X147596157Y-135335492D01*
X147634258Y-135427545D01*
X147658946Y-135499546D01*
X147703642Y-135613132D01*
X147769769Y-135718411D01*
X147856967Y-135833221D01*
X147940586Y-135959394D01*
X148014637Y-136092665D01*
X148073327Y-136185925D01*
X148166331Y-136276399D01*
X148209349Y-136311305D01*
X148278060Y-136377644D01*
X148337802Y-136446256D01*
X148388286Y-136511292D01*
X148443701Y-136580150D01*
X148487024Y-136628650D01*
X148525148Y-136663655D01*
X148564970Y-136692032D01*
X148613384Y-136720646D01*
X148643664Y-136739350D01*
X148715210Y-136790289D01*
X148796446Y-136854371D01*
X148874995Y-136922066D01*
X148970081Y-137003025D01*
X149050358Y-137058339D01*
X149115145Y-137086488D01*
X149118997Y-137087538D01*
X149197978Y-137116870D01*
X149293617Y-137163065D01*
X149391872Y-137218777D01*
X149478700Y-137276662D01*
X149486844Y-137282572D01*
X149620279Y-137353344D01*
X149779269Y-137393684D01*
X149784540Y-137394516D01*
X149845491Y-137407922D01*
X149932102Y-137431158D01*
X150033602Y-137461193D01*
X150139220Y-137494995D01*
X150143913Y-137496555D01*
X150255379Y-137531485D01*
X150367666Y-137563220D01*
X150467940Y-137588318D01*
X150543369Y-137603340D01*
X150579533Y-137608071D01*
X150712590Y-137617669D01*
X150881722Y-137620550D01*
X151084390Y-137616706D01*
X151318056Y-137606126D01*
X151415204Y-137599179D01*
X151479416Y-137590413D01*
X151517681Y-137578402D01*
X151537042Y-137561719D01*
X151544290Y-137540770D01*
X151536933Y-137485286D01*
X151504761Y-137417499D01*
X151452197Y-137345602D01*
X151383668Y-137277788D01*
X151341637Y-137238298D01*
X151276109Y-137163229D01*
X151225540Y-137089771D01*
X151198267Y-137045628D01*
X151149504Y-136978828D01*
X151104793Y-136929771D01*
X151090679Y-136917081D01*
X151031681Y-136863424D01*
X150973119Y-136809475D01*
X150951824Y-136791136D01*
X150896913Y-136753515D01*
X150851173Y-136733905D01*
X150801166Y-136721647D01*
X150739693Y-136702513D01*
X150727735Y-136698870D01*
X150670024Y-136686797D01*
X150590341Y-136674768D01*
X150502180Y-136664919D01*
X150460629Y-136660726D01*
X150363722Y-136645665D01*
X150284543Y-136622483D01*
X150206655Y-136586836D01*
X150145479Y-136558049D01*
X150080005Y-136533975D01*
X150033845Y-136524560D01*
X149971005Y-136513379D01*
X149890659Y-136483232D01*
X149811270Y-136441409D01*
X149748913Y-136395209D01*
X149715707Y-136370510D01*
X149651514Y-136334887D01*
X149578779Y-136303419D01*
X149472842Y-136251667D01*
X149362187Y-136161712D01*
X149310369Y-136113511D01*
X149245027Y-136061159D01*
X149190688Y-136026129D01*
X149168753Y-136013572D01*
X149104078Y-135964863D01*
X149040290Y-135903562D01*
X148988388Y-135840969D01*
X148959366Y-135788386D01*
X148944498Y-135764257D01*
X148903529Y-135721707D01*
X148848402Y-135677051D01*
X148827953Y-135661815D01*
X148772495Y-135610791D01*
X148726380Y-135547611D01*
X148679412Y-135459128D01*
X148671783Y-135443547D01*
X148632388Y-135369978D01*
X148594743Y-135309269D01*
X148566077Y-135273277D01*
X148552536Y-135260076D01*
X148493373Y-135180363D01*
X148443374Y-135079036D01*
X148410302Y-134971150D01*
X148390956Y-134904035D01*
X148357492Y-134817434D01*
X148318244Y-134734489D01*
X148300957Y-134701080D01*
X148268145Y-134625943D01*
X148252024Y-134559790D01*
X148247731Y-134485445D01*
X148243056Y-134418021D01*
X148227458Y-134322326D01*
X148204700Y-134232106D01*
X148204291Y-134230802D01*
X148189691Y-134182574D01*
X148178843Y-134139335D01*
X148171429Y-134094663D01*
X148167134Y-134042134D01*
X148165641Y-133975326D01*
X148166634Y-133887817D01*
X148169796Y-133773182D01*
X148174812Y-133625000D01*
X148177649Y-133528730D01*
X148177891Y-133417132D01*
X148171850Y-133333177D01*
X148157666Y-133269607D01*
X148133481Y-133219166D01*
X148097437Y-133174598D01*
X148047673Y-133128645D01*
X147999789Y-133083397D01*
X147945225Y-133021576D01*
X147909269Y-132968537D01*
X147885027Y-132930768D01*
X147833792Y-132869788D01*
X147774448Y-132812860D01*
X147731312Y-132772712D01*
X147674935Y-132709436D01*
X147636324Y-132653063D01*
X147624983Y-132633344D01*
X147591146Y-132589326D01*
X147561608Y-132568695D01*
X147557257Y-132568070D01*
X147513494Y-132582439D01*
X147469463Y-132629164D01*
X147428378Y-132701477D01*
X147393449Y-132792611D01*
X147367888Y-132895797D01*
X147354906Y-133004268D01*
X147348567Y-133099046D01*
X147335381Y-133213987D01*
X147314314Y-133332665D01*
X147282743Y-133472104D01*
X147274924Y-133504838D01*
X147257750Y-133586303D01*
X147250707Y-133647438D01*
X144077584Y-133647438D01*
X144081830Y-133625000D01*
X144081985Y-133623939D01*
X144094200Y-133531513D01*
X144106083Y-133426483D01*
X144117028Y-133316324D01*
X144126430Y-133208514D01*
X144133683Y-133110532D01*
X144138181Y-133029855D01*
X144139318Y-132973961D01*
X144136488Y-132950328D01*
X144122812Y-132959128D01*
X144097330Y-133000500D01*
X144062434Y-133069874D01*
X144020192Y-133162316D01*
X143972669Y-133272890D01*
X143921935Y-133396660D01*
X143870056Y-133528692D01*
X143819099Y-133664049D01*
X143771132Y-133797797D01*
X143728222Y-133925000D01*
X143698770Y-134017326D01*
X143612992Y-134309769D01*
X143540594Y-134599013D01*
X143479285Y-134895804D01*
X143426775Y-135210885D01*
X143380774Y-135555000D01*
X143378252Y-135577752D01*
X143369498Y-135690035D01*
X143362722Y-135831910D01*
X143357926Y-135995650D01*
X143355114Y-136173529D01*
X143354290Y-136357818D01*
X143210161Y-136357818D01*
X143207703Y-136114756D01*
X143241598Y-135560007D01*
X143314885Y-135010405D01*
X143427408Y-134467027D01*
X143579013Y-133930949D01*
X143769547Y-133403248D01*
X143998855Y-132885000D01*
X144064017Y-132749094D01*
X144124970Y-132616797D01*
X144174960Y-132499675D01*
X144218089Y-132386924D01*
X144258458Y-132267740D01*
X144300166Y-132131317D01*
X144347315Y-131966852D01*
X144360405Y-131920378D01*
X144388459Y-131821115D01*
X144412268Y-131737318D01*
X144429646Y-131676669D01*
X144438406Y-131646852D01*
X144438683Y-131640063D01*
X144422861Y-131646064D01*
X144390326Y-131676069D01*
X144367362Y-131703632D01*
X144320464Y-131768760D01*
X144260289Y-131858978D01*
X144190501Y-131968497D01*
X144114769Y-132091532D01*
X144036759Y-132222295D01*
X143960138Y-132355000D01*
X143789777Y-132676722D01*
X143605126Y-133078699D01*
X143438130Y-133501803D01*
X143292124Y-133936786D01*
X143170444Y-134374398D01*
X143076425Y-134805392D01*
X143053849Y-134927393D01*
X143027907Y-135072098D01*
X143006893Y-135198715D01*
X142990292Y-135313700D01*
X142977590Y-135423505D01*
X142968272Y-135534586D01*
X142961822Y-135653395D01*
X142957727Y-135786386D01*
X142955471Y-135940015D01*
X142954540Y-136120735D01*
X142954419Y-136335000D01*
X142784251Y-136335000D01*
X142784740Y-136288392D01*
X142788790Y-136164647D01*
X142796349Y-136015790D01*
X142806709Y-135851776D01*
X142819160Y-135682560D01*
X142832995Y-135518097D01*
X142847505Y-135368342D01*
X142861980Y-135243249D01*
X142938149Y-134768237D01*
X143064167Y-134213679D01*
X143228604Y-133667705D01*
X143430738Y-133132410D01*
X143669848Y-132609885D01*
X143945211Y-132102223D01*
X143984020Y-132036853D01*
X144033888Y-131955313D01*
X144087623Y-131870563D01*
X144148476Y-131777726D01*
X144219701Y-131671926D01*
X144304547Y-131548285D01*
X144406266Y-131401927D01*
X144528112Y-131227974D01*
X144538226Y-131213212D01*
X144580911Y-131145798D01*
X144632328Y-131058663D01*
X144689631Y-130957262D01*
X144749978Y-130847048D01*
X144810525Y-130733476D01*
X144868429Y-130621999D01*
X144920845Y-130518071D01*
X144964930Y-130427146D01*
X144997841Y-130354678D01*
X145016734Y-130306121D01*
X145018765Y-130286928D01*
X145014686Y-130287063D01*
X144985562Y-130306293D01*
X144936038Y-130351651D01*
X144869664Y-130419135D01*
X144789986Y-130504745D01*
X144700553Y-130604480D01*
X144604912Y-130714339D01*
X144506612Y-130830322D01*
X144409201Y-130948427D01*
X144316226Y-131064653D01*
X144231235Y-131175000D01*
X143949730Y-131574048D01*
X143655493Y-132053375D01*
X143391562Y-132554570D01*
X143159770Y-133073480D01*
X142961952Y-133605956D01*
X142799944Y-134147846D01*
X142675578Y-134695000D01*
X142641796Y-134876084D01*
X142610852Y-135056084D01*
X142586251Y-135221043D01*
X142567315Y-135378818D01*
X142553363Y-135537269D01*
X142543716Y-135704254D01*
X142537695Y-135887632D01*
X142534621Y-136095261D01*
X142533814Y-136335000D01*
X142384779Y-136335000D01*
X142382533Y-136147325D01*
X142409321Y-135596436D01*
X142469425Y-135057168D01*
X142562709Y-134535000D01*
X142694496Y-133997990D01*
X142869434Y-133438853D01*
X143079323Y-132897773D01*
X143324736Y-132373641D01*
X143606240Y-131865344D01*
X143924408Y-131371773D01*
X144279808Y-130891818D01*
X144673011Y-130424368D01*
X144747241Y-130340038D01*
X144811577Y-130262978D01*
X144852613Y-130207476D01*
X144873034Y-130169849D01*
X144875524Y-130146412D01*
X144850958Y-130101265D01*
X144801086Y-130071352D01*
X144721474Y-130061340D01*
X144680755Y-130062442D01*
X144646543Y-130070952D01*
X144612325Y-130092549D01*
X144569283Y-130132875D01*
X144508598Y-130197574D01*
X144423805Y-130290983D01*
X144033853Y-130755507D01*
X143678375Y-131240195D01*
X143356742Y-131746024D01*
X143068324Y-132273967D01*
X142812492Y-132825000D01*
X142791478Y-132875360D01*
X142727801Y-133037874D01*
X142659449Y-133224573D01*
X142589809Y-133425291D01*
X142522268Y-133629859D01*
X142460213Y-133828112D01*
X142407031Y-134009881D01*
X142366109Y-134165000D01*
X142273850Y-134585482D01*
X142177001Y-135182928D01*
X142120080Y-135780570D01*
X142103049Y-136377601D01*
X141967700Y-136377601D01*
X141966990Y-136053157D01*
X142003910Y-135464509D01*
X142078894Y-134879472D01*
X142191793Y-134299705D01*
X142342458Y-133726865D01*
X142530740Y-133162610D01*
X142756490Y-132608598D01*
X143019560Y-132066488D01*
X143319800Y-131537936D01*
X143340264Y-131504618D01*
X143508176Y-131242240D01*
X143682611Y-130990124D01*
X143869947Y-130739708D01*
X144076559Y-130482426D01*
X144308825Y-130209715D01*
X144371327Y-130137492D01*
X144437903Y-130057177D01*
X144440327Y-130053851D01*
X150812956Y-130053851D01*
X150817860Y-130103783D01*
X150848084Y-130174593D01*
X150899129Y-130255529D01*
X150965884Y-130338561D01*
X151043238Y-130415660D01*
X151044651Y-130416911D01*
X151115943Y-130486958D01*
X151177888Y-130560151D01*
X151219068Y-130623022D01*
X151253966Y-130677686D01*
X151313028Y-130748855D01*
X151379300Y-130813351D01*
X151397597Y-130828791D01*
X151455429Y-130872976D01*
X151509914Y-130902994D01*
X151575367Y-130925526D01*
X151666103Y-130947257D01*
X151758835Y-130968453D01*
X151879115Y-131000719D01*
X151988471Y-131037826D01*
X152097944Y-131084137D01*
X152218577Y-131144010D01*
X152361412Y-131221806D01*
X152532865Y-131319253D01*
X152717542Y-131429076D01*
X152871765Y-131527626D01*
X152998998Y-131617547D01*
X153102703Y-131701484D01*
X153186344Y-131782079D01*
X153253384Y-131861976D01*
X153307286Y-131943818D01*
X153332875Y-131986478D01*
X153392896Y-132076999D01*
X153468788Y-132179811D01*
X153566503Y-132303169D01*
X153587119Y-132329863D01*
X153639719Y-132407840D01*
X153689760Y-132493933D01*
X153731997Y-132578023D01*
X153761185Y-132649994D01*
X153772081Y-132699728D01*
X153772279Y-132704898D01*
X153783292Y-132758708D01*
X153810011Y-132843104D01*
X153850837Y-132953423D01*
X153904170Y-133085000D01*
X153923464Y-133133948D01*
X153945534Y-133209108D01*
X153957286Y-133289903D01*
X153961919Y-133393418D01*
X153965086Y-133571837D01*
X154080159Y-133678861D01*
X154188606Y-133776302D01*
X154309162Y-133877409D01*
X154421400Y-133964327D01*
X154515887Y-134029467D01*
X154551803Y-134052578D01*
X154627826Y-134103701D01*
X154699995Y-134154467D01*
X154725389Y-134172817D01*
X154774244Y-134206224D01*
X154804840Y-134220623D01*
X154827290Y-134219460D01*
X154851702Y-134206182D01*
X154861056Y-134185219D01*
X154869583Y-134129822D01*
X154875824Y-134047593D01*
X154879810Y-133945520D01*
X154881574Y-133830592D01*
X154881150Y-133709798D01*
X154878569Y-133590126D01*
X154873863Y-133478566D01*
X154867065Y-133382105D01*
X154858208Y-133307733D01*
X154847324Y-133262438D01*
X154844030Y-133254377D01*
X154808405Y-133141313D01*
X154777426Y-132993596D01*
X154752114Y-132816000D01*
X154750987Y-132806497D01*
X154741813Y-132744638D01*
X154728472Y-132686627D01*
X154708077Y-132624612D01*
X154677742Y-132550739D01*
X154634580Y-132457152D01*
X154575705Y-132336000D01*
X154533555Y-132249379D01*
X154483575Y-132144053D01*
X154440993Y-132051424D01*
X154409328Y-131979179D01*
X154392098Y-131935000D01*
X154390221Y-131929257D01*
X154370491Y-131879357D01*
X154342191Y-131825769D01*
X154302180Y-131764250D01*
X154247318Y-131690556D01*
X154174466Y-131600441D01*
X154080483Y-131489663D01*
X153962230Y-131353976D01*
X153835519Y-131210333D01*
X153727921Y-131090541D01*
X153636243Y-130992493D01*
X153555354Y-130911871D01*
X153480122Y-130844361D01*
X153405415Y-130785644D01*
X153326101Y-130731404D01*
X153237048Y-130677326D01*
X153133124Y-130619091D01*
X153009196Y-130552385D01*
X152891130Y-130490909D01*
X152616028Y-130360895D01*
X152337174Y-130249124D01*
X152036494Y-130148081D01*
X151965885Y-130126362D01*
X151837287Y-130088130D01*
X151731701Y-130060062D01*
X151638886Y-130040563D01*
X151548597Y-130028040D01*
X151450593Y-130020897D01*
X151334628Y-130017540D01*
X151190462Y-130016375D01*
X151183316Y-130016349D01*
X151054874Y-130016112D01*
X150960727Y-130016834D01*
X150895405Y-130019060D01*
X150853437Y-130023331D01*
X150829354Y-130030191D01*
X150817684Y-130040183D01*
X150812956Y-130053851D01*
X144440327Y-130053851D01*
X144481213Y-129997745D01*
X144503574Y-129954253D01*
X144507303Y-129921759D01*
X144494718Y-129895322D01*
X144468137Y-129869999D01*
X144460349Y-129865060D01*
X144413767Y-129850753D01*
X144353300Y-129845000D01*
X144335371Y-129845231D01*
X144300819Y-129849312D01*
X144269474Y-129862591D01*
X144233957Y-129890306D01*
X144186892Y-129937696D01*
X144120900Y-130010000D01*
X143976483Y-130173967D01*
X143589134Y-130653936D01*
X143236311Y-131154077D01*
X142918192Y-131674086D01*
X142634956Y-132213654D01*
X142386781Y-132772477D01*
X142173846Y-133350247D01*
X142144293Y-133440153D01*
X142060052Y-133711566D01*
X141988252Y-133970685D01*
X141925672Y-134230581D01*
X141869090Y-134504328D01*
X141815284Y-134805000D01*
X141807108Y-134853906D01*
X141783510Y-134999380D01*
X141764169Y-135128845D01*
X141748668Y-135248524D01*
X141736589Y-135364640D01*
X141727514Y-135483417D01*
X141721025Y-135611077D01*
X141716706Y-135753842D01*
X141714138Y-135917935D01*
X141712904Y-136109580D01*
X141712585Y-136335000D01*
X141553328Y-136335000D01*
X141552883Y-136286027D01*
X141555234Y-136039940D01*
X141562247Y-135806789D01*
X141573962Y-135595500D01*
X141590418Y-135415000D01*
X141602294Y-135315608D01*
X141673489Y-134812530D01*
X141760596Y-134338952D01*
X141865533Y-133888058D01*
X141990217Y-133453032D01*
X142136567Y-133027058D01*
X142306499Y-132603319D01*
X142501931Y-132175000D01*
X142635052Y-131909243D01*
X142935881Y-131372582D01*
X143267211Y-130861222D01*
X143628509Y-130375952D01*
X144019244Y-129917565D01*
X144047837Y-129885462D01*
X144097446Y-129825687D01*
X144131713Y-129778692D01*
X144144500Y-129752565D01*
X144141183Y-129732262D01*
X144109436Y-129688343D01*
X144052494Y-129656975D01*
X143980769Y-129644999D01*
X143950065Y-129646573D01*
X143918626Y-129654103D01*
X143885696Y-129671176D01*
X143847313Y-129701375D01*
X143799514Y-129748277D01*
X143738333Y-129815462D01*
X143659809Y-129906510D01*
X143559976Y-130025000D01*
X143485781Y-130114680D01*
X143123386Y-130588280D01*
X142788132Y-131087431D01*
X142483183Y-131606813D01*
X142211706Y-132141109D01*
X141976866Y-132685000D01*
X141822965Y-133097911D01*
X141680799Y-133535235D01*
X141561646Y-133972095D01*
X141463181Y-134418001D01*
X141383077Y-134882465D01*
X141319009Y-135375000D01*
X141318991Y-135375158D01*
X141310825Y-135473828D01*
X141304116Y-135605656D01*
X141298866Y-135763993D01*
X141295080Y-135942191D01*
X141292761Y-136133602D01*
X141291913Y-136331578D01*
X141142913Y-136331578D01*
X141148514Y-135938754D01*
X141175373Y-135466445D01*
X141222554Y-135005000D01*
X141256913Y-134762535D01*
X141358219Y-134223945D01*
X141493490Y-133680517D01*
X141660509Y-133139079D01*
X141857059Y-132606460D01*
X142080920Y-132089491D01*
X142329877Y-131595000D01*
X142345180Y-131566856D01*
X142505681Y-131281978D01*
X142668957Y-131012178D01*
X142839723Y-130750739D01*
X143022693Y-130490942D01*
X143222582Y-130226069D01*
X143444106Y-129949403D01*
X143691979Y-129654225D01*
X143713080Y-129629135D01*
X143735350Y-129595429D01*
X143735486Y-129569221D01*
X143716538Y-129535817D01*
X143688881Y-129503926D01*
X143651082Y-129488848D01*
X143588601Y-129485306D01*
X143559583Y-129486059D01*
X143504046Y-129491466D01*
X143472105Y-129500306D01*
X143450223Y-129519925D01*
X143404858Y-129568418D01*
X143343126Y-129638909D01*
X143269457Y-129726073D01*
X143188279Y-129824588D01*
X143104022Y-129929130D01*
X143021116Y-130034375D01*
X142943991Y-130135000D01*
X142697017Y-130476548D01*
X142347035Y-131015800D01*
X142033054Y-131571505D01*
X141755464Y-132142341D01*
X141514654Y-132726984D01*
X141311015Y-133324113D01*
X141144936Y-133932405D01*
X141016809Y-134550536D01*
X140927022Y-135177183D01*
X140875966Y-135811025D01*
X140864031Y-136450738D01*
X140733646Y-136450738D01*
X140733222Y-136365000D01*
X140733481Y-136185015D01*
X140735838Y-135945015D01*
X140741055Y-135732312D01*
X140749695Y-135539327D01*
X140762321Y-135358485D01*
X140779496Y-135182209D01*
X140801782Y-135002920D01*
X140829742Y-134813043D01*
X140863939Y-134605000D01*
X140959457Y-134116686D01*
X141114611Y-133502262D01*
X141306227Y-132898575D01*
X141533150Y-132308119D01*
X141794229Y-131733387D01*
X142088312Y-131176875D01*
X142414245Y-130641077D01*
X142770877Y-130128487D01*
X143157055Y-129641600D01*
X143169485Y-129626838D01*
X143239868Y-129538313D01*
X143282778Y-129472104D01*
X143299853Y-129423933D01*
X143292729Y-129389522D01*
X143263044Y-129364592D01*
X143255952Y-129361422D01*
X143201803Y-129353018D01*
X143131921Y-129356689D01*
X143064404Y-129370404D01*
X143017349Y-129392135D01*
X142992459Y-129415333D01*
X142937381Y-129475688D01*
X142865764Y-129561215D01*
X142781254Y-129667099D01*
X142687502Y-129788527D01*
X142588154Y-129920686D01*
X142486859Y-130058760D01*
X142387267Y-130197936D01*
X142293024Y-130333401D01*
X142207780Y-130460339D01*
X142161217Y-130531866D01*
X141839295Y-131064578D01*
X141546917Y-131617887D01*
X141286694Y-132186155D01*
X141061235Y-132763739D01*
X140873150Y-133345000D01*
X140863589Y-133378160D01*
X140704994Y-133997570D01*
X140585881Y-134612260D01*
X140506141Y-135223327D01*
X140465663Y-135831863D01*
X140464339Y-136438964D01*
X140279118Y-136438964D01*
X140280644Y-136330893D01*
X140305648Y-135800639D01*
X140355317Y-135260615D01*
X140428297Y-134719930D01*
X140523239Y-134187693D01*
X140638788Y-133673013D01*
X140773595Y-133185000D01*
X140935097Y-132699724D01*
X141160812Y-132125200D01*
X141419822Y-131560721D01*
X141709522Y-131011178D01*
X142027305Y-130481460D01*
X142370567Y-129976457D01*
X142736700Y-129501059D01*
X142800684Y-129418930D01*
X142837936Y-129358614D01*
X142848800Y-129316320D01*
X142834514Y-129287169D01*
X142796319Y-129266280D01*
X142774552Y-129262053D01*
X142712614Y-129265809D01*
X142639082Y-129282379D01*
X142583155Y-129302786D01*
X142569718Y-129307689D01*
X142520279Y-129337662D01*
X142507587Y-129351053D01*
X142470610Y-129395178D01*
X142417968Y-129461273D01*
X142354692Y-129542980D01*
X142285813Y-129633942D01*
X142131689Y-129843799D01*
X141798833Y-130329984D01*
X141500093Y-130817439D01*
X141231951Y-131312918D01*
X140990889Y-131823170D01*
X140773388Y-132354947D01*
X140575931Y-132915000D01*
X140561812Y-132958339D01*
X140485540Y-133200652D01*
X140419221Y-133428298D01*
X140361475Y-133648109D01*
X140310924Y-133866917D01*
X140266189Y-134091551D01*
X140225892Y-134328846D01*
X140188654Y-134585631D01*
X140153096Y-134868738D01*
X140117840Y-135185000D01*
X140110013Y-135282304D01*
X140103251Y-135417079D01*
X140097972Y-135578788D01*
X140094177Y-135760757D01*
X140091868Y-135956313D01*
X140091046Y-136158781D01*
X139846107Y-136158781D01*
X139849448Y-135989824D01*
X139866002Y-135643232D01*
X139892899Y-135311349D01*
X139931217Y-134986962D01*
X139982036Y-134662857D01*
X140046432Y-134331821D01*
X140125485Y-133986642D01*
X140220272Y-133620106D01*
X140331871Y-133225000D01*
X140368219Y-133101336D01*
X140412422Y-132954115D01*
X140451939Y-132827783D01*
X140490208Y-132712023D01*
X140530671Y-132596517D01*
X140576768Y-132470949D01*
X140631937Y-132325000D01*
X140661465Y-132248886D01*
X140740198Y-132055428D01*
X140828421Y-131849571D01*
X140922288Y-131639653D01*
X141017952Y-131434012D01*
X141111568Y-131240984D01*
X141199290Y-131068907D01*
X141277270Y-130926119D01*
X141454170Y-130623398D01*
X141632778Y-130331866D01*
X141805916Y-130064963D01*
X141977904Y-129816044D01*
X142153060Y-129578462D01*
X142181174Y-129541495D01*
X142243367Y-129459540D01*
X142295774Y-129390237D01*
X142333569Y-129339973D01*
X142351929Y-129315138D01*
X142357844Y-129302786D01*
X142351537Y-129266871D01*
X142319434Y-129237292D01*
X142271326Y-129225000D01*
X142244860Y-129228132D01*
X142185176Y-129242709D01*
X142117060Y-129265162D01*
X142114833Y-129265996D01*
X142071300Y-129284034D01*
X142051409Y-129295574D01*
X142034720Y-129305256D01*
X141999100Y-129335572D01*
X141958445Y-129380889D01*
X141906761Y-129447116D01*
X141838054Y-129540162D01*
X141485221Y-130050013D01*
X141145261Y-130602849D01*
X140842491Y-131165082D01*
X140577568Y-131735396D01*
X140351148Y-132312474D01*
X140163888Y-132895000D01*
X140081888Y-133192471D01*
X139959992Y-133692468D01*
X139863306Y-134178444D01*
X139790473Y-134660042D01*
X139740133Y-135146905D01*
X139710927Y-135648677D01*
X139701494Y-136175000D01*
X139398131Y-136175000D01*
X139398702Y-136132321D01*
X139403370Y-135936122D01*
X139409918Y-135758415D01*
X139418344Y-135605830D01*
X139428644Y-135485000D01*
X139432070Y-135453782D01*
X139462736Y-135185538D01*
X139492520Y-134948105D01*
X139522722Y-134733251D01*
X139554645Y-134532745D01*
X139589589Y-134338355D01*
X139628858Y-134141851D01*
X139673752Y-133935000D01*
X139810359Y-133391147D01*
X139988344Y-132815906D01*
X140200788Y-132243887D01*
X140449891Y-131668671D01*
X140552150Y-131451394D01*
X140777109Y-130998578D01*
X141003240Y-130578785D01*
X141233269Y-130187279D01*
X141469922Y-129819327D01*
X141715928Y-129470193D01*
X141737541Y-129440255D01*
X141781141Y-129375475D01*
X141811365Y-129324225D01*
X141822672Y-129295574D01*
X141821949Y-129286675D01*
X141799913Y-129258230D01*
X141750400Y-129252390D01*
X141677835Y-129268929D01*
X141586647Y-129307621D01*
X141536428Y-129334999D01*
X141485842Y-129369323D01*
X141436620Y-129412240D01*
X141432439Y-129416774D01*
X141385149Y-129468062D01*
X141327814Y-129541100D01*
X141260999Y-129635666D01*
X141181091Y-129756071D01*
X141084475Y-129906627D01*
X140981756Y-130072223D01*
X140706831Y-130557097D01*
X140450918Y-131070828D01*
X140216091Y-131607730D01*
X140004424Y-132162117D01*
X139817990Y-132728303D01*
X139658863Y-133300602D01*
X139529118Y-133873328D01*
X139430827Y-134440794D01*
X139429453Y-134450253D01*
X139397010Y-134682238D01*
X139370956Y-134890186D01*
X139350662Y-135083238D01*
X139335499Y-135270536D01*
X139324838Y-135461219D01*
X139318051Y-135664431D01*
X139314508Y-135889310D01*
X139313581Y-136145000D01*
X137283129Y-136145000D01*
X137267642Y-136062168D01*
X137266442Y-136053088D01*
X138921025Y-136053088D01*
X138922020Y-136106019D01*
X138924581Y-136125000D01*
X138927711Y-136115893D01*
X138933996Y-136073399D01*
X138941719Y-136002171D01*
X138950183Y-135908831D01*
X138958695Y-135800000D01*
X138964541Y-135721218D01*
X138990508Y-135411183D01*
X139019865Y-135127141D01*
X139054161Y-134857796D01*
X139094946Y-134591854D01*
X139143769Y-134318020D01*
X139202179Y-134025000D01*
X139360631Y-133355518D01*
X139555118Y-132700655D01*
X139785347Y-132063195D01*
X140051865Y-131441857D01*
X140355223Y-130835361D01*
X140695970Y-130242427D01*
X141074655Y-129661774D01*
X141082621Y-129650216D01*
X141137118Y-129568498D01*
X141181466Y-129497505D01*
X141211286Y-129444507D01*
X141222199Y-129416774D01*
X141217114Y-129398374D01*
X141186584Y-129383309D01*
X141134534Y-129388371D01*
X141067977Y-129411535D01*
X140993925Y-129450781D01*
X140919393Y-129504085D01*
X140912659Y-129509902D01*
X140859560Y-129568583D01*
X140793119Y-129659520D01*
X140787227Y-129668563D01*
X140715412Y-129778784D01*
X140628519Y-129922446D01*
X140534520Y-130086578D01*
X140435492Y-130267249D01*
X140333515Y-130460530D01*
X140230667Y-130662493D01*
X140129028Y-130869208D01*
X140030676Y-131076745D01*
X139937689Y-131281175D01*
X139852147Y-131478570D01*
X139776129Y-131665000D01*
X139734409Y-131772533D01*
X139504767Y-132422104D01*
X139314122Y-133071259D01*
X139161780Y-133723312D01*
X139061473Y-134298829D01*
X139047051Y-134381577D01*
X138969243Y-135049368D01*
X138927664Y-135730000D01*
X138926964Y-135750776D01*
X138923544Y-135869449D01*
X138921548Y-135972226D01*
X138921025Y-136053088D01*
X137266442Y-136053088D01*
X137170914Y-135330221D01*
X137681476Y-135330221D01*
X137684009Y-135491769D01*
X137688050Y-135623444D01*
X137694205Y-135746423D01*
X137701734Y-135842631D01*
X137710249Y-135909864D01*
X137719361Y-135945921D01*
X137728680Y-135948598D01*
X137737817Y-135915691D01*
X137746384Y-135845000D01*
X137749900Y-135797315D01*
X137754885Y-135709081D01*
X137760109Y-135597951D01*
X137765134Y-135473425D01*
X137769519Y-135345000D01*
X137772586Y-135255843D01*
X137778567Y-135113605D01*
X137785563Y-134974535D01*
X137792941Y-134850909D01*
X137800064Y-134755000D01*
X137805537Y-134692064D01*
X137815013Y-134582958D01*
X137823747Y-134482250D01*
X137830373Y-134405665D01*
X137834732Y-134342326D01*
X137835524Y-134298829D01*
X137832491Y-134285665D01*
X137831393Y-134287369D01*
X137821936Y-134317886D01*
X137807401Y-134379359D01*
X137789220Y-134464664D01*
X137768825Y-134566681D01*
X137747646Y-134678285D01*
X137727116Y-134792355D01*
X137708665Y-134901769D01*
X137696081Y-134991294D01*
X137687121Y-135089342D01*
X137682383Y-135199198D01*
X137681476Y-135330221D01*
X137170914Y-135330221D01*
X137170224Y-135325000D01*
X137157320Y-135192630D01*
X137133460Y-134882447D01*
X137115381Y-134548771D01*
X137103300Y-134202076D01*
X137098456Y-133913490D01*
X138743628Y-133913490D01*
X138743885Y-133935304D01*
X138747195Y-133935033D01*
X138752140Y-133925441D01*
X138759787Y-133902255D01*
X138771266Y-133861261D01*
X138787706Y-133798250D01*
X138810237Y-133709010D01*
X138839988Y-133589331D01*
X138878090Y-133435000D01*
X138906807Y-133321339D01*
X139067331Y-132763473D01*
X139261291Y-132198404D01*
X139485811Y-131633006D01*
X139738015Y-131074150D01*
X140015025Y-130528712D01*
X140313967Y-130003563D01*
X140369611Y-129910156D01*
X140422416Y-129819226D01*
X140464222Y-129744720D01*
X140491729Y-129692534D01*
X140501631Y-129668563D01*
X140496645Y-129651538D01*
X140470678Y-129645865D01*
X140427958Y-129662905D01*
X140374642Y-129698331D01*
X140316886Y-129747816D01*
X140260846Y-129807033D01*
X140212681Y-129871654D01*
X140190364Y-129907400D01*
X140119581Y-130029205D01*
X140086758Y-130089712D01*
X140037952Y-130179681D01*
X139948483Y-130352628D01*
X139854184Y-130541845D01*
X139758060Y-130741134D01*
X139663121Y-130944293D01*
X139572373Y-131145124D01*
X139488824Y-131337426D01*
X139415482Y-131515000D01*
X139367944Y-131636865D01*
X139275347Y-131890171D01*
X139266920Y-131915000D01*
X139183272Y-132161464D01*
X139093989Y-132442962D01*
X139009768Y-132726883D01*
X138932881Y-133005446D01*
X138865596Y-133270870D01*
X138810184Y-133515374D01*
X138768916Y-133731176D01*
X138759915Y-133786962D01*
X138749332Y-133861107D01*
X138743628Y-133913490D01*
X137098456Y-133913490D01*
X137097438Y-133852841D01*
X137098014Y-133511541D01*
X137105246Y-133188655D01*
X137119355Y-132894658D01*
X137152948Y-132465561D01*
X137218486Y-131915000D01*
X138860339Y-131915000D01*
X138870347Y-131925000D01*
X138880355Y-131915000D01*
X138870347Y-131905000D01*
X138860339Y-131915000D01*
X137218486Y-131915000D01*
X137223083Y-131876380D01*
X138885072Y-131876380D01*
X138889328Y-131877532D01*
X138897842Y-131868889D01*
X138911342Y-131844608D01*
X138931793Y-131800384D01*
X138961159Y-131731911D01*
X139001403Y-131634884D01*
X139054489Y-131505000D01*
X139071155Y-131464725D01*
X139128613Y-131332079D01*
X139198333Y-131177894D01*
X139276311Y-131010501D01*
X139358541Y-130838227D01*
X139441018Y-130669402D01*
X139519737Y-130512354D01*
X139590693Y-130375412D01*
X139649880Y-130266904D01*
X139673650Y-130223974D01*
X139707317Y-130158353D01*
X139728165Y-130110888D01*
X139732405Y-130089712D01*
X139726177Y-130087486D01*
X139697546Y-130102257D01*
X139655997Y-130141429D01*
X139607957Y-130198411D01*
X139559853Y-130266615D01*
X139545607Y-130290170D01*
X139503689Y-130368267D01*
X139450933Y-130475175D01*
X139389898Y-130605000D01*
X139323143Y-130751846D01*
X139253228Y-130909821D01*
X139182714Y-131073031D01*
X139114159Y-131235580D01*
X139050124Y-131391575D01*
X138993168Y-131535122D01*
X138945852Y-131660327D01*
X138910734Y-131761295D01*
X138897278Y-131806039D01*
X138885907Y-131854162D01*
X138885072Y-131876380D01*
X137223083Y-131876380D01*
X137241481Y-131721822D01*
X137367765Y-130991072D01*
X137532008Y-130272534D01*
X137734420Y-129565434D01*
X137975210Y-128868995D01*
X138254586Y-128182442D01*
X138255741Y-128179983D01*
X138808615Y-128179983D01*
X138828234Y-128174849D01*
X138870312Y-128142623D01*
X138931140Y-128086543D01*
X139007372Y-128010260D01*
X139095660Y-127917425D01*
X139192658Y-127811689D01*
X139295018Y-127696703D01*
X139399393Y-127576120D01*
X139502437Y-127453588D01*
X139600801Y-127332761D01*
X139691139Y-127217288D01*
X139743116Y-127149617D01*
X139986045Y-126844580D01*
X140227683Y-126561190D01*
X140477207Y-126289372D01*
X140743793Y-126019053D01*
X141036617Y-125740159D01*
X141040246Y-125736795D01*
X141621205Y-125225311D01*
X142224266Y-124746928D01*
X142848571Y-124302133D01*
X143493263Y-123891410D01*
X144157485Y-123515246D01*
X144840380Y-123174125D01*
X145541092Y-122868534D01*
X146258764Y-122598957D01*
X146992539Y-122365880D01*
X147013119Y-122359955D01*
X147232038Y-122300196D01*
X147475436Y-122238869D01*
X147734354Y-122177897D01*
X147999837Y-122119205D01*
X148262928Y-122064717D01*
X148514670Y-122016356D01*
X148746107Y-121976049D01*
X148948282Y-121945717D01*
X148959560Y-121944203D01*
X149058909Y-121930554D01*
X149158558Y-121916417D01*
X149238511Y-121904624D01*
X149271633Y-121900037D01*
X149352337Y-121890335D01*
X149457034Y-121878881D01*
X149575840Y-121866739D01*
X149698873Y-121854977D01*
X149775063Y-121847749D01*
X149894944Y-121835562D01*
X150003644Y-121823574D01*
X150091594Y-121812860D01*
X150149228Y-121804492D01*
X150286456Y-121783590D01*
X150509714Y-121758832D01*
X150758240Y-121740452D01*
X151023576Y-121729034D01*
X151297268Y-121725164D01*
X151380451Y-121725384D01*
X151590320Y-121728309D01*
X151776418Y-121735397D01*
X151950645Y-121747617D01*
X152124900Y-121765936D01*
X152311084Y-121791323D01*
X152521096Y-121824747D01*
X152598246Y-121837228D01*
X152729259Y-121857264D01*
X152866843Y-121877242D01*
X152991466Y-121894277D01*
X152994499Y-121894674D01*
X153368355Y-121947951D01*
X153745061Y-122009858D01*
X154117470Y-122078916D01*
X154478435Y-122153647D01*
X154820810Y-122232571D01*
X155137448Y-122314209D01*
X155421202Y-122397083D01*
X155599857Y-122453594D01*
X155893795Y-122549538D01*
X156162372Y-122641656D01*
X156414363Y-122733175D01*
X156658540Y-122827324D01*
X156903675Y-122927332D01*
X157158541Y-123036426D01*
X157584681Y-123231696D01*
X158175860Y-123532618D01*
X158759089Y-123863885D01*
X159329220Y-124222056D01*
X159881105Y-124603692D01*
X160409596Y-125005351D01*
X160909547Y-125423594D01*
X161375809Y-125854979D01*
X161477455Y-125955554D01*
X161866326Y-126366364D01*
X162242401Y-126804509D01*
X162599003Y-127261536D01*
X162929455Y-127728994D01*
X163227080Y-128198430D01*
X163259271Y-128253343D01*
X163326390Y-128373175D01*
X163393537Y-128499263D01*
X163457371Y-128624792D01*
X163514549Y-128742945D01*
X163561730Y-128846908D01*
X163595572Y-128929865D01*
X163612734Y-128985000D01*
X163614372Y-128993336D01*
X163620400Y-129033353D01*
X163613399Y-129041738D01*
X163589605Y-129025000D01*
X163583945Y-129019566D01*
X163553784Y-128984663D01*
X163505439Y-128924581D01*
X163442964Y-128844494D01*
X163370413Y-128749576D01*
X163291839Y-128645000D01*
X163289539Y-128641912D01*
X163198819Y-128520723D01*
X163103277Y-128394014D01*
X163010063Y-128271208D01*
X162926330Y-128161728D01*
X162859230Y-128075000D01*
X162817606Y-128021523D01*
X162734962Y-127914694D01*
X162641985Y-127793895D01*
X162547252Y-127670279D01*
X162459340Y-127555000D01*
X162354261Y-127418504D01*
X161877423Y-126839031D01*
X161372381Y-126287214D01*
X160840482Y-125763880D01*
X160283076Y-125269856D01*
X159701509Y-124805969D01*
X159097132Y-124373045D01*
X158471292Y-123971912D01*
X157825337Y-123603396D01*
X157160616Y-123268325D01*
X156478477Y-122967525D01*
X155780268Y-122701823D01*
X155067339Y-122472045D01*
X154341036Y-122279020D01*
X153602710Y-122123573D01*
X153529088Y-122110104D01*
X153430576Y-122092181D01*
X153351332Y-122077884D01*
X153298058Y-122068422D01*
X153277453Y-122065000D01*
X153275035Y-122067589D01*
X153271687Y-122092915D01*
X153282302Y-122113881D01*
X153326536Y-122152342D01*
X153401913Y-122201201D01*
X153504901Y-122258221D01*
X153631970Y-122321164D01*
X153704759Y-122356870D01*
X153832049Y-122429132D01*
X153927621Y-122500568D01*
X153996689Y-122575433D01*
X154044464Y-122657985D01*
X154064076Y-122697426D01*
X154115032Y-122780150D01*
X154169450Y-122850333D01*
X154216282Y-122903780D01*
X154252880Y-122955036D01*
X154276910Y-123007802D01*
X154291458Y-123071701D01*
X154299608Y-123156356D01*
X154304445Y-123271387D01*
X154306193Y-123330843D01*
X154307417Y-123416912D01*
X154304985Y-123477061D01*
X154297755Y-123520456D01*
X154284587Y-123556260D01*
X154264341Y-123593636D01*
X154255251Y-123609923D01*
X154219538Y-123686726D01*
X154193428Y-123761177D01*
X154191903Y-123766602D01*
X154175818Y-123807040D01*
X154148217Y-123851367D01*
X154104533Y-123905293D01*
X154040200Y-123974529D01*
X153950653Y-124064784D01*
X153875660Y-124137498D01*
X153780716Y-124223077D01*
X153708122Y-124278974D01*
X153656509Y-124306314D01*
X153616745Y-124320223D01*
X153476017Y-124385118D01*
X153352153Y-124465495D01*
X153331466Y-124480396D01*
X153244220Y-124529279D01*
X153136825Y-124575163D01*
X153024238Y-124612181D01*
X152921411Y-124634466D01*
X152860851Y-124644845D01*
X152755464Y-124668139D01*
X152642511Y-124697565D01*
X152537687Y-124728947D01*
X152456685Y-124758110D01*
X152394330Y-124778369D01*
X152290376Y-124801627D01*
X152159890Y-124823613D01*
X152010145Y-124843483D01*
X151848418Y-124860393D01*
X151681983Y-124873498D01*
X151518117Y-124881955D01*
X151364095Y-124884918D01*
X151262615Y-124882652D01*
X151121836Y-124875243D01*
X150965046Y-124863681D01*
X150803453Y-124848995D01*
X150648261Y-124832215D01*
X150510676Y-124814371D01*
X150401905Y-124796493D01*
X150305853Y-124774231D01*
X150192250Y-124741843D01*
X150091660Y-124707607D01*
X149997327Y-124674599D01*
X149887019Y-124640944D01*
X149788944Y-124615513D01*
X149672885Y-124586870D01*
X149504530Y-124533877D01*
X149368475Y-124475080D01*
X149268534Y-124411972D01*
X149206069Y-124367915D01*
X149122452Y-124317732D01*
X149038353Y-124274218D01*
X149036552Y-124273374D01*
X148957698Y-124231388D01*
X148884882Y-124184217D01*
X148833657Y-124141915D01*
X148815873Y-124123508D01*
X148763222Y-124069098D01*
X148697745Y-124001508D01*
X148629597Y-123931222D01*
X148590740Y-123890245D01*
X148528404Y-123817057D01*
X148489479Y-123756705D01*
X148468382Y-123701222D01*
X148462980Y-123681176D01*
X148437439Y-123601396D01*
X148408266Y-123525000D01*
X148401222Y-123508360D01*
X148370445Y-123429035D01*
X148355892Y-123371481D01*
X148355672Y-123323974D01*
X148367894Y-123274791D01*
X148378138Y-123233671D01*
X148390022Y-123158310D01*
X148397152Y-123077778D01*
X148400797Y-123028662D01*
X148414728Y-122955222D01*
X148442957Y-122890306D01*
X148491079Y-122822671D01*
X148564688Y-122741072D01*
X148604411Y-122696115D01*
X148662317Y-122620510D01*
X148706284Y-122551568D01*
X148746126Y-122493338D01*
X148834497Y-122407437D01*
X148949459Y-122329745D01*
X149082941Y-122266372D01*
X149093933Y-122262066D01*
X149177940Y-122226451D01*
X149268762Y-122184197D01*
X149357681Y-122139790D01*
X149435977Y-122097716D01*
X149494931Y-122062460D01*
X149525824Y-122038510D01*
X149537227Y-122019510D01*
X149534715Y-121999238D01*
X149512787Y-121997430D01*
X149455750Y-122001090D01*
X149370151Y-122010142D01*
X149261795Y-122023845D01*
X149136483Y-122041460D01*
X149000021Y-122062246D01*
X148858211Y-122085465D01*
X148343559Y-122182408D01*
X147607836Y-122355074D01*
X146884413Y-122565429D01*
X146174480Y-122812901D01*
X145479226Y-123096919D01*
X144799840Y-123416909D01*
X144137512Y-123772300D01*
X143493430Y-124162521D01*
X142868785Y-124586999D01*
X142264766Y-125045162D01*
X141682561Y-125536438D01*
X141594932Y-125615604D01*
X141475312Y-125726881D01*
X141348688Y-125847700D01*
X141218050Y-125974959D01*
X141086391Y-126105555D01*
X140956702Y-126236388D01*
X140831975Y-126364353D01*
X140715200Y-126486349D01*
X140609370Y-126599275D01*
X140517477Y-126700026D01*
X140442511Y-126785502D01*
X140387465Y-126852599D01*
X140355329Y-126898217D01*
X140349096Y-126919251D01*
X140356597Y-126920424D01*
X140391957Y-126906832D01*
X140447872Y-126875290D01*
X140516863Y-126830216D01*
X140591456Y-126776029D01*
X140598761Y-126770205D01*
X140640964Y-126733690D01*
X140706344Y-126674679D01*
X140790513Y-126597230D01*
X140889082Y-126505401D01*
X140997662Y-126403250D01*
X141111865Y-126294835D01*
X141377151Y-126046090D01*
X141739894Y-125721148D01*
X142093817Y-125423151D01*
X142445038Y-125147346D01*
X142799674Y-124888980D01*
X143163845Y-124643298D01*
X143543669Y-124405548D01*
X143657560Y-124338091D01*
X143780718Y-124267765D01*
X143902056Y-124200846D01*
X144017457Y-124139387D01*
X144122805Y-124085446D01*
X144213983Y-124041078D01*
X144286874Y-124008340D01*
X144337363Y-123989287D01*
X144361332Y-123985976D01*
X144354665Y-124000464D01*
X144352659Y-124002269D01*
X144324261Y-124023244D01*
X144268871Y-124061772D01*
X144191852Y-124114196D01*
X144098568Y-124176860D01*
X143994382Y-124246107D01*
X143813034Y-124367193D01*
X143398915Y-124653002D01*
X143009704Y-124935038D01*
X142648600Y-125210884D01*
X142318803Y-125478126D01*
X142023512Y-125734347D01*
X142022058Y-125735659D01*
X141960541Y-125791189D01*
X141885680Y-125858798D01*
X141813347Y-125924150D01*
X141801904Y-125934553D01*
X141736925Y-125994904D01*
X141654956Y-126072487D01*
X141565335Y-126158416D01*
X141477400Y-126243809D01*
X141443078Y-126277577D01*
X141353264Y-126368987D01*
X141293669Y-126436340D01*
X141264983Y-126480312D01*
X141267898Y-126501581D01*
X141303103Y-126500824D01*
X141371290Y-126478716D01*
X141473148Y-126435935D01*
X141609369Y-126373158D01*
X141621943Y-126367229D01*
X141733119Y-126316038D01*
X141815525Y-126281159D01*
X141875219Y-126260460D01*
X141918255Y-126251812D01*
X141950689Y-126253084D01*
X141983245Y-126259204D01*
X142067405Y-126273408D01*
X142130161Y-126278576D01*
X142185107Y-126273956D01*
X142245837Y-126258797D01*
X142325947Y-126232348D01*
X142346087Y-126225496D01*
X142418522Y-126202741D01*
X142480979Y-126188392D01*
X142545949Y-126180833D01*
X142625922Y-126178447D01*
X142733389Y-126179619D01*
X142862300Y-126179485D01*
X142997868Y-126170796D01*
X143108213Y-126152029D01*
X143133077Y-126146362D01*
X143246293Y-126130369D01*
X143348403Y-126135463D01*
X143375185Y-126138537D01*
X143449709Y-126143769D01*
X143549203Y-126148194D01*
X143663947Y-126151420D01*
X143784216Y-126153053D01*
X143860990Y-126154026D01*
X143965942Y-126157165D01*
X144053125Y-126161929D01*
X144115117Y-126167877D01*
X144144500Y-126174565D01*
X144147981Y-126176257D01*
X144185910Y-126184591D01*
X144253617Y-126193139D01*
X144342694Y-126200987D01*
X144444736Y-126207221D01*
X144498566Y-126210123D01*
X144631962Y-126220963D01*
X144729074Y-126235471D01*
X144792608Y-126254009D01*
X144817506Y-126262681D01*
X144887501Y-126279070D01*
X144977040Y-126293767D01*
X145072828Y-126304383D01*
X145110164Y-126307702D01*
X145221482Y-126322190D01*
X145309044Y-126342979D01*
X145385477Y-126372834D01*
X145435674Y-126393853D01*
X145506081Y-126416094D01*
X145559630Y-126424804D01*
X145686445Y-126438723D01*
X145826890Y-126477699D01*
X145963946Y-126537431D01*
X146022883Y-126565590D01*
X146102794Y-126594540D01*
X146164104Y-126605474D01*
X146173136Y-126605776D01*
X146250940Y-126620232D01*
X146345555Y-126652537D01*
X146443587Y-126697436D01*
X146531646Y-126749676D01*
X146546437Y-126759173D01*
X146618691Y-126794302D01*
X146689734Y-126815545D01*
X146748917Y-126828030D01*
X146877434Y-126876431D01*
X147003223Y-126956829D01*
X147036250Y-126979765D01*
X147114653Y-127023601D01*
X147188371Y-127053585D01*
X147241498Y-127070332D01*
X147318739Y-127101971D01*
X147386107Y-127143599D01*
X147461721Y-127205272D01*
X147502688Y-127236569D01*
X147583656Y-127285395D01*
X147665253Y-127322658D01*
X147690848Y-127332870D01*
X147792169Y-127387111D01*
X147883297Y-127455070D01*
X147982486Y-127544179D01*
X148222935Y-127436338D01*
X148514891Y-127312924D01*
X148918070Y-127167456D01*
X149332854Y-127046955D01*
X149767256Y-126949168D01*
X150229291Y-126871840D01*
X150231791Y-126871488D01*
X150358306Y-126857893D01*
X150516587Y-126847328D01*
X150698671Y-126839791D01*
X150896591Y-126835283D01*
X151102384Y-126833804D01*
X151308084Y-126835354D01*
X151505727Y-126839932D01*
X151687347Y-126847539D01*
X151844980Y-126858175D01*
X151970662Y-126871840D01*
X152230587Y-126912487D01*
X152734466Y-127015004D01*
X153214284Y-127146191D01*
X153674031Y-127307529D01*
X154117697Y-127500502D01*
X154549270Y-127726593D01*
X154972742Y-127987282D01*
X155242931Y-128174250D01*
X155633820Y-128478426D01*
X155994052Y-128803472D01*
X156327775Y-129153534D01*
X156461431Y-129316320D01*
X156639137Y-129532756D01*
X156932287Y-129945283D01*
X157066034Y-130154273D01*
X157309579Y-130580926D01*
X157519233Y-131017651D01*
X157696479Y-131468434D01*
X157842801Y-131937262D01*
X157959683Y-132428122D01*
X158048608Y-132945000D01*
X158056652Y-133006220D01*
X158066087Y-133097361D01*
X158073244Y-133197773D01*
X158078375Y-133313600D01*
X158081729Y-133450984D01*
X158083558Y-133616070D01*
X158084112Y-133815000D01*
X158084083Y-133830592D01*
X158083849Y-133957320D01*
X158082435Y-134132043D01*
X158079571Y-134277199D01*
X158075007Y-134398929D01*
X158068492Y-134503378D01*
X158059776Y-134596687D01*
X158048608Y-134685000D01*
X158041877Y-134731517D01*
X158001302Y-134983276D01*
X157955193Y-135227970D01*
X157905743Y-135454624D01*
X157855148Y-135652267D01*
X157834643Y-135726135D01*
X157814240Y-135801857D01*
X157800367Y-135856050D01*
X157795248Y-135880244D01*
X157796545Y-135886004D01*
X157823024Y-135911426D01*
X157875786Y-135938948D01*
X157944432Y-135964533D01*
X158018561Y-135984146D01*
X158087775Y-135993752D01*
X158135476Y-135998242D01*
X158218711Y-136013494D01*
X158285635Y-136034233D01*
X158292181Y-136036932D01*
X158381799Y-136059602D01*
X158488964Y-136066624D01*
X158545244Y-136067908D01*
X158617897Y-136075572D01*
X158669106Y-136088050D01*
X158689645Y-136093979D01*
X158751125Y-136103503D01*
X158833956Y-136110550D01*
X158926139Y-136113912D01*
X158978760Y-136114967D01*
X159065415Y-136118540D01*
X159135121Y-136123686D01*
X159176336Y-136129678D01*
X159215918Y-136134142D01*
X159266407Y-136125423D01*
X159278036Y-136121889D01*
X159328853Y-136114402D01*
X159403105Y-136108909D01*
X159489140Y-136106405D01*
X159579250Y-136103233D01*
X159676762Y-136092394D01*
X159743698Y-136075000D01*
X159779288Y-136063763D01*
X159854608Y-136050266D01*
X159934106Y-136045000D01*
X160034444Y-136036480D01*
X160139911Y-136005439D01*
X160159413Y-135997448D01*
X160240890Y-135974770D01*
X160319421Y-135965439D01*
X160326656Y-135965325D01*
X160421015Y-135949211D01*
X160526867Y-135903579D01*
X160582187Y-135877427D01*
X160670469Y-135844680D01*
X160748492Y-135824850D01*
X160840756Y-135799083D01*
X160958851Y-135736111D01*
X161008772Y-135705529D01*
X161081492Y-135670690D01*
X161141803Y-135652053D01*
X161149752Y-135650585D01*
X161226710Y-135621284D01*
X161304455Y-135569075D01*
X161356469Y-135530853D01*
X161436682Y-135481792D01*
X161518180Y-135440095D01*
X161569505Y-135413947D01*
X161666203Y-135352003D01*
X161748361Y-135284588D01*
X161802503Y-135236367D01*
X161874612Y-135180881D01*
X161937108Y-135141355D01*
X161974737Y-135117659D01*
X162047955Y-135054824D01*
X162118468Y-134975606D01*
X162175786Y-134909960D01*
X162241789Y-134847477D01*
X162300013Y-134804328D01*
X162326425Y-134787209D01*
X162388053Y-134735943D01*
X162432958Y-134683722D01*
X162486052Y-134603687D01*
X162556696Y-134508978D01*
X162620106Y-134440936D01*
X162681473Y-134393499D01*
X162744566Y-134341060D01*
X162792459Y-134268784D01*
X162836394Y-134163365D01*
X162874815Y-134077444D01*
X162906324Y-134017321D01*
X162934616Y-133976866D01*
X162963384Y-133949947D01*
X162996323Y-133930435D01*
X162998632Y-133929288D01*
X163068535Y-133880354D01*
X163115028Y-133812294D01*
X163140807Y-133719164D01*
X163148570Y-133595022D01*
X163148570Y-133594930D01*
X163147717Y-133548279D01*
X163144830Y-133500911D01*
X163139058Y-133448594D01*
X163129554Y-133387094D01*
X163115467Y-133312178D01*
X163095948Y-133219614D01*
X163070149Y-133105168D01*
X163037219Y-132964608D01*
X162996309Y-132793700D01*
X162946571Y-132588212D01*
X162920895Y-132478954D01*
X162897354Y-132366274D01*
X162886105Y-132291430D01*
X162887160Y-132254285D01*
X162900529Y-132254703D01*
X162926224Y-132292549D01*
X162964255Y-132367685D01*
X162964393Y-132367977D01*
X163002631Y-132455992D01*
X163048552Y-132572369D01*
X163098616Y-132707116D01*
X163149287Y-132850242D01*
X163197029Y-132991759D01*
X163238302Y-133121675D01*
X163269571Y-133230000D01*
X163293859Y-133303303D01*
X163324124Y-133353708D01*
X163354392Y-133365390D01*
X163382903Y-133338971D01*
X163407895Y-133275071D01*
X163427607Y-133174310D01*
X163428509Y-133166773D01*
X163428808Y-133109550D01*
X163419294Y-133032544D01*
X163399173Y-132932200D01*
X163367654Y-132804964D01*
X163323942Y-132647281D01*
X163267246Y-132455597D01*
X163227896Y-132326877D01*
X163163128Y-132122071D01*
X163097758Y-131925333D01*
X163029430Y-131730344D01*
X162955789Y-131530783D01*
X162874479Y-131320331D01*
X162783146Y-131092667D01*
X162679434Y-130841471D01*
X162560988Y-130560423D01*
X162530290Y-130487428D01*
X162476119Y-130353327D01*
X162439944Y-130254785D01*
X162421757Y-130191830D01*
X162421549Y-130164491D01*
X162439315Y-130172795D01*
X162475045Y-130216772D01*
X162528733Y-130296449D01*
X162600372Y-130411855D01*
X162636607Y-130472887D01*
X162758989Y-130693765D01*
X162886404Y-130944329D01*
X163015687Y-131217509D01*
X163143673Y-131506236D01*
X163267197Y-131803439D01*
X163383095Y-132102050D01*
X163488201Y-132395000D01*
X163508486Y-132453193D01*
X163548437Y-132561460D01*
X163582169Y-132643971D01*
X163607909Y-132696545D01*
X163623884Y-132715000D01*
X163638869Y-132701556D01*
X163649522Y-132655754D01*
X163655662Y-132573838D01*
X163656543Y-132516914D01*
X163652943Y-132462360D01*
X163643076Y-132403015D01*
X163625200Y-132330640D01*
X163597575Y-132236995D01*
X163558458Y-132113838D01*
X163539529Y-132055698D01*
X163365907Y-131560255D01*
X163172019Y-131072031D01*
X162955555Y-130586336D01*
X162714208Y-130098477D01*
X162445671Y-129603762D01*
X162147636Y-129097500D01*
X161817795Y-128575000D01*
X161753403Y-128476018D01*
X161672975Y-128351892D01*
X161610979Y-128255215D01*
X161565279Y-128182388D01*
X161533741Y-128129811D01*
X161514230Y-128093883D01*
X161504611Y-128071004D01*
X161502750Y-128057573D01*
X161506512Y-128049991D01*
X161512890Y-128049553D01*
X161542609Y-128070187D01*
X161591380Y-128117042D01*
X161655799Y-128186182D01*
X161732462Y-128273673D01*
X161817966Y-128375581D01*
X161908906Y-128487972D01*
X162001879Y-128606910D01*
X162093480Y-128728462D01*
X162334091Y-129067317D01*
X162673331Y-129592709D01*
X162991886Y-130144250D01*
X163286237Y-130715376D01*
X163552866Y-131299523D01*
X163788254Y-131890127D01*
X163792219Y-131900578D01*
X163819017Y-131955005D01*
X163840524Y-131970652D01*
X163854830Y-131947628D01*
X163860024Y-131886042D01*
X163855176Y-131838887D01*
X163833894Y-131746826D01*
X163797236Y-131626248D01*
X163746907Y-131481211D01*
X163684613Y-131315771D01*
X163612057Y-131133986D01*
X163530946Y-130939912D01*
X163442983Y-130737606D01*
X163349875Y-130531125D01*
X163253325Y-130324526D01*
X163155039Y-130121867D01*
X163056722Y-129927203D01*
X162960078Y-129744593D01*
X162787968Y-129436111D01*
X162552944Y-129040945D01*
X162307964Y-128659241D01*
X162049466Y-128286273D01*
X161773890Y-127917316D01*
X161477673Y-127547645D01*
X161157254Y-127172534D01*
X160809071Y-126787257D01*
X160429562Y-126387088D01*
X160344316Y-126298791D01*
X160239366Y-126189221D01*
X160146279Y-126091061D01*
X160068276Y-126007753D01*
X160008574Y-125942741D01*
X159970393Y-125899471D01*
X159956951Y-125881385D01*
X159958237Y-125875917D01*
X159972454Y-125874661D01*
X160004850Y-125891325D01*
X160058487Y-125927929D01*
X160136428Y-125986489D01*
X160241734Y-126069024D01*
X160343530Y-126151503D01*
X160588311Y-126362243D01*
X160844481Y-126598553D01*
X161105816Y-126854248D01*
X161366094Y-127123145D01*
X161619091Y-127399057D01*
X161858583Y-127675802D01*
X161986091Y-127830753D01*
X162240104Y-128156177D01*
X162490398Y-128498287D01*
X162733656Y-128851723D01*
X162966562Y-129211124D01*
X163185799Y-129571130D01*
X163388049Y-129926381D01*
X163569998Y-130271516D01*
X163728328Y-130601176D01*
X163859722Y-130910000D01*
X163892557Y-130989656D01*
X163924586Y-131059908D01*
X163949889Y-131107492D01*
X163964844Y-131125000D01*
X163973574Y-131112694D01*
X163977095Y-131063857D01*
X163972274Y-130980000D01*
X163970567Y-130961706D01*
X163966005Y-130922998D01*
X163959150Y-130885216D01*
X163948362Y-130844730D01*
X163931998Y-130797913D01*
X163908415Y-130741135D01*
X163875972Y-130670768D01*
X163833026Y-130583184D01*
X163777935Y-130474754D01*
X163709057Y-130341849D01*
X163624750Y-130180841D01*
X163523371Y-129988101D01*
X163440608Y-129831954D01*
X163240254Y-129463783D01*
X163047754Y-129125497D01*
X162859426Y-128811411D01*
X162671593Y-128515840D01*
X162480575Y-128233098D01*
X162282692Y-127957501D01*
X162074265Y-127683363D01*
X161851614Y-127405000D01*
X161802375Y-127345151D01*
X161315358Y-126787400D01*
X160794434Y-126250158D01*
X160240569Y-125734377D01*
X159654733Y-125241012D01*
X159390526Y-125036520D01*
X159065964Y-124800746D01*
X158710217Y-124556659D01*
X158326821Y-124306619D01*
X157919313Y-124052983D01*
X157491229Y-123798110D01*
X157469268Y-123785245D01*
X157376122Y-123728533D01*
X157313017Y-123686075D01*
X157281296Y-123658974D01*
X157282299Y-123648331D01*
X157317368Y-123655249D01*
X157340950Y-123663247D01*
X157416013Y-123693230D01*
X157516366Y-123737274D01*
X157635077Y-123792087D01*
X157765220Y-123854377D01*
X157899864Y-123920853D01*
X158032082Y-123988221D01*
X158154943Y-124053191D01*
X158189665Y-124072038D01*
X158820677Y-124438474D01*
X159431812Y-124839282D01*
X160022016Y-125273552D01*
X160590237Y-125740375D01*
X161135424Y-126238841D01*
X161656522Y-126768041D01*
X162152481Y-127327063D01*
X162622248Y-127915000D01*
X162858560Y-128243079D01*
X163126970Y-128656272D01*
X163384305Y-129096437D01*
X163626549Y-129556653D01*
X163849683Y-130030000D01*
X163887294Y-130111889D01*
X163921472Y-130181038D01*
X163947395Y-130227809D01*
X163961324Y-130245000D01*
X163965584Y-130244720D01*
X163983262Y-130232653D01*
X163991256Y-130200585D01*
X163989116Y-130145509D01*
X163976392Y-130064419D01*
X163952637Y-129954308D01*
X163917401Y-129812170D01*
X163870235Y-129635000D01*
X163860724Y-129599958D01*
X163815547Y-129429302D01*
X163781669Y-129292750D01*
X163758335Y-129186924D01*
X163744790Y-129108443D01*
X163740277Y-129053929D01*
X163740274Y-129053497D01*
X163728825Y-128969388D01*
X163696435Y-128854908D01*
X163644457Y-128712884D01*
X163574246Y-128546144D01*
X163487153Y-128357514D01*
X163384532Y-128149824D01*
X163267737Y-127925899D01*
X163138120Y-127688569D01*
X162997035Y-127440660D01*
X162845835Y-127185000D01*
X162834143Y-127165480D01*
X162764245Y-127044950D01*
X162692117Y-126915103D01*
X162625619Y-126790325D01*
X162572610Y-126685000D01*
X162546269Y-126632068D01*
X162465788Y-126484272D01*
X162369398Y-126321982D01*
X162264245Y-126156586D01*
X162157472Y-125999469D01*
X162056224Y-125862017D01*
X162006467Y-125799522D01*
X161917508Y-125692065D01*
X161809642Y-125565271D01*
X161687852Y-125424788D01*
X161557118Y-125276266D01*
X161422424Y-125125353D01*
X161288752Y-124977699D01*
X161161083Y-124838952D01*
X161044400Y-124714761D01*
X160999117Y-124666997D01*
X160903672Y-124565004D01*
X160815524Y-124469118D01*
X160739804Y-124385005D01*
X160681638Y-124318330D01*
X160646156Y-124274761D01*
X160636651Y-124262253D01*
X160568716Y-124180880D01*
X160477604Y-124081105D01*
X160369579Y-123969169D01*
X160250902Y-123851316D01*
X160127837Y-123733787D01*
X160006646Y-123622824D01*
X159893591Y-123524668D01*
X159879774Y-123513112D01*
X159643416Y-123324054D01*
X159374851Y-123123751D01*
X159078830Y-122915386D01*
X158760103Y-122702142D01*
X158423420Y-122487203D01*
X158073531Y-122273750D01*
X157715185Y-122064966D01*
X157655751Y-122030892D01*
X157551987Y-121970235D01*
X157457746Y-121913757D01*
X157381501Y-121866569D01*
X157331730Y-121833779D01*
X157235548Y-121771022D01*
X157087902Y-121686654D01*
X156911298Y-121595436D01*
X156710963Y-121499634D01*
X156492127Y-121401511D01*
X156260017Y-121303332D01*
X156019862Y-121207361D01*
X155776890Y-121115863D01*
X155536330Y-121031101D01*
X155303410Y-120955340D01*
X154942819Y-120850386D01*
X154538330Y-120746238D01*
X154123284Y-120651994D01*
X153712732Y-120571061D01*
X153321726Y-120506845D01*
X153126139Y-120479646D01*
X152358604Y-120396976D01*
X151592922Y-120352661D01*
X150830682Y-120346563D01*
X150073477Y-120378542D01*
X149322898Y-120448463D01*
X148580536Y-120556186D01*
X147847983Y-120701574D01*
X147126830Y-120884490D01*
X146418669Y-121104794D01*
X146370002Y-121121515D01*
X146013950Y-121251916D01*
X145663509Y-121394016D01*
X145324367Y-121545057D01*
X145002212Y-121702280D01*
X144702731Y-121862928D01*
X144431611Y-122024242D01*
X144194539Y-122183464D01*
X144193907Y-122183920D01*
X144125346Y-122231892D01*
X144031574Y-122295517D01*
X143921107Y-122369122D01*
X143802456Y-122447032D01*
X143684137Y-122523575D01*
X143423660Y-122695153D01*
X143142389Y-122889157D01*
X142856963Y-123094090D01*
X142575302Y-123304048D01*
X142305323Y-123513123D01*
X142054946Y-123715409D01*
X141832090Y-123905000D01*
X141753623Y-123975998D01*
X141624808Y-124099782D01*
X141491322Y-124235462D01*
X141360192Y-124375470D01*
X141238447Y-124512239D01*
X141133115Y-124638201D01*
X141051225Y-124745788D01*
X141042779Y-124757592D01*
X140984862Y-124834591D01*
X140910676Y-124928642D01*
X140828875Y-125028929D01*
X140748112Y-125124636D01*
X140516982Y-125397539D01*
X140245181Y-125730012D01*
X139985909Y-126059649D01*
X139748272Y-126375057D01*
X139721670Y-126411916D01*
X139635983Y-126538310D01*
X139547815Y-126678393D01*
X139461482Y-126824474D01*
X139381297Y-126968864D01*
X139311576Y-127103875D01*
X139256635Y-127221816D01*
X139220789Y-127315000D01*
X139217579Y-127324062D01*
X139195879Y-127374926D01*
X139159656Y-127452634D01*
X139112085Y-127550613D01*
X139056341Y-127662294D01*
X138995599Y-127781103D01*
X138971141Y-127828656D01*
X138916128Y-127937901D01*
X138869887Y-128032949D01*
X138834901Y-128108508D01*
X138813650Y-128159283D01*
X138808615Y-128179983D01*
X138255741Y-128179983D01*
X138572759Y-127505000D01*
X138629886Y-127392429D01*
X138982297Y-126749453D01*
X139368749Y-126126183D01*
X139787785Y-125524077D01*
X140237949Y-124944588D01*
X140717783Y-124389174D01*
X141225830Y-123859290D01*
X141760634Y-123356392D01*
X142320737Y-122881936D01*
X142904683Y-122437378D01*
X143511014Y-122024172D01*
X144138273Y-121643777D01*
X144785004Y-121297646D01*
X145169535Y-121112059D01*
X145852602Y-120816211D01*
X146545228Y-120559009D01*
X147248189Y-120340245D01*
X147962262Y-120159710D01*
X148688222Y-120017194D01*
X149426846Y-119912490D01*
X150178910Y-119845387D01*
X150232943Y-119842265D01*
X150396261Y-119835471D01*
X150587742Y-119830462D01*
X150798865Y-119827239D01*
X151021111Y-119825800D01*
X151245963Y-119826147D01*
X151464899Y-119828279D01*
X151669401Y-119832197D01*
X151850951Y-119837899D01*
X152001027Y-119845387D01*
X152430463Y-119878953D01*
X153174788Y-119967417D01*
X153906114Y-120093601D01*
X154625218Y-120257715D01*
X155332875Y-120459967D01*
X156029863Y-120700567D01*
X156716957Y-120979724D01*
X157394933Y-121297646D01*
X157507593Y-121354728D01*
X158151075Y-121706861D01*
X158774836Y-122093009D01*
X159377417Y-122511715D01*
X159957362Y-122961524D01*
X160513214Y-123440981D01*
X161043515Y-123948628D01*
X161546810Y-124483011D01*
X162021640Y-125042673D01*
X162466549Y-125626159D01*
X162880079Y-126232012D01*
X163260775Y-126858778D01*
X163607178Y-127505000D01*
X163792911Y-127889228D01*
X164088993Y-128571757D01*
X164346397Y-129263838D01*
X164565333Y-129966245D01*
X164624674Y-130200585D01*
X164746011Y-130679755D01*
G37*
G36*
X151334251Y-121335560D02*
G01*
X151595507Y-121337152D01*
X151827506Y-121340561D01*
X152036964Y-121346233D01*
X152230598Y-121354615D01*
X152415122Y-121366154D01*
X152597254Y-121381299D01*
X152783709Y-121400495D01*
X152981204Y-121424191D01*
X153196453Y-121452834D01*
X153436174Y-121486870D01*
X153606308Y-121512854D01*
X154147223Y-121611406D01*
X154703117Y-121735370D01*
X155265020Y-121882122D01*
X155823960Y-122049038D01*
X156370966Y-122233493D01*
X156897069Y-122432862D01*
X157393298Y-122644522D01*
X157960844Y-122914108D01*
X158498374Y-123195563D01*
X159006545Y-123490332D01*
X159490452Y-123801873D01*
X159955190Y-124133641D01*
X160405856Y-124489093D01*
X160847544Y-124871687D01*
X161285350Y-125284878D01*
X161413952Y-125412016D01*
X161586762Y-125586573D01*
X161737000Y-125743782D01*
X161869391Y-125888868D01*
X161988658Y-126027051D01*
X162099524Y-126163555D01*
X162206714Y-126303603D01*
X162214249Y-126313733D01*
X162297176Y-126427571D01*
X162356538Y-126514582D01*
X162394421Y-126578239D01*
X162412909Y-126622020D01*
X162414085Y-126649399D01*
X162413593Y-126650437D01*
X162400988Y-126649573D01*
X162371775Y-126630651D01*
X162324007Y-126591963D01*
X162255740Y-126531800D01*
X162165028Y-126448453D01*
X162049926Y-126340215D01*
X161908487Y-126205375D01*
X161885434Y-126183432D01*
X161797687Y-126101384D01*
X161687029Y-125999515D01*
X161558897Y-125882707D01*
X161418726Y-125755842D01*
X161271955Y-125623801D01*
X161124019Y-125491467D01*
X160980356Y-125363720D01*
X160846402Y-125245443D01*
X160727594Y-125141518D01*
X160629368Y-125056826D01*
X160055179Y-124591386D01*
X159438227Y-124141306D01*
X158800597Y-123724994D01*
X158143528Y-123343046D01*
X157468256Y-122996054D01*
X156776018Y-122684613D01*
X156068051Y-122409318D01*
X155345593Y-122170762D01*
X154609881Y-121969540D01*
X153862151Y-121806246D01*
X153837696Y-121801612D01*
X153691327Y-121775284D01*
X153525749Y-121747421D01*
X153350721Y-121719509D01*
X153176000Y-121693035D01*
X153011347Y-121669484D01*
X152866519Y-121650343D01*
X152751277Y-121637096D01*
X152670550Y-121629068D01*
X152292003Y-121594963D01*
X151941330Y-121570022D01*
X151609360Y-121554012D01*
X151286922Y-121546702D01*
X150964843Y-121547859D01*
X150633952Y-121557252D01*
X150285078Y-121574647D01*
X150184001Y-121580765D01*
X150052563Y-121589183D01*
X149936847Y-121597121D01*
X149842916Y-121604143D01*
X149776830Y-121609811D01*
X149744652Y-121613686D01*
X149709436Y-121619369D01*
X149644291Y-121627203D01*
X149568771Y-121634467D01*
X149501420Y-121640652D01*
X149302399Y-121663355D01*
X149075914Y-121694534D01*
X148830079Y-121732882D01*
X148573003Y-121777092D01*
X148312800Y-121825857D01*
X148057581Y-121877872D01*
X147657482Y-121969447D01*
X146954948Y-122161254D01*
X146258264Y-122390595D01*
X145570577Y-122655938D01*
X144895032Y-122955753D01*
X144234776Y-123288509D01*
X143592953Y-123652675D01*
X142972711Y-124046720D01*
X142377195Y-124469113D01*
X141809551Y-124918324D01*
X141791203Y-124933676D01*
X141683515Y-125024339D01*
X141583707Y-125109625D01*
X141488517Y-125192622D01*
X141394683Y-125276419D01*
X141298945Y-125364102D01*
X141198041Y-125458761D01*
X141088708Y-125563483D01*
X140967686Y-125681355D01*
X140831713Y-125815466D01*
X140677528Y-125968904D01*
X140501869Y-126144756D01*
X140301474Y-126346110D01*
X140265996Y-126381791D01*
X140111596Y-126536816D01*
X139965966Y-126682627D01*
X139831532Y-126816824D01*
X139710717Y-126937003D01*
X139605945Y-127040764D01*
X139519639Y-127125704D01*
X139454224Y-127189421D01*
X139412123Y-127229514D01*
X139395761Y-127243582D01*
X139386823Y-127242092D01*
X139382232Y-127218184D01*
X139400343Y-127168005D01*
X139439003Y-127094650D01*
X139496058Y-127001215D01*
X139569354Y-126890797D01*
X139656737Y-126766491D01*
X139756054Y-126631393D01*
X139865151Y-126488598D01*
X139981874Y-126341204D01*
X140104069Y-126192306D01*
X140229583Y-126045000D01*
X140251329Y-126020204D01*
X140358559Y-125902293D01*
X140488264Y-125765114D01*
X140634466Y-125614590D01*
X140791191Y-125456642D01*
X140952460Y-125297194D01*
X141112299Y-125142166D01*
X141264731Y-124997482D01*
X141403779Y-124869063D01*
X141523467Y-124762832D01*
X141741338Y-124578677D01*
X142088663Y-124301231D01*
X142441525Y-124039958D01*
X142806710Y-123790288D01*
X143191005Y-123547650D01*
X143601197Y-123307472D01*
X144044071Y-123065185D01*
X144494711Y-122837041D01*
X145105992Y-122559226D01*
X145738575Y-122305372D01*
X146386096Y-122077529D01*
X147042194Y-121877752D01*
X147700506Y-121708090D01*
X148354670Y-121570598D01*
X148998322Y-121467326D01*
X149031568Y-121462868D01*
X149250478Y-121434088D01*
X149444972Y-121409926D01*
X149621496Y-121389987D01*
X149786493Y-121373878D01*
X149946407Y-121361205D01*
X150107683Y-121351575D01*
X150276764Y-121344594D01*
X150460094Y-121339869D01*
X150664119Y-121337005D01*
X150895280Y-121335610D01*
X151160024Y-121335290D01*
X151334251Y-121335560D01*
G37*
G36*
X151302875Y-120866626D02*
G01*
X152085177Y-120892757D01*
X152853117Y-120956065D01*
X153607516Y-121056741D01*
X154349190Y-121194979D01*
X155078958Y-121370970D01*
X155797637Y-121584908D01*
X156506047Y-121836984D01*
X157205004Y-122127393D01*
X157895327Y-122456325D01*
X158128589Y-122577763D01*
X158449978Y-122754863D01*
X158765574Y-122939710D01*
X159070816Y-123129276D01*
X159361148Y-123320534D01*
X159632011Y-123510454D01*
X159878847Y-123696010D01*
X160097099Y-123874174D01*
X160282207Y-124041917D01*
X160344006Y-124102621D01*
X160399678Y-124160945D01*
X160429402Y-124198657D01*
X160435591Y-124218945D01*
X160420656Y-124225000D01*
X160406398Y-124218699D01*
X160362610Y-124194034D01*
X160295604Y-124153994D01*
X160211249Y-124102101D01*
X160115415Y-124041878D01*
X160037815Y-123992752D01*
X159813006Y-123852017D01*
X159599619Y-123721193D01*
X159390877Y-123596372D01*
X159180001Y-123473645D01*
X158960215Y-123349104D01*
X158724741Y-123218839D01*
X158466800Y-123078942D01*
X158179615Y-122925504D01*
X157840221Y-122750706D01*
X157139097Y-122423028D01*
X156423023Y-122132225D01*
X155693222Y-121878669D01*
X154950917Y-121662733D01*
X154197331Y-121484789D01*
X153433686Y-121345210D01*
X152661206Y-121244368D01*
X152650604Y-121243270D01*
X152496304Y-121229233D01*
X152312544Y-121215414D01*
X152109121Y-121202322D01*
X151895833Y-121190465D01*
X151682480Y-121180350D01*
X151478859Y-121172484D01*
X151294769Y-121167377D01*
X151140008Y-121165535D01*
X151099639Y-121165688D01*
X150943712Y-121168389D01*
X150760356Y-121174086D01*
X150559118Y-121182286D01*
X150349544Y-121192501D01*
X150141180Y-121204238D01*
X149943573Y-121217009D01*
X149766267Y-121230322D01*
X149618810Y-121243688D01*
X149197937Y-121292937D01*
X148445251Y-121411870D01*
X147695848Y-121569693D01*
X146952551Y-121765704D01*
X146218182Y-121999201D01*
X145495564Y-122269482D01*
X145347077Y-122330613D01*
X144962676Y-122499606D01*
X144563732Y-122689156D01*
X144160443Y-122894149D01*
X143763004Y-123109470D01*
X143381611Y-123330004D01*
X143259362Y-123403357D01*
X142982271Y-123571309D01*
X142732209Y-123725648D01*
X142503326Y-123870147D01*
X142289770Y-124008575D01*
X142085691Y-124144705D01*
X141885238Y-124282308D01*
X141682561Y-124425154D01*
X141626153Y-124465313D01*
X141530785Y-124532917D01*
X141444969Y-124593399D01*
X141376367Y-124641367D01*
X141332643Y-124671429D01*
X141301945Y-124691561D01*
X141254048Y-124718389D01*
X141229263Y-124722182D01*
X141222199Y-124704555D01*
X141222493Y-124702706D01*
X141240518Y-124675508D01*
X141283177Y-124626856D01*
X141345840Y-124561246D01*
X141423880Y-124483171D01*
X141512668Y-124397127D01*
X141607574Y-124307608D01*
X141703971Y-124219110D01*
X141797228Y-124136126D01*
X141882719Y-124063153D01*
X142209780Y-123801977D01*
X142714591Y-123434265D01*
X143249282Y-123083486D01*
X143809061Y-122752156D01*
X144389138Y-122442786D01*
X144984721Y-122157889D01*
X145591020Y-121899979D01*
X146203245Y-121671568D01*
X146816604Y-121475170D01*
X146979289Y-121428789D01*
X147338664Y-121334394D01*
X147715215Y-121245314D01*
X148098206Y-121163769D01*
X148476902Y-121091980D01*
X148840566Y-121032169D01*
X149178464Y-120986557D01*
X149187193Y-120985531D01*
X149300959Y-120972100D01*
X149426028Y-120957258D01*
X149536868Y-120944033D01*
X149562063Y-120941076D01*
X149776799Y-120919792D01*
X150022017Y-120901461D01*
X150289331Y-120886492D01*
X150570357Y-120875293D01*
X150856711Y-120868274D01*
X151140008Y-120865843D01*
X151302875Y-120866626D01*
G37*
G36*
X151402896Y-120518705D02*
G01*
X151600958Y-120520846D01*
X151784040Y-120524178D01*
X151945885Y-120528704D01*
X152080234Y-120534426D01*
X152180828Y-120541349D01*
X152289405Y-120551347D01*
X152398681Y-120561397D01*
X152493487Y-120570102D01*
X152561127Y-120576297D01*
X152942921Y-120617243D01*
X153443595Y-120688046D01*
X153949180Y-120777750D01*
X154452341Y-120884639D01*
X154945744Y-121006996D01*
X155422056Y-121143107D01*
X155873941Y-121291254D01*
X156294066Y-121449723D01*
X156359485Y-121476441D01*
X156530648Y-121548275D01*
X156673338Y-121611217D01*
X156786027Y-121664480D01*
X156867187Y-121707277D01*
X156915290Y-121738820D01*
X156928808Y-121758324D01*
X156906213Y-121765000D01*
X156895293Y-121763372D01*
X156849255Y-121752040D01*
X156776387Y-121731682D01*
X156684092Y-121704400D01*
X156579776Y-121672298D01*
X156399073Y-121616106D01*
X155999947Y-121495809D01*
X155627232Y-121389565D01*
X155273830Y-121295785D01*
X154932645Y-121212875D01*
X154596581Y-121139245D01*
X154258541Y-121073304D01*
X153911428Y-121013458D01*
X153548147Y-120958118D01*
X153161600Y-120905691D01*
X152942760Y-120879258D01*
X152198747Y-120814047D01*
X151442474Y-120784887D01*
X150677496Y-120791607D01*
X149907365Y-120834035D01*
X149135637Y-120911999D01*
X148365864Y-121025328D01*
X147601602Y-121173851D01*
X147311755Y-121239118D01*
X147005274Y-121313244D01*
X146709282Y-121390945D01*
X146416025Y-121474529D01*
X146117748Y-121566303D01*
X145806699Y-121668577D01*
X145475122Y-121783656D01*
X145115264Y-121913850D01*
X145022069Y-121947910D01*
X144900725Y-121991554D01*
X144794817Y-122028835D01*
X144709863Y-122057846D01*
X144651378Y-122076680D01*
X144624878Y-122083428D01*
X144611377Y-122080075D01*
X144620758Y-122062234D01*
X144664448Y-122029814D01*
X144741035Y-121983706D01*
X144849111Y-121924804D01*
X144987264Y-121854001D01*
X145297934Y-121705763D01*
X145785053Y-121498774D01*
X146300607Y-121307547D01*
X146839022Y-121133601D01*
X147394721Y-120978454D01*
X147962130Y-120843624D01*
X148535672Y-120730630D01*
X149109773Y-120640991D01*
X149678858Y-120576224D01*
X149683005Y-120575844D01*
X149744653Y-120570188D01*
X149833758Y-120562016D01*
X149939022Y-120552364D01*
X150049149Y-120542266D01*
X150122778Y-120536854D01*
X150250451Y-120530731D01*
X150406956Y-120525779D01*
X150586033Y-120522003D01*
X150781424Y-120519405D01*
X150986871Y-120517988D01*
X151196115Y-120517753D01*
X151402896Y-120518705D01*
G37*
D14*
X95765000Y-84020000D02*
X95285000Y-84020000D01*
X95525000Y-83690000D01*
X95765000Y-84020000D01*
G36*
X95765000Y-84020000D02*
G01*
X95285000Y-84020000D01*
X95525000Y-83690000D01*
X95765000Y-84020000D01*
G37*
X100625000Y-78670000D02*
X98425000Y-78670000D01*
X96225000Y-78670000D02*
X98425000Y-78670000D01*
X100625000Y-83890000D02*
X98425000Y-83890000D01*
X96225000Y-83890000D02*
X98425000Y-83890000D01*
X88990000Y-78370000D02*
X88990000Y-79110000D01*
X86270000Y-78370000D02*
X86270000Y-79110000D01*
X88130000Y-78593733D02*
X88130000Y-78886267D01*
X87110000Y-78593733D02*
X87110000Y-78886267D01*
D12*
X87680000Y-78740000D02*
G75*
G02*
X87580000Y-78740000I-50000J0D01*
G01*
X87580000Y-78740000D02*
G75*
G02*
X87680000Y-78740000I50000J0D01*
G01*
X91490000Y-78740000D02*
G75*
G02*
X91390000Y-78740000I-50000J0D01*
G01*
X91390000Y-78740000D02*
G75*
G02*
X91490000Y-78740000I50000J0D01*
G01*
D14*
X90920000Y-78593733D02*
X90920000Y-78886267D01*
X91940000Y-78593733D02*
X91940000Y-78886267D01*
X90080000Y-78370000D02*
X90080000Y-79110000D01*
X92800000Y-78370000D02*
X92800000Y-79110000D01*
%LPC*%
D15*
X76200000Y-107950000D03*
D16*
X76200000Y-110490000D03*
X76200000Y-113030000D03*
X76200000Y-115570000D03*
D15*
X76200000Y-69850000D03*
D16*
X76200000Y-72390000D03*
X76200000Y-74930000D03*
X76200000Y-77470000D03*
D17*
X166660000Y-145070000D03*
X80660000Y-145070000D03*
X166660000Y-59070000D03*
X80660000Y-59070000D03*
D15*
X114935000Y-116840000D03*
D16*
X117475000Y-116840000D03*
D15*
X99695000Y-116840000D03*
D16*
X102235000Y-116840000D03*
X104775000Y-116840000D03*
X107315000Y-116840000D03*
D15*
X89535000Y-116840000D03*
D16*
X92075000Y-116840000D03*
X94615000Y-116840000D03*
D15*
X114935000Y-91440000D03*
D16*
X117475000Y-91440000D03*
D15*
X99695000Y-91440000D03*
D16*
X102235000Y-91440000D03*
X104775000Y-91440000D03*
X107315000Y-91440000D03*
D15*
X89535000Y-91440000D03*
D16*
X92075000Y-91440000D03*
X94615000Y-91440000D03*
D15*
X114935000Y-66040000D03*
D16*
X117475000Y-66040000D03*
D15*
X99695000Y-66040000D03*
D16*
X102235000Y-66040000D03*
X104775000Y-66040000D03*
X107315000Y-66040000D03*
D15*
X89535000Y-66040000D03*
D16*
X92075000Y-66040000D03*
X94615000Y-66040000D03*
D18*
X101687500Y-83230000D03*
X101687500Y-82580000D03*
X101687500Y-81930000D03*
X101687500Y-81280000D03*
X101687500Y-80630000D03*
X101687500Y-79980000D03*
X101687500Y-79330000D03*
X95162500Y-79330000D03*
X95162500Y-79980000D03*
X95162500Y-80630000D03*
X95162500Y-81280000D03*
X95162500Y-81930000D03*
X95162500Y-82580000D03*
X95162500Y-83230000D03*
D19*
X165170000Y-103175000D03*
X165170000Y-78175000D03*
D20*
X162560000Y-86360000D03*
D21*
X162560000Y-88650000D03*
X162560000Y-90940000D03*
X162560000Y-93230000D03*
X162560000Y-95520000D03*
X165100000Y-85215000D03*
X165100000Y-87505000D03*
X165100000Y-89795000D03*
X165100000Y-92085000D03*
X165100000Y-94375000D03*
X167640000Y-86360000D03*
X167640000Y-88650000D03*
X167640000Y-90940000D03*
X167640000Y-93230000D03*
X167640000Y-95520000D03*
D15*
X97155000Y-116840000D03*
X97155000Y-91440000D03*
X97155000Y-66040000D03*
D22*
X132415000Y-123785000D03*
X127415000Y-121285000D03*
D23*
X132415000Y-118785000D03*
D22*
X108885000Y-120690000D03*
X113885000Y-123190000D03*
D23*
X108885000Y-125690000D03*
X132415000Y-93385000D03*
D22*
X127415000Y-95885000D03*
X132415000Y-98385000D03*
X108885000Y-95290000D03*
X113885000Y-97790000D03*
D23*
X108885000Y-100290000D03*
X132415000Y-67985000D03*
D22*
X127415000Y-70485000D03*
X132415000Y-72985000D03*
D23*
X108885000Y-74890000D03*
D22*
X113885000Y-72390000D03*
X108885000Y-69890000D03*
D16*
X144150000Y-116205000D03*
D15*
X146690000Y-116205000D03*
D16*
X144065000Y-111125000D03*
D15*
X146605000Y-111125000D03*
D16*
X122555000Y-116840000D03*
D15*
X120015000Y-116840000D03*
D16*
X109855000Y-116840000D03*
D15*
X112395000Y-116840000D03*
D16*
X122555000Y-114300000D03*
D15*
X120015000Y-114300000D03*
D16*
X117475000Y-114300000D03*
D15*
X114935000Y-114300000D03*
D16*
X112395000Y-114300000D03*
D15*
X109855000Y-114300000D03*
D16*
X107315000Y-114300000D03*
D15*
X104775000Y-114300000D03*
D16*
X146610000Y-113665000D03*
D15*
X144070000Y-113665000D03*
D16*
X92075000Y-114300000D03*
D15*
X89535000Y-114300000D03*
D16*
X102235000Y-114300000D03*
D15*
X99695000Y-114300000D03*
D16*
X94615000Y-114300000D03*
D15*
X97155000Y-114300000D03*
X146685000Y-90805000D03*
D16*
X144145000Y-90805000D03*
D15*
X146605000Y-85725000D03*
D16*
X144065000Y-85725000D03*
X122555000Y-91440000D03*
D15*
X120015000Y-91440000D03*
D16*
X109855000Y-91440000D03*
D15*
X112395000Y-91440000D03*
D16*
X122555000Y-88900000D03*
D15*
X120015000Y-88900000D03*
D16*
X117475000Y-88900000D03*
D15*
X114935000Y-88900000D03*
D16*
X112395000Y-88900000D03*
D15*
X109855000Y-88900000D03*
X104775000Y-88900000D03*
D16*
X107315000Y-88900000D03*
X146610000Y-88265000D03*
D15*
X144070000Y-88265000D03*
D16*
X92075000Y-88900000D03*
D15*
X89535000Y-88900000D03*
D16*
X102235000Y-88900000D03*
D15*
X99695000Y-88900000D03*
D16*
X94615000Y-88900000D03*
D15*
X97155000Y-88900000D03*
X146685000Y-65405000D03*
D16*
X144145000Y-65405000D03*
D15*
X146685000Y-60325000D03*
D16*
X144145000Y-60325000D03*
D15*
X120015000Y-66040000D03*
D16*
X122555000Y-66040000D03*
X109855000Y-66040000D03*
D15*
X112395000Y-66040000D03*
D16*
X122555000Y-63500000D03*
D15*
X120015000Y-63500000D03*
D16*
X117475000Y-63500000D03*
D15*
X114935000Y-63500000D03*
D16*
X112395000Y-63500000D03*
D15*
X109855000Y-63500000D03*
D16*
X107315000Y-63500000D03*
D15*
X104775000Y-63500000D03*
D16*
X146685000Y-62865000D03*
D15*
X144145000Y-62865000D03*
X89535000Y-63500000D03*
D16*
X92075000Y-63500000D03*
X102235000Y-63500000D03*
D15*
X99695000Y-63500000D03*
D16*
X94615000Y-63500000D03*
D15*
X97155000Y-63500000D03*
X157480000Y-82550000D03*
D16*
X157480000Y-85090000D03*
X157480000Y-87630000D03*
X157480000Y-90170000D03*
X157480000Y-92710000D03*
X157480000Y-95250000D03*
X157480000Y-97790000D03*
D15*
X154940000Y-82550000D03*
D16*
X154940000Y-85090000D03*
X154940000Y-87630000D03*
X154940000Y-90170000D03*
X154940000Y-92710000D03*
X154940000Y-95250000D03*
X154940000Y-97790000D03*
D15*
X81280000Y-85090000D03*
D16*
X81280000Y-87630000D03*
X81280000Y-90170000D03*
X81280000Y-92710000D03*
X81280000Y-95250000D03*
X81280000Y-97790000D03*
X81280000Y-100330000D03*
D15*
X78740000Y-85090000D03*
D16*
X78740000Y-87630000D03*
X78740000Y-90170000D03*
X78740000Y-92710000D03*
X78740000Y-95250000D03*
X78740000Y-97790000D03*
X78740000Y-100330000D03*
D15*
X76200000Y-85090000D03*
D16*
X76200000Y-87630000D03*
X76200000Y-90170000D03*
X76200000Y-92710000D03*
X76200000Y-95250000D03*
X76200000Y-97790000D03*
X76200000Y-100330000D03*
D21*
X131775000Y-109071740D03*
X130175000Y-109742677D03*
D20*
X130175000Y-112242677D03*
X128575000Y-112913614D03*
D21*
X131775000Y-83671740D03*
X130175000Y-84342677D03*
D20*
X130175000Y-86842677D03*
X128575000Y-87513614D03*
D21*
X131775000Y-58271740D03*
X130175000Y-58942677D03*
D20*
X130175000Y-61442677D03*
X128575000Y-62113614D03*
D24*
X87630000Y-80090000D03*
X87630000Y-77390000D03*
X91440000Y-77390000D03*
X91440000Y-80090000D03*
%LPD*%
M02*
